<svg width="183" height="183" viewBox="0 0 183 183" fill="none" xmlns="http://www.w3.org/2000/svg">
<g clip-path="url(#clip0_908_17122)">
<path d="M39.3 75.1486H32.9V83.8286H32V62.5586H39.3V63.4586H32.9V74.2586H39.3V75.1586V75.1486Z" fill="white"/>
<path d="M58.2803 83.83H57.3303L54.2203 75.74H45.3803L42.2703 83.83H41.3203L49.8003 62L58.2803 83.83ZM53.8603 74.87L49.8003 64.38L45.7403 74.88H53.8603V74.87Z" fill="white"/>
<path d="M71.5694 62.5586L63.0894 84.3886L54.6094 62.5586H55.5594L63.0894 82.0086L70.6194 62.5586H71.5694Z" fill="white"/>
<path d="M89.31 80.8612C87.16 83.0112 84.61 84.1112 81.67 84.1112C78.73 84.1112 76.18 83.0212 74 80.8612C71.85 78.6812 70.75 76.1313 70.75 73.1912C70.75 70.2512 71.84 67.7013 74 65.5512C76.18 63.3712 78.73 62.2812 81.67 62.2812C84.61 62.2812 87.16 63.3712 89.31 65.5512C91.49 67.7013 92.58 70.2512 92.58 73.1912C92.58 76.1313 91.49 78.6812 89.31 80.8612ZM88.69 66.1713C86.7 64.1813 84.35 63.1812 81.67 63.1812C78.99 63.1812 76.63 64.1913 74.65 66.1713C72.66 68.1613 71.66 70.5112 71.66 73.2013C71.66 75.8913 72.67 78.2412 74.65 80.2212C76.64 82.2112 78.99 83.2112 81.67 83.2112C84.35 83.2112 86.71 82.2012 88.69 80.2212C90.67 78.2412 91.68 75.8813 91.68 73.2013C91.68 70.5212 90.67 68.1613 88.69 66.1713Z" fill="white"/>
<path d="M108.031 77.3586C108.031 79.2086 107.361 80.7986 106.041 82.1186C104.721 83.4386 103.161 84.1086 101.281 84.1086C99.4012 84.1086 97.8412 83.4386 96.5212 82.1186C95.2012 80.7986 94.5312 79.2086 94.5312 77.3586V62.5586H95.4013V77.3586C95.4013 78.9586 95.9913 80.3486 97.1413 81.4986C98.2913 82.6486 99.6912 83.2086 101.281 83.2086C102.871 83.2086 104.271 82.6486 105.421 81.4986C106.571 80.3486 107.161 78.9486 107.161 77.3586V62.5586H108.031V77.3586Z" fill="white"/>
<path d="M121.548 83.8286H120.288L111.728 75.3486V83.8286H110.828V62.5586H114.858C116.598 62.5586 118.078 63.1786 119.308 64.4386C120.568 65.6686 121.188 67.1486 121.188 68.8886C121.188 70.6286 120.568 72.1086 119.308 73.3686C118.078 74.5986 116.598 75.2186 114.858 75.2186H112.838L121.538 83.8386L121.548 83.8286ZM118.698 65.0486C117.638 63.9886 116.348 63.4486 114.868 63.4486H111.738V74.3086H114.868C116.348 74.3086 117.638 73.7786 118.698 72.7086C119.758 71.6486 120.298 70.3586 120.298 68.8786C120.298 67.3986 119.768 66.1086 118.698 65.0486Z" fill="white"/>
<path d="M124.259 83.8286H123.359V62.5586H124.259V83.8286Z" fill="white"/>
<path d="M139.85 63.4586H133.5V83.8286H132.6V63.4586H126.25V62.5586H139.85V63.4586Z" fill="white"/>
<path d="M151.662 83.8286H141.672V62.5586H151.662V63.4586H142.562V74.2586H151.662V75.1586H142.562V82.9386H151.662V83.8386V83.8286Z" fill="white"/>
<path d="M65.3162 119.7H53.4062V88.3301H65.3162V89.6501H54.7262V105.58H63.7763V106.9H54.7262V118.38H65.3162V119.7Z" fill="white"/>
<path d="M83.8309 117.52C82.1009 119.25 79.9909 120.12 77.5609 120.12C74.4609 120.12 71.9909 118.84 70.2109 116.32L71.3709 115.58C72.9009 117.69 74.9609 118.76 77.5609 118.76C79.6709 118.76 81.4409 118.02 82.8809 116.53C84.3709 115.04 85.1109 113.27 85.1109 111.16C85.1109 109.05 84.4109 107.07 82.9609 105.42C81.5609 103.77 79.8209 102.86 77.7209 102.7C75.7809 102.54 74.1309 101.75 72.8109 100.39C71.4909 98.9899 70.8309 97.2899 70.8309 95.3099C70.8309 93.3299 71.5309 91.5499 72.9809 90.1099C74.4309 88.6699 76.2009 87.9199 78.2209 87.9199C81.1509 87.9199 83.7109 89.6499 84.9109 92.1699L83.7109 92.7899C82.7609 90.6399 80.5709 89.2399 78.2209 89.2399C76.5309 89.2399 75.0809 89.8199 73.8909 91.0099C72.7009 92.1999 72.1209 93.6099 72.1209 95.2999C72.1209 96.9899 72.7009 98.3999 73.8509 99.5099C74.9209 100.58 76.3309 101.2 78.0209 101.37C80.4109 101.62 82.4409 102.69 84.0509 104.59C85.6609 106.49 86.4909 108.68 86.4909 111.15C86.4909 113.62 85.6209 115.73 83.8509 117.51L83.8309 117.52Z" fill="white"/>
<path d="M91.8044 119.7H90.4844V88.3301H91.8044V119.7Z" fill="white"/>
<path d="M33.32 119.7H32V88.33H33.32V119.7Z" fill="white"/>
<path d="M151.66 119.7L129 92.4601V119.7H127.68V88.3301L150.34 115.41V88.3301H151.66V119.7Z" fill="white"/>
<path d="M45.4903 93.1601C42.5603 89.9401 39.0903 88.3301 35.0903 88.3301H33.3203V89.6501H34.7503C38.5103 89.6501 41.7703 91.0901 44.4903 93.9801C47.2103 96.8301 48.5803 100.17 48.5803 104.01C48.5803 107.85 47.2203 111.07 44.4503 114C41.7303 116.93 38.5103 118.38 34.7503 118.38H33.3203V119.7H35.1303C39.1303 119.7 42.6003 118.09 45.5703 114.83C48.4603 111.65 49.9003 108.06 49.9003 104.02C49.9003 99.9801 48.4103 96.3401 45.4803 93.1601H45.4903Z" fill="white"/>
<path d="M113.051 118.79C109.091 118.79 105.621 117.3 102.691 114.37C99.7609 111.44 98.2709 107.97 98.2709 104.01C98.2709 100.05 99.7609 96.5804 102.691 93.6504C105.621 90.7204 109.091 89.2304 113.051 89.2304C115.611 89.2304 118.041 89.8504 120.361 91.1304C120.961 91.4404 121.521 91.7904 122.051 92.1604V90.5704C121.751 90.3804 121.431 90.1904 121.111 90.0104C118.591 88.6104 115.911 87.9004 113.061 87.9004C108.731 87.9004 104.971 89.5104 101.751 92.7304C98.5709 95.9104 96.9609 99.6604 96.9609 104C96.9609 108.34 98.5709 112.09 101.751 115.31C104.971 118.49 108.731 120.1 113.061 120.1C115.801 120.1 118.341 119.44 120.681 118.11V116.55C118.351 118.02 115.811 118.78 113.061 118.78L113.051 118.79Z" fill="white"/>
<path d="M115.74 105.59L115.07 106.87H120.68V105.59H115.74Z" fill="white"/>
<path d="M120.68 106.871V116.571C121.13 116.291 121.57 115.971 122 115.641V106.871H120.68Z" fill="white"/>
<path d="M122 105.59H120.68V106.87H122V105.59Z" fill="white"/>
<path d="M120.68 118.131C121.13 117.881 121.57 117.601 122 117.291V115.641C121.57 115.981 121.13 116.291 120.68 116.571V118.131Z" fill="white"/>
<path d="M120.666 105.59H110.266V106.87H120.666V105.59Z" fill="white"/>
</g>
<defs>
<clipPath id="clip0_908_17122">
<rect width="119.66" height="58.12" fill="white" transform="translate(32 62)"/>
</clipPath>
</defs>
</svg>
