<svg width="183" height="183" viewBox="0 0 183 183" fill="none" xmlns="http://www.w3.org/2000/svg">
<g clip-path="url(#clip0_908_17007)">
<path d="M106.012 69.5449C101.184 69.5449 97.2734 73.4341 97.2734 78.2354C97.2734 83.0367 101.184 86.9259 106.012 86.9259C106.064 86.9259 106.122 86.9259 106.174 86.9259V69.5449C106.122 69.5449 106.064 69.5449 106.012 69.5449Z" fill="#AFAFAF"/>
<path d="M127.688 85.7734C127.828 87.6633 127.901 89.5751 127.901 91.5014C127.901 107.985 122.692 123.264 113.828 135.793V145.001C127.278 131.145 135.554 112.283 135.554 91.5014C135.554 89.5751 135.481 87.6633 135.341 85.7734H127.688Z" fill="#AFAFAF"/>
<path d="M133.257 72.8202C129.926 59.5036 123.11 47.5661 113.828 38V47.2085C121.166 57.5773 125.993 69.8286 127.446 83.0868L133.257 72.8129V72.8202Z" fill="#AFAFAF"/>
<path d="M113.833 74.338V47.2085C111.521 43.9396 108.961 40.8603 106.18 38V69.544C109.533 69.6024 112.416 71.536 113.833 74.338Z" fill="#AFAFAF"/>
<path d="M106.18 86.9249V145C108.961 142.132 111.521 139.053 113.833 135.791V82.1309C112.416 84.9329 109.533 86.8665 106.18 86.9249Z" fill="#AFAFAF"/>
<path d="M113.825 82.1304V74.3448C112.409 71.5428 109.525 69.6092 106.172 69.5508V86.9317C109.525 86.8733 112.409 84.9397 113.825 82.1377V82.1304Z" fill="white"/>
<path d="M127.688 85.771H125.927L127.446 83.0931C126.001 69.8349 121.166 57.5836 113.828 47.2148V74.337C114.422 75.5118 114.753 76.8325 114.753 78.2335C114.753 79.6344 114.415 80.9552 113.828 82.1299V135.79C122.692 123.262 127.901 107.99 127.901 91.499C127.901 89.5727 127.828 87.6609 127.688 85.771Z" fill="white"/>
<path d="M114.753 78.2344C114.753 76.8334 114.415 75.5127 113.828 74.3379V82.1236C114.422 80.9488 114.753 79.6281 114.753 78.2271V78.2344Z" fill="white"/>
<path d="M144 85.7725L134.96 69.8145L133.258 72.828C134.307 77.0164 135.011 81.3434 135.342 85.7798H144V85.7725Z" fill="#AFAFAF"/>
<path d="M127.687 85.7721H135.34C135.01 81.343 134.306 77.016 133.257 72.8203L127.445 83.0942C127.541 83.9844 127.621 84.8746 127.695 85.7721H127.687Z" fill="white"/>
<path d="M125.929 85.7717H127.69C127.624 84.8742 127.543 83.984 127.441 83.0938L125.922 85.7717H125.929Z" fill="white"/>
<path d="M44.8867 53.4103H40.1908C40.0854 53.4103 40 53.4952 40 53.6V82.3348C40 82.4395 40.0854 82.5245 40.1908 82.5245H44.8867C44.9921 82.5245 45.0775 82.4395 45.0775 82.3348V53.6C45.0775 53.4952 44.9921 53.4103 44.8867 53.4103Z" fill="white"/>
<path d="M59.3443 82.4727C55.7123 82.5238 51.9702 82.5384 48.1254 82.5165C47.9713 82.5165 47.8906 82.4362 47.8906 82.283V53.6139C47.8906 53.4972 47.986 53.4023 48.1034 53.4023C51.2291 53.4023 54.3842 53.4023 57.5686 53.4023C60.7751 53.4023 63.6807 53.7015 66.5716 55.1536C71.9059 57.8315 74.8482 63.3333 74.2978 69.2801C73.5568 77.1898 67.1439 82.3633 59.3443 82.4654V82.4727ZM53.0708 58.1744L53.0048 77.7152C53.0048 77.7955 53.0708 77.8539 53.1442 77.8539L59.1755 77.8757C64.5758 77.8976 68.9783 73.6509 68.9929 68.4045V67.5946C69.0149 62.3409 64.6492 58.0723 59.2415 58.0504L53.2102 58.0285C53.1295 58.0285 53.0708 58.0942 53.0708 58.1671V58.1744Z" fill="white"/>
<path d="M98.0831 73.7537C95.1188 67.0553 92.1692 60.3641 89.2416 53.6876C89.0802 53.33 88.9114 53.2206 88.5299 53.2133C87.8108 53.1987 87.1578 53.1914 86.5855 53.1914V59.3572C86.5855 59.3572 86.6368 59.3645 86.6515 59.3937L91.6042 70.8277C91.6042 70.8277 91.6042 70.8423 91.6042 70.8496C91.6042 70.8788 91.5749 70.908 91.5455 70.908H86.5781V75.4831H93.4899C93.534 75.4831 93.5633 75.505 93.578 75.5414L96.5129 82.4515L101.774 82.4734C101.855 82.4734 101.906 82.3931 101.877 82.3202L98.0978 73.7464L98.0831 73.7537Z" fill="white"/>
<path d="M75.0724 73.7537C78.0367 67.0553 80.9863 60.3641 83.9139 53.6876C84.0753 53.33 84.2441 53.2206 84.6256 53.2133C85.3447 53.1987 85.9977 53.1914 86.57 53.1914V59.3572C86.57 59.3572 86.5187 59.3645 86.504 59.3937L81.5513 70.8277C81.5513 70.8277 81.5513 70.8423 81.5513 70.8496C81.5513 70.8788 81.5806 70.908 81.61 70.908H86.5774V75.4831H79.6656C79.6215 75.4831 79.5922 75.505 79.5775 75.5414L76.6426 82.4515L71.3376 82.4734C71.2789 82.4734 71.2423 82.415 71.2643 82.3639L75.065 73.7464L75.0724 73.7537Z" fill="white"/>
</g>
<defs>
<clipPath id="clip0_908_17007">
<rect width="104" height="107" fill="white" transform="translate(40 38)"/>
</clipPath>
</defs>
</svg>
