<svg width="70" height="78" viewBox="0 0 70 78" fill="none" xmlns="http://www.w3.org/2000/svg">
<path d="M39.35 60.25C44.97 60.25 50.59 57.87 54.61 54.7L57.02 52.32L69.87 65L66.66 67.38C59.43 73.72 49.8 77.69 39.36 77.69C16.86 77.69 0 61.04 0 38.85C0 16.66 16.86 0 39.35 0C49.79 0 59.43 3.96 66.65 10.31L69.86 12.69L57.01 24.58L54.6 22.2C50.58 18.24 44.96 16.65 39.34 16.65C26.49 16.65 17.66 25.37 17.66 38.05C17.66 50.73 26.49 60.25 39.34 60.25H39.35Z" fill="white"/>
<path d="M51.4031 38.8402C51.4031 45.8502 45.6531 51.5202 38.5531 51.5202C31.4531 51.5202 25.7031 45.8402 25.7031 38.8402C25.7031 31.8402 31.4531 26.1602 38.5531 26.1602C45.6531 26.1602 51.4031 31.8402 51.4031 38.8402Z" fill="#FF3D2D"/>
</svg>
