
<svg xmlns="http://www.w3.org/2000/svg" version="1.1" xmlns:xlink="http://www.w3.org/1999/xlink" preserveAspectRatio="none" x="0px" y="0px" width="54px" height="46px" viewBox="0 0 54 46">
<defs>
<g id="Layer7_0_FILL">
<path fill="#0000FE" stroke="none" d="
M 52 0
L 52 46 54 46 54 0 52 0 Z"/>
</g>

<g id="Layer6_0_FILL">
<path fill="#FFFF05" stroke="none" d="
M 2 0
L 2 46 4 46 4 0 2 0 Z"/>
</g>

<g id="Layer5_0_FILL">
<path fill="#02FFFF" stroke="none" d="
M 50 0
L 50 46 52 46 52 0 50 0 Z"/>
</g>

<g id="Layer4_0_FILL">
<path fill="#FF0000" stroke="none" d="
M 0 0
L 0 46 2 46 2 0 0 0 Z"/>
</g>

<g id="Layer2_0_FILL">
<path fill="#FFFFFF" stroke="none" d="
M 84.2 97.75
L 84.2 89.75 76.2 89.75 76.2 97.75 84.2 97.75 Z"/>
</g>

<path id="Layer3_0_1_STROKES" stroke="#FFFFFF" stroke-width="2" stroke-linejoin="miter" stroke-linecap="butt" stroke-miterlimit="4" fill="none" d="
M 33.05 17.95
L 33.05 44.9 5.05 44.9 5.05 16.9 32.05 16.9"/>

<path id="Layer1_0_1_STROKES" stroke="#FFFFFF" stroke-width="2" stroke-linejoin="miter" stroke-linecap="butt" stroke-miterlimit="4" fill="none" d="
M 45.1 6.05
L 45.1 40.95 9.15 40.95 9.15 5.05 44.1 5.05"/>

<path id="Layer0_0_1_STROKES" stroke="#FFFFFF" stroke-width="2" stroke-linejoin="miter" stroke-linecap="butt" stroke-miterlimit="4" fill="none" d="
M 182.25 63.75
L 226.25 63.75 226.25 107.7 182.25 107.7 182.25 63.75 Z"/>
</defs>

<g transform="matrix( 1, 0, 0, 1, 0,0) ">
<use xlink:href="#Layer7_0_FILL"/>
</g>

<g transform="matrix( 1, 0, 0, 1, 0,0) ">
<use xlink:href="#Layer6_0_FILL"/>
</g>

<g transform="matrix( 1, 0, 0, 1, 0,0) ">
<use xlink:href="#Layer5_0_FILL"/>
</g>

<g transform="matrix( 1, 0, 0, 1, 0,0) ">
<use xlink:href="#Layer4_0_FILL"/>
</g>

<g transform="matrix( 1, 0, 0, 1, 0,0) ">
<use xlink:href="#Layer3_0_1_STROKES"/>
</g>

<g transform="matrix( 1, 0, 0, 1, -61.1,-62.75) ">
<use xlink:href="#Layer2_0_FILL"/>
</g>

<g transform="matrix( 1, 0, 0, 1, -4.1,3.95) ">
<use xlink:href="#Layer1_0_1_STROKES"/>
</g>

<g transform="matrix( 1, 0, 0, 1, -177.25,-62.7) ">
<use xlink:href="#Layer0_0_1_STROKES"/>
</g>
</svg>
