
<svg xmlns="http://www.w3.org/2000/svg" version="1.1" xmlns:xlink="http://www.w3.org/1999/xlink" preserveAspectRatio="none" x="0px" y="0px" width="46px" height="46px" viewBox="0 0 46 46">
<defs>
<g id="Layer20_0_FILL">
<path fill="#FFFFFF" stroke="none" d="
M 32.6 45.95
L 36.25 45.95 36.25 43.95 32.6 43.95 32.6 45.95
M 25.35 43.95
L 25.35 45.95 28.95 45.95 28.95 43.95 25.35 43.95
M 10.8 45.95
L 14.45 45.95 14.45 43.95 10.8 43.95 10.8 45.95
M 18.05 43.95
L 18.05 45.95 21.7 45.95 21.7 43.95 18.05 43.95
M 7.15 43.95
L 6.1 43.95 6.1 43 4.1 43 4.1 45.95 7.15 45.95 7.15 43.95
M 4.1 32.1
L 6.1 32.1 6.1 28.5 4.1 28.5 4.1 32.1
M 6.1 35.75
L 4.1 35.75 4.1 39.4 6.1 39.4 6.1 35.75
M 6.1 17.55
L 6.1 13.95 4.1 13.95 4.1 17.55 6.1 17.55
M 6.1 21.2
L 4.1 21.2 4.1 24.85 6.1 24.85 6.1 21.2
M 4.1 6.65
L 4.1 10.3 6.1 10.3 6.1 6.65 4.1 6.65
M 6.1 2
L 7.15 2 7.15 0 4.1 0 4.1 3 6.1 3 6.1 2
M 10.8 0
L 10.8 2 14.45 2 14.45 0 10.8 0
M 21.7 2
L 21.7 0 18.05 0 18.05 2 21.7 2
M 25.35 2
L 28.95 2 28.95 0 25.35 0 25.35 2
M 32.6 2
L 36.25 2 36.25 0 32.6 0 32.6 2
M 47.15 45.95
L 50 45.95 50 43 48.1 43 48.1 43.95 47.15 43.95 47.15 45.95
M 43.5 45.95
L 43.5 43.95 39.9 43.95 39.9 45.95 43.5 45.95
M 50 35.75
L 48.1 35.75 48.1 39.4 50 39.4 50 35.75
M 48.1 28.5
L 48.1 32.1 50 32.1 50 28.5 48.1 28.5
M 48.1 17.55
L 50 17.55 50 13.95 48.1 13.95 48.1 17.55
M 50 21.2
L 48.1 21.2 48.1 24.85 50 24.85 50 21.2
M 48.1 10.3
L 50 10.3 50 6.65 48.1 6.65 48.1 10.3
M 43.5 2
L 43.5 0 39.9 0 39.9 2 43.5 2
M 50 0
L 47.15 0 47.15 2 48.1 2 48.1 3 50 3 50 0 Z"/>
</g>

<g id="Layer19_0_FILL">
<path fill="#0000FE" stroke="none" d="
M 331.2 78.75
L 331.2 76.75 329.2 76.75 329.2 78.75 331.2 78.75 Z"/>
</g>

<g id="Layer19_1_FILL">
<path fill="#0000FE" stroke="none" d="
M 335.2 80.75
L 335.2 78.75 333.2 78.75 333.2 80.75 335.2 80.75 Z"/>
</g>

<g id="Layer19_2_FILL">
<path fill="#0000FE" stroke="none" d="
M 335.2 80.75
L 335.2 82.75 337.2 82.75 337.2 80.75 335.2 80.75 Z"/>
</g>

<g id="Layer19_3_FILL">
<path fill="#0000FE" stroke="none" d="
M 337.2 82.75
L 337.2 84.75 339.2 84.75 339.2 82.75 337.2 82.75 Z"/>
</g>

<g id="Layer19_4_FILL">
<path fill="#0000FE" stroke="none" d="
M 339.2 84.75
L 339.2 86.75 341.2 86.75 341.2 84.75 339.2 84.75 Z"/>
</g>

<g id="Layer19_5_FILL">
<path fill="#0000FE" stroke="none" d="
M 335.2 88.75
L 335.2 90.75 337.2 90.75 337.2 88.75 335.2 88.75 Z"/>
</g>

<g id="Layer19_6_FILL">
<path fill="#0000FE" stroke="none" d="
M 333.2 90.75
L 333.2 92.75 335.2 92.75 335.2 90.75 333.2 90.75 Z"/>
</g>

<g id="Layer19_7_FILL">
<path fill="#0000FE" stroke="none" d="
M 329.2 92.75
L 329.2 94.75 331.2 94.75 331.2 92.75 329.2 92.75 Z"/>
</g>

<g id="Layer18_0_FILL">
<path fill="#FFFF05" stroke="none" d="
M 313.2 78.75
L 313.2 76.75 311.2 76.75 311.2 78.75 313.2 78.75 Z"/>
</g>

<g id="Layer18_1_FILL">
<path fill="#FFFF05" stroke="none" d="
M 307.2 78.75
L 307.2 80.75 309.2 80.75 309.2 78.75 307.2 78.75 Z"/>
</g>

<g id="Layer18_2_FILL">
<path fill="#FFFF05" stroke="none" d="
M 307.2 82.75
L 307.2 80.75 305.2 80.75 305.2 82.75 307.2 82.75 Z"/>
</g>

<g id="Layer18_3_FILL">
<path fill="#FFFF05" stroke="none" d="
M 305.2 84.75
L 305.2 82.75 303.2 82.75 303.2 84.75 305.2 84.75 Z"/>
</g>

<g id="Layer18_4_FILL">
<path fill="#FFFF05" stroke="none" d="
M 303.2 86.75
L 303.2 84.75 301.2 84.75 301.2 86.75 303.2 86.75 Z"/>
</g>

<g id="Layer18_5_FILL">
<path fill="#FFFF05" stroke="none" d="
M 307.2 90.75
L 307.2 88.75 305.2 88.75 305.2 90.75 307.2 90.75 Z"/>
</g>

<g id="Layer18_6_FILL">
<path fill="#FFFF05" stroke="none" d="
M 309.2 92.75
L 309.2 90.75 307.2 90.75 307.2 92.75 309.2 92.75 Z"/>
</g>

<g id="Layer18_7_FILL">
<path fill="#FFFF05" stroke="none" d="
M 313.2 94.75
L 313.2 92.75 311.2 92.75 311.2 94.75 313.2 94.75 Z"/>
</g>

<g id="Layer17_0_FILL">
<path fill="#02FFFF" stroke="none" d="
M 329.2 78.75
L 329.2 76.75 327.2 76.75 327.2 78.75 329.2 78.75 Z"/>
</g>

<g id="Layer17_1_FILL">
<path fill="#02FFFF" stroke="none" d="
M 333.2 80.75
L 333.2 78.75 331.2 78.75 331.2 80.75 333.2 80.75 Z"/>
</g>

<g id="Layer17_2_FILL">
<path fill="#02FFFF" stroke="none" d="
M 333.2 80.75
L 333.2 82.75 335.2 82.75 335.2 80.75 333.2 80.75 Z"/>
</g>

<g id="Layer17_3_FILL">
<path fill="#02FFFF" stroke="none" d="
M 335.2 82.75
L 335.2 84.75 337.2 84.75 337.2 82.75 335.2 82.75 Z"/>
</g>

<g id="Layer17_4_FILL">
<path fill="#02FFFF" stroke="none" d="
M 337.2 84.75
L 337.2 86.75 339.2 86.75 339.2 84.75 337.2 84.75 Z"/>
</g>

<g id="Layer17_5_FILL">
<path fill="#02FFFF" stroke="none" d="
M 333.2 88.75
L 333.2 90.75 335.2 90.75 335.2 88.75 333.2 88.75 Z"/>
</g>

<g id="Layer17_6_FILL">
<path fill="#02FFFF" stroke="none" d="
M 331.2 90.75
L 331.2 92.75 333.2 92.75 333.2 90.75 331.2 90.75 Z"/>
</g>

<g id="Layer17_7_FILL">
<path fill="#02FFFF" stroke="none" d="
M 327.2 92.75
L 327.2 94.75 329.2 94.75 329.2 92.75 327.2 92.75 Z"/>
</g>

<g id="Layer16_0_FILL">
<path fill="#FF0000" stroke="none" d="
M 311.2 78.75
L 311.2 76.75 309.2 76.75 309.2 78.75 311.2 78.75 Z"/>
</g>

<g id="Layer16_1_FILL">
<path fill="#FF0000" stroke="none" d="
M 305.2 78.75
L 305.2 80.75 307.2 80.75 307.2 78.75 305.2 78.75 Z"/>
</g>

<g id="Layer16_2_FILL">
<path fill="#FF0000" stroke="none" d="
M 305.2 82.75
L 305.2 80.75 303.2 80.75 303.2 82.75 305.2 82.75 Z"/>
</g>

<g id="Layer16_3_FILL">
<path fill="#FF0000" stroke="none" d="
M 303.2 84.75
L 303.2 82.75 301.2 82.75 301.2 84.75 303.2 84.75 Z"/>
</g>

<g id="Layer16_4_FILL">
<path fill="#FF0000" stroke="none" d="
M 301.2 86.75
L 301.2 84.75 299.2 84.75 299.2 86.75 301.2 86.75 Z"/>
</g>

<g id="Layer16_5_MEMBER_0_FILL">
<path fill="#FF0000" stroke="none" d="
M 305.2 90.75
L 305.2 88.75 303.2 88.75 303.2 90.75 305.2 90.75 Z"/>
</g>

<g id="Layer16_5_MEMBER_1_FILL">
<path fill="#FF0000" stroke="none" d="
M 307.2 92.75
L 307.2 90.75 305.2 90.75 305.2 92.75 307.2 92.75 Z"/>
</g>

<g id="Layer16_5_MEMBER_2_FILL">
<path fill="#FF0000" stroke="none" d="
M 311.2 94.75
L 311.2 92.75 309.2 92.75 309.2 94.75 311.2 94.75 Z"/>
</g>

<g id="_________7_0_Layer0_0_FILL">
<path fill="#FFFFFF" stroke="none" d="
M 327.2 94.75
L 327.2 92.75 313.2 92.75 313.2 94.75 327.2 94.75 Z"/>
</g>

<g id="_________5_0_Layer0_0_FILL">
<path fill="#FFFFFF" stroke="none" d="
M 313.2 92.75
L 313.2 90.75 309.2 90.75 309.2 92.75 313.2 92.75 Z"/>
</g>

<g id="_________5_0_Layer0_1_FILL">
<path fill="#FFFFFF" stroke="none" d="
M 327.2 90.75
L 327.2 92.75 331.2 92.75 331.2 90.75 327.2 90.75 Z"/>
</g>

<g id="_________3_0_Layer0_0_FILL">
<path fill="#FFFFFF" stroke="none" d="
M 331.2 88.75
L 331.2 90.75 333.2 90.75 333.2 88.75 331.2 88.75 Z"/>
</g>

<g id="_________3_0_Layer0_1_FILL">
<path fill="#FFFFFF" stroke="none" d="
M 307.2 88.75
L 307.2 90.75 309.2 90.75 309.2 88.75 307.2 88.75 Z"/>
</g>

<g id="Layer11_0_FILL">
<path fill="#FFFFFF" stroke="none" d="
M 84.2 97.75
L 84.2 89.75 76.2 89.75 76.2 97.75 84.2 97.75 Z"/>
</g>

<g id="Layer10_0_FILL">
<path fill="#FFFFFF" stroke="none" d="
M 321.2 72.8
L 321.2 70.8 319.2 70.8 319.2 72.8 321.2 72.8 Z"/>
</g>

<g id="Layer8_0_FILL">
<path fill="#FFFFFF" stroke="none" d="
M 313.2 74.8
L 313.2 72.8 311.2 72.8 311.2 74.8 313.2 74.8 Z"/>
</g>

<g id="Layer8_1_FILL">
<path fill="#FFFFFF" stroke="none" d="
M 329.2 74.8
L 329.2 72.8 327.2 72.8 327.2 74.8 329.2 74.8 Z"/>
</g>

<g id="Layer7_0_FILL">
<path fill="#FFFFFF" stroke="none" d="
M 305.2 76.8
L 305.2 78.8 307.2 78.8 307.2 76.8 305.2 76.8 Z"/>
</g>

<g id="Layer7_1_FILL">
<path fill="#FFFFFF" stroke="none" d="
M 335.2 78.8
L 335.2 76.8 333.2 76.8 333.2 78.8 335.2 78.8 Z"/>
</g>

<g id="Layer5_0_FILL">
<path fill="#FFFFFF" stroke="none" d="
M 327.2 78.75
L 327.2 76.75 313.2 76.75 313.2 78.75 327.2 78.75 Z"/>
</g>

<g id="Layer4_0_FILL">
<path fill="#FFFFFF" stroke="none" d="
M 313.2 80.75
L 313.2 78.75 309.2 78.75 309.2 80.75 313.2 80.75 Z"/>
</g>

<g id="Layer4_1_FILL">
<path fill="#FFFFFF" stroke="none" d="
M 327.2 78.75
L 327.2 80.75 331.2 80.75 331.2 78.75 327.2 78.75 Z"/>
</g>

<g id="Layer3_0_FILL">
<path fill="#FFFFFF" stroke="none" d="
M 307.2 80.8
L 307.2 82.75 309.2 82.75 309.2 80.8 307.2 80.8 Z"/>
</g>

<g id="Layer3_1_FILL">
<path fill="#FFFFFF" stroke="none" d="
M 333.2 82.75
L 333.2 80.8 331.2 80.8 331.2 82.75 333.2 82.75 Z"/>
</g>

<g id="Layer2_0_FILL">
<path fill="#FFFFFF" stroke="none" d="
M 307.2 84.75
L 307.2 82.75 305.2 82.75 305.2 84.75 307.2 84.75 Z"/>
</g>

<g id="Layer2_1_FILL">
<path fill="#FFFFFF" stroke="none" d="
M 333.2 82.75
L 333.2 84.75 335.2 84.75 335.2 82.75 333.2 82.75 Z"/>
</g>

<g id="Layer1_0_FILL">
<path fill="#FFFFFF" stroke="none" d="
M 335.2 84.75
L 335.2 86.75 337.2 86.75 337.2 84.75 335.2 84.75 Z"/>
</g>

<g id="Layer1_1_FILL">
<path fill="#FFFFFF" stroke="none" d="
M 305.2 86.75
L 305.2 84.75 303.2 84.75 303.2 86.75 305.2 86.75 Z"/>
</g>
</defs>

<g transform="matrix( 1, 0, 0, 1, -4,0) ">
<use xlink:href="#Layer20_0_FILL"/>
</g>

<g transform="matrix( 1, 0, 0, 1, -297.15,-62.75) ">
<use xlink:href="#Layer19_0_FILL"/>
</g>

<g transform="matrix( 1, 0, 0, 1, -297.15,-62.75) ">
<use xlink:href="#Layer19_1_FILL"/>
</g>

<g transform="matrix( 1, 0, 0, 1, -297.15,-62.75) ">
<use xlink:href="#Layer19_2_FILL"/>
</g>

<g transform="matrix( 1, 0, 0, 1, -297.15,-62.75) ">
<use xlink:href="#Layer19_3_FILL"/>
</g>

<g transform="matrix( 1, 0, 0, 1, -297.15,-62.75) ">
<use xlink:href="#Layer19_4_FILL"/>
</g>

<g transform="matrix( 1, 0, 0, 1, -297.15,-62.75) ">
<use xlink:href="#Layer19_5_FILL"/>
</g>

<g transform="matrix( 1, 0, 0, 1, -297.15,-62.75) ">
<use xlink:href="#Layer19_6_FILL"/>
</g>

<g transform="matrix( 1, 0, 0, 1, -297.15,-62.75) ">
<use xlink:href="#Layer19_7_FILL"/>
</g>

<g transform="matrix( 1, 0, 0, 1, -297.15,-62.75) ">
<use xlink:href="#Layer18_0_FILL"/>
</g>

<g transform="matrix( 1, 0, 0, 1, -297.15,-62.75) ">
<use xlink:href="#Layer18_1_FILL"/>
</g>

<g transform="matrix( 1, 0, 0, 1, -297.15,-62.75) ">
<use xlink:href="#Layer18_2_FILL"/>
</g>

<g transform="matrix( 1, 0, 0, 1, -297.15,-62.75) ">
<use xlink:href="#Layer18_3_FILL"/>
</g>

<g transform="matrix( 1, 0, 0, 1, -297.15,-62.75) ">
<use xlink:href="#Layer18_4_FILL"/>
</g>

<g transform="matrix( 1, 0, 0, 1, -297.15,-62.75) ">
<use xlink:href="#Layer18_5_FILL"/>
</g>

<g transform="matrix( 1, 0, 0, 1, -297.15,-62.75) ">
<use xlink:href="#Layer18_6_FILL"/>
</g>

<g transform="matrix( 1, 0, 0, 1, -297.15,-62.75) ">
<use xlink:href="#Layer18_7_FILL"/>
</g>

<g transform="matrix( 1, 0, 0, 1, -297.15,-62.75) ">
<use xlink:href="#Layer17_0_FILL"/>
</g>

<g transform="matrix( 1, 0, 0, 1, -297.15,-62.75) ">
<use xlink:href="#Layer17_1_FILL"/>
</g>

<g transform="matrix( 1, 0, 0, 1, -297.15,-62.75) ">
<use xlink:href="#Layer17_2_FILL"/>
</g>

<g transform="matrix( 1, 0, 0, 1, -297.15,-62.75) ">
<use xlink:href="#Layer17_3_FILL"/>
</g>

<g transform="matrix( 1, 0, 0, 1, -297.15,-62.75) ">
<use xlink:href="#Layer17_4_FILL"/>
</g>

<g transform="matrix( 1, 0, 0, 1, -297.15,-62.75) ">
<use xlink:href="#Layer17_5_FILL"/>
</g>

<g transform="matrix( 1, 0, 0, 1, -297.15,-62.75) ">
<use xlink:href="#Layer17_6_FILL"/>
</g>

<g transform="matrix( 1, 0, 0, 1, -297.15,-62.75) ">
<use xlink:href="#Layer17_7_FILL"/>
</g>

<g transform="matrix( 1, 0, 0, 1, -297.15,-62.75) ">
<use xlink:href="#Layer16_0_FILL"/>
</g>

<g transform="matrix( 1, 0, 0, 1, -297.15,-62.75) ">
<use xlink:href="#Layer16_1_FILL"/>
</g>

<g transform="matrix( 1, 0, 0, 1, -297.15,-62.75) ">
<use xlink:href="#Layer16_2_FILL"/>
</g>

<g transform="matrix( 1, 0, 0, 1, -297.15,-62.75) ">
<use xlink:href="#Layer16_3_FILL"/>
</g>

<g transform="matrix( 1, 0, 0, 1, -297.15,-62.75) ">
<use xlink:href="#Layer16_4_FILL"/>
</g>

<g transform="matrix( 1, 0, 0, 1, -297.15,-62.75) ">
<use xlink:href="#Layer16_5_MEMBER_0_FILL"/>
</g>

<g transform="matrix( 1, 0, 0, 1, -297.15,-62.75) ">
<use xlink:href="#Layer16_5_MEMBER_1_FILL"/>
</g>

<g transform="matrix( 1, 0, 0, 1, -297.15,-62.75) ">
<use xlink:href="#Layer16_5_MEMBER_2_FILL"/>
</g>

<g transform="matrix( 1, 0, 0, 1, 23.05,31) ">
<g transform="matrix( 1, 0, 0, 1, -320.2,-93.75) ">
<use xlink:href="#_________7_0_Layer0_0_FILL"/>
</g>
</g>

<g transform="matrix( 1, 0, 0, 1, 23.05,29) ">
<g transform="matrix( 1, 0, 0, 1, -320.2,-91.75) ">
<use xlink:href="#_________5_0_Layer0_0_FILL"/>
</g>

<g transform="matrix( 1, 0, 0, 1, -320.2,-91.75) ">
<use xlink:href="#_________5_0_Layer0_1_FILL"/>
</g>
</g>

<g transform="matrix( 1, 0, 0, 1, 23.05,27) ">
<g transform="matrix( 1, 0, 0, 1, -320.2,-89.75) ">
<use xlink:href="#_________3_0_Layer0_0_FILL"/>
</g>

<g transform="matrix( 1, 0, 0, 1, -320.2,-89.75) ">
<use xlink:href="#_________3_0_Layer0_1_FILL"/>
</g>
</g>

<g transform="matrix( 1, 0, 0, 1, -57.15,-70.7) ">
<use xlink:href="#Layer11_0_FILL"/>
</g>

<g transform="matrix( 1, 0, 0, 1, -297.15,-62.75) ">
<use xlink:href="#Layer10_0_FILL"/>
</g>

<g transform="matrix( 1, 0, 0, 1, -297.15,-62.75) ">
<use xlink:href="#Layer8_0_FILL"/>
</g>

<g transform="matrix( 1, 0, 0, 1, -297.15,-62.75) ">
<use xlink:href="#Layer8_1_FILL"/>
</g>

<g transform="matrix( 1, 0, 0, 1, -297.15,-62.75) ">
<use xlink:href="#Layer7_0_FILL"/>
</g>

<g transform="matrix( 1, 0, 0, 1, -297.15,-62.75) ">
<use xlink:href="#Layer7_1_FILL"/>
</g>

<g transform="matrix( 1, 0, 0, 1, -297.15,-62.75) ">
<use xlink:href="#Layer5_0_FILL"/>
</g>

<g transform="matrix( 1, 0, 0, 1, -297.15,-62.75) ">
<use xlink:href="#Layer4_0_FILL"/>
</g>

<g transform="matrix( 1, 0, 0, 1, -297.15,-62.75) ">
<use xlink:href="#Layer4_1_FILL"/>
</g>

<g transform="matrix( 1, 0, 0, 1, -297.15,-62.8) ">
<use xlink:href="#Layer3_0_FILL"/>
</g>

<g transform="matrix( 1, 0, 0, 1, -297.15,-62.8) ">
<use xlink:href="#Layer3_1_FILL"/>
</g>

<g transform="matrix( 1, 0, 0, 1, -297.15,-62.75) ">
<use xlink:href="#Layer2_0_FILL"/>
</g>

<g transform="matrix( 1, 0, 0, 1, -297.15,-62.75) ">
<use xlink:href="#Layer2_1_FILL"/>
</g>

<g transform="matrix( 1, 0, 0, 1, -297.15,-62.75) ">
<use xlink:href="#Layer1_0_FILL"/>
</g>

<g transform="matrix( 1, 0, 0, 1, -297.15,-62.75) ">
<use xlink:href="#Layer1_1_FILL"/>
</g>
</svg>
