
<svg xmlns="http://www.w3.org/2000/svg" version="1.1" xmlns:xlink="http://www.w3.org/1999/xlink" preserveAspectRatio="none" x="0px" y="0px" width="50px" height="46px" viewBox="0 0 50 46">
<defs>
<g id="Layer10_0_FILL">
<path fill="#FFFFFF" stroke="none" d="
M 28.7 36
L 25.25 36 25.25 38 28.7 38 28.7 36
M 35.55 36
L 32.1 36 32.1 38 35.55 38 35.55 36
M 18.4 36
L 18.4 38 21.85 38 21.85 36 18.4 36
M 14 34.9
L 12 34.9 12 38 15 38 15 36 14 36 14 34.9
M 14 31.5
L 14 28.05 12 28.05 12 31.5 14 31.5
M 14 21.2
L 12 21.2 12 24.65 14 24.65 14 21.2
M 14 14.35
L 12 14.35 12 17.8 14 17.8 14 14.35
M 12 10.95
L 14 10.95 14 10 15 10 15 8 12 8 12 10.95
M 21.85 10
L 21.85 8 18.4 8 18.4 10 21.85 10
M 28.7 10
L 28.7 8 25.25 8 25.25 10 28.7 10
M 32.1 10
L 35.55 10 35.55 8 32.1 8 32.1 10
M 42 38
L 42 34.9 40 34.9 40 36 38.95 36 38.95 38 42 38
M 42 31.5
L 42 28.05 40 28.05 40 31.5 42 31.5
M 42 17.8
L 42 14.35 40 14.35 40 17.8 42 17.8
M 42 24.65
L 42 21.2 40 21.2 40 24.65 42 24.65
M 42 10.95
L 42 8 38.95 8 38.95 10 40 10 40 10.95 42 10.95 Z"/>
</g>

<g id="Layer9_0_FILL">
<path fill="#0000FE" stroke="none" d="
M 433.2 90.75
L 431.2 90.75 431.2 108.75 433.2 108.75 433.2 90.75 Z"/>
</g>

<g id="Layer8_0_FILL">
<path fill="#FFFF05" stroke="none" d="
M 411.2 90.75
L 409.2 90.75 409.2 108.75 411.2 108.75 411.2 90.75 Z"/>
</g>

<g id="Layer7_0_FILL">
<path fill="#02FFFF" stroke="none" d="
M 431.2 90.75
L 429.2 90.75 429.2 108.75 431.2 108.75 431.2 90.75 Z"/>
</g>

<g id="Layer6_0_FILL">
<path fill="#FF0000" stroke="none" d="
M 409.2 90.75
L 407.2 90.75 407.2 108.75 409.2 108.75 409.2 90.75 Z"/>
</g>

<g id="Layer5_0_FILL">
<path fill="#FFFFFF" stroke="none" d="
M 424.2 95.8
L 416.2 95.8 416.2 103.8 424.2 103.8 424.2 95.8 Z"/>
</g>

<path id="Layer3_0_1_STROKES" stroke="#FFFFFF" stroke-width="2" stroke-linejoin="miter" stroke-linecap="butt" stroke-miterlimit="4" fill="none" d="
M 412.25 91.8
L 428.25 91.8 428.25 107.75 412.25 107.75 412.25 91.8 Z"/>

<path id="Layer2_0_1_STROKES" stroke="#FFFFFF" stroke-width="2" stroke-linejoin="miter" stroke-linecap="butt" stroke-miterlimit="4" fill="none" d="
M 412.25 63.8
L 428.25 63.8 428.25 79.8 412.25 79.8 412.25 63.8 Z"/>

<path id="Layer1_0_1_STROKES" stroke="#FFFFFF" stroke-width="2" stroke-linejoin="miter" stroke-linecap="butt" stroke-miterlimit="4" fill="none" d="
M 440.25 63.8
L 456.25 63.8 456.25 79.8 440.25 79.8 440.25 63.8 Z"/>

<path id="Layer0_0_1_STROKES" stroke="#FFFFFF" stroke-width="2" stroke-linejoin="miter" stroke-linecap="butt" stroke-miterlimit="4" fill="none" d="
M 440.25 91.8
L 456.25 91.8 456.25 107.75 440.25 107.75 440.25 91.8 Z"/>
</defs>

<g transform="matrix( 1, 0, 0, 1, 0,0) ">
<use xlink:href="#Layer10_0_FILL"/>
</g>

<g transform="matrix( 1, 0, 0, 1, -407.25,-62.8) ">
<use xlink:href="#Layer9_0_FILL"/>
</g>

<g transform="matrix( 1, 0, 0, 1, -407.25,-62.8) ">
<use xlink:href="#Layer8_0_FILL"/>
</g>

<g transform="matrix( 1, 0, 0, 1, -407.25,-62.8) ">
<use xlink:href="#Layer7_0_FILL"/>
</g>

<g transform="matrix( 1, 0, 0, 1, -407.25,-62.8) ">
<use xlink:href="#Layer6_0_FILL"/>
</g>

<g transform="matrix( 1, 0, 0, 1, -407.25,-62.8) ">
<use xlink:href="#Layer5_0_FILL"/>
</g>

<g transform="matrix( 1, 0, 0, 1, -407.3,-62.8) ">
<use xlink:href="#Layer3_0_1_STROKES"/>
</g>

<g transform="matrix( 1, 0, 0, 1, -407.3,-62.8) ">
<use xlink:href="#Layer2_0_1_STROKES"/>
</g>

<g transform="matrix( 1, 0, 0, 1, -407.3,-62.8) ">
<use xlink:href="#Layer1_0_1_STROKES"/>
</g>

<g transform="matrix( 1, 0, 0, 1, -407.3,-62.8) ">
<use xlink:href="#Layer0_0_1_STROKES"/>
</g>
</svg>
