
<svg xmlns="http://www.w3.org/2000/svg" version="1.1" xmlns:xlink="http://www.w3.org/1999/xlink" preserveAspectRatio="none" x="0px" y="0px" width="46px" height="46px" viewBox="0 0 46 46">
<defs>
<g id="Layer14_0_FILL">
<path fill="#0000FE" stroke="none" d="
M 446.05 198.75
L 446.05 200.75 448.05 200.75 448.05 198.75 446.05 198.75 Z"/>
</g>

<g id="Layer14_1_FILL">
<path fill="#0000FE" stroke="none" d="
M 446.05 206.75
L 446.05 200.75 444.05 200.75 444.05 206.75 446.05 206.75 Z"/>
</g>

<g id="Layer14_2_FILL">
<path fill="#0000FE" stroke="none" d="
M 442.05 206.75
L 442.05 208.75 444.05 208.75 444.05 206.75 442.05 206.75 Z"/>
</g>

<g id="Layer14_3_FILL">
<path fill="#0000FE" stroke="none" d="
M 440.05 208.75
L 440.05 210.75 442.05 210.75 442.05 208.75 440.05 208.75 Z"/>
</g>

<g id="Layer14_4_FILL">
<path fill="#0000FE" stroke="none" d="
M 436.05 210.75
L 436.05 214.75 438.05 214.75 438.05 210.75 436.05 210.75 Z"/>
</g>

<g id="Layer14_5_FILL">
<path fill="#0000FE" stroke="none" d="
M 442.05 214.75
L 442.05 216.75 444.05 216.75 444.05 214.75 442.05 214.75 Z"/>
</g>

<g id="Layer14_6_FILL">
<path fill="#0000FE" stroke="none" d="
M 440.05 216.75
L 440.05 218.75 442.05 218.75 442.05 216.75 440.05 216.75 Z"/>
</g>

<g id="Layer13_0_FILL">
<path fill="#FFFF05" stroke="none" d="
M 422.05 200.75
L 422.05 198.75 420.05 198.75 420.05 200.75 422.05 200.75 Z"/>
</g>

<g id="Layer13_1_FILL">
<path fill="#FFFF05" stroke="none" d="
M 422.05 200.75
L 422.05 206.75 424.05 206.75 424.05 200.75 422.05 200.75 Z"/>
</g>

<g id="Layer13_2_FILL">
<path fill="#FFFF05" stroke="none" d="
M 424.05 206.75
L 424.05 208.75 426.05 208.75 426.05 206.75 424.05 206.75 Z"/>
</g>

<g id="Layer13_3_FILL">
<path fill="#FFFF05" stroke="none" d="
M 426.05 208.75
L 426.05 210.75 428.05 210.75 428.05 208.75 426.05 208.75 Z"/>
</g>

<g id="Layer13_4_FILL">
<path fill="#FFFF05" stroke="none" d="
M 430.05 210.75
L 430.05 218.75 432.05 218.75 432.05 210.75 430.05 210.75 Z"/>
</g>

<g id="Layer12_0_FILL">
<path fill="#02FFFF" stroke="none" d="
M 446.05 200.75
L 446.05 198.75 444.05 198.75 444.05 200.75 446.05 200.75 Z"/>
</g>

<g id="Layer12_1_FILL">
<path fill="#02FFFF" stroke="none" d="
M 444.05 206.75
L 444.05 200.75 442.05 200.75 442.05 206.75 444.05 206.75 Z"/>
</g>

<g id="Layer12_2_FILL">
<path fill="#02FFFF" stroke="none" d="
M 442.05 208.75
L 442.05 206.75 440.05 206.75 440.05 208.75 442.05 208.75 Z"/>
</g>

<g id="Layer12_3_FILL">
<path fill="#02FFFF" stroke="none" d="
M 440.05 210.75
L 440.05 208.75 438.05 208.75 438.05 210.75 440.05 210.75 Z"/>
</g>

<g id="Layer12_4_FILL">
<path fill="#02FFFF" stroke="none" d="
M 434.05 210.75
L 434.05 216.75 436.05 216.75 436.05 210.75 434.05 210.75 Z"/>
</g>

<g id="Layer12_5_FILL">
<path fill="#02FFFF" stroke="none" d="
M 440.05 214.75
L 440.05 216.75 442.05 216.75 442.05 214.75 440.05 214.75 Z"/>
</g>

<g id="Layer12_6_FILL">
<path fill="#02FFFF" stroke="none" d="
M 438.05 216.75
L 438.05 218.75 440.05 218.75 440.05 216.75 438.05 216.75 Z"/>
</g>

<g id="Layer11_0_FILL">
<path fill="#FF0000" stroke="none" d="
M 420.05 200.75
L 420.05 198.75 418.05 198.75 418.05 200.75 420.05 200.75 Z"/>
</g>

<g id="Layer11_1_FILL">
<path fill="#FF0000" stroke="none" d="
M 420.05 200.75
L 420.05 206.75 422.05 206.75 422.05 200.75 420.05 200.75 Z"/>
</g>

<g id="Layer11_2_FILL">
<path fill="#FF0000" stroke="none" d="
M 422.05 206.75
L 422.05 208.75 424.05 208.75 424.05 206.75 422.05 206.75 Z"/>
</g>

<g id="Layer11_3_FILL">
<path fill="#FF0000" stroke="none" d="
M 424.05 208.75
L 424.05 210.75 426.05 210.75 426.05 208.75 424.05 208.75 Z"/>
</g>

<g id="Layer11_4_FILL">
<path fill="#FF0000" stroke="none" d="
M 428.05 210.75
L 428.05 218.75 430.05 218.75 430.05 210.75 428.05 210.75 Z"/>
</g>

<g id="Layer10_0_MEMBER_0_FILL">
<path fill="#FFFFFF" stroke="none" d="
M 452 188.75
L 414 188.75 414 226.75 452 226.75 452 188.75
M 416 190.75
L 450 190.75 450 224.75 416 224.75 416 190.75 Z"/>
</g>

<g id="Layer9_0_FILL">
<path fill="#FFFFFF" stroke="none" d="
M 436 204.75
L 436 206.75 438 206.75 438 204.75 436 204.75 Z"/>
</g>

<g id="Layer9_1_FILL">
<path fill="#FFFFFF" stroke="none" d="
M 436 208.75
L 436 210.75 438 210.75 438 208.75 436 208.75 Z"/>
</g>

<g id="Layer9_2_FILL">
<path fill="#FFFFFF" stroke="none" d="
M 436 206.75
L 436 208.75 438 208.75 438 206.75 436 206.75 Z"/>
</g>

<g id="Layer9_3_FILL">
<path fill="#FFFFFF" stroke="none" d="
M 434 210.75
L 432.05 210.75 432.05 212.75 434 212.75 434 210.75 Z"/>
</g>

<g id="Layer9_4_FILL">
<path fill="#FFFFFF" stroke="none" d="
M 436 202.75
L 436 204.75 438 204.75 438 202.75 436 202.75 Z"/>
</g>

<g id="Layer9_5_FILL">
<path fill="#FFFFFF" stroke="none" d="
M 434 208.75
L 432 208.75 432 210.75 434 210.75 434 208.75 Z"/>
</g>

<g id="Layer9_6_FILL">
<path fill="#FFFFFF" stroke="none" d="
M 432 208.75
L 430 208.75 430 210.75 432 210.75 432 208.75 Z"/>
</g>

<g id="Layer9_7_FILL">
<path fill="#FFFFFF" stroke="none" d="
M 434 208.75
L 434 210.75 436 210.75 436 208.75 434 208.75 Z"/>
</g>

<g id="Layer9_8_FILL">
<path fill="#FFFFFF" stroke="none" d="
M 434 204.75
L 436 204.75 436 202.75 434 202.75 434 204.75 Z"/>
</g>

<g id="Layer9_9_FILL">
<path fill="#FFFFFF" stroke="none" d="
M 434 204.75
L 434 206.75 436 206.75 436 204.75 434 204.75 Z"/>
</g>

<g id="Layer9_10_FILL">
<path fill="#FFFFFF" stroke="none" d="
M 434 206.75
L 434 208.75 436 208.75 436 206.75 434 206.75 Z"/>
</g>

<g id="Layer9_11_FILL">
<path fill="#FFFFFF" stroke="none" d="
M 432 206.75
L 434 206.75 434 204.75 432 204.75 432 206.75 Z"/>
</g>

<g id="Layer9_12_FILL">
<path fill="#FFFFFF" stroke="none" d="
M 432 208.75
L 432 206.75 430 206.75 430 208.75 432 208.75 Z"/>
</g>

<g id="Layer9_13_FILL">
<path fill="#FFFFFF" stroke="none" d="
M 432 206.75
L 432 204.75 430 204.75 430 206.75 432 206.75 Z"/>
</g>

<g id="Layer9_14_FILL">
<path fill="#FFFFFF" stroke="none" d="
M 428 208.75
L 430 208.75 430 206.75 428 206.75 428 208.75 Z"/>
</g>

<g id="Layer9_15_FILL">
<path fill="#FFFFFF" stroke="none" d="
M 430 208.75
L 428.05 208.75 428.05 210.75 430 210.75 430 208.75 Z"/>
</g>

<g id="Layer9_16_FILL">
<path fill="#FFFFFF" stroke="none" d="
M 428 206.75
L 426.05 206.75 426.05 208.75 428 208.75 428 206.75 Z"/>
</g>

<g id="Layer9_17_FILL">
<path fill="#FFFFFF" stroke="none" d="
M 430 206.75
L 430 204.75 428 204.75 428 206.75 430 206.75 Z"/>
</g>

<g id="Layer9_18_FILL">
<path fill="#FFFFFF" stroke="none" d="
M 432 204.75
L 434 204.75 434 202.75 432 202.75 432 204.75 Z"/>
</g>

<g id="Layer9_19_FILL">
<path fill="#FFFFFF" stroke="none" d="
M 428 204.75
L 428 202.75 426 202.75 426 204.75 428 204.75 Z"/>
</g>

<g id="Layer9_20_FILL">
<path fill="#FFFFFF" stroke="none" d="
M 430 204.75
L 432 204.75 432 202.75 430 202.75 430 204.75 Z"/>
</g>

<g id="Layer9_21_FILL">
<path fill="#FFFFFF" stroke="none" d="
M 432 206.75
L 432 208.75 434 208.75 434 206.75 432 206.75 Z"/>
</g>

<g id="Layer9_22_FILL">
<path fill="#FFFFFF" stroke="none" d="
M 430 204.75
L 430 202.75 428 202.75 428 204.75 430 204.75 Z"/>
</g>

<g id="Layer9_23_FILL">
<path fill="#FFFFFF" stroke="none" d="
M 442 204.75
L 440 204.75 440 206.75 442 206.75 442 204.75 Z"/>
</g>

<g id="Layer9_24_FILL">
<path fill="#FFFFFF" stroke="none" d="
M 432 200.75
L 434 200.75 434 198.75 432 198.75 432 200.75 Z"/>
</g>

<g id="Layer9_25_FILL">
<path fill="#FFFFFF" stroke="none" d="
M 434 196.75
L 432.05 196.75 432.05 198.75 434 198.75 434 196.75 Z"/>
</g>

<g id="Layer9_26_FILL">
<path fill="#FFFFFF" stroke="none" d="
M 430.05 200.75
L 432 200.75 432 198.75 430.05 198.75 430.05 200.75 Z"/>
</g>

<g id="Layer9_27_FILL">
<path fill="#FFFFFF" stroke="none" d="
M 434 216.75
L 434 214.75 432.05 214.75 432.05 216.75 434 216.75 Z"/>
</g>

<g id="Layer9_28_FILL">
<path fill="#FFFFFF" stroke="none" d="
M 434 216.75
L 432.05 216.75 432.05 218.75 434 218.75 434 216.75 Z"/>
</g>

<g id="Layer9_29_FILL">
<path fill="#FFFFFF" stroke="none" d="
M 434 198.75
L 434 200.75 436 200.75 436 198.75 434 198.75 Z"/>
</g>

<g id="Layer9_30_FILL">
<path fill="#FFFFFF" stroke="none" d="
M 436 218.75
L 436 216.75 434 216.75 434 218.75 436 218.75 Z"/>
</g>

<g id="Layer9_31_FILL">
<path fill="#FFFFFF" stroke="none" d="
M 440.05 200.75
L 440.05 202.75 442 202.75 442 200.75 440.05 200.75 Z"/>
</g>

<g id="Layer9_32_FILL">
<path fill="#FFFFFF" stroke="none" d="
M 438 218.75
L 438 216.75 436 216.75 436 218.75 438 218.75 Z"/>
</g>

<g id="Layer9_33_FILL">
<path fill="#FFFFFF" stroke="none" d="
M 440 216.75
L 440 214.75 438 214.75 438 216.75 440 216.75 Z"/>
</g>

<g id="Layer9_34_FILL">
<path fill="#FFFFFF" stroke="none" d="
M 434 202.75
L 436 202.75 436 200.75 434 200.75 434 202.75 Z"/>
</g>

<g id="Layer9_35_FILL">
<path fill="#FFFFFF" stroke="none" d="
M 428.05 202.75
L 430 202.75 430 200.75 428.05 200.75 428.05 202.75 Z"/>
</g>

<g id="Layer9_36_FILL">
<path fill="#FFFFFF" stroke="none" d="
M 426 202.75
L 426 200.75 424.05 200.75 424.05 202.75 426 202.75 Z"/>
</g>

<g id="Layer9_37_FILL">
<path fill="#FFFFFF" stroke="none" d="
M 426 204.75
L 426 202.75 424.05 202.75 424.05 204.75 426 204.75 Z"/>
</g>

<g id="Layer9_38_FILL">
<path fill="#FFFFFF" stroke="none" d="
M 436 202.75
L 438 202.75 438 200.75 436 200.75 436 202.75 Z"/>
</g>

<g id="Layer9_39_FILL">
<path fill="#FFFFFF" stroke="none" d="
M 426 204.75
L 424.05 204.75 424.05 206.75 426 206.75 426 204.75 Z"/>
</g>

<g id="Layer9_40_FILL">
<path fill="#FFFFFF" stroke="none" d="
M 432 202.75
L 434 202.75 434 200.75 432 200.75 432 202.75 Z"/>
</g>

<g id="Layer9_41_FILL">
<path fill="#FFFFFF" stroke="none" d="
M 442 202.75
L 440 202.75 440 204.75 442 204.75 442 202.75 Z"/>
</g>

<g id="Layer9_42_FILL">
<path fill="#FFFFFF" stroke="none" d="
M 430 202.75
L 432 202.75 432 200.75 430 200.75 430 202.75 Z"/>
</g>

<g id="Layer9_43_FILL">
<path fill="#FFFFFF" stroke="none" d="
M 438 204.75
L 438 206.75 440 206.75 440 204.75 438 204.75 Z"/>
</g>

<g id="Layer9_44_FILL">
<path fill="#FFFFFF" stroke="none" d="
M 436.05 214.75
L 436.05 216.75 438 216.75 438 214.75 436.05 214.75 Z"/>
</g>

<g id="Layer9_45_FILL">
<path fill="#FFFFFF" stroke="none" d="
M 438 206.75
L 438 208.75 440 208.75 440 206.75 438 206.75 Z"/>
</g>

<g id="Layer9_46_FILL">
<path fill="#FFFFFF" stroke="none" d="
M 426 206.75
L 428 206.75 428 204.75 426 204.75 426 206.75 Z"/>
</g>

<g id="Layer9_47_FILL">
<path fill="#FFFFFF" stroke="none" d="
M 440 204.75
L 440 202.75 438 202.75 438 204.75 440 204.75 Z"/>
</g>

<g id="Layer9_48_FILL">
<path fill="#FFFFFF" stroke="none" d="
M 434 212.75
L 432.05 212.75 432.05 214.75 434 214.75 434 212.75 Z"/>
</g>

<g id="Layer9_49_FILL">
<path fill="#FFFFFF" stroke="none" d="
M 444.05 198.75
L 442.05 198.75 442.05 200.75 444.05 200.75 444.05 198.75 Z"/>
</g>

<g id="Layer9_50_FILL">
<path fill="#FFFFFF" stroke="none" d="
M 424.05 198.75
L 422.05 198.75 422.05 200.75 424.05 200.75 424.05 198.75 Z"/>
</g>

<g id="_________60_0_Layer0_0_FILL">
<path fill="#FFFFFF" stroke="none" d="
M 420.05 186.75
L 420.05 184.75 418.05 184.75 418.05 186.75 420.05 186.75 Z"/>
</g>

<g id="_________58_0_Layer0_0_FILL">
<path fill="#FFFFFF" stroke="none" d="
M 422.05 184.75
L 422.05 182.75 420.05 182.75 420.05 184.75 422.05 184.75 Z"/>
</g>

<g id="_________56_0_Layer0_0_FILL">
<path fill="#FFFFFF" stroke="none" d="
M 454.05 188.75
L 454.05 186.75 452.05 186.75 452.05 188.75 454.05 188.75 Z"/>
</g>

<g id="_________54_0_Layer0_0_FILL">
<path fill="#FFFFFF" stroke="none" d="
M 456.05 186.75
L 456.05 184.75 454.05 184.75 454.05 186.75 456.05 186.75 Z"/>
</g>

<g id="_________52_0_Layer0_0_FILL">
<path fill="#FFFFFF" stroke="none" d="
M 456.05 224.75
L 456.05 222.75 454.05 222.75 454.05 224.75 456.05 224.75 Z"/>
</g>

<g id="_________50_0_Layer0_0_FILL">
<path fill="#FFFFFF" stroke="none" d="
M 458.05 222.75
L 458.05 220.75 456.05 220.75 456.05 222.75 458.05 222.75 Z"/>
</g>

<g id="Layer1_0_MEMBER_0_FILL">
<path fill="#FFFFFF" stroke="none" d="
M 422 180.75
L 422 182.75 458 182.75 458 218.75 460 218.75 460 180.75 422 180.75 Z"/>
</g>
</defs>

<g transform="matrix( 1, 0, 0, 1, -414.05,-180.8) ">
<use xlink:href="#Layer14_0_FILL"/>
</g>

<g transform="matrix( 1, 0, 0, 1, -414.05,-180.8) ">
<use xlink:href="#Layer14_1_FILL"/>
</g>

<g transform="matrix( 1, 0, 0, 1, -414.05,-180.8) ">
<use xlink:href="#Layer14_2_FILL"/>
</g>

<g transform="matrix( 1, 0, 0, 1, -414.05,-180.8) ">
<use xlink:href="#Layer14_3_FILL"/>
</g>

<g transform="matrix( 1, 0, 0, 1, -414.05,-180.8) ">
<use xlink:href="#Layer14_4_FILL"/>
</g>

<g transform="matrix( 1, 0, 0, 1, -414.05,-180.8) ">
<use xlink:href="#Layer14_5_FILL"/>
</g>

<g transform="matrix( 1, 0, 0, 1, -414.05,-180.8) ">
<use xlink:href="#Layer14_6_FILL"/>
</g>

<g transform="matrix( 1, 0, 0, 1, -414,-180.8) ">
<use xlink:href="#Layer13_0_FILL"/>
</g>

<g transform="matrix( 1, 0, 0, 1, -414,-180.8) ">
<use xlink:href="#Layer13_1_FILL"/>
</g>

<g transform="matrix( 1, 0, 0, 1, -414,-180.8) ">
<use xlink:href="#Layer13_2_FILL"/>
</g>

<g transform="matrix( 1, 0, 0, 1, -414,-180.8) ">
<use xlink:href="#Layer13_3_FILL"/>
</g>

<g transform="matrix( 1, 0, 0, 1, -414,-180.8) ">
<use xlink:href="#Layer13_4_FILL"/>
</g>

<g transform="matrix( 1, 0, 0, 1, -414.05,-180.8) ">
<use xlink:href="#Layer12_0_FILL"/>
</g>

<g transform="matrix( 1, 0, 0, 1, -414.05,-180.8) ">
<use xlink:href="#Layer12_1_FILL"/>
</g>

<g transform="matrix( 1, 0, 0, 1, -414.05,-180.8) ">
<use xlink:href="#Layer12_2_FILL"/>
</g>

<g transform="matrix( 1, 0, 0, 1, -414.05,-180.8) ">
<use xlink:href="#Layer12_3_FILL"/>
</g>

<g transform="matrix( 1, 0, 0, 1, -414.05,-180.8) ">
<use xlink:href="#Layer12_4_FILL"/>
</g>

<g transform="matrix( 1, 0, 0, 1, -414.05,-180.8) ">
<use xlink:href="#Layer12_5_FILL"/>
</g>

<g transform="matrix( 1, 0, 0, 1, -414.05,-180.8) ">
<use xlink:href="#Layer12_6_FILL"/>
</g>

<g transform="matrix( 1, 0, 0, 1, -414,-180.8) ">
<use xlink:href="#Layer11_0_FILL"/>
</g>

<g transform="matrix( 1, 0, 0, 1, -414,-180.8) ">
<use xlink:href="#Layer11_1_FILL"/>
</g>

<g transform="matrix( 1, 0, 0, 1, -414,-180.8) ">
<use xlink:href="#Layer11_2_FILL"/>
</g>

<g transform="matrix( 1, 0, 0, 1, -414,-180.8) ">
<use xlink:href="#Layer11_3_FILL"/>
</g>

<g transform="matrix( 1, 0, 0, 1, -414,-180.8) ">
<use xlink:href="#Layer11_4_FILL"/>
</g>

<g transform="matrix( 1, 0, 0, 1, -414,-180.8) ">
<use xlink:href="#Layer10_0_MEMBER_0_FILL"/>
</g>

<g transform="matrix( 1, 0, 0, 1, -414,-180.8) ">
<use xlink:href="#Layer9_0_FILL"/>
</g>

<g transform="matrix( 1, 0, 0, 1, -414,-180.8) ">
<use xlink:href="#Layer9_1_FILL"/>
</g>

<g transform="matrix( 1, 0, 0, 1, -414,-180.8) ">
<use xlink:href="#Layer9_2_FILL"/>
</g>

<g transform="matrix( 1, 0, 0, 1, -414,-180.8) ">
<use xlink:href="#Layer9_3_FILL"/>
</g>

<g transform="matrix( 1, 0, 0, 1, -414,-180.8) ">
<use xlink:href="#Layer9_4_FILL"/>
</g>

<g transform="matrix( 1, 0, 0, 1, -414,-180.8) ">
<use xlink:href="#Layer9_5_FILL"/>
</g>

<g transform="matrix( 1, 0, 0, 1, -414,-180.8) ">
<use xlink:href="#Layer9_6_FILL"/>
</g>

<g transform="matrix( 1, 0, 0, 1, -414,-180.8) ">
<use xlink:href="#Layer9_7_FILL"/>
</g>

<g transform="matrix( 1, 0, 0, 1, -414,-180.8) ">
<use xlink:href="#Layer9_8_FILL"/>
</g>

<g transform="matrix( 1, 0, 0, 1, -414,-180.8) ">
<use xlink:href="#Layer9_9_FILL"/>
</g>

<g transform="matrix( 1, 0, 0, 1, -414,-180.8) ">
<use xlink:href="#Layer9_10_FILL"/>
</g>

<g transform="matrix( 1, 0, 0, 1, -414,-180.8) ">
<use xlink:href="#Layer9_11_FILL"/>
</g>

<g transform="matrix( 1, 0, 0, 1, -414,-180.8) ">
<use xlink:href="#Layer9_12_FILL"/>
</g>

<g transform="matrix( 1, 0, 0, 1, -414,-180.8) ">
<use xlink:href="#Layer9_13_FILL"/>
</g>

<g transform="matrix( 1, 0, 0, 1, -414,-180.8) ">
<use xlink:href="#Layer9_14_FILL"/>
</g>

<g transform="matrix( 1, 0, 0, 1, -414,-180.8) ">
<use xlink:href="#Layer9_15_FILL"/>
</g>

<g transform="matrix( 1, 0, 0, 1, -414,-180.8) ">
<use xlink:href="#Layer9_16_FILL"/>
</g>

<g transform="matrix( 1, 0, 0, 1, -414,-180.8) ">
<use xlink:href="#Layer9_17_FILL"/>
</g>

<g transform="matrix( 1, 0, 0, 1, -414,-180.8) ">
<use xlink:href="#Layer9_18_FILL"/>
</g>

<g transform="matrix( 1, 0, 0, 1, -414,-180.8) ">
<use xlink:href="#Layer9_19_FILL"/>
</g>

<g transform="matrix( 1, 0, 0, 1, -414,-180.8) ">
<use xlink:href="#Layer9_20_FILL"/>
</g>

<g transform="matrix( 1, 0, 0, 1, -414,-180.8) ">
<use xlink:href="#Layer9_21_FILL"/>
</g>

<g transform="matrix( 1, 0, 0, 1, -414,-180.8) ">
<use xlink:href="#Layer9_22_FILL"/>
</g>

<g transform="matrix( 1, 0, 0, 1, -414,-180.8) ">
<use xlink:href="#Layer9_23_FILL"/>
</g>

<g transform="matrix( 1, 0, 0, 1, -414,-180.8) ">
<use xlink:href="#Layer9_24_FILL"/>
</g>

<g transform="matrix( 1, 0, 0, 1, -414,-180.8) ">
<use xlink:href="#Layer9_25_FILL"/>
</g>

<g transform="matrix( 1, 0, 0, 1, -414,-180.8) ">
<use xlink:href="#Layer9_26_FILL"/>
</g>

<g transform="matrix( 1, 0, 0, 1, -414,-180.8) ">
<use xlink:href="#Layer9_27_FILL"/>
</g>

<g transform="matrix( 1, 0, 0, 1, -414,-180.8) ">
<use xlink:href="#Layer9_28_FILL"/>
</g>

<g transform="matrix( 1, 0, 0, 1, -414,-180.8) ">
<use xlink:href="#Layer9_29_FILL"/>
</g>

<g transform="matrix( 1, 0, 0, 1, -414,-180.8) ">
<use xlink:href="#Layer9_30_FILL"/>
</g>

<g transform="matrix( 1, 0, 0, 1, -414,-180.8) ">
<use xlink:href="#Layer9_31_FILL"/>
</g>

<g transform="matrix( 1, 0, 0, 1, -414,-180.8) ">
<use xlink:href="#Layer9_32_FILL"/>
</g>

<g transform="matrix( 1, 0, 0, 1, -414,-180.8) ">
<use xlink:href="#Layer9_33_FILL"/>
</g>

<g transform="matrix( 1, 0, 0, 1, -414,-180.8) ">
<use xlink:href="#Layer9_34_FILL"/>
</g>

<g transform="matrix( 1, 0, 0, 1, -414,-180.8) ">
<use xlink:href="#Layer9_35_FILL"/>
</g>

<g transform="matrix( 1, 0, 0, 1, -414,-180.8) ">
<use xlink:href="#Layer9_36_FILL"/>
</g>

<g transform="matrix( 1, 0, 0, 1, -414,-180.8) ">
<use xlink:href="#Layer9_37_FILL"/>
</g>

<g transform="matrix( 1, 0, 0, 1, -414,-180.8) ">
<use xlink:href="#Layer9_38_FILL"/>
</g>

<g transform="matrix( 1, 0, 0, 1, -414,-180.8) ">
<use xlink:href="#Layer9_39_FILL"/>
</g>

<g transform="matrix( 1, 0, 0, 1, -414,-180.8) ">
<use xlink:href="#Layer9_40_FILL"/>
</g>

<g transform="matrix( 1, 0, 0, 1, -414,-180.8) ">
<use xlink:href="#Layer9_41_FILL"/>
</g>

<g transform="matrix( 1, 0, 0, 1, -414,-180.8) ">
<use xlink:href="#Layer9_42_FILL"/>
</g>

<g transform="matrix( 1, 0, 0, 1, -414,-180.8) ">
<use xlink:href="#Layer9_43_FILL"/>
</g>

<g transform="matrix( 1, 0, 0, 1, -414,-180.8) ">
<use xlink:href="#Layer9_44_FILL"/>
</g>

<g transform="matrix( 1, 0, 0, 1, -414,-180.8) ">
<use xlink:href="#Layer9_45_FILL"/>
</g>

<g transform="matrix( 1, 0, 0, 1, -414,-180.8) ">
<use xlink:href="#Layer9_46_FILL"/>
</g>

<g transform="matrix( 1, 0, 0, 1, -414,-180.8) ">
<use xlink:href="#Layer9_47_FILL"/>
</g>

<g transform="matrix( 1, 0, 0, 1, -414,-180.8) ">
<use xlink:href="#Layer9_48_FILL"/>
</g>

<g transform="matrix( 1, 0, 0, 1, -414,-180.8) ">
<use xlink:href="#Layer9_49_FILL"/>
</g>

<g transform="matrix( 1, 0, 0, 1, -414,-180.8) ">
<use xlink:href="#Layer9_50_FILL"/>
</g>

<g transform="matrix( 1, 0, 0, 1, 5.05,4.95) ">
<g transform="matrix( 1, 0, 0, 1, -419.05,-185.75) ">
<use xlink:href="#_________60_0_Layer0_0_FILL"/>
</g>
</g>

<g transform="matrix( 1, 0, 0, 1, 7.05,2.95) ">
<g transform="matrix( 1, 0, 0, 1, -421.05,-183.75) ">
<use xlink:href="#_________58_0_Layer0_0_FILL"/>
</g>
</g>

<g transform="matrix( 1, 0, 0, 1, 39.05,6.95) ">
<g transform="matrix( 1, 0, 0, 1, -453.05,-187.75) ">
<use xlink:href="#_________56_0_Layer0_0_FILL"/>
</g>
</g>

<g transform="matrix( 1, 0, 0, 1, 41.05,4.95) ">
<g transform="matrix( 1, 0, 0, 1, -455.05,-185.75) ">
<use xlink:href="#_________54_0_Layer0_0_FILL"/>
</g>
</g>

<g transform="matrix( 1, 0, 0, 1, 41.05,40.95) ">
<g transform="matrix( 1, 0, 0, 1, -455.05,-223.75) ">
<use xlink:href="#_________52_0_Layer0_0_FILL"/>
</g>
</g>

<g transform="matrix( 1, 0, 0, 1, 43.05,38.95) ">
<g transform="matrix( 1, 0, 0, 1, -457.05,-221.75) ">
<use xlink:href="#_________50_0_Layer0_0_FILL"/>
</g>
</g>

<g transform="matrix( 1, 0, 0, 1, -414,-180.8) ">
<use xlink:href="#Layer1_0_MEMBER_0_FILL"/>
</g>
</svg>
