<svg width="32" height="31" viewBox="0 0 32 31" fill="none" xmlns="http://www.w3.org/2000/svg">
<path d="M14.9469 1.73023C15.4469 0.660234 16.9769 0.660234 17.4769 1.73023L20.9969 9.33023C21.1969 9.77023 21.6169 10.0702 22.0969 10.1302L30.4469 11.1102C31.6269 11.2502 32.1069 12.7002 31.2269 13.5102L25.0469 19.1902C24.6869 19.5202 24.5269 20.0102 24.6269 20.4802L26.2669 28.6802C26.4969 29.8402 25.2569 30.7402 24.2169 30.1602L16.8769 26.0702C16.4569 25.8302 15.9369 25.8302 15.5169 26.0702L8.17687 30.1602C7.13687 30.7402 5.89687 29.8402 6.12687 28.6802L7.76687 20.4802C7.85687 20.0102 7.70687 19.5202 7.34687 19.1902L1.16687 13.5102C0.296868 12.7102 0.766867 11.2502 1.94687 11.1102L10.2969 10.1302C10.7769 10.0702 11.1969 9.77023 11.3969 9.33023L14.9169 1.73023H14.9469Z" fill="#FF3D2D"/>
</svg>
