<?xml version="1.0" encoding="UTF-8"?>
<svg id="Layer_2" data-name="Layer 2" xmlns="http://www.w3.org/2000/svg" viewBox="0 0 64 64">
  <defs>
    <style>
      .cls-1, .cls-2 {
        stroke-width: 0px;
      }

      .cls-2 {
        fill: #fff;
      }
    </style>
  </defs>
  <g id="Layer_1-2" data-name="Layer 1">
    <circle class="cls-2" cx="32" cy="32" r="32"/>
    <g>
      <path class="cls-1" d="m30.93,23.47l.02,11.52c0,.88-.15,1.69-.43,2.42-.28.73-.66,1.35-1.16,1.87-.5.52-1.1.92-1.8,1.21s-1.5.43-2.37.43-1.62-.14-2.32-.43-1.29-.68-1.79-1.2c-.5-.52-.88-1.14-1.16-1.87-.28-.73-.42-1.54-.42-2.43l.02-11.52h2.79l.02,11.52c0,.53.08,1.01.2,1.45s.31.82.54,1.14c.24.32.53.57.88.74s.76.27,1.22.27.89-.09,1.25-.27c.36-.18.67-.43.91-.74.24-.32.43-.7.55-1.14s.19-.93.2-1.45l.02-11.52h2.79Z"/>
      <path class="cls-1" d="m44.32,34.42c0,.93-.11,1.79-.33,2.59-.22.8-.54,1.48-.97,2.06-.43.58-.95,1.03-1.57,1.36-.62.33-1.33.49-2.13.49-.73,0-1.37-.12-1.92-.35s-1.03-.58-1.44-1.02v6.05h-2.83v-17.71h2.6l.12,1.29c.41-.49.9-.86,1.46-1.13s1.22-.4,1.97-.4c.81,0,1.53.16,2.16.47.63.32,1.15.76,1.58,1.33s.75,1.26.97,2.06c.22.8.33,1.68.33,2.65v.25Zm-2.83-.25c0-.57-.06-1.12-.18-1.62s-.3-.95-.54-1.34c-.24-.38-.56-.68-.93-.9s-.83-.33-1.35-.33c-.63,0-1.15.13-1.56.4-.41.27-.73.63-.97,1.08v5.72c.24.44.56.8.96,1.08.41.28.94.41,1.59.41.52,0,.97-.11,1.35-.34.38-.23.69-.54.93-.92.24-.39.42-.83.53-1.35s.17-1.06.17-1.63v-.25Z"/>
    </g>
  </g>
</svg>