<svg width="40" height="40" viewBox="0 0 40 40" fill="none" xmlns="http://www.w3.org/2000/svg">
<path d="M12.984 34.382C13.03 33.71 13.126 33.04 13.27 32.38C13.396 31.79 13.778 30.12 14.338 27.7L14.352 27.64L15.126 24.304C15.284 23.624 15.406 23.096 15.488 22.92C15.0996 22.0221 14.906 21.0522 14.92 20.074C14.92 17.4 16.432 15.328 18.392 15.328C19.112 15.316 19.8 15.628 20.276 16.18C20.752 16.732 20.972 17.466 20.88 18.172C20.88 19.078 20.71 19.768 19.972 22.242C19.858 22.6215 19.748 23.0022 19.642 23.384C19.54 23.76 19.452 24.1 19.378 24.428C19.186 25.2 19.362 26.022 19.852 26.638C20.0896 26.9404 20.3964 27.1813 20.7465 27.3404C21.0967 27.4994 21.4799 27.572 21.864 27.552C24.848 27.552 27.064 23.582 27.064 18.456C27.064 14.516 24.484 11.908 20.2 11.908C19.1276 11.8681 18.0586 12.0513 17.0606 12.4458C16.0626 12.8403 15.1573 13.4376 14.402 14.2C13.6305 14.9791 13.0219 15.9039 12.6115 16.9207C12.2012 17.9374 11.9974 19.0257 12.012 20.122C11.9623 21.3035 12.3242 22.4656 13.036 23.41C13.398 23.69 13.536 24.176 13.386 24.59C13.304 24.926 13.106 25.694 13.032 25.95C13.0111 26.0752 12.9613 26.1939 12.8867 26.2966C12.8121 26.3994 12.7146 26.4834 12.602 26.542C12.4927 26.5994 12.3712 26.6299 12.2477 26.631C12.1242 26.632 12.0023 26.6036 11.892 26.548C9.572 25.59 8.3 22.992 8.3 19.668C8.3 13.698 13.282 8.5 20.684 8.5C26.954 8.5 31.646 13.158 31.646 18.78C31.646 25.844 27.782 30.988 22.266 30.988C21.4814 31.0107 20.7025 30.8491 19.9918 30.5159C19.2811 30.1828 18.6584 29.6876 18.174 29.07L18.088 29.424L17.674 31.128L17.67 31.144C17.378 32.344 17.174 33.178 17.094 33.49C16.882 34.2 16.614 34.896 16.294 35.57C20.2736 36.5184 24.4653 35.9064 28.0077 33.8598C31.55 31.8131 34.1737 28.4873 35.3397 24.5659C36.5057 20.6445 36.1252 16.4255 34.2766 12.7759C32.4279 9.12634 29.2515 6.32355 25.4002 4.94359C21.5489 3.56364 17.3153 3.71137 13.5696 5.35641C9.82382 7.00145 6.8505 10.0188 5.26073 13.7884C3.67096 17.5579 3.58553 21.7932 5.02198 25.6238C6.45843 29.4544 9.30764 32.5872 12.984 34.382ZM20 40C8.954 40 0 31.046 0 20C0 8.954 8.954 0 20 0C31.046 0 40 8.954 40 20C40 31.046 31.046 40 20 40Z" fill="black"/>
</svg>
