<svg width="183" height="183" viewBox="0 0 183 183" fill="none" xmlns="http://www.w3.org/2000/svg">
<g clip-path="url(#clip0_908_17106)">
<path d="M57 117.807V48H126V134.868C126 134.942 125.942 135 125.868 135L98.6949 134.917L74.5609 67.0051L57 117.807Z" fill="white"/>
<path d="M71.5452 97.6102C76.0672 92.7369 79.988 100.051 81.52 103.435C84.0075 108.945 85.5396 114.605 86.1079 120.405C86.2809 122.208 86.1079 123.987 85.5808 125.741C83.5298 132.543 75.3836 133.155 69.6919 131.616C62.0069 129.539 62.6082 121.207 63.9179 115.126C64.9392 110.393 66.5042 105.942 68.6211 101.764C69.3624 100.299 70.3426 98.9175 71.5534 97.6102H71.5452Z" fill="white"/>
</g>
<defs>
<clipPath id="clip0_908_17106">
<rect width="69" height="87" fill="white" transform="translate(57 48)"/>
</clipPath>
</defs>
</svg>
