<svg width="183" height="183" viewBox="0 0 183 183" fill="none" xmlns="http://www.w3.org/2000/svg">
<g clip-path="url(#clip0_908_17072)">
<path d="M157 104.455C156.976 104.577 156.947 104.695 156.922 104.818C156.597 106.19 155.734 107.129 154.38 107.558C152.459 108.166 150.629 107.874 148.951 106.78C148.295 106.351 148.31 106.313 148.693 105.653C148.887 105.318 149.086 104.983 149.28 104.648C149.475 104.318 149.712 104.257 150.042 104.459C150.658 104.846 151.289 105.195 152.017 105.322C152.303 105.374 152.619 105.393 152.905 105.341C153.705 105.19 154.065 104.441 153.662 103.752C153.502 103.488 153.283 103.262 153.026 103.092C152.667 102.856 152.269 102.677 151.867 102.512C151.013 102.153 150.212 101.734 149.533 101.102C147.529 99.2342 148.32 96.1689 150.93 95.3577C152.507 94.8673 154.031 95.0936 155.481 95.8152C155.816 95.9897 156.141 96.183 156.452 96.3905C156.704 96.5509 156.753 96.7961 156.588 97.0413C156.292 97.4846 155.996 97.9232 155.69 98.3571C155.476 98.6542 155.234 98.6919 154.923 98.4938C154.327 98.1118 153.715 97.7629 153.012 97.5931C152.619 97.4988 152.23 97.4752 151.852 97.6638C151.323 97.9279 151.139 98.4797 151.474 98.9513C151.672 99.2201 151.92 99.4417 152.211 99.6162C152.599 99.852 153.026 100.027 153.453 100.201C154.375 100.583 155.253 101.017 155.957 101.734C156.515 102.3 156.864 102.969 156.956 103.757C156.966 103.804 156.981 103.846 156.995 103.889L157 104.455ZM29.0718 99.6445C34.6807 102.7 40.2945 105.761 45.9034 108.817C46.0733 108.911 46.1946 108.907 46.3644 108.817C51.1873 106.176 56.015 103.535 60.8379 100.899C61.1873 100.706 61.5415 100.517 61.9102 100.314C62.3712 101.187 62.8224 102.04 63.2785 102.903L46.083 112.462C46.083 112.104 46.0684 111.797 46.0878 111.491C46.1024 111.279 46.0296 111.161 45.8307 111.052C39.9743 107.841 34.1228 104.625 28.2712 101.408C28.1402 101.338 28.0092 101.267 27.8637 101.187L27 102.715C27.0873 102.766 27.1553 102.809 27.2232 102.847C33.4386 106.204 39.6541 109.562 45.8695 112.925C46.0539 113.024 46.1849 113.028 46.3692 112.925C51.8278 109.878 57.2863 106.832 62.7496 103.79C63.1621 103.559 63.5745 103.332 64.0015 103.092C63.3561 101.932 62.7205 100.786 62.0801 99.6304L46.083 108.355C46.083 108.105 46.0684 107.912 46.0878 107.713C46.1072 107.497 46.0296 107.383 45.8307 107.275C40.9301 104.606 36.0344 101.932 31.1388 99.2578C31.0078 99.1871 30.8768 99.1116 30.7361 99.0314L31.755 97.3431C31.8714 97.4044 31.9636 97.4516 32.0558 97.5035C36.6652 100.012 41.2746 102.526 45.884 105.04C46.0878 105.153 46.2285 105.143 46.4323 105.035C51.0951 102.469 55.7579 99.9086 60.4255 97.3526C60.508 97.3101 60.5856 97.2583 60.6778 97.2064C60.0131 96.1029 59.3581 95.0229 58.7031 93.9335L46.083 100.819C46.083 100.55 46.0684 100.338 46.0878 100.13C46.1024 99.9558 46.0393 99.8662 45.8792 99.7813C42.0461 97.6921 38.213 95.5982 34.3799 93.4997C34.3023 93.4572 34.2295 93.4101 34.1519 93.3629L35.1659 91.684C35.263 91.7359 35.3358 91.7736 35.4037 91.8114C38.902 93.7166 42.3954 95.6218 45.8937 97.5271C46.0442 97.6119 46.1655 97.6402 46.3353 97.5459C49.9209 95.5747 53.5114 93.6034 57.1019 91.6369C57.1698 91.5991 57.2329 91.5614 57.3008 91.519L55.3261 88.2414L46.0781 93.2874C46.0781 93.0281 46.0636 92.8064 46.083 92.5895C46.0975 92.415 46.0296 92.3254 45.8743 92.2452C43.5114 90.9578 41.1533 89.6703 38.7952 88.3782C38.3731 88.1471 37.9558 87.916 37.524 87.6802L38.5429 85.9966C38.6497 86.0485 38.7273 86.0862 38.8049 86.1287C41.1873 87.4256 43.5696 88.7224 45.952 90.024C46.0878 90.0948 46.18 90.1089 46.3207 90.0287C48.6448 88.7413 50.9689 87.4586 53.2979 86.1806C53.5065 86.0674 53.7152 85.9495 53.9335 85.8269C53.2688 84.7139 52.6186 83.6245 51.9588 82.5257L46.0781 85.7467C46.0781 85.5015 46.0636 85.2987 46.083 85.1006C46.0975 84.912 46.0296 84.8082 45.8598 84.7139C44.2877 83.8603 42.7205 82.9973 41.1485 82.1343C41.0757 82.0918 41.0029 82.0494 40.9301 82.0022L41.9345 80.3375C42.0267 80.3847 42.1043 80.4224 42.1771 80.4601C43.4338 81.1439 44.6856 81.823 45.9423 82.5116C46.0733 82.5823 46.1752 82.6012 46.3159 82.521C47.6841 81.7617 49.0573 81.0119 50.4304 80.2574C50.4789 80.2291 50.5226 80.196 50.5614 80.1583L48.5866 77.06L46.083 78.4087C46.083 78.1399 46.0684 77.9183 46.0878 77.7013C46.1024 77.5174 46.0296 77.4231 45.8695 77.3382C45.2969 77.0364 44.7293 76.7204 44.147 76.3997L45.9956 71.0189L45.952 71C44.7729 72.9807 43.589 74.9661 42.4003 76.9562L46.1606 78.9793L48.4459 77.7249C48.9117 78.4936 49.3678 79.2387 49.8287 79.9933L46.083 82.0258C46.083 81.7617 46.0684 81.5495 46.0878 81.3373C46.1024 81.1628 46.0296 81.0732 45.8792 80.9883C44.4915 80.2338 43.1038 79.4745 41.721 78.7105C41.624 78.6587 41.5269 78.6068 41.4202 78.5502C40.639 79.8754 39.8724 81.1817 39.0961 82.4927C39.1883 82.5446 39.2562 82.587 39.3241 82.6247C41.493 83.8132 43.6618 85.0016 45.8258 86.19C46.015 86.2937 46.146 86.2843 46.3304 86.1853C48.0432 85.2374 49.7608 84.2942 51.4784 83.3557C51.5754 83.3038 51.6725 83.252 51.7792 83.1954C52.2547 84.0207 52.7205 84.8177 53.1912 85.6335L46.0878 89.5383C46.0878 89.2836 46.0733 89.0808 46.0927 88.8781C46.1169 88.6658 46.0296 88.5621 45.8404 88.4583C43.885 87.4114 41.9442 86.3503 40.0034 85.2798C39.3484 84.9214 38.6982 84.5677 38.0189 84.1999L35.6754 88.1707C35.7821 88.232 35.8549 88.2744 35.9326 88.3169C39.261 90.1278 42.5895 91.9387 45.9131 93.7543C46.0781 93.8439 46.1946 93.8392 46.3547 93.7496C49.2077 92.1792 52.0655 90.6135 54.9282 89.0478C55.0107 89.0054 55.0932 88.9629 55.1805 88.9158C55.6511 89.7316 56.1072 90.5239 56.5682 91.3351L46.083 97.0649C46.083 96.8008 46.0684 96.5886 46.0878 96.3764C46.1072 96.1925 46.0296 96.0981 45.8695 96.0133C43.0262 94.4664 40.1878 92.9149 37.3542 91.3634C36.4614 90.8729 35.5638 90.3872 34.6516 89.8873L32.3081 93.8628C32.3857 93.9099 32.4488 93.9477 32.5119 93.9807C36.9806 96.4141 41.4493 98.8522 45.918 101.286C46.0878 101.38 46.214 101.371 46.3789 101.281C50.2266 99.1682 54.0791 97.0602 57.9316 94.9522C58.1402 94.839 58.3489 94.7258 58.5721 94.6079L59.9549 97.0225L46.083 104.615C46.083 104.346 46.0733 104.12 46.0878 103.894C46.0975 103.724 46.0393 103.629 45.884 103.545C41.0563 100.913 36.2285 98.2769 31.4056 95.6407C31.3523 95.6124 31.294 95.5888 31.2261 95.5605L28.8777 99.5313C28.9602 99.5785 29.0136 99.6162 29.0718 99.6445ZM92.3663 100.724C93.4144 103.002 94.4672 105.28 95.5153 107.563C95.6366 107.831 95.7385 107.869 96.1266 107.85C96.3644 107.841 96.4566 107.695 96.5148 107.497C97.6405 103.596 98.7661 99.6964 99.8967 95.801C100.008 95.4143 99.8967 95.2776 99.4745 95.2776C98.8535 95.2776 98.2276 95.2776 97.6065 95.2776C97.2911 95.2776 97.1892 95.353 97.1116 95.6501C96.6167 97.5365 96.1218 99.4229 95.6269 101.309C95.6075 101.385 95.5784 101.455 95.5347 101.587C95.4668 101.446 95.4231 101.371 95.3891 101.295C94.4964 99.3285 93.6036 97.3573 92.7108 95.3907C92.6672 95.2917 92.5798 95.1738 92.4876 95.1361C92.1189 94.9899 91.8083 95.1314 91.6482 95.4851C90.77 97.4233 89.8918 99.3663 89.0136 101.305C88.9796 101.385 88.9311 101.46 88.868 101.578C88.8292 101.47 88.805 101.422 88.7904 101.371C88.6109 100.677 88.4265 99.9841 88.247 99.2955C87.9316 98.0835 87.6162 96.8763 87.3008 95.6643C87.2475 95.4568 87.1504 95.287 86.9078 95.2823C86.2043 95.2729 85.5007 95.2729 84.7972 95.2823C84.5255 95.287 84.4187 95.4568 84.4818 95.7161C84.4964 95.7775 84.5158 95.8388 84.5352 95.9001C85.6511 99.753 86.7622 103.606 87.8782 107.464C87.9364 107.662 88.0044 107.836 88.2615 107.855C88.6594 107.883 88.7758 107.831 88.9068 107.539C89.9161 105.337 90.9253 103.134 91.9296 100.932C92.0073 100.762 92.0849 100.592 92.1917 100.371C92.2644 100.522 92.3178 100.621 92.3663 100.724ZM133.279 107.195C133.279 107.572 133.376 107.666 133.764 107.671C135.171 107.671 136.578 107.68 137.98 107.666C138.397 107.662 138.82 107.629 139.232 107.563C142.614 107.001 144.996 103.658 144.346 100.39C143.749 97.3809 141.139 95.2776 137.99 95.2729C136.592 95.2729 135.195 95.2729 133.793 95.2729C133.371 95.2729 133.274 95.3625 133.274 95.768C133.274 97.6685 133.274 99.5691 133.274 101.47C133.279 103.38 133.279 105.289 133.279 107.195ZM136.131 97.9279C136.146 97.9138 136.161 97.8949 136.17 97.8949C137.01 97.9185 137.864 97.843 138.684 97.9845C140.285 98.2675 141.367 99.6492 141.425 101.319C141.493 103.153 140.319 104.667 138.548 104.983C138.082 105.068 137.597 105.04 137.121 105.054C136.801 105.063 136.476 105.054 136.131 105.054V97.9279ZM126.525 102.172C127.539 101.498 128.194 100.588 128.271 99.3757C128.417 97.1639 126.685 95.3247 124.404 95.2823C122.585 95.2493 120.765 95.2729 118.946 95.2776C118.645 95.2776 118.524 95.4002 118.524 95.6973C118.524 99.5502 118.524 103.398 118.524 107.251C118.524 107.563 118.635 107.671 118.965 107.676C119.61 107.68 120.261 107.68 120.906 107.676C121.27 107.676 121.381 107.567 121.381 107.209C121.381 105.841 121.381 104.474 121.381 103.106C121.381 103.016 121.391 102.927 121.396 102.818C121.745 102.818 122.07 102.832 122.391 102.814C122.585 102.804 122.672 102.875 122.754 103.035C123.502 104.497 124.259 105.954 125.02 107.412C125.079 107.525 125.239 107.657 125.355 107.662C126.17 107.68 126.99 107.68 127.805 107.666C128.072 107.662 128.203 107.44 128.101 107.199C128.058 107.105 128.009 107.015 127.956 106.926C127.175 105.516 126.389 104.106 125.607 102.691C125.923 102.512 126.238 102.361 126.525 102.172ZM121.391 97.8195C121.474 97.8147 121.546 97.8053 121.614 97.8053C122.405 97.8053 123.196 97.8006 123.992 97.8053C124.831 97.81 125.457 98.3854 125.462 99.1493C125.472 99.9275 124.826 100.564 124.026 100.569C124.016 100.569 124.006 100.569 124.001 100.569C123.201 100.574 122.4 100.569 121.6 100.569C121.537 100.569 121.474 100.564 121.391 100.559V97.8195ZM74.2538 81.3562C75.7919 81.3562 77.3251 81.3562 78.8632 81.3562C79.2174 81.3562 79.3241 81.2477 79.3241 80.9034C79.3241 80.3611 79.3241 79.8188 79.3241 79.2764C79.3241 78.8426 79.2368 78.753 78.7855 78.753C76.4081 78.753 74.0306 78.753 71.6531 78.753C71.1582 78.753 71.0854 78.8284 71.0854 79.3189C71.0854 83.0775 71.0854 86.8314 71.0854 90.5899C71.0854 90.6465 71.0854 90.6984 71.0854 90.755C71.1 91.038 71.2213 91.1464 71.5124 91.1464C73.9723 91.1464 76.4275 91.1464 78.8874 91.1464C79.2077 91.1464 79.3241 91.0285 79.3241 90.7173C79.3241 90.1608 79.3241 89.5996 79.3241 89.0431C79.3241 88.6375 79.2319 88.5479 78.8098 88.5479C77.2814 88.5479 75.753 88.5479 74.2246 88.5479H73.9481V86.157H74.2344C75.4813 86.157 76.7234 86.157 77.9704 86.157C78.3197 86.157 78.4362 86.0391 78.4362 85.7042C78.4362 85.1383 78.4362 84.5724 78.4362 84.0065C78.4362 83.6717 78.3149 83.5585 77.9656 83.5585C76.7137 83.5585 75.4571 83.5585 74.2052 83.5585H73.9384V81.3514L74.2538 81.3562ZM112.197 91.3068C113.696 91.2172 115.001 90.6795 116.102 89.6845C116.355 89.4581 116.355 89.2883 116.117 89.0431C115.724 88.6375 115.331 88.232 114.938 87.8217C114.623 87.4963 114.545 87.4963 114.166 87.751C112.968 88.5668 111.677 88.7649 110.338 88.1518C109.004 87.5387 108.329 86.4399 108.286 85.0252C108.242 83.5208 108.868 82.3088 110.275 81.6203C111.682 80.9317 113.036 81.1722 114.263 82.1154C114.492 82.2899 114.623 82.2899 114.826 82.0824C115.253 81.6533 115.68 81.2241 116.107 80.7903C116.364 80.5309 116.355 80.3847 116.073 80.1442C114.53 78.7954 112.711 78.3568 110.692 78.6587C105.957 79.366 103.584 84.7705 106.34 88.5857C107.597 90.3306 109.363 91.203 111.595 91.3303C111.765 91.3256 111.983 91.3162 112.197 91.3068ZM131.056 91.1464C131.508 91.1464 131.624 90.9625 131.435 90.5664C130.814 89.2695 130.197 87.9726 129.576 86.6804C128.334 84.082 127.092 81.4835 125.845 78.885C125.753 78.687 125.627 78.5691 125.389 78.5643C125.151 78.5643 125.02 78.6822 124.928 78.8803C124.817 79.1302 124.695 79.3802 124.574 79.6301C122.827 83.2755 121.085 86.921 119.339 90.5616C119.145 90.9625 119.266 91.1417 119.712 91.1417C120.309 91.1417 120.911 91.137 121.508 91.1464C121.871 91.1511 122.124 91.0097 122.269 90.6795C122.449 90.274 122.643 89.8778 122.822 89.477C122.881 89.3497 122.949 89.3072 123.094 89.3072C124.623 89.3119 126.151 89.3119 127.679 89.3072C127.825 89.3072 127.893 89.3544 127.951 89.477C128.14 89.9014 128.344 90.3211 128.543 90.7409C128.674 91.0191 128.883 91.1606 129.213 91.1464C129.518 91.1323 129.829 91.1417 130.134 91.1417C130.44 91.1417 130.751 91.1511 131.056 91.1464ZM126.772 86.8927H124.011C124.467 85.9212 124.914 84.9638 125.384 83.9594C125.86 84.9638 126.311 85.9165 126.772 86.8927ZM114.142 107.666C114.453 107.657 114.579 107.468 114.458 107.185C114.346 106.931 114.225 106.685 114.103 106.435C112.347 102.762 110.59 99.0927 108.829 95.419C108.737 95.2257 108.621 95.0984 108.378 95.0984C108.14 95.0984 108.009 95.1974 107.912 95.4002C106.049 99.3002 104.181 103.2 102.318 107.1C102.133 107.482 102.255 107.666 102.691 107.666C103.298 107.666 103.904 107.662 104.511 107.671C104.88 107.676 105.122 107.515 105.263 107.19C105.433 106.799 105.627 106.421 105.792 106.03C105.855 105.879 105.942 105.822 106.112 105.822C107.616 105.832 109.12 105.832 110.624 105.822C110.804 105.822 110.882 105.884 110.945 106.035C111.129 106.454 111.333 106.865 111.527 107.28C111.653 107.553 111.862 107.685 112.177 107.676C112.483 107.666 112.793 107.676 113.099 107.671C113.448 107.671 113.793 107.676 114.142 107.666ZM108.359 100.479C108.834 101.479 109.285 102.436 109.746 103.408H106.99C107.446 102.432 107.893 101.479 108.359 100.479ZM81.7598 107.671C82.1431 107.666 82.2644 107.478 82.1043 107.133C81.8423 106.577 81.5755 106.025 81.3086 105.469C79.7074 102.125 78.1063 98.7768 76.5099 95.4332C76.4178 95.2398 76.311 95.1078 76.0636 95.1031C75.8307 95.1031 75.69 95.1927 75.5929 95.3955C73.72 99.3097 71.8472 103.224 69.9743 107.138C69.8142 107.473 69.9452 107.666 70.3333 107.671C70.9495 107.676 71.5609 107.666 72.1771 107.676C72.541 107.68 72.7885 107.534 72.934 107.199C73.1087 106.803 73.3028 106.412 73.4774 106.016C73.5405 105.87 73.6278 105.827 73.788 105.827C75.3018 105.832 76.8108 105.832 78.3246 105.827C78.475 105.827 78.5526 105.87 78.6157 106.011C78.8001 106.431 79.0039 106.841 79.1931 107.256C79.3241 107.544 79.5376 107.695 79.8772 107.68C80.1829 107.666 80.4935 107.676 80.7991 107.676C81.1145 107.671 81.4347 107.676 81.7598 107.671ZM77.4173 103.408H74.6613C75.1126 102.436 75.559 101.484 76.0296 100.484C76.5051 101.479 76.9563 102.432 77.4173 103.408ZM87.4512 86.6569C87.9947 86.6569 88.5332 86.6616 89.0767 86.6569C91.2892 86.6286 93.0844 84.9025 93.1378 82.7709C93.1912 80.6063 91.3717 78.7907 89.0961 78.7624C87.6599 78.7435 86.2188 78.7577 84.7826 78.7577C84.4284 78.7577 84.3217 78.8662 84.3217 79.2104C84.3217 83.0445 84.3217 86.8785 84.3217 90.7126C84.3217 91.038 84.4381 91.1559 84.7681 91.1559C85.3891 91.1559 86.015 91.1559 86.6361 91.1559C87.0631 91.1559 87.1698 91.0568 87.1698 90.6465C87.1698 89.4204 87.1698 88.1943 87.1698 86.9681V86.6569C87.2766 86.6569 87.3639 86.6569 87.4512 86.6569ZM87.1747 81.3562C87.3105 81.3562 87.4367 81.3562 87.5628 81.3562C88.0335 81.3562 88.4993 81.342 88.9699 81.3609C89.7123 81.3892 90.3042 81.9504 90.3236 82.62C90.3576 83.3463 89.8093 83.9688 89.067 84.049C88.9699 84.0631 88.8729 84.0678 88.7758 84.0678C88.2518 84.0678 87.7278 84.0678 87.1698 84.0678L87.1747 81.3562ZM97.5531 90.689C97.5531 91.0332 97.6647 91.1464 98.0092 91.1464C98.6642 91.1464 99.3193 91.1464 99.9743 91.1464C100.304 91.1464 100.426 91.0285 100.426 90.7031C100.426 86.8691 100.426 83.035 100.426 79.201C100.426 78.8662 100.304 78.753 99.95 78.753C99.3193 78.753 98.6885 78.753 98.0577 78.753C97.6453 78.753 97.5483 78.8473 97.5483 79.2576C97.5483 81.1534 97.5483 83.0445 97.5483 84.9403C97.5483 86.8549 97.5483 88.7743 97.5531 90.689Z" fill="white"/>
</g>
<defs>
<clipPath id="clip0_908_17072">
<rect width="130" height="42" fill="white" transform="translate(27 71)"/>
</clipPath>
</defs>
</svg>
