
<svg xmlns="http://www.w3.org/2000/svg" version="1.1" xmlns:xlink="http://www.w3.org/1999/xlink" preserveAspectRatio="none" x="0px" y="0px" width="46px" height="46px" viewBox="0 0 46 46">
<defs>
<g id="Layer16_0_FILL">
<path fill="#FFFFFF" stroke="none" d="
M 32.6 45.95
L 36.25 45.95 36.25 43.95 32.6 43.95 32.6 45.95
M 25.35 43.95
L 25.35 45.95 28.95 45.95 28.95 43.95 25.35 43.95
M 10.8 45.95
L 14.45 45.95 14.45 43.95 10.8 43.95 10.8 45.95
M 18.05 43.95
L 18.05 45.95 21.7 45.95 21.7 43.95 18.05 43.95
M 7.15 43.95
L 6.1 43.95 6.1 43 4.1 43 4.1 45.95 7.15 45.95 7.15 43.95
M 4.1 32.1
L 6.1 32.1 6.1 28.5 4.1 28.5 4.1 32.1
M 6.1 35.75
L 4.1 35.75 4.1 39.4 6.1 39.4 6.1 35.75
M 6.1 17.55
L 6.1 13.95 4.1 13.95 4.1 17.55 6.1 17.55
M 6.1 21.2
L 4.1 21.2 4.1 24.85 6.1 24.85 6.1 21.2
M 4.1 6.65
L 4.1 10.3 6.1 10.3 6.1 6.65 4.1 6.65
M 6.1 2
L 7.15 2 7.15 0 4.1 0 4.1 3 6.1 3 6.1 2
M 10.8 0
L 10.8 2 14.45 2 14.45 0 10.8 0
M 21.7 2
L 21.7 0 18.05 0 18.05 2 21.7 2
M 25.35 2
L 28.95 2 28.95 0 25.35 0 25.35 2
M 32.6 2
L 36.25 2 36.25 0 32.6 0 32.6 2
M 47.15 45.95
L 50 45.95 50 43 48.1 43 48.1 43.95 47.15 43.95 47.15 45.95
M 43.5 45.95
L 43.5 43.95 39.9 43.95 39.9 45.95 43.5 45.95
M 50 35.75
L 48.1 35.75 48.1 39.4 50 39.4 50 35.75
M 48.1 28.5
L 48.1 32.1 50 32.1 50 28.5 48.1 28.5
M 48.1 17.55
L 50 17.55 50 13.95 48.1 13.95 48.1 17.55
M 50 21.2
L 48.1 21.2 48.1 24.85 50 24.85 50 21.2
M 48.1 10.3
L 50 10.3 50 6.65 48.1 6.65 48.1 10.3
M 43.5 2
L 43.5 0 39.9 0 39.9 2 43.5 2
M 50 0
L 47.15 0 47.15 2 48.1 2 48.1 3 50 3 50 0 Z"/>
</g>

<g id="Layer15_0_FILL">
<path fill="#0000FE" stroke="none" d="
M 221.2 188.75
L 219.2 188.75 219.2 214.75 221.2 214.75 221.2 188.75 Z"/>
</g>

<g id="Layer14_0_FILL">
<path fill="#FFFF05" stroke="none" d="
M 191.2 190.75
L 189.2 190.75 189.2 214.75 191.2 214.75 191.2 190.75 Z"/>
</g>

<g id="Layer13_0_FILL">
<path fill="#02FFFF" stroke="none" d="
M 219.2 188.75
L 217.2 188.75 217.2 214.75 219.2 214.75 219.2 188.75 Z"/>
</g>

<g id="Layer12_0_FILL">
<path fill="#FF0000" stroke="none" d="
M 189.2 190.75
L 187.2 190.75 187.2 214.75 189.2 214.75 189.2 190.75 Z"/>
</g>

<g id="Layer11_0_FILL">
<path fill="#FFFFFF" stroke="none" d="
M 12 12
L 20 12 20 20 26 20 26 26 20 26 20 20 12 20 12 12 10.05 12 10 36 36 36 36 10 12 10 12 12 Z"/>
</g>
</defs>

<g transform="matrix( 1, 0, 0, 1, -4,0) ">
<use xlink:href="#Layer16_0_FILL"/>
</g>

<g transform="matrix( 1, 0, 0, 1, -181.2,-178.75) ">
<use xlink:href="#Layer15_0_FILL"/>
</g>

<g transform="matrix( 1, 0, 0, 1, -181.15,-178.75) ">
<use xlink:href="#Layer14_0_FILL"/>
</g>

<g transform="matrix( 1, 0, 0, 1, -181.2,-178.75) ">
<use xlink:href="#Layer13_0_FILL"/>
</g>

<g transform="matrix( 1, 0, 0, 1, -181.15,-178.75) ">
<use xlink:href="#Layer12_0_FILL"/>
</g>

<g transform="matrix( 1, 0, 0, 1, 0,0) ">
<use xlink:href="#Layer11_0_FILL"/>
</g>
</svg>
