<svg width="2659" height="900" viewBox="0 0 2659 900" fill="none" xmlns="http://www.w3.org/2000/svg">
<g clip-path="url(#clip0_4532_23614)">
<path d="M1273.63 223.188H1259.04V158.408C1259.04 155.808 1260.42 153.408 1262.66 152.098C1294.56 133.518 1298 103.608 1298 91.6083C1298 62.3983 1291.48 50.3783 1288.7 45.2383C1283.76 36.1183 1276.74 28.9583 1267.84 23.9383C1256.83 17.7283 1242.62 14.5883 1225.59 14.5883C1195.97 14.5883 1174.76 27.1283 1162.53 51.8583C1153.04 71.0583 1152.59 90.7583 1152.59 90.9583C1152.58 91.8183 1152.41 92.6683 1152.1 93.4683L1135.99 135.188L1147.32 142.088C1149.43 143.368 1150.74 145.638 1150.82 148.098L1151.7 177.638L1186.82 184.408C1190.25 185.068 1192.74 188.078 1192.74 191.578V221.988H1178.15V197.608L1143.2 190.878C1139.85 190.228 1137.39 187.348 1137.29 183.928L1136.35 152.498L1123.2 144.488C1120.19 142.648 1118.92 138.918 1120.19 135.628L1138.05 89.3583C1138.3 84.1183 1139.85 65.0883 1149.22 45.8683C1159.42 24.9383 1180.96 -0.0117188 1225.6 -0.0117188C1262.22 -0.0117188 1287.76 12.8683 1301.54 38.2783C1312.61 58.6983 1312.61 81.7583 1312.61 91.5983C1312.61 105.648 1308.72 139.988 1273.64 162.488V223.178L1273.63 223.188Z" fill="black"/>
<path d="M1223.95 494.6H1436.66C1441.96 494.6 1442.07 494.97 1440.69 500.14C1437.08 513.75 1353.44 663.48 1353.44 663.48L1309.58 690.56L1264.73 800.4L1225.17 899.13L1181.57 783.76L1128.34 749.07L1072.4 619.09L1025.58 590.99C1025.58 590.99 1009.08 509.45 1006.39 497.25C1005.83 494.73 1007.2 494.58 1009.05 494.59C1016.03 494.62 1023.01 494.59 1029.98 494.6C1056.52 494.6 1083.07 494.62 1109.61 494.63C1147.72 494.63 1185.83 494.63 1223.95 494.63V494.6Z" fill="black"/>
<path d="M1225.23 234.009L1188.21 304.189L1145.33 310.149C1145.33 310.149 1142.37 318.249 1141 321.819C1137.63 330.559 1134.34 339.339 1131 348.099C1128.27 355.249 1119.18 372.449 1119.18 372.449L1083.69 376.599C1083.69 376.599 1068.59 407.829 1061.54 421.159C1051.96 439.289 1032.1 477.379 1032.1 477.379C1032.1 477.379 1080.55 468.859 1095.53 466.149C1105.4 464.359 1115.26 462.489 1125.13 460.709C1140.73 457.899 1266.13 434.189 1266.13 434.189L1253.55 377.349C1253.55 377.349 1228.86 379.229 1218.13 380.379C1210.12 381.239 1202.12 382.229 1194.11 383.099C1188.8 383.679 1183.48 384.139 1178.17 384.659C1187.54 380.109 1196.97 376.139 1206.56 372.629C1220.37 367.569 1249.45 356.219 1249.45 356.219L1225.23 234.019V234.009ZM1223.41 494.489H1011.45C1010.58 494.489 1009.7 494.449 1008.83 494.489C1006.59 494.609 1005.82 494.029 1007.06 491.729C1010.62 485.119 1014 478.409 1017.52 471.789C1024.71 458.269 1031.98 444.789 1039.16 431.259C1049.13 412.469 1059.06 393.659 1069.01 374.859C1070.74 371.589 1075.29 362.999 1075.29 362.999L1111.94 358.749C1111.94 358.749 1123.04 327.969 1128.68 313.569C1130.57 308.749 1135.98 294.709 1135.98 294.709L1181.45 288.019L1225.19 200.199L1277.24 315.449L1317.52 334.119C1317.52 334.119 1328.54 362.839 1333.38 375.649C1335.12 380.249 1339.05 392.119 1339.05 392.119C1339.05 392.119 1357.58 397.349 1366.08 399.479C1370.48 400.579 1373.54 403.229 1376.12 406.639C1386.33 420.129 1396.82 433.429 1406.53 447.269C1412.21 455.349 1418.02 463.349 1424.16 471.029C1429.47 477.669 1434.72 484.349 1439.81 491.149C1440.45 491.999 1441.9 492.529 1441.09 493.839C1440.41 494.949 1439.04 494.449 1437.97 494.449C1421.52 494.479 1405.07 494.479 1388.62 494.479C1333.54 494.479 1278.46 494.479 1223.39 494.479L1223.41 494.489Z" fill="black"/>
<path d="M2631.25 494.67C2625.2 496.79 2619.49 498.8 2607.79 498.8C2596.09 498.8 2590.38 496.79 2584.33 494.67C2577.86 492.4 2570.52 489.82 2556.65 489.82C2542.78 489.82 2535.45 492.4 2528.97 494.67C2522.92 496.79 2517.21 498.8 2505.51 498.8C2493.81 498.8 2488.1 496.79 2482.05 494.67C2475.58 492.4 2468.24 489.82 2454.37 489.82C2440.5 489.82 2433.17 492.4 2426.7 494.67C2420.65 496.79 2414.94 498.8 2403.24 498.8C2391.54 498.8 2385.83 496.79 2379.78 494.67C2373.31 492.4 2365.97 489.82 2352.1 489.82C2338.23 489.82 2330.9 492.4 2324.42 494.67C2318.37 496.79 2312.66 498.8 2300.96 498.8C2289.26 498.8 2283.55 496.79 2277.5 494.67C2271.03 492.4 2263.69 489.82 2249.82 489.82C2235.95 489.82 2228.62 492.4 2222.14 494.67C2216.09 496.79 2210.38 498.8 2198.68 498.8C2186.98 498.8 2181.27 496.79 2175.22 494.67C2168.75 492.4 2161.41 489.82 2147.55 489.82C2133.69 489.82 2126.35 492.4 2119.88 494.67C2113.83 496.79 2108.12 498.8 2096.42 498.8C2084.72 498.8 2079.01 496.79 2072.96 494.67C2066.49 492.4 2059.16 489.82 2045.31 489.82C2045.31 489.82 2045.31 489.82 2045.3 489.82C2045.29 489.82 2045.3 489.82 2045.29 489.82C2031.42 489.82 2024.09 492.4 2017.62 494.67C2011.57 496.79 2005.86 498.8 1994.17 498.8C1982.47 498.8 1976.76 496.79 1970.72 494.67C1964.25 492.4 1956.91 489.82 1943.04 489.82C1929.17 489.82 1921.84 492.4 1915.37 494.67C1909.32 496.79 1903.61 498.8 1891.91 498.8C1880.21 498.8 1874.5 496.79 1868.45 494.67C1861.98 492.4 1854.64 489.82 1840.77 489.82C1826.9 489.82 1819.57 492.4 1813.1 494.67C1807.05 496.79 1801.34 498.8 1789.64 498.8C1781.96 498.8 1776.87 497.93 1772.56 496.74C1770.3 496.11 1768.26 495.4 1766.18 494.67C1759.71 492.4 1752.37 489.82 1738.51 489.82C1724.64 489.82 1717.31 492.4 1710.83 494.67C1704.78 496.79 1699.07 498.8 1687.37 498.8C1675.67 498.8 1669.96 496.79 1663.91 494.67C1657.44 492.4 1650.11 489.82 1636.26 489.82C1636.26 489.82 1636.26 489.82 1636.25 489.82C1636.24 489.82 1636.25 489.82 1636.24 489.82C1622.37 489.82 1615.04 492.4 1608.56 494.67C1602.51 496.79 1596.8 498.8 1585.11 498.8C1573.42 498.8 1567.71 496.79 1561.66 494.67C1555.19 492.4 1547.85 489.82 1533.98 489.82H1533.96C1520.09 489.82 1512.76 492.4 1506.29 494.67C1500.24 496.79 1494.53 498.8 1482.84 498.8C1471.14 498.8 1465.43 496.79 1459.39 494.67C1453.53 492.61 1446.93 490.31 1435.43 489.89C1434.24 489.85 1433.01 489.82 1431.71 489.82C1417.84 489.82 1410.51 492.4 1404.04 494.67C1397.99 496.79 1392.28 498.8 1380.59 498.8C1368.89 498.8 1363.18 496.79 1357.14 494.67C1350.67 492.4 1343.33 489.82 1329.47 489.82C1323.69 489.82 1319.06 490.27 1315.14 490.96C1309.65 491.92 1305.57 493.35 1301.8 494.67C1295.75 496.79 1290.04 498.8 1278.35 498.8C1266.66 498.8 1260.94 496.79 1254.9 494.67C1248.43 492.4 1241.09 489.82 1227.23 489.82H1227.22C1213.35 489.82 1206.02 492.4 1199.54 494.67C1193.49 496.79 1187.78 498.8 1176.09 498.8C1164.4 498.8 1158.69 496.79 1152.64 494.67C1146.17 492.4 1138.83 489.82 1124.97 489.82H1124.95C1111.08 489.82 1103.75 492.4 1097.28 494.67C1091.23 496.79 1085.52 498.8 1073.83 498.8C1062.14 498.8 1056.43 496.79 1050.38 494.67C1043.91 492.4 1036.57 489.82 1022.71 489.82C1022.71 489.82 1022.71 489.82 1022.7 489.82C1008.83 489.82 1001.5 492.4 995.03 494.67C988.98 496.79 983.27 498.8 971.57 498.8C967.91 498.8 964.84 498.6 962.16 498.27C956.27 497.53 952.27 496.13 948.11 494.67C941.64 492.4 934.3 489.82 920.44 489.82C906.57 489.82 899.24 492.4 892.77 494.67C891.64 495.07 890.51 495.46 889.36 495.84C884.37 497.48 878.82 498.8 869.31 498.8C857.61 498.8 851.9 496.79 845.85 494.67C839.38 492.4 832.04 489.82 818.18 489.82C804.31 489.82 796.98 492.4 790.51 494.67C784.46 496.79 778.75 498.8 767.05 498.8C755.35 498.8 749.64 496.79 743.6 494.67C737.13 492.4 729.79 489.82 715.93 489.82C702.06 489.82 694.73 492.4 688.25 494.67C682.2 496.79 676.49 498.8 664.8 498.8C653.1 498.8 647.39 496.79 641.35 494.67C634.88 492.4 627.54 489.82 613.68 489.82C599.81 489.82 592.48 492.4 586.01 494.67C579.96 496.79 574.25 498.8 562.56 498.8C550.86 498.8 545.15 496.79 539.1 494.67C532.63 492.4 525.29 489.82 511.43 489.82C497.56 489.82 490.23 492.4 483.76 494.67C477.71 496.79 472 498.8 460.31 498.8C448.61 498.8 442.9 496.79 436.86 494.67C430.39 492.4 423.05 489.82 409.19 489.82C395.32 489.82 387.99 492.4 381.52 494.67C375.47 496.79 369.76 498.8 358.06 498.8C346.36 498.8 340.65 496.79 334.6 494.67C328.13 492.4 320.79 489.82 306.93 489.82C293.07 489.82 285.73 492.4 279.26 494.67C273.21 496.79 267.5 498.8 255.8 498.8C244.1 498.8 238.39 496.79 232.34 494.67C225.87 492.4 218.53 489.82 204.67 489.82C190.81 489.82 183.47 492.4 177 494.67C170.95 496.79 165.24 498.8 153.54 498.8C141.84 498.8 136.13 496.79 130.08 494.67C123.61 492.4 116.27 489.82 102.41 489.82C88.5504 489.82 81.2104 492.4 74.7404 494.67C68.6904 496.79 62.9804 498.8 51.2804 498.8C39.5804 498.8 33.8704 496.79 27.8204 494.67C21.3504 492.4 14.0104 489.82 0.150391 489.82V502.54C11.8504 502.54 17.5604 504.55 23.6104 506.67C30.0804 508.94 37.4204 511.52 51.2804 511.52C65.1404 511.52 72.4804 508.94 78.9504 506.67C85.0004 504.55 90.7104 502.54 102.41 502.54C114.11 502.54 119.82 504.55 125.87 506.67C132.34 508.94 139.68 511.52 153.54 511.52C167.4 511.52 174.74 508.94 181.21 506.67C187.26 504.55 192.97 502.54 204.67 502.54C216.37 502.54 222.08 504.55 228.13 506.67C234.6 508.94 241.94 511.52 255.8 511.52C269.66 511.52 277 508.94 283.47 506.67C289.52 504.55 295.23 502.54 306.93 502.54C318.63 502.54 324.34 504.55 330.39 506.67C336.86 508.94 344.2 511.52 358.06 511.52C371.92 511.52 379.26 508.94 385.73 506.67C391.78 504.55 397.49 502.54 409.19 502.54C420.89 502.54 426.6 504.55 432.65 506.67C439.12 508.94 446.46 511.52 460.33 511.52C474.2 511.52 481.53 508.94 488 506.67C494.05 504.55 499.76 502.54 511.45 502.54C523.15 502.54 528.86 504.55 534.91 506.67C541.38 508.94 548.72 511.52 562.58 511.52C576.45 511.52 583.78 508.94 590.25 506.67C596.3 504.55 602.01 502.54 613.7 502.54C625.4 502.54 631.11 504.55 637.15 506.67C643.62 508.94 650.96 511.52 664.82 511.52C678.69 511.52 686.02 508.94 692.49 506.67C698.54 504.55 704.25 502.54 715.94 502.54C727.64 502.54 733.35 504.55 739.39 506.67C745.86 508.94 753.2 511.52 767.06 511.52C780.93 511.52 788.26 508.94 794.73 506.67C800.78 504.55 806.49 502.54 818.19 502.54C829.89 502.54 835.6 504.55 841.65 506.67C848.12 508.94 855.46 511.52 869.33 511.52C881.9 511.52 889.1 509.4 895.15 507.32C895.78 507.1 896.4 506.89 897 506.67C899.27 505.87 901.49 505.09 903.99 504.43C907.33 503.54 911.18 502.87 916.33 502.63C917.62 502.57 918.99 502.54 920.45 502.54C928.49 502.54 933.71 503.49 938.14 504.77C940.16 505.35 942.01 506.01 943.9 506.67C950.37 508.94 957.71 511.52 971.57 511.52C985.44 511.52 992.77 508.94 999.24 506.67C1005.29 504.55 1011 502.54 1022.7 502.54C1034.4 502.54 1040.11 504.55 1046.16 506.67C1052.63 508.94 1059.97 511.52 1073.83 511.52H1073.85C1087.72 511.52 1095.05 508.94 1101.52 506.67C1107.57 504.55 1113.28 502.54 1124.97 502.54C1136.66 502.54 1142.37 504.55 1148.42 506.67C1154.89 508.94 1162.23 511.52 1176.1 511.52H1176.12C1189.99 511.52 1197.32 508.94 1203.79 506.67C1209.84 504.55 1215.55 502.54 1227.24 502.54C1238.93 502.54 1244.65 504.55 1250.69 506.67C1257.16 508.94 1264.5 511.52 1278.37 511.52H1278.38C1292.25 511.52 1299.58 508.94 1306.05 506.67C1312.1 504.55 1317.81 502.54 1329.5 502.54C1341.2 502.54 1346.91 504.55 1352.95 506.67C1359.42 508.94 1366.76 511.52 1380.62 511.52C1394.49 511.52 1401.82 508.94 1408.29 506.67C1414.34 504.55 1420.05 502.54 1431.74 502.54C1443.44 502.54 1449.15 504.55 1455.19 506.67C1461.66 508.94 1469 511.52 1482.86 511.52H1482.87C1496.74 511.52 1504.08 508.94 1510.55 506.67C1516.6 504.55 1522.31 502.54 1534 502.54C1545.69 502.54 1551.4 504.55 1557.45 506.67C1563.92 508.94 1571.26 511.52 1585.13 511.52H1585.15C1599.02 511.52 1606.36 508.94 1612.83 506.67C1618.88 504.55 1624.59 502.54 1636.28 502.54C1647.97 502.54 1653.68 504.55 1659.72 506.67C1666.19 508.94 1673.53 511.52 1687.4 511.52C1701.27 511.52 1708.6 508.94 1715.07 506.67C1721.12 504.55 1726.83 502.54 1738.53 502.54C1746.57 502.54 1751.79 503.49 1756.22 504.77C1758.24 505.35 1760.09 506.01 1761.98 506.67C1768.45 508.94 1775.79 511.52 1789.65 511.52C1803.52 511.52 1810.85 508.94 1817.33 506.67C1823.38 504.55 1829.09 502.54 1840.79 502.54C1852.49 502.54 1858.2 504.55 1864.25 506.67C1870.72 508.94 1878.06 511.52 1891.93 511.52C1905.8 511.52 1913.14 508.94 1919.61 506.67C1925.66 504.55 1931.37 502.54 1943.07 502.54C1954.77 502.54 1960.48 504.55 1966.52 506.67C1972.99 508.94 1980.33 511.52 1994.19 511.52H1994.2C2008.07 511.52 2015.41 508.94 2021.88 506.67C2027.93 504.55 2033.64 502.54 2045.33 502.54C2057.02 502.54 2062.73 504.55 2068.77 506.67C2075.24 508.94 2082.58 511.52 2096.44 511.52C2110.3 511.52 2117.64 508.94 2124.11 506.67C2130.16 504.55 2135.87 502.54 2147.57 502.54C2159.27 502.54 2164.98 504.55 2171.03 506.67C2177.5 508.94 2184.84 511.52 2198.71 511.52C2212.58 511.52 2219.91 508.94 2226.39 506.67C2232.44 504.55 2238.15 502.54 2249.85 502.54C2261.55 502.54 2267.26 504.55 2273.31 506.67C2279.78 508.94 2287.12 511.52 2300.99 511.52C2314.86 511.52 2322.19 508.94 2328.67 506.67C2334.72 504.55 2340.43 502.54 2352.13 502.54C2363.83 502.54 2369.54 504.55 2375.59 506.67C2382.06 508.94 2389.4 511.52 2403.27 511.52C2417.14 511.52 2424.47 508.94 2430.95 506.67C2437 504.55 2442.71 502.54 2454.41 502.54C2466.11 502.54 2471.82 504.55 2477.87 506.67C2484.34 508.94 2491.68 511.52 2505.55 511.52C2519.42 511.52 2526.76 508.94 2533.23 506.67C2539.28 504.55 2544.99 502.54 2556.69 502.54C2568.39 502.54 2574.1 504.55 2580.15 506.67C2586.62 508.94 2593.96 511.52 2607.83 511.52C2621.7 511.52 2629.04 508.94 2635.51 506.67C2641.56 504.55 2647.27 502.54 2658.97 502.54V489.82C2645.1 489.82 2637.76 492.4 2631.29 494.67H2631.25Z" fill="black"/>
<path d="M1190.35 77.9211C1190.35 77.7411 1190.45 77.5111 1190.58 77.3811C1192.47 75.4711 1194.37 73.5811 1196.26 71.6711L1196.37 71.5611C1196.43 71.5011 1196.49 71.4411 1196.55 71.3811L1197.13 70.7911C1197.13 70.7911 1197.17 70.7911 1197.19 70.7811C1197.19 70.7711 1197.19 70.7511 1197.18 70.7411L1197.7 70.2211C1200 67.9111 1204.87 63.0011 1204.9 63.0211C1204.92 63.0411 1190.34 92.1911 1190.34 92.1911C1190.34 92.1911 1190.34 91.7411 1190.34 91.6511C1190.34 87.0811 1190.34 82.5111 1190.34 77.9411M1260.57 91.6311C1260.57 91.7311 1260.57 92.1711 1260.57 92.1711C1260.57 92.1711 1245.98 63.0211 1246.01 63.0011C1246.03 62.9911 1250.91 67.9011 1253.21 70.2011L1253.73 70.7211C1253.73 70.7211 1253.73 70.7411 1253.72 70.7611C1253.74 70.7611 1253.76 70.7611 1253.78 70.7711L1254.36 71.3611C1254.42 71.4211 1254.48 71.4811 1254.54 71.5411L1254.65 71.6511C1256.54 73.5611 1258.44 75.4511 1260.33 77.3611C1260.46 77.4911 1260.56 77.7211 1260.56 77.9011C1260.57 82.4711 1260.56 87.0411 1260.56 91.6111M1264.01 105.651C1264.01 105.841 1264.01 106.751 1264.01 106.751C1264.01 106.751 1234.26 47.2911 1234.31 47.2611C1234.36 47.2311 1244.3 57.2511 1248.99 61.9511L1250.04 63.0111C1250.04 63.0111 1250.03 63.0611 1250.02 63.0911C1250.06 63.0911 1250.1 63.1011 1250.14 63.1111L1251.33 64.3111C1251.33 64.3111 1251.34 64.3211 1251.35 64.3311C1251.47 64.4511 1251.6 64.5811 1251.72 64.7011L1251.94 64.9311C1255.8 68.8211 1259.68 72.6811 1263.53 76.5811C1263.8 76.8511 1264 77.3211 1264 77.6911C1264.03 87.0111 1264.02 96.3311 1264.02 105.651M1207.71 103.101C1213.53 91.4611 1219.33 79.8711 1225.18 68.1611C1231.02 79.8511 1236.82 91.4411 1242.65 103.101H1207.71ZM1187.88 114.881C1200.3 90.0411 1212.68 65.2811 1225.18 40.3011C1237.66 65.2511 1250.03 90.0011 1262.48 114.881H1187.88ZM1186.29 77.8611C1186.29 77.4611 1186.5 76.9611 1186.78 76.6811C1196.19 67.2411 1216.17 47.3211 1216.17 47.3211L1186.27 106.931C1186.27 106.931 1186.27 87.1911 1186.29 77.8611ZM1267.87 115.871C1267.87 102.771 1267.87 89.6811 1267.88 76.5811C1267.88 75.5611 1267.54 74.7511 1266.84 74.0511C1264.92 72.1311 1225.17 29.6211 1225.17 29.6211L1218.97 35.9311C1218.85 36.0211 1218.76 36.1211 1218.68 36.2211L1205.23 49.8311C1197.21 57.8511 1189.21 65.8811 1181.18 73.8811C1180.38 74.6711 1180.04 75.5211 1180.04 76.6111C1180.05 89.9611 1180.06 103.311 1180.04 116.661V120.031H1183.91C1183.91 120.031 1183.96 120.031 1183.99 120.031C1184.13 120.031 1184.28 120.031 1184.42 120.031H1185.37C1211.38 120.031 1237.39 120.031 1263.4 120.031H1267.65L1267.76 117.871C1267.82 117.571 1267.85 117.241 1267.85 116.881V115.881V115.871H1267.87Z" fill="black"/>
</g>
<defs>
<clipPath id="clip0_4532_23614">
<rect width="2658.92" height="899.13" fill="white"/>
</clipPath>
</defs>
</svg>
