<svg viewBox="0 -8 139 42" fill="none" xmlns="http://www.w3.org/2000/svg">
<g clip-path="url(#clip0_3386_23987)">
<path d="M14.2846 7.49562V1.62889C14.2846 1.00528 13.7799 0.5 13.1569 0.5C12.534 0.5 12.0293 1.00528 12.0293 1.62889C12.0293 2.39162 12.0421 3.12076 12.2593 3.8579C12.5995 5.01237 13.0371 5.86624 13.4396 6.47066C13.7703 6.96795 14.0753 7.29734 14.283 7.49562H14.2846Z" fill="white"/>
<path d="M8.15602 5.22393C7.89407 5.19035 7.63053 5.16797 7.36379 5.16797C3.54324 5.16797 0.494141 8.24764 0.494141 12.0181C0.494141 15.7885 3.54324 18.841 7.3622 18.841C9.07761 18.841 10.6924 18.139 11.8504 16.9958C11.9095 16.9382 11.9718 16.8838 12.0293 16.8231V17.4467C12.0293 17.9744 12.3647 18.4716 12.8758 18.5948C13.6201 18.7739 14.283 18.2142 14.283 17.501V12.0117C14.283 11.9557 14.2909 11.903 14.2909 11.847C14.2909 8.34518 11.5853 5.48297 8.15442 5.22393H8.15602ZM7.3622 16.6904C4.78907 16.6904 2.69511 14.5669 2.69511 12.0181C2.69511 9.17506 5.24747 6.8821 8.17838 7.38898C9.88581 7.68479 11.3153 8.9576 11.8184 10.6174C12.764 13.737 10.3953 16.6904 7.3622 16.6904Z" fill="white"/>
<path d="M55.3047 16.5059V22.3726C55.3047 22.9962 55.8094 23.5015 56.4323 23.5015C57.0552 23.5015 57.56 22.9962 57.56 22.3726C57.56 21.6099 57.5472 20.8807 57.33 20.1436C56.9898 18.9891 56.5521 18.1352 56.1496 17.5308C55.819 17.0335 55.5139 16.7041 55.3063 16.5059H55.3047Z" fill="white"/>
<path d="M72.3425 0.974609C71.7196 0.974609 71.2148 1.47989 71.2148 2.1035V2.13069C71.2148 2.7543 71.7196 3.25958 72.3425 3.25958C72.9654 3.25958 73.4701 2.7543 73.4701 2.13069V2.1035C73.4701 1.47989 72.9654 0.974609 72.3425 0.974609Z" fill="white"/>
<path d="M72.3425 5.38867C71.7196 5.38867 71.2148 5.89396 71.2148 6.51757V17.4563C71.2148 18.0799 71.7196 18.5852 72.3425 18.5852C72.9654 18.5852 73.4701 18.0799 73.4701 17.4563V6.51757C73.4701 5.89396 72.9654 5.38867 72.3425 5.38867Z" fill="white"/>
<path d="M108.286 0.974609C107.663 0.974609 107.158 1.47989 107.158 2.1035V2.13069C107.158 2.7543 107.663 3.25958 108.286 3.25958C108.909 3.25958 109.413 2.7543 109.413 2.13069V2.1035C109.413 1.47989 108.909 0.974609 108.286 0.974609Z" fill="white"/>
<path d="M108.286 5.38867C107.663 5.38867 107.158 5.89396 107.158 6.51757V17.4563C107.158 18.0799 107.663 18.5852 108.286 18.5852C108.909 18.5852 109.413 18.0799 109.413 17.4563V6.51757C109.413 5.89396 108.909 5.38867 108.286 5.38867Z" fill="white"/>
<path d="M40.5515 5.16797C40.0835 5.16797 39.6651 5.46378 39.5085 5.90671L36.0234 15.7709L32.5383 5.90671C32.3817 5.46378 31.9649 5.16797 31.4953 5.16797H31.441C30.6775 5.16797 30.144 5.9227 30.398 6.64384L34.3351 17.8368C34.4917 18.2798 34.9085 18.5772 35.3781 18.5772H36.6144C37.0839 18.5772 37.5024 18.2814 37.6574 17.8368L41.5945 6.64384C41.8485 5.9243 41.3134 5.16957 40.5515 5.16957V5.16797Z" fill="white"/>
<path d="M48.4968 10.6913C46.4284 10.3731 45.0756 9.92055 45.0756 8.78046C45.0756 7.85144 46.0291 7.08073 47.7014 7.08073C49.3737 7.08073 50.0909 7.70593 50.4023 8.59338C50.554 9.02511 50.9613 9.31133 51.4181 9.31133H51.5012C52.287 9.31133 52.8157 8.49744 52.4947 7.77789C51.7568 6.12772 50.1164 5.16992 47.6487 5.16992C44.4127 5.16992 42.6622 6.89524 42.6622 9.15143C42.6622 12.0184 45.5531 12.7092 47.6487 12.9746C49.9822 13.2673 51.0156 13.6654 51.0156 14.8854C51.0156 16.0271 49.9024 16.929 48.072 16.929C46.2415 16.929 45.304 16.0447 44.943 15.1365C44.7721 14.7064 44.3808 14.4073 43.9192 14.4073H43.7483C42.98 14.4073 42.4481 15.1892 42.7388 15.9008C43.4895 17.7333 45.2688 18.8414 47.9665 18.8414C51.1227 18.8414 53.5089 17.4886 53.5089 14.6728C53.5089 12.0184 51.6002 11.1422 48.4968 10.6913Z" fill="white"/>
<path d="M81.3823 5.32942C80.4607 5.54049 79.7388 5.97382 79.0775 6.70776V6.50948C79.0775 5.88587 78.5728 5.38059 77.9499 5.38059C77.327 5.38059 76.8223 5.88587 76.8223 6.50948V17.4482C76.8223 18.0718 77.327 18.5771 77.9499 18.5771C78.5728 18.5771 79.0775 18.0718 79.0775 17.4482V11.8597C79.0775 9.18781 79.7596 7.94218 81.8184 7.68794C82.3439 7.62239 82.7416 7.17467 82.7751 6.6454L82.7847 6.49989C82.8342 5.73717 82.1282 5.15993 81.3823 5.33102V5.32942Z" fill="white"/>
<path d="M118.063 5.16797C114.244 5.16797 111.195 8.19487 111.195 11.9909C111.195 15.7869 114.246 18.841 118.063 18.841C121.881 18.841 124.959 15.7613 124.959 11.9909C124.959 8.22046 121.882 5.16797 118.063 5.16797ZM118.063 16.6904C115.49 16.6904 113.396 14.5669 113.396 11.9909C113.396 9.41491 115.49 7.31862 118.063 7.31862C120.636 7.31862 122.73 9.44209 122.73 11.9909C122.73 14.5397 120.635 16.6904 118.063 16.6904Z" fill="white"/>
<path d="M133.189 5.16797C131.386 5.16797 130.139 5.69884 129.238 6.46955C129.238 5.86833 128.751 5.38064 128.15 5.38064H128.07C127.47 5.38064 126.982 5.86833 126.982 6.46955V17.4883C126.982 18.0895 127.47 18.5772 128.07 18.5772H128.15C128.751 18.5772 129.238 18.0895 129.238 17.4883V11.1162C129.238 8.59462 130.458 7.32022 132.764 7.32022C135.628 7.32022 136.238 8.99277 136.238 12.4978V17.4899C136.238 18.0911 136.725 18.5788 137.326 18.5788H137.406C138.006 18.5788 138.494 18.0911 138.494 17.4899V11.5688C138.494 7.56007 136.928 5.17117 133.189 5.17117V5.16797Z" fill="white"/>
<path d="M105.186 17.5437V17.5197C105.186 17.475 105.172 17.435 105.165 17.3918V17.3694C105.159 17.3135 105.148 17.2591 105.135 17.2063C105.127 17.1807 105.121 17.1552 105.111 17.1296C105.106 17.1136 105.1 17.0976 105.094 17.0816C104.956 16.7202 104.63 16.4484 104.233 16.4132C102.215 16.2341 101.612 15.4346 101.612 13.7173V7.47802H103.559C104.081 7.47802 104.565 7.12145 104.648 6.60497C104.755 5.94778 104.25 5.38014 103.615 5.38014H101.612V2.79296C101.612 2.16935 101.107 1.66406 100.484 1.66406H100.457C99.8339 1.66406 99.3292 2.16935 99.3292 2.79296V5.38174H98.842C98.3197 5.38174 97.8358 5.73831 97.7527 6.25479C97.6457 6.91198 98.1488 7.47962 98.7861 7.47962H99.3292V13.7445C99.3292 17.2815 101.412 18.5175 104.079 18.6438C104.079 18.6422 104.079 18.639 104.079 18.6374H104.09C104.696 18.703 105.272 18.2041 105.181 17.6013C105.178 17.5805 105.185 17.5629 105.185 17.5437H105.186Z" fill="white"/>
<path d="M22.913 5.16797C19.094 5.16797 16.0449 8.19487 16.0449 11.9909C16.0449 15.7869 19.0685 18.841 23.0455 18.841C25.304 18.841 27.1456 17.952 28.4362 16.4585C28.861 15.966 28.7189 15.2049 28.1439 14.9011L27.9746 14.8115C27.5465 14.5861 27.0338 14.7092 26.7192 15.0754C25.8343 16.1019 24.6156 16.692 23.0455 16.692C20.5794 16.692 18.749 15.0722 18.3529 12.7632H28.6678C29.2731 12.7632 29.7619 12.2851 29.7906 11.6871C29.7858 11.6055 29.7858 11.5208 29.7794 11.4392C29.4648 7.96782 26.684 5.16957 22.9162 5.16957L22.913 5.16797ZM18.4328 10.8492C18.9375 8.83128 20.7392 7.31862 22.9146 7.31862C25.09 7.31862 26.8661 8.75293 27.3964 10.8492H18.4328Z" fill="white"/>
<path d="M90.5157 5.22393C90.2538 5.19035 89.9903 5.16797 89.7235 5.16797C85.9046 5.16797 82.8555 8.24764 82.8555 12.0181C82.8555 15.7885 85.9046 18.841 89.7235 18.841C91.4389 18.841 93.0537 18.139 94.2117 16.9958C94.2708 16.9382 94.3331 16.8838 94.3906 16.8231V17.4467C94.3906 17.9744 94.726 18.4716 95.2371 18.5948C95.9814 18.7739 96.6443 18.2142 96.6443 17.501V12.0117C96.6443 11.9557 96.6523 11.903 96.6523 11.847C96.6523 8.34518 93.9466 5.48297 90.5157 5.22393ZM89.7235 16.6904C87.1504 16.6904 85.0564 14.5669 85.0564 12.0181C85.0564 9.17506 87.6088 6.8821 90.5397 7.38898C92.2471 7.68479 93.6766 8.9576 94.1798 10.6174C95.1253 13.737 92.7566 16.6904 89.7235 16.6904Z" fill="white"/>
<path d="M61.4334 18.7753C61.6953 18.8089 61.9589 18.8312 62.2256 18.8312C66.0446 18.8312 69.0937 15.7516 69.0937 11.9811C69.0937 8.21069 66.0446 5.1582 62.2256 5.1582C60.5102 5.1582 58.8954 5.86016 57.7374 7.00345C57.6783 7.06101 57.616 7.11538 57.5585 7.17614V6.55253C57.5585 6.02486 57.2231 5.52757 56.712 5.40445C55.9677 5.22536 55.3049 5.78501 55.3049 6.49816V11.9875C55.3049 12.0435 55.2969 12.0963 55.2969 12.1522C55.2969 15.654 58.0026 18.5162 61.4334 18.7753ZM62.2256 7.30886C64.7988 7.30886 66.8927 9.43233 66.8927 11.9811C66.8927 14.8242 64.3404 17.1171 61.4094 16.6102C59.702 16.3144 58.2725 15.0416 57.7694 13.3819C56.8238 10.2622 59.1925 7.30886 62.2256 7.30886Z" fill="white"/>
</g>
</svg>
