<svg width="100" height="44" viewBox="0 0 100 44" fill="none" xmlns="http://www.w3.org/2000/svg">
<g clip-path="url(#clip0_3386_24007)">
<path d="M49.5495 13.2345L49.4312 13.2503C48.9187 15.1392 48.3746 17.0163 47.8029 18.8815C47.2312 20.7466 46.6201 22.6237 45.9696 24.5126H52.9954C52.3449 22.6237 51.7377 20.7427 51.1699 18.8735C50.6022 17.0044 50.0621 15.1234 49.5495 13.2345ZM78.5635 20.7427C78.7094 20.4298 78.7803 20.0418 78.7803 19.5745C78.7803 19.1547 78.7015 18.8102 78.5398 18.5369C78.3782 18.2637 78.1535 18.0459 77.8617 17.8875C77.5699 17.7291 77.2269 17.6143 76.8287 17.5509C76.4305 17.4875 76.0008 17.4559 75.5355 17.4559H69.2076V22.0139H75.5355C76.0481 22.0139 76.5054 21.9743 76.9036 21.8951C77.3018 21.8159 77.6409 21.6852 77.9208 21.4951C78.2008 21.305 78.4137 21.0555 78.5596 20.7427H78.5635ZM84.0241 0H24.6635C19.6642 0 14.9764 2.4671 12.0786 6.62515L3.38106 19.0993C-3.89313 29.534 3.41655 44 15.966 44H75.3305C80.3298 44 85.0176 41.5329 87.9155 37.3749L96.613 24.9007C103.887 14.466 96.5775 0 84.028 0L84.0241 0ZM32.3438 32.4921C32.2768 32.1238 32.2137 31.7199 32.1545 31.2883C32.0954 30.8566 32.0481 30.3695 32.0087 29.8349C31.9692 29.3003 31.9456 28.7063 31.9377 28.0608C31.9298 27.4114 31.9338 26.6907 31.9535 25.8907H31.851C31.7327 26.8372 31.4764 27.7401 31.0743 28.6073C30.6721 29.4746 30.1122 30.2389 29.3947 30.9002C28.6771 31.5615 27.794 32.0922 26.7492 32.4842C25.7004 32.8802 24.4743 33.0742 23.0707 33.0742C21.2492 33.0742 19.6327 32.8129 18.2212 32.2862C16.8097 31.7595 15.623 31.023 14.657 30.0725C13.6911 29.1221 12.9617 27.9816 12.461 26.6471C11.9603 25.3126 11.7119 23.8394 11.7119 22.2198C11.7119 20.4853 11.976 18.925 12.5083 17.539C13.0366 16.153 13.8173 14.969 14.8502 13.9948C15.8793 13.0206 17.1527 12.2722 18.6667 11.7534C20.1807 11.2346 21.9155 10.9733 23.875 10.9733C25.3377 10.9733 26.7216 11.1515 28.0266 11.5079C29.3316 11.8643 30.4829 12.3949 31.4803 13.0998C32.4778 13.8047 33.2821 14.6878 33.8932 15.7451C34.5044 16.8024 34.8434 18.0261 34.9105 19.42L29.3553 21.1308C29.2961 20.3704 29.1148 19.7131 28.8033 19.1587C28.4918 18.6043 28.0857 18.1449 27.5811 17.7845C27.0764 17.4242 26.5008 17.1589 25.8502 16.9886C25.1997 16.8183 24.5019 16.7312 23.7567 16.7312C22.7986 16.7312 21.9391 16.85 21.1821 17.0836C20.4251 17.3173 19.7825 17.6618 19.2542 18.1211C18.7259 18.5805 18.3237 19.1547 18.0477 19.8438C17.7717 20.5368 17.6338 21.3327 17.6338 22.2396C17.6338 23.095 17.7836 23.8513 18.0832 24.5047C18.3829 25.1581 18.8087 25.7007 19.3606 26.1402C19.9126 26.5798 20.575 26.9085 21.3438 27.1263C22.1126 27.3441 22.9682 27.455 23.9065 27.455C24.632 27.455 25.3298 27.3599 25.9922 27.1619C26.6545 26.9679 27.2459 26.6986 27.7664 26.3501C28.2829 26.0056 28.7126 25.5898 29.0438 25.1067C29.3789 24.6235 29.58 24.0968 29.647 23.5226L29.7062 23.5068L24.5492 23.5226V21.2892H35.8409V24.0652C35.8409 25.0591 35.8488 26.0571 35.8646 27.059C35.8803 28.0608 35.904 29.035 35.9434 29.9735C35.9829 30.9121 36.0381 31.7556 36.1169 32.4921H32.3517H32.3438ZM79.2889 32.4882C79.2101 32.3337 79.1352 32.1674 79.0563 31.9971C78.9775 31.8268 78.9026 31.6288 78.8316 31.3992C78.7606 31.1695 78.6857 30.8962 78.6148 30.5794C78.5438 30.2626 78.461 29.8864 78.3742 29.4469L78.1416 28.2509C78.0234 27.649 77.8656 27.1104 77.6606 26.6431C77.4556 26.1759 77.1717 25.7799 76.8011 25.4512C76.4305 25.1264 75.9613 24.877 75.3897 24.7067C74.818 24.5364 74.1044 24.4493 73.2527 24.4493H69.2115V32.4842H55.976C55.5897 31.5219 55.2112 30.5636 54.8406 29.6132C54.4699 28.6628 54.1191 27.7084 53.78 26.7421H45.1692C44.8183 27.7044 44.4635 28.6628 44.1008 29.6132C43.738 30.5636 43.3556 31.518 42.9574 32.4842H36.109L44.152 11.5673H54.7972L62.8402 32.4842V11.5673H76.0599C77.2151 11.5673 78.3033 11.6782 79.3323 11.9039C80.3614 12.1296 81.2603 12.4781 82.037 12.9572C82.8137 13.4325 83.4248 14.0502 83.8782 14.8066C84.3277 15.563 84.5563 16.4698 84.5563 17.5311C84.5563 18.4181 84.4183 19.2102 84.1423 19.9032C83.8664 20.6001 83.4366 21.1941 82.857 21.6931C82.2735 22.1881 81.5363 22.5841 80.6373 22.8692C79.7423 23.1583 78.6778 23.3365 77.4438 23.4038V23.4316C78.3545 23.4791 79.1667 23.59 79.8725 23.7602C80.5782 23.9305 81.1893 24.176 81.7058 24.4968C82.2183 24.8176 82.6363 25.2255 82.9556 25.7165C83.275 26.2075 83.5036 26.8015 83.6377 27.4906L83.8861 28.643C84.0201 29.2964 84.1897 29.9498 84.3868 30.5992C84.5839 31.2526 84.8047 31.8783 85.0492 32.4842H79.2889V32.4882Z" fill="white"/>
</g>
<defs>
<clipPath id="clip0_3386_24007">
<rect width="99" height="44" fill="white" transform="translate(0.494141)"/>
</clipPath>
</defs>
</svg>
