<?xml version="1.0" encoding="UTF-8"?>
<svg id="Layer_2" data-name="Layer 2" xmlns="http://www.w3.org/2000/svg" viewBox="0 0 523.47 80.95">
  <defs>
    <style>
      .cls-1 {
        fill: aqua;
      }

      .cls-1, .cls-2, .cls-3, .cls-4, .cls-5, .cls-6, .cls-7, .cls-8, .cls-9, .cls-10 {
        stroke-width: 0px;
      }

      .cls-2 {
        fill: none;
      }

      .cls-3 {
        fill: #ff0;
      }

      .cls-4 {
        fill: blue;
      }

      .cls-5 {
        fill: #fffeff;
      }

      .cls-6 {
        fill: #000;
      }

      .cls-7 {
        fill: lime;
      }

      .cls-8 {
        fill: red;
      }

      .cls-9 {
        fill: #fff;
      }

      .cls-10 {
        fill: #ff0fff;
      }
    </style>
  </defs>
  <g id="Layer_1-2" data-name="Layer 1">
    <g>
      <g>
        <path class="cls-2" d="M334.52,16.42c-.88,1.7-1.51,3.73-1.89,6.08-.38,2.36-.57,4.94-.57,7.74v10.1c0,2.77.19,5.33.57,7.69.38,2.36,1.01,4.4,1.89,6.13.88,1.73,2.04,3.08,3.49,4.06.63.42,1.32.75,2.08.99.77-.24,1.5-.56,2.16-.99,1.53-.97,2.77-2.32,3.73-4.03.96-1.71,1.67-3.75,2.15-6.11.47-2.36.71-4.94.71-7.74v-10.1c0-2.8-.23-5.38-.68-7.74-.46-2.36-1.17-4.39-2.15-6.08-.98-1.7-2.22-3.03-3.75-3.99-.66-.41-1.38-.73-2.16-.97-.76.24-1.45.56-2.08.97-1.45.96-2.61,2.29-3.49,3.99Z"/>
        <rect class="cls-4" x="6.68" y=".94" width="3.21" height="65.52"/>
        <rect class="cls-4" x="42.87" y="66.47" width="3.34" height="3.16"/>
        <rect class="cls-4" x="92.85" y=".94" width="3.34" height="3.26"/>
        <polygon class="cls-4" points="74.87 4.2 74.87 66.47 92.85 66.47 92.85 69.63 96.19 69.63 96.19 66.47 78.21 66.47 78.21 4.2 74.87 4.2"/>
        <polygon class="cls-4" points="109.99 69.63 113.33 69.63 113.37 23.92 110.03 17.79 109.99 69.63"/>
        <polygon class="cls-4" points="138.17 46.57 113.33 .94 109.99 .94 138.17 52.7 138.17 46.57"/>
        <rect class="cls-4" x="147.16" y=".94" width="3.34" height="68.68"/>
        <rect class="cls-4" x="201.79" y=".94" width="3.34" height="68.68"/>
        <polygon class="cls-4" points="164.62 69.63 167.96 69.63 167.99 23.92 164.66 17.79 164.62 69.63"/>
        <polygon class="cls-4" points="192.8 46.57 167.96 .94 164.62 .94 192.79 52.7 192.8 46.57"/>
        <rect class="cls-4" x="255.14" y=".94" width="3.34" height="7.6"/>
        <rect class="cls-4" x="238.67" y="8.54" width="3.34" height="53.54"/>
        <rect class="cls-4" x="255.14" y="62.08" width="3.34" height="7.55"/>
        <polygon class="cls-4" points="314.9 69.63 318.24 69.63 292.63 30.99 316.64 .94 313.3 .94 289.29 30.99 314.9 69.63"/>
        <polygon class="cls-4" points="279.2 26.18 279.23 26.15 279.23 .94 275.89 .94 275.89 30.31 279.2 26.18"/>
        <polygon class="cls-4" points="275.89 46.42 275.89 69.63 279.23 69.63 279.23 46.42 283.03 42.1 281.61 39.92 275.89 46.42"/>
        <path class="cls-4" d="M358.82,8.56c2.2,2.69,3.88,5.89,5.05,9.6,1.16,3.71,1.75,7.77,1.75,12.17v10c0,4.4-.58,8.46-1.75,12.17-1.16,3.71-2.85,6.9-5.05,9.58-2.2,2.67-4.88,4.76-8.04,6.25-2.71,1.28-5.71,2.01-9.01,2.19.55.03,1.1.05,1.67.05,3.96,0,7.52-.75,10.68-2.24,3.16-1.49,5.84-3.58,8.04-6.25,2.2-2.67,3.88-5.86,5.05-9.58,1.16-3.71,1.75-7.77,1.75-12.17v-10c0-4.4-.58-8.46-1.75-12.17-1.16-3.71-2.85-6.91-5.05-9.6-2.2-2.69-4.88-4.79-8.04-6.3-3.16-1.51-6.74-2.26-10.73-2.26-.56,0-1.12.02-1.66.05,3.32.18,6.34.92,9.05,2.21,3.16,1.51,5.84,3.61,8.04,6.3Z"/>
        <path class="cls-4" d="M338.01,58.21c-1.45-.97-2.61-2.33-3.49-4.06-.88-1.73-1.51-3.77-1.89-6.13-.38-2.36-.57-4.92-.57-7.69v-10.1c0-2.8.19-5.38.57-7.74.38-2.36,1.01-4.39,1.89-6.08.88-1.7,2.04-3.03,3.49-3.99.63-.41,1.32-.73,2.08-.97-.54-.16-1.1-.28-1.69-.36-1.42.19-2.67.63-3.72,1.33-1.45.96-2.61,2.29-3.49,3.99-.88,1.7-1.51,3.73-1.89,6.08-.38,2.36-.57,4.94-.57,7.74v10.1c0,2.77.19,5.33.57,7.69.38,2.36,1.01,4.4,1.89,6.13.88,1.73,2.04,3.08,3.49,4.06,1.06.71,2.31,1.16,3.75,1.35.59-.08,1.14-.2,1.68-.37-.76-.24-1.46-.56-2.08-.99Z"/>
        <polygon class="cls-4" points="396.28 37.62 386.77 .94 383.43 .94 394.6 44.02 396.28 37.62"/>
        <polygon class="cls-4" points="423.86 .94 403.06 69.63 406.4 69.63 427.2 .94 423.86 .94"/>
        <rect class="cls-7" x="3.34" y=".94" width="3.34" height="65.52"/>
        <rect class="cls-1" x="39.53" y="66.47" width="3.34" height="3.16"/>
        <rect class="cls-7" x="71.53" y="4.2" width="3.33" height="62.27"/>
        <polygon class="cls-1" points="74.87 66.47 74.87 4.2 74.86 4.2 74.86 66.47 89.51 66.47 89.51 69.63 92.85 69.63 92.85 66.47 74.87 66.47"/>
        <rect class="cls-1" x="89.51" y=".94" width="3.34" height="3.26"/>
        <polygon class="cls-7" points="144.84 58.82 144.89 .94 143.82 .94 143.82 56.95 144.84 58.82"/>
        <polygon class="cls-7" points="106.7 11.65 106.65 69.63 107.72 69.63 107.72 13.53 106.7 11.65"/>
        <polygon class="cls-1" points="107.72 .94 106.65 .94 107.72 2.9 107.72 .94"/>
        <polygon class="cls-7" points="113.38 13.3 138.16 58.82 138.16 57.25 113.38 11.65 113.38 13.3"/>
        <polygon class="cls-1" points="143.82 69.63 144.89 69.63 143.82 67.67 143.82 69.63"/>
        <polygon class="cls-1" points="113.38 13.3 113.38 11.65 138.16 57.25 138.17 52.7 109.99 .94 107.72 .94 107.72 2.9 113.38 13.3"/>
        <polygon class="cls-1" points="107.72 13.53 107.72 69.63 109.99 69.63 110.03 17.79 107.72 13.53"/>
        <polygon class="cls-1" points="144.89 .94 144.84 58.82 143.82 56.95 143.82 67.67 144.89 69.63 147.16 69.63 147.16 .94 144.89 .94"/>
        <polygon class="cls-1" points="162.34 .94 161.28 .94 162.34 2.9 162.34 .94"/>
        <polygon class="cls-7" points="199.47 58.82 199.52 .94 198.45 .94 198.45 56.95 199.47 58.82"/>
        <polygon class="cls-1" points="198.45 69.63 199.52 69.63 198.45 67.67 198.45 69.63"/>
        <polygon class="cls-7" points="161.32 11.65 161.28 69.63 162.34 69.63 162.34 13.53 161.32 11.65"/>
        <polygon class="cls-7" points="168 13.3 192.79 58.82 192.79 57.25 168 11.65 168 13.3"/>
        <polygon class="cls-1" points="162.34 13.53 162.34 69.63 164.62 69.63 164.66 17.79 162.34 13.53"/>
        <polygon class="cls-1" points="168 13.3 168 11.65 192.79 57.25 192.79 52.7 164.62 .94 162.34 .94 162.34 2.9 168 13.3"/>
        <polygon class="cls-1" points="199.52 .94 199.47 58.82 198.45 56.95 198.45 67.67 199.52 69.63 201.79 69.63 201.79 .94 199.52 .94"/>
        <rect class="cls-1" x="235.33" y="8.54" width="3.34" height="53.54"/>
        <rect class="cls-1" x="251.8" y="62.08" width="3.34" height="7.55"/>
        <rect class="cls-1" x="251.8" y=".94" width="3.34" height="7.6"/>
        <polygon class="cls-1" points="275.89 30.31 275.89 .94 272.55 .94 272.55 34.48 275.89 30.31"/>
        <polygon class="cls-1" points="311.56 69.63 314.9 69.63 289.29 30.99 313.3 .94 309.96 .94 285.95 30.99 311.56 69.63"/>
        <polygon class="cls-1" points="281.61 39.92 280.19 37.74 272.55 46.42 272.55 69.63 275.89 69.63 275.89 46.42 281.61 39.92"/>
        <path class="cls-1" d="M341.73.05c-.55-.03-1.11-.05-1.68-.05s-1.12.02-1.66.05c.57.03,1.13.08,1.68.15.54-.06,1.1-.12,1.66-.15Z"/>
        <path class="cls-1" d="M338.43,70.52c.55.03,1.1.05,1.67.05s1.12-.02,1.67-.05c-.57-.03-1.12-.08-1.67-.15-.55.06-1.11.12-1.67.15Z"/>
        <path class="cls-1" d="M347.44,2.26c3.16,1.51,5.84,3.61,8.04,6.3,2.2,2.69,3.88,5.89,5.05,9.6,1.16,3.71,1.75,7.77,1.75,12.17v10c0,4.4-.58,8.46-1.75,12.17-1.16,3.71-2.85,6.9-5.05,9.58-2.2,2.67-4.88,4.76-8.04,6.25-2.24,1.06-4.69,1.74-7.34,2.04.55.06,1.1.12,1.67.15,3.3-.18,6.3-.91,9.01-2.19,3.16-1.49,5.84-3.58,8.04-6.25,2.2-2.67,3.88-5.86,5.05-9.58,1.16-3.71,1.75-7.77,1.75-12.17v-10c0-4.4-.58-8.46-1.75-12.17-1.16-3.71-2.85-6.91-5.05-9.6-2.2-2.69-4.88-4.79-8.04-6.3-2.71-1.29-5.73-2.03-9.05-2.21-.56.03-1.12.08-1.66.15,2.67.31,5.13.99,7.37,2.07Z"/>
        <path class="cls-1" d="M331.18,54.15c-.88-1.73-1.51-3.77-1.89-6.13-.38-2.36-.57-4.92-.57-7.69v-10.1c0-2.8.19-5.38.57-7.74.38-2.36,1.01-4.39,1.89-6.08.88-1.7,2.04-3.03,3.49-3.99,1.06-.7,2.3-1.14,3.72-1.33-.54-.07-1.1-.11-1.68-.11-2.14,0-3.93.48-5.38,1.44-1.45.96-2.61,2.29-3.49,3.99-.88,1.7-1.51,3.73-1.89,6.08-.38,2.36-.57,4.94-.57,7.74v10.1c0,2.77.19,5.33.57,7.69.38,2.36,1.01,4.4,1.89,6.13.88,1.73,2.04,3.08,3.49,4.06,1.45.98,3.26,1.46,5.43,1.46.58,0,1.13-.04,1.66-.11-1.44-.19-2.69-.64-3.75-1.35-1.45-.97-2.61-2.33-3.49-4.06Z"/>
        <polygon class="cls-1" points="420.52 .94 399.72 69.63 403.06 69.63 423.86 .94 420.52 .94"/>
        <polygon class="cls-1" points="394.6 44.02 383.43 .94 380.09 .94 392.92 50.43 394.6 44.02"/>
        <polygon class="cls-8" points="3.34 .94 0 .94 0 69.63 3.34 69.63 3.34 66.47 3.34 .94"/>
        <rect class="cls-3" x="3.34" y="66.47" width="3.34" height="3.16"/>
        <polygon class="cls-5" points="9.89 66.47 6.68 66.47 6.68 69.63 39.53 69.63 39.53 66.47 9.89 66.47"/>
        <rect class="cls-8" x="50.87" y="66.47" width="3.34" height="3.16"/>
        <rect class="cls-8" x="68.18" y="4.2" width="3.34" height="62.27"/>
        <rect class="cls-8" x="50.87" y=".94" width="3.34" height="3.26"/>
        <rect class="cls-3" x="54.21" y=".94" width="3.34" height="3.26"/>
        <polygon class="cls-8" points="71.52 4.2 71.52 66.47 74.86 66.47 74.86 66.47 71.53 66.47 71.53 4.2 74.86 4.2 74.86 4.2 71.52 4.2"/>
        <rect class="cls-3" x="54.21" y="66.47" width="3.34" height="3.16"/>
        <polygon class="cls-5" points="74.86 4.2 74.86 4.2 74.87 4.2 78.21 4.2 89.51 4.2 89.51 .94 57.55 .94 57.55 4.2 68.18 4.2 71.52 4.2 74.86 4.2"/>
        <polygon class="cls-5" points="74.86 66.47 74.86 66.47 71.52 66.47 68.18 66.47 57.55 66.47 57.55 69.63 89.51 69.63 89.51 66.47 74.86 66.47"/>
        <polygon class="cls-8" points="113.37 23.92 138.21 69.63 141.55 69.63 113.37 17.79 113.37 23.92"/>
        <polygon class="cls-8" points="141.55 .94 138.21 .94 138.17 46.57 141.51 52.7 141.55 .94"/>
        <rect class="cls-8" x="101.04" y=".94" width="3.34" height="68.68"/>
        <polygon class="cls-10" points="110.04 11.65 110.03 17.79 113.37 23.92 113.37 17.79 110.04 11.65"/>
        <polygon class="cls-10" points="141.5 58.82 141.51 52.7 138.17 46.57 138.17 52.7 141.5 58.82"/>
        <polygon class="cls-3" points="107.72 13.53 107.72 2.9 106.65 .94 104.38 .94 104.38 69.63 106.65 69.63 106.7 11.65 107.72 13.53"/>
        <polygon class="cls-3" points="138.16 57.25 138.16 58.82 113.38 13.3 113.37 17.79 141.55 69.63 143.82 69.63 143.82 67.67 138.16 57.25"/>
        <polygon class="cls-3" points="143.82 56.95 143.82 .94 141.55 .94 141.51 52.7 143.82 56.95"/>
        <polygon class="cls-5" points="107.72 13.53 110.03 17.79 110.04 11.65 113.37 17.79 113.38 13.3 107.72 2.9 107.72 13.53"/>
        <polygon class="cls-5" points="141.5 58.82 138.17 52.7 138.16 57.25 143.82 67.67 143.82 56.95 141.51 52.7 141.5 58.82"/>
        <rect class="cls-8" x="155.66" y=".94" width="3.34" height="68.68"/>
        <polygon class="cls-8" points="196.18 .94 192.84 .94 192.8 46.57 196.13 52.7 196.18 .94"/>
        <polygon class="cls-8" points="167.99 23.92 192.84 69.63 196.18 69.63 168 17.79 167.99 23.92"/>
        <polygon class="cls-10" points="196.13 58.82 196.13 52.7 192.8 46.57 192.79 52.7 196.13 58.82"/>
        <polygon class="cls-10" points="164.66 11.65 164.66 17.79 167.99 23.92 168 17.79 164.66 11.65"/>
        <polygon class="cls-3" points="162.34 13.53 162.34 2.9 161.28 .94 159 .94 159 69.63 161.28 69.63 161.32 11.65 162.34 13.53"/>
        <polygon class="cls-3" points="192.79 57.25 192.79 58.82 168 13.3 168 17.79 196.18 69.63 198.45 69.63 198.45 67.67 192.79 57.25"/>
        <polygon class="cls-3" points="198.45 56.95 198.45 .94 196.18 .94 196.13 52.7 198.45 56.95"/>
        <polygon class="cls-5" points="162.34 13.53 164.66 17.79 164.66 11.65 168 17.79 168 13.3 162.34 2.9 162.34 13.53"/>
        <polygon class="cls-5" points="196.13 58.82 192.79 52.7 192.79 57.25 198.45 67.67 198.45 56.95 196.13 52.7 196.13 58.82"/>
        <rect class="cls-8" x="226.37" y="8.54" width="3.34" height="53.54"/>
        <rect class="cls-8" x="210.29" y=".94" width="3.34" height="7.6"/>
        <rect class="cls-8" x="210.29" y="62.08" width="3.34" height="7.55"/>
        <rect class="cls-3" x="213.63" y=".94" width="3.34" height="7.6"/>
        <rect class="cls-3" x="213.63" y="62.08" width="3.34" height="7.55"/>
        <rect class="cls-3" x="229.71" y="8.54" width="3.34" height="53.54"/>
        <polygon class="cls-5" points="216.97 .94 216.97 8.54 226.37 8.54 229.71 8.54 233.05 8.54 233.05 62.08 229.71 62.08 226.37 62.08 216.97 62.08 216.97 69.63 251.8 69.63 251.8 62.08 242.01 62.08 238.67 62.08 235.33 62.08 235.33 8.54 238.67 8.54 242.01 8.54 251.8 8.54 251.8 .94 216.97 .94"/>
        <rect class="cls-8" x="263.63" y=".94" width="3.34" height="68.68"/>
        <polygon class="cls-8" points="283.03 42.1 300.95 69.63 304.29 69.63 284.95 39.92 283.03 42.1"/>
        <polygon class="cls-8" points="282.54 26.18 302.68 .94 299.34 .94 279.23 26.15 279.23 30.31 282.54 26.18"/>
        <polygon class="cls-10" points="283.53 37.74 281.61 39.92 283.03 42.1 284.95 39.92 283.53 37.74"/>
        <polygon class="cls-10" points="275.89 30.31 275.89 34.48 279.23 30.31 279.23 26.15 279.2 26.18 275.89 30.31"/>
        <polygon class="cls-3" points="284.95 39.92 304.29 69.63 307.63 69.63 286.87 37.74 284.95 39.92"/>
        <rect class="cls-3" x="266.97" y=".94" width="3.34" height="68.68"/>
        <polygon class="cls-3" points="279.23 30.31 279.23 34.48 285.88 26.18 306.02 .94 302.68 .94 282.54 26.18 279.23 30.31"/>
        <polygon class="cls-5" points="272.55 69.63 272.55 46.42 280.19 37.74 281.61 39.92 283.53 37.74 284.95 39.92 286.87 37.74 307.63 69.63 311.56 69.63 285.95 30.99 309.96 .94 306.02 .94 285.88 26.18 279.23 34.48 279.23 30.31 275.89 34.48 275.89 30.31 272.55 34.48 272.55 .94 270.31 .94 270.31 69.63 272.55 69.63"/>
        <path class="cls-8" d="M311.94,30.33v10c0,4.4.55,8.45,1.65,12.15,1.1,3.7,2.7,6.89,4.81,9.58,2.11,2.69,4.7,4.78,7.78,6.27,3.08,1.49,6.6,2.24,10.57,2.24.57,0,1.12-.02,1.67-.05-3.29-.18-6.26-.91-8.9-2.19-3.08-1.49-5.68-3.59-7.78-6.27-2.11-2.69-3.71-5.88-4.81-9.58-1.1-3.69-1.65-7.74-1.65-12.15v-10c0-4.4.55-8.46,1.65-12.17,1.1-3.71,2.7-6.91,4.81-9.6,2.11-2.69,4.69-4.79,7.76-6.3,2.63-1.29,5.59-2.03,8.88-2.21-.55-.03-1.11-.05-1.68-.05-3.96,0-7.48.75-10.54,2.26-3.07,1.51-5.65,3.61-7.76,6.3-2.11,2.69-3.71,5.89-4.81,9.6-1.1,3.71-1.65,7.77-1.65,12.17Z"/>
        <path class="cls-8" d="M349.32,54.18c.96-1.71,1.67-3.75,2.15-6.11.47-2.36.71-4.94.71-7.74v-10.1c0-2.8-.23-5.38-.68-7.74-.46-2.36-1.17-4.39-2.15-6.08-.98-1.7-2.22-3.03-3.75-3.99-1.11-.7-2.4-1.14-3.86-1.33-.58.08-1.13.2-1.65.36.78.24,1.5.56,2.16.97,1.53.96,2.78,2.29,3.75,3.99.97,1.7,1.69,3.73,2.15,6.08.46,2.36.68,4.94.68,7.74v10.1c0,2.8-.24,5.38-.71,7.74-.47,2.36-1.19,4.4-2.15,6.11-.96,1.71-2.2,3.06-3.73,4.03-.66.42-1.38.75-2.16.99.52.16,1.08.29,1.66.37,1.44-.19,2.72-.64,3.83-1.35,1.53-.97,2.77-2.32,3.73-4.03Z"/>
        <path class="cls-10" d="M338.42,59.56c.53.07,1.09.11,1.68.11s1.13-.04,1.66-.11c-.59-.08-1.14-.2-1.66-.37-.53.16-1.09.29-1.68.37Z"/>
        <path class="cls-8" d="M341.73,11.1c-.54-.07-1.1-.11-1.68-.11s-1.13.04-1.66.11c.59.08,1.16.2,1.69.36.52-.16,1.07-.28,1.65-.36Z"/>
        <path class="cls-3" d="M321.74,8.56c-2.11,2.69-3.71,5.89-4.81,9.6-1.1,3.71-1.65,7.77-1.65,12.17v10c0,4.4.55,8.45,1.65,12.15,1.1,3.7,2.7,6.89,4.81,9.58,2.11,2.69,4.7,4.78,7.78,6.27,2.64,1.28,5.61,2.01,8.9,2.19.57-.03,1.12-.08,1.67-.15-2.63-.31-5.04-.98-7.23-2.04-3.08-1.49-5.68-3.59-7.78-6.27-2.11-2.69-3.71-5.88-4.81-9.58-1.1-3.69-1.65-7.74-1.65-12.15v-10c0-4.4.55-8.46,1.65-12.17,1.1-3.71,2.7-6.91,4.81-9.6,2.11-2.69,4.69-4.79,7.76-6.3,2.18-1.07,4.59-1.76,7.22-2.07-.55-.06-1.11-.12-1.68-.15-3.29.18-6.25.92-8.88,2.21-3.07,1.51-5.65,3.61-7.76,6.3Z"/>
        <path class="cls-3" d="M348.93,58.21c1.53-.97,2.77-2.32,3.73-4.03.96-1.71,1.67-3.75,2.15-6.11.47-2.36.71-4.94.71-7.74v-10.1c0-2.8-.23-5.38-.68-7.74-.46-2.36-1.17-4.39-2.15-6.08-.98-1.7-2.22-3.03-3.75-3.99-1.53-.96-3.37-1.44-5.54-1.44-.58,0-1.13.04-1.66.11,1.46.19,2.74.63,3.86,1.33,1.53.96,2.78,2.29,3.75,3.99.97,1.7,1.69,3.73,2.15,6.08.46,2.36.68,4.94.68,7.74v10.1c0,2.8-.24,5.38-.71,7.74-.47,2.36-1.19,4.4-2.15,6.11-.96,1.71-2.2,3.06-3.73,4.03-1.11.71-2.39,1.16-3.83,1.35.53.07,1.09.11,1.68.11,2.14,0,3.97-.49,5.49-1.46Z"/>
        <path class="cls-5" d="M355.48,62.08c2.2-2.67,3.88-5.86,5.05-9.58,1.16-3.71,1.75-7.77,1.75-12.17v-10c0-4.4-.58-8.46-1.75-12.17-1.16-3.71-2.85-6.91-5.05-9.6-2.2-2.69-4.88-4.79-8.04-6.3-2.25-1.07-4.71-1.76-7.37-2.07-2.63.31-5.04.99-7.22,2.07-3.07,1.51-5.65,3.61-7.76,6.3-2.11,2.69-3.71,5.89-4.81,9.6-1.1,3.71-1.65,7.77-1.65,12.17v10c0,4.4.55,8.45,1.65,12.15,1.1,3.7,2.7,6.89,4.81,9.58,2.11,2.69,4.7,4.78,7.78,6.27,2.19,1.06,4.6,1.74,7.23,2.04,2.65-.31,5.1-.98,7.34-2.04,3.16-1.49,5.84-3.58,8.04-6.25ZM340.1,59.67c-.59,0-1.14-.04-1.68-.11-.53.07-1.09.11-1.66.11-2.17,0-3.98-.49-5.43-1.46-1.45-.97-2.61-2.33-3.49-4.06-.88-1.73-1.51-3.77-1.89-6.13-.38-2.36-.57-4.92-.57-7.69v-10.1c0-2.8.19-5.38.57-7.74.38-2.36,1.01-4.39,1.89-6.08.88-1.7,2.04-3.03,3.49-3.99,1.45-.96,3.24-1.44,5.38-1.44.59,0,1.15.04,1.68.11.53-.07,1.08-.11,1.66-.11s1.15.04,1.68.11c.53-.07,1.08-.11,1.66-.11,2.17,0,4.02.48,5.54,1.44,1.53.96,2.78,2.29,3.75,3.99.97,1.7,1.69,3.73,2.15,6.08.46,2.36.68,4.94.68,7.74v10.1c0,2.8-.24,5.38-.71,7.74-.47,2.36-1.19,4.4-2.15,6.11-.96,1.71-2.2,3.06-3.73,4.03-1.53.98-3.36,1.46-5.49,1.46-.59,0-1.14-.04-1.68-.11-.53.07-1.09.11-1.66.11Z"/>
        <polygon class="cls-8" points="409.24 .94 405.9 .94 396.28 37.62 397.94 44.02 409.24 .94"/>
        <polygon class="cls-8" points="365.47 .94 386.22 69.63 389.56 69.63 368.81 .94 365.47 .94"/>
        <polygon class="cls-10" points="396.26 50.43 397.94 44.02 396.28 37.62 394.6 44.02 396.26 50.43"/>
        <polygon class="cls-3" points="368.81 .94 389.56 69.63 392.9 69.63 372.15 .94 368.81 .94"/>
        <polygon class="cls-3" points="399.6 50.43 412.58 .94 409.24 .94 397.94 44.02 399.6 50.43"/>
        <polygon class="cls-5" points="412.58 .94 399.6 50.43 397.94 44.02 396.26 50.43 394.6 44.02 392.92 50.43 380.09 .94 372.15 .94 392.9 69.63 399.72 69.63 420.52 .94 412.58 .94"/>
      </g>
      <path class="cls-8" d="M444.51,78.33c-.4-.65-.67-1.38-.69-2.16,0-.27-.05-63.34.22-66.69.26-3.16,1.93-5.57,4.77-7.27,2.02-1.2,4.14-1.42,6.32-1.43,8.55-.02,23.76-.04,36.09-.04-12.72,0-29.57.02-38.74.04-2.18,0-4.3.23-6.32,1.43-2.84,1.69-4.51,4.11-4.77,7.27-.28,3.35-.23,66.42-.22,66.69.02.78.29,1.51.69,2.16,1.35,2.22,3.49,3.05,5.57,2.43-1.12-.35-2.15-1.16-2.92-2.43Z"/>
      <path class="cls-9" d="M470.36,69.65c4.57,0,10.44,0,12.4,0,.12,0,.28,0,.46,0-3.45,0-9.21,0-12.84,0,0,0-.01,0-.02,0Z"/>
      <path class="cls-7" d="M447.43,80.75c.85.27,1.75.27,2.65,0-.45-.14-.88-.35-1.28-.63-.45.28-.9.49-1.36.63Z"/>
      <path class="cls-9" d="M493.87.74c-.86,0-1.75,0-2.65,0,.39,0,.78,0,1.16,0,.5,0,.99,0,1.49,0Z"/>
      <path class="cls-9" d="M483.21,69.65c.92,0,1.69,0,2.19,0,.12,0,.28,0,.45,0-.72,0-1.54,0-2.43,0-.08,0-.15,0-.22,0Z"/>
      <path class="cls-9" d="M470.41,69.65s-.02,0-.04,0c3.62,0,9.39,0,12.84,0,.07,0,.14,0,.22,0-4.65,0-10.98,0-13.03,0Z"/>
      <path class="cls-3" d="M447.15,78.33c-.4-.65-.67-1.38-.69-2.16,0-.27-.05-63.34.22-66.69.26-3.16,1.93-5.57,4.77-7.27,2.02-1.2,4.14-1.42,6.32-1.43,8.21-.02,22.57-.04,34.61-.04-.38,0-.77,0-1.16,0-12.33,0-27.54.02-36.09.04-2.18,0-4.3.23-6.32,1.43-2.84,1.69-4.51,4.11-4.77,7.27-.28,3.35-.23,66.42-.22,66.69.02.78.29,1.51.69,2.16.77,1.26,1.8,2.07,2.92,2.43.46-.14.92-.35,1.36-.63-.62-.43-1.18-1.03-1.64-1.8Z"/>
      <path class="cls-4" d="M523.25,10.03c-.19-3.01-1.44-5.45-3.89-7.27-1.9-1.42-4.08-1.94-6.38-1.98-1.36-.03-9.33-.04-19.11-.04,8.55,0,15.24.01,16.47.04,2.3.05,4.48.56,6.38,1.98,2.44,1.83,3.69,4.26,3.89,7.27.36,5.55.17,35.62.15,48.93,0,2.68-.61,5.25-2.45,7.31-1.72,1.91-3.9,3.31-6.48,3.32-2.81,0-21.82.06-25.96.06.92,0,1.69,0,2.19,0,2.94,0,23.49-.06,26.42-.06,2.58-.02,4.77-1.41,6.48-3.32,1.84-2.06,2.45-4.62,2.45-7.31.02-13.31.21-43.38-.15-48.93Z"/>
      <path class="cls-4" d="M462.27,70.93c-.83.45-1.57,1-2.24,1.62-2.56,2.35-5.08,4.47-7.63,6.84-.73.68-1.52,1.13-2.32,1.36,1.61.5,3.41.07,4.96-1.36,2.55-2.36,5.07-4.48,7.63-6.84.68-.62,1.41-1.17,2.24-1.62,1.61-.88,3.62-1.27,5.44-1.28-.95,0-1.84,0-2.63,0-1.83,0-3.85.4-5.46,1.28Z"/>
      <path class="cls-9" d="M467.77,69.65s-.02,0-.04,0c.79,0,1.68,0,2.63,0,0,0,.01,0,.02,0-1.12,0-2.03,0-2.61,0Z"/>
      <path class="cls-1" d="M518.31,66.27c1.84-2.06,2.45-4.62,2.45-7.31.02-13.31.21-43.38-.15-48.93-.19-3.01-1.44-5.45-3.89-7.27-1.9-1.42-4.08-1.94-6.38-1.98-1.23-.02-7.92-.03-16.47-.04-.49,0-.99,0-1.49,0,7.99,0,14.13.01,15.31.04,2.3.05,4.48.56,6.38,1.98,2.44,1.83,3.69,4.26,3.89,7.27.36,5.55.17,35.62.15,48.93,0,2.68-.61,5.25-2.45,7.31-1.72,1.91-3.9,3.31-6.48,3.32-2.76,0-21.17.06-25.74.06.89,0,1.7,0,2.43,0,4.14,0,23.16-.06,25.96-.06,2.58-.02,4.77-1.41,6.48-3.32Z"/>
      <path class="cls-1" d="M460.03,72.55c.68-.62,1.41-1.17,2.24-1.62,1.61-.88,3.64-1.28,5.46-1.28-1.12,0-2.04,0-2.61,0-1.84,0-3.88.39-5.5,1.28-.83.45-1.57,1-2.24,1.62-2.56,2.35-5.08,4.47-7.63,6.84-.31.29-.63.53-.95.73.41.28.84.49,1.28.63.8-.24,1.59-.69,2.32-1.36,2.55-2.36,5.07-4.48,7.63-6.84Z"/>
      <path class="cls-9" d="M451.46,2.21c-2.84,1.69-4.51,4.11-4.77,7.27-.28,3.35-.23,66.42-.22,66.69.02.78.29,1.51.69,2.16.46.76,1.02,1.36,1.64,1.8.32-.21.64-.45.95-.73,2.55-2.36,5.07-4.48,7.63-6.84.68-.62,1.41-1.17,2.24-1.62,1.62-.89,3.66-1.28,5.5-1.28.58,0,1.49,0,2.61,0,.01,0,.03,0,.04,0,.57,0,1.49,0,2.61,0,.01,0,.02,0,.04,0,2.05,0,8.38,0,13.03,0,4.57,0,22.98-.06,25.74-.06,2.58-.02,4.77-1.41,6.48-3.32,1.84-2.06,2.45-4.62,2.45-7.31.02-13.31.21-43.38-.15-48.93-.19-3.01-1.44-5.45-3.89-7.27-1.9-1.42-4.08-1.94-6.38-1.98-1.17-.02-7.32-.03-15.31-.04-12.04,0-26.4.02-34.61.04-2.18,0-4.3.23-6.32,1.43Z"/>
      <g>
        <path class="cls-6" d="M474.02,46.97h-12.14l-2.39,8.44h-8.22l13.25-40.43h7.08l13,40.43h-8.22l-2.36-8.44ZM463.8,40.33h8.39l-4.14-14.88-4.25,14.88Z"/>
        <path class="cls-6" d="M487.99,14.98h23.38v6.3h-7.89v27.85h7.89v6.28h-23.38v-6.28h7.69v-27.85h-7.69v-6.3Z"/>
      </g>
    </g>
  </g>
</svg>