<svg width="809" height="1640" viewBox="0 0 809 1640" fill="none" xmlns="http://www.w3.org/2000/svg">
<path d="M142.222 2.39334C70.4246 2.39334 12.02 60.7979 12.02 132.595V1507.3C12.02 1579.1 70.4246 1637.51 142.222 1637.51H668.133C739.931 1637.51 798.335 1579.1 798.335 1507.3V132.595C798.335 60.7979 739.931 2.39334 668.133 2.39334H142.222ZM668.133 1639.45H142.222C69.3446 1639.45 10.0759 1580.18 10.0759 1507.3V132.595C10.0759 59.7448 69.3446 0.449219 142.222 0.449219H668.133C741.011 0.449219 800.279 59.7448 800.279 132.595V1507.3C800.279 1580.18 741.011 1639.45 668.133 1639.45Z" fill="#929292"/>
<path d="M137.389 35.1472C85.6537 35.1472 43.5581 77.2428 43.5581 128.978V1510.92C43.5581 1562.66 85.6537 1604.75 137.389 1604.75H672.129C723.865 1604.75 765.96 1562.66 765.96 1510.92V128.978C765.96 77.2428 723.865 35.1472 672.129 35.1472H137.389ZM672.156 1606.7H137.389C84.5736 1606.7 41.614 1563.74 41.614 1510.92V128.978C41.614 76.1627 84.5736 33.2031 137.389 33.2031H672.129C724.945 33.2031 767.904 76.1627 767.904 128.978V1510.92C767.904 1563.74 724.945 1606.7 672.129 1606.7" fill="#929292"/>
<path d="M483.516 115.456H325.664C310.813 115.456 298.717 103.278 298.717 88.2926C298.717 73.3066 310.813 61.1289 325.664 61.1289H483.516C498.367 61.1289 510.464 73.3066 510.464 88.2926C510.464 103.278 498.367 115.456 483.516 115.456ZM325.664 63.154C311.92 63.154 300.742 74.4407 300.742 88.2926C300.742 102.144 311.92 113.431 325.664 113.431H483.516C497.26 113.431 508.438 102.144 508.438 88.2926C508.438 74.4407 497.26 63.154 483.516 63.154H325.664Z" fill="#929292"/>
<path d="M0.543701 319.823V371.369C0.543701 374.339 2.94685 376.742 5.91703 376.742H11.0473V374.798H5.91703C4.02691 374.798 2.48782 373.259 2.48782 371.369V319.823C2.48782 317.932 4.02691 316.393 5.91703 316.393H11.0473V314.449H5.91703C2.94685 314.449 0.543701 316.852 0.543701 319.823ZM0.543701 438.117V551.47C0.543701 554.44 2.94685 556.843 5.91703 556.843H11.0473V554.899H5.91703C4.02691 554.899 2.48782 553.36 2.48782 551.47V438.117C2.48782 436.227 4.02691 434.688 5.91703 434.688H11.0473V432.743H5.91703C2.94685 432.743 0.543701 435.147 0.543701 438.117ZM803.627 519.041H799.306V520.985H803.627C805.517 520.985 807.056 522.524 807.056 524.414V709.213C807.056 711.103 805.517 712.643 803.627 712.643H799.306V714.587H803.627C806.597 714.587 809 712.183 809 709.213V524.414C809 521.444 806.597 519.041 803.627 519.041ZM0.543701 597.805V711.157C0.543701 714.128 2.94685 716.531 5.91703 716.531H11.0473V714.587H5.91703C4.02691 714.587 2.48782 713.048 2.48782 711.157V597.805C2.48782 595.914 4.02691 594.375 5.91703 594.375H11.0473V592.431H5.91703C2.94685 592.431 0.543701 594.834 0.543701 597.805Z" fill="#929292"/>
</svg>
