<svg width="131" height="36" viewBox="0 0 131 36" fill="none" xmlns="http://www.w3.org/2000/svg">
<g clip-path="url(#clip0_3386_23958)">
<path d="M8.17017 20.0054V20.1489H0.494141V20.0054L3.38372 18.7421L9.80517 3.47074L10.127 3.61424L5.07735 18.7421L8.17147 20.0054H8.17017ZM22.6181 20.1489H14.9421V20.0054L17.6271 19.0291L15.3511 13.3159H7.58652L7.70377 12.9713L14.9707 12.4255L10.9138 2.26508L8.08288 1.08888V0.91719L12.9853 0.628906L20.3695 18.9138L22.6168 20.0054V20.1489H22.6181Z" fill="white"/>
<path d="M28.4544 20.0342V20.1495H23.668V20.0342L24.9226 19.432V8.03516L23.7553 7.08831V7.03065L26.8207 6.2273H26.9666L27.2585 9.15626V19.432L28.4544 20.0342ZM33.3294 9.5573C32.8422 8.63863 32.084 8.17994 31.0535 8.17994C30.548 8.17994 30.0308 8.32857 29.5058 8.62454C28.9807 8.92179 28.4648 9.44198 27.9594 10.189V9.75845C28.4648 8.49513 28.9859 7.53803 29.5214 6.88843C30.0555 6.23755 30.6835 5.91211 31.4039 5.91211C31.7348 5.91211 32.0749 5.95567 32.4266 6.04152C32.7771 6.12736 33.0585 6.25677 33.2721 6.42846L33.4467 9.47145L33.3294 9.5573Z" fill="white"/>
<path d="M38.7743 19.9188C37.9665 19.5549 37.2708 19.0527 36.6872 18.4107C36.1035 17.7701 35.6515 17.0001 35.3297 16.1006C35.0079 15.2012 34.8477 14.2159 34.8477 13.1448C34.8477 12.0736 35.0079 11.1217 35.3297 10.2312C35.6502 9.3407 36.1035 8.57579 36.6872 7.93388C37.2708 7.29325 37.9665 6.79612 38.7743 6.44121C39.582 6.08758 40.4809 5.91077 41.4736 5.91077V6.37074C40.89 6.37074 40.3493 6.54243 39.8543 6.88709C39.3579 7.23175 38.9293 7.70453 38.5697 8.308C38.2102 8.9102 37.9287 9.62386 37.7242 10.4464C37.5197 11.269 37.4181 12.1684 37.4181 13.1448C37.4181 14.1211 37.5197 15.0295 37.7242 15.8726C37.9287 16.7144 38.2115 17.4408 38.5697 18.0546C38.9306 18.667 39.3579 19.1449 39.8543 19.4908C40.3506 19.8355 40.89 20.0072 41.4736 20.0072V20.4659C40.4809 20.4659 39.5807 20.2852 38.7743 19.9214V19.9188ZM44.0857 19.4883C44.5821 19.1423 45.0107 18.6657 45.3703 18.052C45.7298 17.4395 46.0126 16.7131 46.2158 15.87C46.4203 15.0282 46.5219 14.1185 46.5219 13.1422C46.5219 12.1659 46.4203 11.2664 46.2158 10.4439C46.0126 9.6213 45.7285 8.90763 45.3703 8.30544C45.0094 7.70325 44.5821 7.22918 44.0857 6.88452C43.5894 6.53986 43.05 6.36818 42.4664 6.36818V5.9082C43.4591 5.9082 44.3593 6.08502 45.1657 6.43864C45.9735 6.79355 46.6692 7.29068 47.2528 7.93131C47.8378 8.57194 48.2885 9.33814 48.6103 10.2286C48.9321 11.1191 49.0923 12.0903 49.0923 13.1422C49.0923 14.1941 48.9321 15.1999 48.6103 16.0981C48.2898 16.9975 47.8378 17.7676 47.2528 18.4082C46.6692 19.0501 45.9735 19.5511 45.1657 19.9162C44.358 20.2801 43.4591 20.4608 42.4664 20.4608V20.0021C43.05 20.0021 43.5907 19.8304 44.0857 19.4857V19.4883Z" fill="white"/>
<path d="M56.1549 20.0342V20.1495H51.3672V20.0342L52.6218 19.432V8.03518L51.4545 7.08833V7.03068L54.5199 6.22732H54.6658L54.9577 9.15629V19.432L56.1549 20.0342ZM65.0569 20.0342V20.1495H61.1459V20.0342L61.4964 19.432V10.9641C61.4964 9.87251 61.2423 9.00254 60.7368 8.35166C60.2314 7.70077 59.5409 7.37533 58.6641 7.37533C58.1 7.37533 57.575 7.47143 57.0877 7.66234C56.6005 7.85324 56.1354 8.13128 55.6872 8.49388V8.17868C56.2318 7.5278 56.8441 6.98711 57.5255 6.55661C58.2068 6.12611 58.9064 5.91085 59.6282 5.91085C60.9114 5.89163 61.9341 6.26961 62.6923 7.04477C63.4519 7.81993 63.831 8.84878 63.831 10.1313V19.4307L65.0582 20.0329L65.0569 20.0342ZM73.9302 20.1495H70.0479V20.0342L70.3996 19.432V10.9641C70.3996 9.87251 70.1456 9.00254 69.6401 8.35166C69.1346 7.70077 68.4441 7.37533 67.5674 7.37533C67.0033 7.37533 66.4782 7.47143 65.991 7.66234C65.5037 7.85324 65.0282 8.13128 64.5605 8.49388V8.17868C65.1246 7.5278 65.7422 6.98711 66.4144 6.55661C67.0853 6.12611 67.781 5.91085 68.5015 5.91085C69.7847 5.89163 70.8126 6.26961 71.5812 7.04477C72.3499 7.81993 72.7342 8.84878 72.7342 10.1313V19.4307L73.9315 20.0329V20.1482L73.9302 20.1495Z" fill="white"/>
<path d="M78.4382 20.0335C77.8832 19.7478 77.4207 19.3544 77.052 18.8573C76.682 18.3602 76.4045 17.7759 76.2209 17.1058C76.0359 16.4357 75.9434 15.708 75.9434 14.9238L76.0606 14.7521L84.3789 12.2537V12.5407L78.2793 15.1532C78.2793 16.3012 78.605 17.225 79.2563 17.9233C79.909 18.6215 80.7116 18.97 81.6652 18.97C82.1707 18.97 82.6527 18.8406 83.11 18.5831C83.5673 18.3243 83.9907 17.9758 84.3789 17.5363V17.8233C84.2226 18.1283 84.0193 18.4396 83.7666 18.7548C83.5139 19.0713 83.2168 19.3583 82.8768 19.6171C82.5355 19.8759 82.1524 20.0809 81.7238 20.2334C81.2965 20.3871 80.8379 20.4627 80.352 20.4627C79.6315 20.4627 78.9945 20.3192 78.4408 20.0322L78.4382 20.0335ZM78.6571 6.5431C79.5716 6.12156 80.4953 5.91144 81.4294 5.91144V6.37141C80.593 6.71607 79.8439 7.25676 79.1821 7.9922C78.5203 8.72893 77.9366 9.46053 77.4298 10.1883H77.3426L76.2039 8.03449C76.9231 7.46048 77.7412 6.96335 78.6558 6.5431H78.6571ZM85.0785 11.1351C85.0785 10.5804 85.0251 10.0397 84.9183 9.51306C84.8114 8.98646 84.646 8.50855 84.4219 8.07677C84.1978 7.64626 83.9125 7.27726 83.5608 6.97232C83.2103 6.6661 82.783 6.46494 82.2775 6.37013V5.91016C83.8917 5.92938 85.1528 6.43163 86.0569 7.41692C86.9623 8.40221 87.4144 9.70909 87.4144 11.335V18.4819L88.5817 19.5146V19.5722L85.5462 20.4614H85.4003L85.0785 17.4184V11.1326V11.1351Z" fill="white"/>
<path d="M95.3522 20.0342V20.1495H90.5645V20.0342L91.819 19.432V8.03518L90.6517 7.08833V7.03068L93.7172 6.22732H93.8631L94.1549 9.15629V19.432L95.3522 20.0342ZM104.692 20.1495H100.781V20.0342L101.131 19.432V10.9641C101.131 9.87251 100.877 9.00254 100.372 8.35166C99.8664 7.70077 99.1759 7.37533 98.3004 7.37533C97.6777 7.37533 97.0927 7.50987 96.5482 7.77637C96.0036 8.04415 95.4877 8.39906 95.0017 8.83853V8.55281C95.5659 7.82506 96.212 7.20365 96.9416 6.68602C97.6712 6.16967 98.4346 5.91085 99.2332 5.91085C100.518 5.89163 101.544 6.26961 102.313 7.04477C103.082 7.81993 103.466 8.84878 103.466 10.1313V19.4307L104.693 20.0329V20.1482L104.692 20.1495Z" fill="white"/>
<path d="M113.245 20.0056C112.642 20.3106 112.058 20.4643 111.493 20.4643C110.461 20.4643 109.63 20.1158 108.998 19.4175C108.366 18.7192 108.049 17.5558 108.049 15.9299V7.08795H105.977V6.5716L108.137 6.25641L110.092 2.32422H110.384V16.2464C110.384 17.1651 110.612 17.8877 111.07 18.413C111.528 18.9396 112.115 19.2035 112.836 19.2035C113.128 19.2035 113.439 19.151 113.77 19.046C114.101 18.9409 114.391 18.8012 114.645 18.6295L114.791 18.8012C114.364 19.2984 113.848 19.7007 113.245 20.0082V20.0056ZM111.229 7.08795V6.22694H114.178V6.34225L113.74 7.08795H111.229Z" fill="white"/>
<path d="M123.78 18.1954L122.437 21.0373C122.028 21.7266 121.615 22.3236 121.196 22.831C120.778 23.3371 120.359 23.783 119.941 24.1661C119.523 24.5479 119.105 24.8836 118.687 25.1719C118.268 25.4576 117.865 25.7356 117.475 26.0034L115.491 23.7651V23.6792C115.978 23.6023 116.498 23.4922 117.053 23.3487C117.607 23.2052 118.172 23.004 118.745 22.7465C119.32 22.4877 119.893 22.1532 120.466 21.7407C121.041 21.3294 121.591 20.8182 122.116 20.2044L115.841 7.31624L114.354 6.33992V6.22461H120.19V6.33992L118.352 7.20093L123.78 18.1941V18.1954ZM130.494 6.3412L129.006 7.31752L124.453 16.8181L124.248 16.4734L127.138 7.20221L125.008 6.3412V6.22589H130.495V6.3412H130.494Z" fill="white"/>
<path d="M24.918 33.0002L25.8416 32.7824V28.3185L25.0287 28.1046V28.0033L26.4891 27.6574L26.553 27.7163V32.7837L27.4779 33.0015V33.1092H24.918V33.0015V33.0002ZM25.8273 26.2967C25.7374 26.2096 25.6918 26.0968 25.6918 25.9584C25.6918 25.8201 25.7374 25.7112 25.8273 25.6202C25.9172 25.5292 26.0319 25.4844 26.1699 25.4844C26.308 25.4844 26.4279 25.5292 26.5178 25.6202C26.6077 25.7112 26.6533 25.8239 26.6533 25.9584C26.6533 26.093 26.609 26.2096 26.5178 26.2967C26.4279 26.3838 26.312 26.4274 26.1699 26.4274C26.0279 26.4274 25.9185 26.3838 25.8273 26.2967Z" fill="white"/>
<path d="M27.8125 32.9991L28.7362 32.7813V28.3174L27.9232 28.1034V28.0022L29.3837 27.6562L29.4475 27.7152V28.4955C29.7133 28.2251 30.0103 28.0163 30.3373 27.8728C30.6656 27.728 31.0056 27.6562 31.36 27.6562C31.6922 27.6562 31.9853 27.7254 32.2407 27.8638C32.496 28.0022 32.6927 28.1969 32.8334 28.4455C32.9728 28.6954 33.0432 28.9798 33.0432 29.3001V32.7813L33.9682 32.9991V33.1067H31.4082V32.9991L32.3319 32.7813V29.4231C32.3319 29.0105 32.2133 28.6851 31.9762 28.4455C31.7391 28.2072 31.3939 28.088 30.9405 28.088C30.3529 28.088 29.8553 28.2982 29.4475 28.7184V32.7813L30.3725 32.9991V33.1067H27.8125V32.9991Z" fill="white"/>
<path d="M35.4192 32.8627C35.2016 32.6155 35.0922 32.2708 35.0922 31.83V27.9594H34.3652V27.8786L35.0596 27.6275L35.7293 26.6602H35.7931V27.7979H37.5141V27.9594H35.8035V31.9261C35.8035 32.2183 35.87 32.4348 36.0002 32.5783C36.1318 32.7205 36.3298 32.7923 36.5943 32.7923C36.7754 32.7923 36.9552 32.7718 37.1337 32.7282C37.3121 32.6846 37.4698 32.6283 37.604 32.5565L37.6678 32.6372C37.5115 32.8051 37.3161 32.946 37.0776 33.0626C36.8405 33.1779 36.5852 33.2356 36.3129 33.2356C35.9338 33.2356 35.6355 33.1126 35.4179 32.864L35.4192 32.8627Z" fill="white"/>
<path d="M41.666 32.5955C41.9917 32.4674 42.2575 32.2944 42.4633 32.0766L42.5324 32.1471C42.3057 32.4853 42.0087 32.7505 41.6426 32.9453C41.2752 33.14 40.857 33.2361 40.3867 33.2361C39.9164 33.2361 39.519 33.1247 39.1647 32.9017C38.8116 32.6801 38.5354 32.3674 38.3361 31.9677C38.1381 31.5679 38.0391 31.1067 38.0391 30.5878C38.0391 30.0151 38.1446 29.5064 38.3543 29.0605C38.5654 28.6159 38.8559 28.27 39.2285 28.0253C39.5998 27.7793 40.0154 27.6562 40.4766 27.6562C40.9378 27.6562 41.296 27.76 41.6178 27.9689C41.9396 28.1777 42.1858 28.4596 42.3539 28.8184C42.522 29.1758 42.6053 29.5769 42.6053 30.0227H38.8246C38.8181 30.1803 38.8142 30.2841 38.8142 30.3379C38.8142 31.1003 38.9732 31.6986 39.2897 32.1343C39.6063 32.5712 40.0649 32.7877 40.6681 32.7877C41.0081 32.7877 41.3403 32.7236 41.666 32.5968V32.5955ZM39.2923 28.4519C39.0448 28.8722 38.8924 29.3578 38.8364 29.91L41.8367 29.787C41.8367 29.3744 41.7807 29.0208 41.6699 28.7248C41.5592 28.4301 41.399 28.2059 41.1892 28.0534C40.9808 27.8997 40.7332 27.8241 40.4453 27.8241C39.9255 27.8241 39.5412 28.0342 39.2923 28.4545V28.4519Z" fill="white"/>
<path d="M42.7988 32.9991L43.7225 32.7813V28.3174L42.9096 28.1034V28.0022L44.37 27.6562L44.4338 27.7152V28.5211C44.667 28.2328 44.9393 28.0163 45.2468 27.8728C45.5555 27.728 45.8929 27.6562 46.2603 27.6562C46.4245 27.6562 46.5691 27.6806 46.6968 27.7306L46.5 28.99H46.4362C46.302 28.7838 46.1965 28.6326 46.1209 28.5365C46.0441 28.4404 45.9464 28.3571 45.8291 28.2892C45.7106 28.2187 45.566 28.1854 45.3966 28.1854C45.2272 28.1854 45.0644 28.2328 44.8872 28.3276C44.71 28.4212 44.5602 28.5416 44.4351 28.6877V32.7839L45.4122 33.0017V33.1093H42.8001V33.0017L42.7988 32.9991Z" fill="white"/>
<path d="M47.0527 33.0002L47.9764 32.7824V28.3185L47.1635 28.1046V28.0033L48.6239 27.6574L48.6877 27.7163V32.7837L49.6127 33.0015V33.1092H47.0527V33.0015V33.0002ZM47.9634 26.2967C47.8735 26.2096 47.8279 26.0968 47.8279 25.9584C47.8279 25.8201 47.8735 25.7112 47.9634 25.6202C48.0533 25.5292 48.1679 25.4844 48.306 25.4844C48.4441 25.4844 48.564 25.5292 48.6539 25.6202C48.7438 25.7112 48.7893 25.8239 48.7893 25.9584C48.7893 26.093 48.7451 26.2096 48.6539 26.2967C48.564 26.3838 48.448 26.4274 48.306 26.4274C48.164 26.4274 48.0546 26.3838 47.9634 26.2967Z" fill="white"/>
<path d="M51.2846 32.8774C50.8781 32.6391 50.5563 32.3072 50.3231 31.8818C50.0899 31.4565 49.9727 30.9786 49.9727 30.4481C49.9727 29.9177 50.0899 29.4449 50.3231 29.0195C50.5563 28.5941 50.8781 28.261 51.2846 28.0188C51.691 27.7767 52.1444 27.6562 52.6447 27.6562C53.1449 27.6562 53.6022 27.7767 54.0087 28.0188C54.4152 28.261 54.7357 28.5954 54.9675 29.0195C55.1994 29.4449 55.3154 29.9215 55.3154 30.4481C55.3154 30.9747 55.1994 31.4603 54.9675 31.8844C54.7357 32.3072 54.4152 32.6391 54.0087 32.8774C53.6022 33.1157 53.1462 33.2349 52.6447 33.2349C52.1431 33.2349 51.6923 33.1157 51.2846 32.8774ZM53.614 32.7454C53.8954 32.5238 54.1129 32.215 54.2706 31.8165C54.4269 31.418 54.5038 30.9632 54.5038 30.4494C54.5038 29.9356 54.4243 29.4859 54.2666 29.0887C54.109 28.6889 53.8888 28.3789 53.6074 28.1547C53.326 27.9292 53.0055 27.8177 52.6434 27.8177C52.2812 27.8177 51.9555 27.9292 51.6741 28.1547C51.3927 28.3789 51.1738 28.6902 51.0175 29.0887C50.8612 29.4872 50.7843 29.9407 50.7843 30.4494C50.7843 30.9581 50.8612 31.4219 51.0149 31.8191C51.1699 32.2163 51.3862 32.525 51.6689 32.7454C51.9503 32.9658 52.2747 33.076 52.6434 33.076C53.0121 33.076 53.3299 32.9645 53.6126 32.7454H53.614Z" fill="white"/>
<path d="M55.6406 32.9991L56.5643 32.7813V28.3174L55.7514 28.1034V28.0022L57.2118 27.6562L57.2756 27.7152V28.5211C57.5088 28.2328 57.7811 28.0163 58.0886 27.8728C58.3973 27.728 58.7347 27.6562 59.1021 27.6562C59.2663 27.6562 59.4109 27.6806 59.5386 27.7306L59.3418 28.99H59.278C59.1438 28.7838 59.0383 28.6326 58.9627 28.5365C58.8859 28.4404 58.7882 28.3571 58.6709 28.2892C58.5524 28.2187 58.4077 28.1854 58.2384 28.1854C58.069 28.1854 57.9062 28.2328 57.729 28.3276C57.5518 28.4212 57.402 28.5416 57.2769 28.6877V32.7839L58.254 33.0017V33.1093H55.6419V33.0017L55.6406 32.9991Z" fill="white"/>
<path d="M62.2995 32.9994L63.2284 32.7816V27.9602H62.3568V27.7988H63.2323L63.1046 27.3504C63.0303 27.0839 62.9939 26.843 62.9939 26.629C62.9939 26.2984 63.0694 26.0179 63.2219 25.7911C63.3743 25.563 63.5788 25.3939 63.8355 25.2811C64.0908 25.1697 64.3761 25.1133 64.6875 25.1133C64.8894 25.1133 65.0966 25.1415 65.3063 25.1953C65.5174 25.2504 65.6919 25.3157 65.83 25.39L65.6594 26.5919H65.5747C65.3936 26.1959 65.1904 25.7795 64.9637 25.3426C64.8582 25.2952 64.7474 25.2722 64.6341 25.2722C64.3227 25.2722 64.0804 25.3772 63.9058 25.5873C63.7325 25.7975 63.6466 26.0781 63.6466 26.4304C63.6466 26.6367 63.6791 26.8584 63.7417 27.0928L63.9332 27.7975H65.2242V27.959H63.9332V32.7803L64.9155 32.9982V33.1058H62.2969V32.9982L62.2995 32.9994Z" fill="white"/>
<path d="M65.6465 32.9991L66.5702 32.7813V28.3174L65.7572 28.1034V28.0022L67.2176 27.6562L67.2815 27.7152V28.5211C67.5147 28.2328 67.787 28.0163 68.0944 27.8728C68.4032 27.728 68.7406 27.6562 69.108 27.6562C69.2721 27.6562 69.4168 27.6806 69.5444 27.7306L69.3477 28.99H69.2839C69.1497 28.7838 69.0442 28.6326 68.9686 28.5365C68.8917 28.4404 68.794 28.3571 68.6768 28.2892C68.5582 28.2187 68.4136 28.1854 68.2442 28.1854C68.0749 28.1854 67.912 28.2328 67.7349 28.3276C67.5577 28.4212 67.4078 28.5416 67.2828 28.6877V32.7839L68.2599 33.0017V33.1093H65.6478V33.0017L65.6465 32.9991Z" fill="white"/>
<path d="M70.3479 32.9197C70.0899 32.7096 69.9609 32.4188 69.9609 32.0498C69.9609 31.6808 70.1095 31.3297 70.4052 31.0452C70.6996 30.7595 71.0918 30.5366 71.5803 30.3751C72.0688 30.2137 72.5978 30.1202 73.1684 30.0946V29.5129C73.1684 29.0862 73.0655 28.7415 72.8596 28.4802C72.6538 28.2175 72.319 28.0881 71.8513 28.0881C71.2377 28.0881 70.7361 28.2034 70.3427 28.434L70.284 28.3328C70.529 28.1265 70.8182 27.9638 71.1556 27.8421C71.4917 27.7217 71.8435 27.6602 72.2122 27.6602C73.3234 27.6602 73.8797 28.2457 73.8797 29.418V32.6699L74.4738 32.8941V32.9582L73.2739 33.2362L73.1788 32.4777C72.9456 32.7122 72.6733 32.8979 72.3659 33.0325C72.0571 33.167 71.7327 33.2349 71.3888 33.2349C70.9537 33.2349 70.6058 33.1299 70.3479 32.9197ZM73.1684 32.3047V30.265C72.6929 30.3008 72.276 30.3867 71.9151 30.5212C71.5542 30.657 71.2702 30.8415 71.0657 31.076C70.8599 31.3117 70.7582 31.5872 70.7582 31.9037C70.7582 32.5225 71.0696 32.8326 71.6923 32.8326C72.3151 32.8326 72.7867 32.6558 73.1684 32.3034V32.3047Z" fill="white"/>
<path d="M76.2487 35.2254C75.8748 35.1293 75.5882 34.9923 75.3888 34.8154C75.1882 34.6373 75.0879 34.4285 75.0879 34.1902C75.0879 33.9378 75.1882 33.7097 75.3888 33.5073C75.5882 33.3048 75.8409 33.1421 76.1444 33.0217C75.9217 32.964 75.7536 32.8718 75.6429 32.7436C75.5308 32.6155 75.4761 32.4643 75.4761 32.2901C75.4761 31.8557 75.781 31.4803 76.3894 31.1638C76.0989 30.9857 75.867 30.7538 75.6911 30.4668C75.5165 30.1798 75.4279 29.8659 75.4279 29.5238C75.4279 29.1817 75.5178 28.8678 75.7015 28.5821C75.8839 28.2951 76.1327 28.0696 76.4467 27.903C76.762 27.7378 77.1137 27.6558 77.5033 27.6558C77.7586 27.6558 78.0035 27.6942 78.2393 27.7711C78.4751 27.8479 78.6901 27.9645 78.8842 28.1209L80.0997 27.4648L80.1583 27.4751V28.2118L79.0119 28.2169C79.391 28.5859 79.5799 29.0293 79.5799 29.5456C79.5799 29.9018 79.49 30.2247 79.3089 30.513C79.1291 30.8012 78.8803 31.0267 78.5663 31.1907C78.2511 31.3548 77.8967 31.4368 77.5033 31.4368C77.1385 31.4368 76.8245 31.3727 76.5587 31.2446C76.3776 31.3407 76.2369 31.4534 76.134 31.5815C76.0324 31.7097 75.9803 31.8468 75.9803 31.9915C75.9803 32.1696 76.0572 32.2952 76.2122 32.3682C76.3659 32.4425 76.6265 32.4784 76.9952 32.4784H78.3826C79.6242 32.4784 80.2469 32.9153 80.2469 33.7917C80.2469 34.1043 80.1375 34.3798 79.9173 34.6194C79.6985 34.8577 79.3871 35.0422 78.9832 35.1742C78.5794 35.3049 78.1104 35.3715 77.5762 35.3715C77.0421 35.3715 76.6239 35.3241 76.2513 35.2267L76.2487 35.2254ZM79.1161 34.8962C79.4509 34.6886 79.6177 34.3952 79.6177 34.0185C79.6177 33.7123 79.52 33.4868 79.3259 33.3433C79.1317 33.1998 78.8595 33.1267 78.5129 33.1267C78.3957 33.1267 78.2029 33.1306 77.9345 33.137C77.644 33.1447 77.4264 33.1485 77.2818 33.1485C76.8714 33.1485 76.5483 33.1242 76.3151 33.078C76.1418 33.21 76.0037 33.3458 75.9008 33.4868C75.7992 33.6277 75.7471 33.7956 75.7471 33.9916C75.7471 34.2376 75.8227 34.4516 75.9725 34.6348C76.1236 34.818 76.3425 34.9589 76.6317 35.0602C76.9196 35.1601 77.2648 35.2101 77.6648 35.2101C78.298 35.2101 78.7826 35.1063 79.1174 34.8974L79.1161 34.8962ZM78.4712 30.7987C78.694 30.4822 78.806 30.0632 78.806 29.5443C78.806 29.0254 78.694 28.6116 78.4712 28.2951C78.2485 27.9786 77.9267 27.8198 77.5046 27.8198C77.0825 27.8198 76.7516 27.9773 76.5301 28.2951C76.3086 28.6116 76.1979 29.028 76.1979 29.5443C76.1979 29.8826 76.2474 30.1824 76.3464 30.4425C76.4441 30.7013 76.5926 30.9063 76.7893 31.0537C76.9861 31.2023 77.2245 31.2753 77.5033 31.2753C77.9241 31.2753 78.2472 31.1164 78.4699 30.8L78.4712 30.7987Z" fill="white"/>
<path d="M80.7598 32.9991L81.6834 32.7813V28.3174L80.8705 28.1034V28.0022L82.3309 27.6562L82.3948 27.7152V28.5211C82.628 28.2328 82.9003 28.0163 83.2077 27.8728C83.5165 27.728 83.8539 27.6562 84.2213 27.6562C84.3854 27.6562 84.53 27.6806 84.6577 27.7306L84.461 28.99H84.3972C84.263 28.7838 84.1574 28.6326 84.0819 28.5365C84.005 28.4404 83.9073 28.3571 83.7901 28.2892C83.6715 28.2187 83.5269 28.1854 83.3575 28.1854C83.1882 28.1854 83.0253 28.2328 82.8481 28.3276C82.671 28.4212 82.5211 28.5416 82.3961 28.6877V32.7839L83.3732 33.0017V33.1093H80.7611V33.0017L80.7598 32.9991Z" fill="white"/>
<path d="M85.4631 32.9197C85.2051 32.7096 85.0762 32.4188 85.0762 32.0498C85.0762 31.6808 85.2247 31.3297 85.5204 31.0452C85.8148 30.7595 86.207 30.5366 86.6955 30.3751C87.1841 30.2137 87.713 30.1202 88.2836 30.0946V29.5129C88.2836 29.0862 88.1807 28.7415 87.9749 28.4802C87.769 28.2175 87.4342 28.0881 86.9665 28.0881C86.3529 28.0881 85.8513 28.2034 85.4579 28.434L85.3993 28.3328C85.6442 28.1265 85.9334 27.9638 86.2708 27.8421C86.6069 27.7217 86.9587 27.6602 87.3274 27.6602C88.4387 27.6602 88.995 28.2457 88.995 29.418V32.6699L89.589 32.8941V32.9582L88.3892 33.2362L88.2941 32.4777C88.0609 32.7122 87.7886 32.8979 87.4811 33.0325C87.1724 33.167 86.848 33.2349 86.504 33.2349C86.0689 33.2349 85.721 33.1299 85.4631 32.9197ZM88.2836 32.3047V30.265C87.8081 30.3008 87.3912 30.3867 87.0304 30.5212C86.6695 30.657 86.3855 30.8415 86.1809 31.076C85.9751 31.3117 85.8735 31.5872 85.8735 31.9037C85.8735 32.5225 86.1848 32.8326 86.8076 32.8326C87.4303 32.8326 87.9019 32.6558 88.2836 32.3034V32.3047Z" fill="white"/>
<path d="M90.1797 32.9991L91.1034 32.7813V28.3174L90.2904 28.1034V28.0022L91.7508 27.6562L91.8147 27.7152V28.4955C92.0805 28.2251 92.3775 28.0163 92.7045 27.8728C93.0328 27.728 93.3728 27.6562 93.7272 27.6562C94.0594 27.6562 94.3525 27.7254 94.6079 27.8638C94.8632 28.0022 95.0599 28.1969 95.2006 28.4455C95.34 28.6954 95.4104 28.9798 95.4104 29.3001V32.7813L96.3354 32.9991V33.1067H93.7754V32.9991L94.6991 32.7813V29.4231C94.6991 29.0105 94.5805 28.6851 94.3434 28.4455C94.1063 28.2072 93.7611 28.088 93.3077 28.088C92.7201 28.088 92.2225 28.2982 91.8147 28.7184V32.7813L92.7397 32.9991V33.1067H90.1797V32.9991Z" fill="white"/>
<path d="M97.8053 32.9094C97.4444 32.6916 97.1617 32.3841 96.9585 31.9856C96.7553 31.5859 96.6523 31.1285 96.6523 30.6134C96.6523 30.0253 96.7735 29.5077 97.0132 29.0605C97.2542 28.6121 97.5825 28.2661 97.9981 28.0214C98.415 27.778 98.8762 27.6562 99.3817 27.6562C99.6331 27.6562 99.9093 27.6908 100.21 27.76C100.511 27.8292 100.768 27.9023 100.98 27.9817L100.773 29.3168H100.678C100.529 28.9503 100.408 28.6608 100.314 28.4455C100.221 28.2315 100.124 28.056 100.025 27.9176C99.9653 27.8971 99.8754 27.8741 99.7582 27.851C99.6396 27.8279 99.5094 27.8164 99.3674 27.8164C98.7381 27.8164 98.2639 28.0381 97.9447 28.4814C97.6268 28.9247 97.4666 29.5359 97.4666 30.3149C97.4666 30.8158 97.5356 31.2527 97.6737 31.6218C97.8118 31.992 98.0177 32.2778 98.2926 32.4815C98.5661 32.6839 98.9036 32.7864 99.3035 32.7864C99.6292 32.7864 99.9536 32.7224 100.278 32.5917C100.602 32.461 100.864 32.2906 101.067 32.0753L101.131 32.1458C100.915 32.4802 100.626 32.7454 100.264 32.9414C99.9002 33.1375 99.4885 33.2349 99.0286 33.2349C98.5688 33.2349 98.1688 33.126 97.8066 32.9094H97.8053Z" fill="white"/>
<path d="M105.277 32.5955C105.603 32.4674 105.869 32.2944 106.075 32.0766L106.144 32.1471C105.917 32.4853 105.62 32.7505 105.254 32.9453C104.887 33.14 104.468 33.2361 103.998 33.2361C103.528 33.2361 103.13 33.1247 102.776 32.9017C102.423 32.6801 102.147 32.3674 101.947 31.9677C101.749 31.5679 101.65 31.1067 101.65 30.5878C101.65 30.0151 101.756 29.5064 101.966 29.0605C102.177 28.6159 102.467 28.27 102.84 28.0253C103.211 27.7793 103.627 27.6562 104.088 27.6562C104.549 27.6562 104.907 27.76 105.229 27.9689C105.551 28.1777 105.797 28.4596 105.965 28.8184C106.133 29.1758 106.217 29.5769 106.217 30.0227H102.436C102.429 30.1803 102.426 30.2841 102.426 30.3379C102.426 31.1003 102.584 31.6986 102.901 32.1343C103.218 32.5712 103.676 32.7877 104.279 32.7877C104.619 32.7877 104.952 32.7236 105.277 32.5968V32.5955ZM102.904 28.4519C102.656 28.8722 102.504 29.3578 102.448 29.91L105.448 29.787C105.448 29.3744 105.392 29.0208 105.281 28.7248C105.171 28.4301 105.01 28.2059 104.801 28.0534C104.592 27.8997 104.345 27.8241 104.057 27.8241C103.537 27.8241 103.153 28.0342 102.904 28.4545V28.4519Z" fill="white"/>
<path d="M107.577 33.1125C107.24 33.0305 106.97 32.9369 106.764 32.8344L107.071 31.6646H107.168C107.246 31.8991 107.342 32.14 107.457 32.3886C107.571 32.6358 107.687 32.8332 107.805 32.9779C107.918 33.0061 108.05 33.0292 108.201 33.0484C108.352 33.0651 108.5 33.0753 108.649 33.0753C109.07 33.0753 109.374 32.9805 109.559 32.7922C109.746 32.6038 109.838 32.3591 109.838 32.0606C109.838 31.8543 109.789 31.6787 109.69 31.534C109.591 31.3905 109.459 31.2675 109.296 31.165C109.132 31.0637 108.899 30.9382 108.594 30.7883L108.181 30.5858C107.911 30.4551 107.682 30.3232 107.491 30.1938C107.299 30.0631 107.14 29.9055 107.015 29.7184C106.89 29.5313 106.826 29.3148 106.826 29.0688C106.826 28.7562 106.908 28.4935 107.074 28.2808C107.238 28.0694 107.462 27.9118 107.745 27.8093C108.027 27.7068 108.352 27.6543 108.717 27.6543C108.95 27.6543 109.21 27.6863 109.494 27.7504C109.78 27.8145 110.023 27.8913 110.225 27.9797L110.028 29.1277H109.933C109.647 28.4871 109.428 28.0746 109.279 27.8888C109.219 27.8683 109.127 27.849 109.001 27.835C108.875 27.8221 108.753 27.8145 108.637 27.8145C108.369 27.8145 108.146 27.8619 107.974 27.9592C107.801 28.0553 107.673 28.1809 107.591 28.3385C107.509 28.4961 107.47 28.6639 107.47 28.8459C107.47 29.0778 107.56 29.2828 107.743 29.4622C107.926 29.6415 108.188 29.8171 108.532 29.9875L108.999 30.2232C109.304 30.377 109.561 30.523 109.769 30.664C109.979 30.8049 110.15 30.9676 110.285 31.1521C110.419 31.3379 110.487 31.5455 110.487 31.7774C110.487 32.2476 110.311 32.6076 109.958 32.8588C109.606 33.1099 109.133 33.2355 108.543 33.2355C108.235 33.2355 107.913 33.1945 107.577 33.1125Z" fill="white"/>
</g>
<defs>
<clipPath id="clip0_3386_23958">
<rect width="130" height="34.7414" fill="white" transform="translate(0.494141 0.628906)"/>
</clipPath>
</defs>
</svg>
