<svg width="146" height="32" viewBox="0 0 146 32" fill="none" xmlns="http://www.w3.org/2000/svg">
<g clip-path="url(#clip0_3386_23930)">
<path d="M35.2989 4.58155C35.1186 4.29987 34.894 4.05288 34.6241 3.83953C34.3541 3.62722 34.0486 3.46116 33.7074 3.34239C33.3662 3.22362 33.0099 3.16372 32.6363 3.16372C31.955 3.16372 31.3762 3.29194 30.9 3.54839C30.4239 3.80484 30.0384 4.14958 29.7426 4.58155C29.4467 5.01352 29.2319 5.50435 29.0958 6.05509C28.9608 6.60582 28.8928 7.17548 28.8928 7.76406C28.8928 8.35263 28.9608 8.87499 29.0958 9.40681C29.2308 9.93863 29.4456 10.4179 29.7426 10.8436C30.0384 11.2692 30.4239 11.6108 30.9 11.8673C31.3762 12.1237 31.9539 12.2519 32.6363 12.2519C33.5627 12.2519 34.2861 11.9766 34.8065 11.4258C35.327 10.8751 35.6455 10.1488 35.761 9.2481H38.6936C38.6158 10.0868 38.4172 10.8446 38.0954 11.5204C37.7737 12.1962 37.3493 12.7722 36.8224 13.2483C36.2955 13.7244 35.6779 14.087 34.9707 14.3372C34.2634 14.5873 33.4849 14.7124 32.6363 14.7124C31.5814 14.7124 30.6334 14.5337 29.7912 14.1774C28.949 13.8211 28.2385 13.3292 27.6598 12.7039C27.081 12.0785 26.6372 11.3428 26.3284 10.4978C26.0196 9.65275 25.8652 8.74256 25.8652 7.76616C25.8652 6.78975 26.0196 5.83542 26.3284 4.97779C26.6372 4.12015 27.081 3.37287 27.6598 2.73385C28.2385 2.09587 28.949 1.59454 29.7912 1.23193C30.6334 0.869327 31.5814 0.6875 32.6363 0.6875C33.3953 0.6875 34.1123 0.793654 34.7871 1.00701C35.4619 1.22037 36.0666 1.53042 36.6 1.93612C37.1334 2.34287 37.5739 2.84631 37.9216 3.44749C38.2682 4.04868 38.4874 4.7371 38.577 5.51276H35.6455C35.5937 5.17433 35.4781 4.86533 35.2978 4.58365L35.2989 4.58155Z" fill="white"/>
<path d="M42.3005 4.70416V6.50667H42.3394C42.4679 6.20608 42.6417 5.92756 42.8598 5.67111C43.0779 5.41466 43.3295 5.19499 43.6124 5.01422C43.8953 4.83344 44.1976 4.6926 44.5194 4.5917C44.8411 4.49186 45.1748 4.44141 45.5224 4.44141C45.7028 4.44141 45.9014 4.47294 46.1206 4.53495V7.01327C45.9921 6.98804 45.8377 6.96597 45.6574 6.94705C45.4771 6.92813 45.3033 6.91867 45.137 6.91867C44.6349 6.91867 44.2106 7.00065 43.864 7.16251C43.5163 7.32542 43.2366 7.54719 43.025 7.82886C42.8123 8.11054 42.6611 8.43951 42.5715 8.81472C42.4819 9.18994 42.4366 9.59669 42.4366 10.035V14.4104H39.6973V4.70416H42.3016H42.3005Z" fill="white"/>
<path d="M46.1395 7.4547C46.3835 6.82303 46.7312 6.28491 47.1814 5.84032C47.6317 5.39574 48.1715 5.05205 48.8021 4.80716C49.4327 4.56333 50.1399 4.44141 50.9238 4.44141C51.7077 4.44141 52.4192 4.56333 53.0552 4.80716C53.6922 5.051 54.2353 5.39574 54.6856 5.84032C55.1358 6.28491 55.4824 6.82303 55.7275 7.4547C55.9715 8.08741 56.0936 8.7916 56.0936 9.56726C56.0936 10.3429 55.9715 11.0439 55.7275 11.6704C55.4835 12.2968 55.1358 12.8317 54.6856 13.2753C54.2353 13.7199 53.6922 14.0614 53.0552 14.299C52.4181 14.5365 51.7077 14.6553 50.9238 14.6553C50.1399 14.6553 49.4316 14.5365 48.8021 14.299C48.1715 14.0614 47.6317 13.7199 47.1814 13.2753C46.7312 12.8307 46.3835 12.2957 46.1395 11.6704C45.8954 11.045 45.7734 10.344 45.7734 9.56726C45.7734 8.79055 45.8954 8.08741 46.1395 7.4547ZM48.6272 10.7034C48.7038 11.0734 48.8366 11.4045 49.0224 11.6987C49.2081 11.993 49.4564 12.2274 49.7652 12.4029C50.074 12.5784 50.4595 12.6657 50.9227 12.6657C51.3859 12.6657 51.7746 12.5784 52.0899 12.4029C52.4052 12.2274 52.6557 11.993 52.8425 11.6987C53.0282 11.4045 53.161 11.0734 53.2377 10.7034C53.3143 10.3345 53.3532 9.95614 53.3532 9.56726C53.3532 9.17838 53.3143 8.79686 53.2377 8.42164C53.1599 8.04642 53.0282 7.7143 52.8425 7.42632C52.6557 7.13834 52.4052 6.90396 52.0899 6.72213C51.7746 6.54136 51.3859 6.44992 50.9227 6.44992C50.4595 6.44992 50.074 6.54136 49.7652 6.72213C49.4564 6.90396 49.2092 7.13834 49.0224 7.42632C48.8356 7.7143 48.7038 8.04642 48.6272 8.42164C48.5505 8.79686 48.5117 9.17943 48.5117 9.56726C48.5117 9.95509 48.5505 10.3345 48.6272 10.7034Z" fill="white"/>
<path d="M65.6802 14.4104L63.9052 7.89509H63.8663L62.1689 14.4104H59.3335L56.1699 4.70312H59.0636L60.8959 11.2941H60.9348L62.5933 4.70312H65.2548L66.9522 11.2752H66.991L68.8234 4.70312H71.6393L68.4951 14.4104H65.6792H65.6802Z" fill="white"/>
<path d="M79.1047 13.1716C78.7829 13.6971 78.3618 14.0766 77.8414 14.3078C77.3209 14.539 76.7325 14.6557 76.076 14.6557C75.3299 14.6557 74.6745 14.5148 74.1087 14.2332C73.5429 13.9515 73.0765 13.57 72.7104 13.0875C72.3444 12.6062 72.0669 12.0523 71.8812 11.4259C71.6944 10.8005 71.6016 10.1489 71.6016 9.47307C71.6016 8.79726 71.6944 8.19292 71.8812 7.58648C72.068 6.98004 72.3444 6.44401 72.7104 5.98051C73.0765 5.51806 73.5364 5.14495 74.0893 4.86327C74.6421 4.5816 75.2856 4.44076 76.0188 4.44076C76.6105 4.44076 77.173 4.56268 77.7064 4.80652C78.2398 5.05035 78.6609 5.41086 78.9697 5.88592H79.0086V1.00391H81.7478V14.4108H79.1435V13.1716H79.1047ZM78.9891 8.3737C78.9114 8.00479 78.7797 7.67897 78.5939 7.39729C78.4071 7.11562 78.1664 6.88755 77.8705 6.71203C77.5747 6.5365 77.2022 6.44927 76.7519 6.44927C76.3017 6.44927 75.9227 6.5365 75.6139 6.71203C75.3051 6.88755 75.0578 7.11877 74.871 7.40675C74.6842 7.69474 74.5492 8.02371 74.4661 8.39262C74.3819 8.76258 74.3409 9.14725 74.3409 9.54769C74.3409 9.92291 74.3862 10.2992 74.4758 10.6744C74.5654 11.0496 74.7101 11.3849 74.9099 11.6792C75.1096 11.9735 75.3601 12.211 75.6625 12.3928C75.9648 12.5746 76.3276 12.665 76.7519 12.665C77.2022 12.665 77.5779 12.5778 77.8802 12.4023C78.1826 12.2268 78.4233 11.9924 78.6037 11.6981C78.784 11.4038 78.9125 11.0696 78.9891 10.6933C79.0658 10.3181 79.1047 9.93027 79.1047 9.52877C79.1047 9.12728 79.0658 8.74366 78.9891 8.3737Z" fill="white"/>
<path d="M81.998 6.48711V4.70352H83.6382V3.95203C83.6382 3.08809 83.9146 2.38075 84.4674 1.83001C85.0202 1.27927 85.8559 1.00391 86.9746 1.00391C87.2186 1.00391 87.4637 1.01337 87.7077 1.03228C87.9517 1.0512 88.1903 1.06697 88.4214 1.07958V3.07022C88.0996 3.03239 87.766 3.01347 87.4183 3.01347C87.0447 3.01347 86.778 3.09755 86.6182 3.26676C86.4574 3.43598 86.3775 3.72081 86.3775 4.12125V4.70352H88.2681V6.48711H86.3775V14.4108H83.6382V6.48711H81.998Z" fill="white"/>
<path d="M95.443 14.4104V13.0588H95.3847C95.037 13.6221 94.5868 14.0289 94.0339 14.279C93.4811 14.5292 92.9153 14.6542 92.3366 14.6542C91.6035 14.6542 91.002 14.5607 90.5334 14.3726C90.0638 14.1844 89.6945 13.9185 89.4246 13.5748C89.1546 13.2311 88.9646 12.8118 88.8555 12.3168C88.7465 11.8228 88.6914 11.2752 88.6914 10.674V4.70312H91.4307V10.1863C91.4307 10.9872 91.5592 11.5852 91.8162 11.9794C92.0731 12.3735 92.5299 12.5711 93.1853 12.5711C93.9314 12.5711 94.4712 12.3556 94.806 11.9237C95.1407 11.4917 95.308 10.7812 95.308 9.79219V4.70418H98.0473V14.4114H95.443V14.4104Z" fill="white"/>
<path d="M101.964 4.70416V6.05578H102.022C102.37 5.49243 102.819 5.08253 103.373 4.82608C103.926 4.56963 104.491 4.44141 105.07 4.44141C105.803 4.44141 106.404 4.5381 106.873 4.73254C107.343 4.92698 107.712 5.19604 107.982 5.53973C108.252 5.88446 108.442 6.30382 108.551 6.79781C108.66 7.29284 108.715 7.84042 108.715 8.44056V14.4114H105.976V8.92824C105.976 8.12735 105.848 7.52932 105.591 7.13519C105.334 6.74105 104.877 6.54346 104.221 6.54346C103.475 6.54346 102.935 6.75997 102.601 7.19089C102.266 7.62286 102.099 8.33335 102.099 9.32237V14.4104H99.3594V4.70416H101.964Z" fill="white"/>
<path d="M117.105 13.1716C116.783 13.6971 116.362 14.0766 115.841 14.3078C115.321 14.539 114.732 14.6557 114.076 14.6557C113.33 14.6557 112.674 14.5148 112.109 14.2332C111.543 13.9515 111.076 13.57 110.71 13.0875C110.344 12.6062 110.067 12.0523 109.881 11.4259C109.694 10.8005 109.602 10.1489 109.602 9.47307C109.602 8.79726 109.694 8.19292 109.881 7.58648C110.068 6.98004 110.344 6.44401 110.71 5.98051C111.076 5.51806 111.536 5.14495 112.089 4.86327C112.642 4.5816 113.286 4.44076 114.019 4.44076C114.61 4.44076 115.173 4.56268 115.706 4.80652C116.24 5.05035 116.661 5.41086 116.97 5.88592H117.009V1.00391H119.748V14.4108H117.144V13.1716H117.105ZM116.989 8.3737C116.911 8.00479 116.78 7.67897 116.594 7.39729C116.407 7.11562 116.166 6.88755 115.871 6.71203C115.575 6.5365 115.202 6.44927 114.752 6.44927C114.302 6.44927 113.923 6.5365 113.614 6.71203C113.305 6.88755 113.058 7.11877 112.871 7.40675C112.684 7.69474 112.549 8.02371 112.466 8.39262C112.382 8.76258 112.341 9.14725 112.341 9.54769C112.341 9.92291 112.386 10.2992 112.476 10.6744C112.565 11.0496 112.71 11.3849 112.91 11.6792C113.11 11.9735 113.36 12.211 113.662 12.3928C113.965 12.5746 114.328 12.665 114.752 12.665C115.202 12.665 115.578 12.5778 115.88 12.4023C116.183 12.2268 116.423 11.9924 116.604 11.6981C116.784 11.4038 116.912 11.0696 116.989 10.6933C117.066 10.3181 117.105 9.93027 117.105 9.52877C117.105 9.12728 117.066 8.74366 116.989 8.3737Z" fill="white"/>
<path d="M121.117 3.2016V1.00391H123.856V3.20055H121.117V3.2016ZM123.856 4.70352V14.4108H121.117V4.70352H123.856Z" fill="white"/>
<path d="M127.848 4.70416V6.05578H127.907C128.254 5.49243 128.704 5.08253 129.258 4.82608C129.81 4.56963 130.376 4.44141 130.955 4.44141C131.688 4.44141 132.288 4.5381 132.758 4.73254C133.228 4.92698 133.597 5.19604 133.867 5.53973C134.137 5.88446 134.327 6.30382 134.436 6.79781C134.545 7.29284 134.6 7.84042 134.6 8.44056V14.4114H131.861V8.92824C131.861 8.12735 131.732 7.52932 131.475 7.13519C131.218 6.74105 130.762 6.54346 130.106 6.54346C129.36 6.54346 128.82 6.75997 128.486 7.19089C128.151 7.62286 127.983 8.33335 127.983 9.32237V14.4104H125.244V4.70416H127.848Z" fill="white"/>
<path d="M145.334 15.124C145.225 15.6243 144.99 16.091 144.63 16.5229C144.271 16.9549 143.749 17.3207 143.068 17.6213C142.387 17.9219 141.473 18.0722 140.329 18.0722C139.84 18.0722 139.342 18.0122 138.833 17.8935C138.325 17.7747 137.863 17.5897 137.445 17.3396C137.027 17.0894 136.679 16.7668 136.403 16.3726C136.126 15.9785 135.969 15.5056 135.93 14.9548H138.65C138.778 15.4551 139.029 15.803 139.402 15.9974C139.775 16.1908 140.206 16.2886 140.695 16.2886C141.466 16.2886 142.028 16.0636 142.382 15.6128C142.735 15.1619 142.906 14.5922 142.893 13.9038V12.6268H142.854C142.558 13.1397 142.137 13.5191 141.591 13.763C141.045 14.0068 140.469 14.1287 139.864 14.1287C139.118 14.1287 138.476 14.0005 137.936 13.744C137.396 13.4876 136.952 13.1365 136.605 12.693C136.257 12.2484 136.003 11.7292 135.842 11.1343C135.681 10.5405 135.602 9.91094 135.602 9.24775C135.602 8.62239 135.694 8.01805 135.881 7.43578C136.068 6.85351 136.341 6.34061 136.701 5.89603C137.06 5.45144 137.507 5.0983 138.042 4.83554C138.575 4.57278 139.19 4.44141 139.884 4.44141C140.539 4.44141 141.115 4.56017 141.61 4.7977C142.105 5.03524 142.519 5.43568 142.854 5.99903H142.893V4.70311H145.497V13.7913C145.497 14.1792 145.442 14.6237 145.333 15.124H145.334ZM141.582 11.8942C141.878 11.7439 142.122 11.5442 142.315 11.293C142.509 11.0429 142.653 10.7581 142.749 10.4386C142.846 10.119 142.894 9.78482 142.894 9.43378C142.894 9.03334 142.855 8.65497 142.779 8.29762C142.702 7.94132 142.572 7.62496 142.393 7.34959C142.213 7.07423 141.975 6.85561 141.679 6.6927C141.384 6.52979 141.011 6.44887 140.561 6.44887C140.175 6.44887 139.844 6.52349 139.567 6.67378C139.291 6.82408 139.059 7.02798 138.873 7.28443C138.686 7.54088 138.551 7.83517 138.468 8.16729C138.384 8.49942 138.343 8.84625 138.343 9.20991C138.343 9.57356 138.379 9.90779 138.449 10.2525C138.519 10.5973 138.642 10.9063 138.815 11.1816C138.989 11.457 139.217 11.683 139.499 11.8574C139.782 12.033 140.136 12.1202 140.561 12.1202C140.946 12.1202 141.287 12.0445 141.583 11.8953L141.582 11.8942Z" fill="white"/>
<path d="M30.224 14.6944V25.6219H36.9367V28.1002H27.1953V14.6934H30.224V14.6944Z" fill="white"/>
<path d="M37.4581 21.3796C37.497 20.7542 37.6568 20.234 37.9408 19.8209C38.2236 19.4079 38.5832 19.0768 39.0205 18.8256C39.4578 18.5754 39.9491 18.3968 40.4965 18.2906C41.0428 18.1845 41.5924 18.1309 42.1453 18.1309C42.6473 18.1309 43.1548 18.1655 43.6688 18.2339C44.1827 18.3032 44.6524 18.4378 45.0767 18.6375C45.5011 18.8382 45.8487 19.1167 46.1187 19.473C46.3886 19.8293 46.5236 20.3023 46.5236 20.8909V25.941C46.5236 26.3793 46.5495 26.7987 46.6013 27.1991C46.6521 27.5995 46.7428 27.9001 46.8713 28.1009H44.0942C44.0423 27.9506 44.0002 27.7971 43.9689 27.6405C43.9365 27.4839 43.9139 27.3242 43.9009 27.1613C43.4636 27.5995 42.9486 27.9065 42.358 28.0809C41.7663 28.2564 41.1616 28.3437 40.5451 28.3437C40.0689 28.3437 39.6251 28.2869 39.2138 28.1745C38.8024 28.062 38.4418 27.8865 38.134 27.6489C37.8252 27.4114 37.5844 27.1108 37.4106 26.7472C37.2368 26.3846 37.1504 25.9526 37.1504 25.4513C37.1504 24.9005 37.2497 24.4465 37.4495 24.0902C37.6482 23.7339 37.9062 23.449 38.2215 23.2357C38.5368 23.0234 38.8963 22.8636 39.3012 22.7564C39.7061 22.6503 40.1143 22.5662 40.5256 22.5031C40.937 22.4401 41.3419 22.3907 41.7414 22.3528C42.1399 22.315 42.494 22.2593 42.8028 22.1836C43.1116 22.1079 43.3556 21.9986 43.536 21.8546C43.7163 21.7107 43.7994 21.5015 43.7865 21.2261C43.7865 20.9381 43.7379 20.7101 43.6418 20.5409C43.5457 20.3716 43.4161 20.2403 43.2563 20.1467C43.0954 20.0532 42.9086 19.9901 42.697 19.9586C42.4843 19.9271 42.2565 19.9113 42.0124 19.9113C41.4726 19.9113 41.0482 20.0238 40.7394 20.2497C40.4306 20.4746 40.2503 20.8509 40.1996 21.3764H37.4603L37.4581 21.3796ZM43.7843 23.3513C43.6688 23.4512 43.5241 23.53 43.3502 23.5857C43.1764 23.6424 42.9896 23.6887 42.7909 23.7265C42.5912 23.7644 42.3828 23.7959 42.1636 23.8201C41.9444 23.8453 41.7263 23.8768 41.5082 23.9136C41.302 23.9514 41.1001 24.0019 40.9003 24.0639C40.7006 24.127 40.5267 24.211 40.3799 24.3172C40.232 24.4233 40.1132 24.5579 40.0236 24.7208C39.934 24.8837 39.8886 25.0897 39.8886 25.3398C39.8886 25.59 39.934 25.7781 40.0236 25.941C40.1132 26.1039 40.2363 26.2322 40.3896 26.3257C40.544 26.4192 40.7243 26.4855 40.9295 26.5233C41.1346 26.5611 41.3473 26.5801 41.5665 26.5801C42.1064 26.5801 42.5242 26.4928 42.8201 26.3173C43.1159 26.1418 43.334 25.9326 43.4755 25.6877C43.6169 25.4439 43.7033 25.1969 43.7357 24.9468C43.7681 24.6966 43.7843 24.4959 43.7843 24.3456V23.3503V23.3513Z" fill="white"/>
<path d="M56.4576 28.0998L54.6825 21.5845H54.6436L52.9463 28.0998H50.1109L46.9473 18.3926H49.841L51.6733 24.9836H51.7121L53.3706 18.3926H56.0322L57.7295 24.9646H57.7684L59.6007 18.3926H62.4166L59.2725 28.0998H56.4565H56.4576Z" fill="white"/>
<path d="M66.4872 30.9923C65.9603 31.3307 65.2272 31.4989 64.2878 31.4989C64.0049 31.4989 63.7253 31.4894 63.4489 31.4705C63.1725 31.4516 62.8928 31.4295 62.6099 31.4043V29.2076C62.8669 29.2329 63.1303 29.2581 63.4014 29.2833C63.6713 29.3085 63.9412 29.3138 64.2112 29.3022C64.5707 29.2644 64.8385 29.1267 65.0112 28.8892C65.1851 28.6516 65.2715 28.3878 65.2715 28.1009C65.2715 27.8886 65.2326 27.6878 65.1559 27.4997L61.6641 18.3926H64.5772L66.8338 25.0393H66.8727L69.0527 18.3926H71.8881L67.7214 29.3022C67.4255 30.0905 67.0142 30.6538 66.4872 30.9923Z" fill="white"/>
<path d="M74.9766 25.7729C75.388 26.1607 75.9797 26.3551 76.7506 26.3551C77.3035 26.3551 77.7796 26.2206 78.178 25.9515C78.5765 25.6825 78.8205 25.3976 78.9112 25.0971H81.3222C80.9368 26.2605 80.3451 27.094 79.5482 27.5943C78.7503 28.0946 77.7861 28.3447 76.6545 28.3447C75.8696 28.3447 75.1623 28.2228 74.5329 27.979C73.9023 27.7351 73.3689 27.3872 72.9316 26.9364C72.4943 26.4855 72.1564 25.9473 71.9188 25.322C71.6802 24.6966 71.5625 24.0071 71.5625 23.2567C71.5625 22.5063 71.6845 21.8546 71.9285 21.2282C72.1726 20.6029 72.5202 20.0616 72.9705 19.6044C73.4207 19.1472 73.9574 18.7878 74.5814 18.525C75.2045 18.2622 75.8966 18.1309 76.6545 18.1309C77.5032 18.1309 78.2428 18.2906 78.8734 18.6101C79.5029 18.9296 80.0212 19.3585 80.4261 19.8966C80.831 20.4347 81.1236 21.0485 81.3039 21.7369C81.4842 22.4253 81.5479 23.1453 81.4972 23.8968H74.3018C74.3407 24.7607 74.5653 25.3871 74.9766 25.7739V25.7729ZM78.0722 20.6659C77.744 20.3159 77.2462 20.1404 76.5768 20.1404C76.1395 20.1404 75.7767 20.2129 75.4873 20.3569C75.198 20.5009 74.9669 20.6796 74.7931 20.8919C74.6192 21.1053 74.4972 21.3302 74.427 21.5677C74.3558 21.8052 74.3148 22.0176 74.3018 22.2057H78.7579C78.6294 21.5299 78.4016 21.0159 78.0733 20.6659H78.0722Z" fill="white"/>
<path d="M84.9489 18.3936V20.1961H84.9878C85.1163 19.8955 85.2901 19.617 85.5082 19.3606C85.7264 19.1041 85.9779 18.8844 86.2608 18.7037C86.5437 18.5229 86.846 18.3821 87.1678 18.2812C87.4896 18.1813 87.8232 18.1309 88.1709 18.1309C88.3512 18.1309 88.5499 18.1624 88.7691 18.2244V20.7027C88.6406 20.6775 88.4862 20.6554 88.3058 20.6365C88.1255 20.6176 87.9517 20.6081 87.7854 20.6081C87.2833 20.6081 86.859 20.6901 86.5124 20.852C86.1647 21.0149 85.8851 21.2366 85.6734 21.5183C85.4607 21.8 85.3096 22.129 85.22 22.5042C85.1303 22.8794 85.085 23.2872 85.085 23.7244V28.0998H82.3457V18.3926H84.95L84.9489 18.3936Z" fill="white"/>
<path d="M91.3808 25.6879C91.5028 25.8949 91.6604 26.0641 91.8537 26.1945C92.0469 26.3259 92.2683 26.4236 92.5188 26.4856C92.7693 26.5487 93.0295 26.5792 93.3005 26.5792C93.4938 26.5792 93.6957 26.5581 93.9084 26.5129C94.1211 26.4698 94.3133 26.4005 94.4872 26.3069C94.661 26.2134 94.8057 26.0883 94.9212 25.9317C95.0367 25.7751 95.095 25.5786 95.095 25.34C95.095 24.9396 94.8219 24.639 94.2755 24.4393C93.7292 24.2385 92.9669 24.0388 91.9897 23.8381C91.5913 23.7508 91.2015 23.6478 90.8225 23.528C90.4425 23.4093 90.1056 23.2527 89.8097 23.0582C89.5139 22.8638 89.2763 22.6199 89.096 22.3257C88.9157 22.0314 88.8261 21.6719 88.8261 21.2462C88.8261 20.6198 88.9513 20.1069 89.2018 19.7065C89.4523 19.3061 89.7838 18.9897 90.1952 18.7585C90.6066 18.5272 91.0698 18.3643 91.5837 18.2697C92.0977 18.1762 92.6257 18.1289 93.1656 18.1289C93.7054 18.1289 94.2291 18.1794 94.7377 18.2792C95.2451 18.379 95.6986 18.5483 96.097 18.7858C96.4955 19.0233 96.8269 19.3397 97.0904 19.7338C97.3539 20.128 97.5115 20.6261 97.5633 21.2263H94.959C94.9201 20.7134 94.7215 20.3655 94.3608 20.1847C94.0002 20.0029 93.5759 19.9125 93.0878 19.9125C92.9334 19.9125 92.7661 19.922 92.5857 19.9409C92.4054 19.9598 92.2413 20.0008 92.0934 20.0628C91.9455 20.1259 91.8202 20.2162 91.7176 20.335C91.6151 20.4538 91.5632 20.6135 91.5632 20.8143C91.5632 21.0518 91.6528 21.2462 91.8332 21.3965C92.0135 21.5468 92.2478 21.6688 92.5372 21.7623C92.8265 21.8558 93.1569 21.941 93.5305 22.0156C93.903 22.0913 94.2831 22.1722 94.6686 22.2594C95.067 22.3467 95.4557 22.4539 95.8357 22.5789C96.2147 22.704 96.5527 22.8701 96.8485 23.0761C97.1444 23.2831 97.3819 23.5396 97.5622 23.8465C97.7426 24.1534 97.8322 24.5318 97.8322 24.9826C97.8322 25.6206 97.7005 26.1566 97.437 26.5886C97.1735 27.0206 96.8291 27.3685 96.4048 27.6302C95.9804 27.8929 95.4946 28.0779 94.9482 28.1841C94.4019 28.2902 93.8458 28.3438 93.28 28.3438C92.7142 28.3438 92.1355 28.2871 91.5827 28.1746C91.0298 28.0621 90.5375 27.874 90.1067 27.6113C89.6758 27.3485 89.3228 27.0006 89.0453 26.5697C88.7689 26.1377 88.6177 25.5964 88.5918 24.9459H91.1961C91.1961 25.2338 91.2566 25.4808 91.3797 25.6868L91.3808 25.6879Z" fill="white"/>
<path d="M12.1758 24.9863H11.1144C10.5389 24.9863 10.1534 25.6159 10.3845 26.1771L10.825 27.6149C10.9524 27.9229 11.2385 28.1226 11.5549 28.1226H12.7966C13.113 28.1226 13.3991 27.9239 13.5265 27.6149L13.967 26.1771C14.1981 25.6159 13.8126 24.9863 13.2371 24.9863H12.1758Z" fill="white"/>
<path d="M12.9275 21.4643C12.9275 21.4643 11.9882 21.0334 9.57172 21.6966C9.27587 21.7775 9.07504 21.7723 8.85801 21.5663C5.71274 18.5856 1.80085 15.5849 0.717877 11.22C0.536481 10.4895 0.45766 9.73384 0.518126 8.98446C0.545119 8.65023 0.709239 7.60236 1.0364 7.04952C1.02236 7.6917 1.08283 8.11001 1.15409 8.63447C1.43158 10.6672 2.49188 12.6179 3.61913 14.3226C4.77445 16.0694 6.17271 17.6565 7.69622 19.1079C7.81823 19.2235 7.94024 19.3392 8.06441 19.4537C6.17055 16.8156 4.26481 14.1576 2.91622 11.2189C2.44762 10.1973 2.04487 9.13476 1.90127 8.02487C1.64969 6.08048 2.30941 4.02257 4.33068 3.27424C4.15792 5.15137 4.30692 7.20297 4.82627 9.02335C5.79156 12.4045 7.46839 15.669 9.51665 18.5488C8.12055 15.2696 6.74713 11.962 5.91681 8.50519C5.33267 6.07417 4.77229 3.01569 7.30751 1.48119C8.04929 1.03135 9.22728 0.768592 9.93559 1.42864C9.95826 1.44966 9.46914 3.04091 9.44323 3.22379C9.35145 3.86281 9.34821 4.49658 9.36873 5.13981C9.43783 7.23135 9.77687 9.30187 10.1936 11.3514C10.4064 12.3982 10.6439 13.4398 10.8901 14.4803C11.1309 15.4935 11.6427 16.9418 11.7474 17.9749C11.2971 13.4734 10.6838 8.54933 10.8631 4.02152C10.8901 3.3373 10.9592 2.65308 11.0337 1.97202C11.0877 1.48014 11.2907 1.04291 11.7679 0.815889C12.8822 0.285121 14.7599 0.317703 15.0805 1.77968C15.507 3.72723 15.6809 5.75045 15.6755 7.7411C15.6755 7.99755 15.6701 8.254 15.6625 8.5094C15.534 12.5138 14.2113 17.5482 14.2113 17.5482C14.6195 16.494 14.9942 15.4262 15.3515 14.3552C16.008 12.3877 16.6516 10.3729 16.8081 8.29919C16.9053 7.01379 16.9442 5.71892 16.7001 4.44613C16.5986 3.91536 16.4475 3.393 16.2359 2.89377C16.0145 2.37456 15.6917 1.91526 15.4314 1.41602C15.9562 1.20372 16.4734 1.28149 16.9787 1.41287C17.9181 1.65566 18.5994 2.23162 19.1274 3.01569C19.3433 3.42348 19.5604 3.7493 19.7774 3.94374C19.8584 4.01626 20.4922 4.59222 20.8506 5.10302C21.8041 6.45884 22.1485 8.04589 22.1193 9.67078C22.0427 13.9705 19.1295 17.3317 16.1495 20.2C15.6604 20.6708 15.1658 21.1354 14.6746 21.6031C14.4878 21.7807 14.2567 21.9804 14.1995 22.2074C13.9587 23.1607 12.8152 23.4003 11.9471 23.4171C11.2561 23.4308 9.56632 23.4024 9.60627 22.4166C9.61275 22.2452 9.81034 22.035 10.1029 21.8816C10.9505 21.436 12.9286 21.4654 12.9286 21.4654L12.9275 21.4643ZM19.6986 4.41145C20.923 8.975 19.4178 12.745 17.3566 16.5592C18.4115 15.3873 19.339 13.9758 19.948 12.5338C20.6012 10.9867 20.8506 9.29346 20.6757 7.62969C20.5667 6.59338 20.3324 5.44671 19.7806 4.53652C19.7547 4.49343 19.7277 4.45139 19.6986 4.41145Z" fill="white"/>
</g>
<defs>
<clipPath id="clip0_3386_23930">
<rect width="145" height="31" fill="white" transform="translate(0.498047 0.5)"/>
</clipPath>
</defs>
</svg>
