<svg width="86" height="42" viewBox="0 0 86 42" fill="none" xmlns="http://www.w3.org/2000/svg">
<path d="M3.58584 40.7817C4.76293 37.2439 5.94001 33.7062 7.1171 30.1672C7.20674 29.8984 7.27869 29.5592 7.06639 29.3714C6.91542 29.2376 6.68896 29.2505 6.48728 29.2716C4.48458 29.4806 2.48777 29.7376 0.498047 30.0416C0.962749 27.4851 1.70816 24.5507 4.08239 23.4708C5.93883 22.6257 8.3567 23.1879 9.92065 21.8815C10.6401 21.2805 11.0317 20.3873 11.3902 19.5246C12.0779 17.8719 12.7336 16.2063 13.3576 14.5278C13.4248 14.3482 13.4908 14.1475 13.4212 13.9691C13.2915 13.6404 12.8339 13.631 12.4836 13.6815C8.45931 14.2543 4.46571 15.0419 0.525174 16.0396C1.92754 13.5089 1.92164 10.0252 4.32181 8.3983C5.25004 7.76916 6.38938 7.54966 7.49335 7.34307C19.2359 5.15632 30.9797 2.9684 42.7234 0.779297C41.5829 3.88981 41.4638 7.69286 38.8572 9.74932C37.2013 11.0569 34.9556 11.2741 32.8479 11.4396C33.1251 11.0745 32.8444 10.5088 32.4233 10.3256C32.0022 10.1425 31.5187 10.227 31.0681 10.3139C29.1397 10.6848 27.2125 11.0557 25.2841 11.4267C24.4939 11.5792 23.6754 11.7436 23.0278 12.219C22.2836 12.7659 21.8743 13.6451 21.4993 14.4867C20.814 16.0267 20.1453 17.5726 19.4919 19.1255C19.3857 19.3778 19.2784 19.6642 19.381 19.919C19.5603 20.3638 20.1866 20.3603 20.6619 20.2793C21.6231 20.115 22.5855 19.9506 23.5468 19.7863C23.3711 19.8297 22.9064 21.4437 22.8403 21.6702C22.6728 22.2489 22.812 22.7783 22.8427 23.3663C24.646 22.4308 25.7712 20.6091 27.1889 19.1572C29.6233 16.6641 33.5485 15.225 36.6858 16.7521C37.2862 17.0444 37.844 17.4364 38.4833 17.6324C39.5767 17.9693 40.7785 17.6993 41.8884 17.9787C42.0688 18.0245 42.2646 18.1008 42.3366 18.271C42.4227 18.474 42.2894 18.6982 42.1644 18.8802C40.4553 21.3592 39.112 24.087 38.1896 26.9487C37.9632 27.6506 37.7933 28.5075 38.2958 29.0486C38.7605 29.5498 39.6144 29.4946 40.1829 29.1143C40.7514 28.7329 41.104 28.1131 41.4366 27.5157C42.9086 24.8688 44.3794 22.2207 45.8513 19.5739C47.0496 17.4176 48.2621 15.2262 48.8318 12.8281C48.9415 12.3657 49.0677 11.8398 49.4852 11.6098C49.8449 11.4114 50.2896 11.5123 50.6882 11.618C52.3489 12.0581 54.0095 12.4983 55.669 12.9385C55.9651 13.0171 56.2788 13.1063 56.4817 13.3329C56.7954 13.6838 56.7341 14.2214 56.6326 14.6804C56.1113 17.0373 55.0321 19.2722 54.7974 21.6737C54.5828 23.8769 55.0946 26.093 55.0062 28.3056C54.9177 30.5182 53.9977 32.9503 51.9443 33.8012C51.002 34.1921 49.9357 34.1945 48.9297 34.016C46.9364 33.6627 45.0776 32.604 43.7613 31.0734C43.5997 30.8856 43.4311 30.6802 43.1928 30.6097C42.8921 30.5205 42.576 30.6708 42.3083 30.8328C40.6016 31.868 39.3667 33.5489 37.6648 34.5924C35.9628 35.6359 33.3327 35.7497 32.3195 34.0348C31.8595 33.2554 31.8407 32.2624 31.3087 31.53C29.8262 33.0207 28.2622 34.563 26.2536 35.198C24.245 35.8331 21.6703 35.2239 20.7916 33.3176C19.8893 31.361 21.077 29.119 21.1572 26.9675C19.2914 26.9346 17.1908 26.9945 15.9099 28.3443C15.352 28.9312 15.0277 29.6954 14.7151 30.4407C13.6159 33.0618 12.5154 35.684 11.4162 38.305C11.2404 38.7229 11.047 39.1642 10.6731 39.4225C10.3853 39.6208 10.028 39.6842 9.68358 39.7429C7.65021 40.088 5.61803 40.4343 3.58466 40.7794L3.58584 40.7817ZM27.7527 27.0074C27.6607 28.7681 28.3778 29.2716 29.8108 29.1296C32.2204 28.8902 34.9155 24.9052 34.7681 22.7982C34.656 21.1902 33.6087 20.473 32.1862 21.2371C29.7165 22.5635 28.1738 24.6364 27.7527 27.0074ZM49.5265 18.8215C48.9945 19.1055 48.5853 19.5797 48.2786 20.0974C47.972 20.615 47.7573 21.1819 47.5238 21.7371C47.1935 22.5247 46.8244 23.2959 46.4741 24.0753C46.2971 24.4685 46.1261 24.8641 45.9669 25.2643C45.8183 25.6376 45.6319 26.039 45.5671 26.4334C45.4739 27.0004 45.5918 27.5626 45.9256 28.0356C46.2535 28.5016 46.7453 28.8397 47.2796 29.0416C47.8009 29.2388 48.4343 29.2975 48.8813 28.9653C49.1148 28.7916 49.2705 28.5321 49.379 28.2622C49.6303 27.6412 49.6633 26.9581 49.6928 26.2902C49.7718 24.5284 49.8508 22.7654 49.9298 21.0035C49.964 20.2488 49.9782 19.4283 49.5276 18.8203L49.5265 18.8215Z" fill="white"/>
<path d="M55.1082 39.7364C57.0437 34.7255 59.0381 29.7369 60.9972 24.7354C61.2626 24.057 61.4737 23.3504 61.6294 22.6391C61.7568 22.0592 61.4985 21.6672 60.8321 21.7388C59.9381 21.8339 59.0476 21.9606 57.9224 22.1038C58.7751 20.0603 59.5359 18.0954 60.4334 16.1939C60.9807 15.0353 62.7569 15.3734 63.7441 14.9931C64.9802 14.5177 65.715 13.4085 66.1703 12.2206C67.4429 8.90351 68.9467 5.67209 70.3997 2.42659C70.5495 2.09324 70.9918 1.73171 71.3468 1.67185C73.4439 1.31854 75.5551 1.04975 77.8668 0.724609C77.329 2.12141 76.8891 3.31866 76.4102 4.49831C75.7957 6.01131 75.1671 7.51962 74.5467 9.03028C74.1598 9.97165 73.6609 10.8696 73.3696 11.8485C73.2788 12.1537 72.9686 13.0164 73.1431 13.3181C73.4286 13.8111 74.6316 13.5047 75.0562 13.4284C76.0198 13.2547 76.9881 13.1397 77.96 13.0153C79.2055 12.8556 80.4498 12.6948 81.6953 12.534C82.3428 12.4495 82.9903 12.3662 83.639 12.2816C83.8466 12.2546 85.4412 12.1784 85.4943 12.041C85.2726 12.6209 85.0485 13.2113 84.8208 13.8005C84.3809 14.9367 83.9728 16.087 83.4881 17.2045C83.113 18.0684 82.3947 18.4886 81.4441 18.6447C78.2985 19.1623 75.1659 19.7621 72.0191 20.2704C70.6026 20.4993 69.8336 21.1754 69.3005 22.571C67.3202 27.7521 65.1677 32.8686 63.0884 38.0121C62.8961 38.4863 62.2344 40.2552 62.2344 40.2552L54.4961 41.2764C54.4961 41.2764 54.8452 40.4183 55.1082 39.7364Z" fill="white"/>
</svg>
