<svg>
	<svg id="infinity" viewBox="-15 0 147 78" fill="none" xmlns="http://www.w3.org/2000/svg">
		<path d="M85.4554 9C104.079 9.00021 108 28.5 108 39C108 49.5 103.596 69 85.4554 69C75 69 64 61 58.0098 39C50.9306 13 40.5 9 31.5445 9C14 9 9 28.5 9 39C9 48 11.5 69 31.5445 69C51.589 69 58.4999 39 58.4999 39C58.4999 39 64.8713 8.99977 85.4554 9Z" stroke="var(--color, currentColor)" stroke-width="18"/>
	</svg>
	<svg id="lightning" viewBox="0 0 59 120" fill="none" xmlns="http://www.w3.org/2000/svg">
		<g>
			<path d="M0 0V59.73H29.43L0 0Z" fill="var(--color, currentColor)"/>
			<path d="M29.4297 59.73L58.8497 119.46V59.73H29.4297Z" fill="var(--color, currentColor)"/>
		</g>
	</svg>
	<svg id="snowflake" viewBox="0 0 384 389" xmlns="http://www.w3.org/2000/svg">
		<path d="M148.914 213.881L0.867188 176.965L23.9395 102.749L166.603 164.275L154.682 0.0771484H232.359L218.9 166.583L360.41 106.21L383.867 181.58L233.513 216.957L334.646 341.548L271.198 388.077L189.675 246.182L108.538 383.847L44.7045 339.625L148.914 213.881Z" fill="var(--color, currentColor)"/>
	</svg>
</svg>