<svg width="151" height="40" viewBox="0 0 151 40" fill="none" xmlns="http://www.w3.org/2000/svg">
<path d="M31.0127 31.243C29.4041 31.0044 28.2193 29.6277 26.9255 28.1158L26.8074 27.979C26.0463 27.0962 25.2488 26.1784 24.3106 25.4642C22.1422 23.8155 18.9523 23.5101 16.752 23.425L15.3553 23.3734L15.9485 24.6315C17.6327 28.2525 20.7803 30.9892 24.3696 31.9739C24.5573 32.0088 24.8115 32.0088 25.0037 31.907C25.2079 31.8052 25.3593 31.6016 25.4198 31.3797C25.4788 31.1609 25.4546 30.9375 25.3441 30.7339C25.2337 30.5303 25.0491 30.3936 24.8206 30.3252C22.1694 29.6125 19.7664 27.7602 18.1926 25.2272C20.4352 25.4308 22.1452 25.9581 23.2877 26.8242C24.1351 27.4715 24.8871 28.3544 25.6498 29.2372C26.8347 30.6139 27.9439 31.5484 29.1196 32.1608C27.4294 33.2153 25.7769 33.7411 24.2032 33.7411H23.787C21.4521 33.6393 19.2337 32.6531 17.5419 30.971C16.0181 29.4408 14.9271 27.4183 13.8603 25.446L12.5241 22.9479L14.9861 22.4221C17.374 21.9283 19.8451 21.4177 22.0952 20.1778C24.7267 18.7327 26.8014 16.3881 27.9348 13.5998C29.0606 10.8129 29.2044 7.70248 28.3312 4.81234C28.307 4.71053 28.2132 4.6072 27.7835 4.57377C27.5459 4.55706 27.0299 4.52211 26.9693 4.72573C26.7318 4.93086 24.0413 7.10682 22.2889 7.78605C21.0042 8.29661 19.665 8.80565 18.5074 9.65659C16.3828 11.2019 15.2146 14.1103 14.284 16.4367L13.4608 18.4774L14.9347 18.2571C18.981 17.6615 22.7535 15.2652 25.04 11.8645C25.1671 11.6776 25.217 11.4572 25.1671 11.2187C25.1232 10.9983 24.9976 10.8114 24.8024 10.6747C24.4029 10.4361 23.8869 10.5045 23.6251 10.895C21.8985 13.4782 19.1974 15.4156 16.1861 16.2483C17.032 14.1924 17.9974 12.1349 19.4955 11.0302C20.4852 10.3161 21.7139 9.84045 22.8897 9.39827C24.6163 8.71904 25.9025 7.9532 26.9179 6.98526C27.2478 9.17794 27.0541 11.2354 26.3504 12.9509C25.3683 15.3822 23.5676 17.4214 21.272 18.6795C19.2579 19.7842 16.9049 20.2766 14.629 20.7537L11.2772 21.4679C11.2 21.4831 11.1319 21.5028 11.0729 21.5347V10.4012H9.33118V33.0254H11.0729V23.8474L12.453 26.4139C13.4941 28.3346 14.6789 30.5273 16.3465 32.1744C18.3621 34.1802 20.9845 35.3366 23.728 35.4384H24.1336C26.7318 35.4384 29.3224 34.4856 31.4288 32.7701C31.4803 32.72 31.5817 32.6181 31.3365 31.7854C31.2094 31.3433 31.1337 31.2582 31.0157 31.2415L31.0127 31.243ZM0.5 40H40.319V0H0.5V40ZM2.42482 1.94803H38.3972V38.055H2.42482V1.94803ZM59.4749 19.9058C59.2797 19.7994 59.0876 19.687 58.8999 19.5669C58.7108 19.4454 58.5201 19.3041 58.3249 19.1399C58.1312 18.9758 57.9027 18.7813 57.6394 18.5549C57.4109 18.3513 57.1188 18.0839 56.7617 17.7511C56.4031 17.4153 56.0202 17.0521 55.6117 16.6631C55.2031 16.2711 54.7855 15.8669 54.3587 15.4505C53.932 15.0357 53.5295 14.6513 53.1512 14.2972C53.301 14.1574 53.5053 13.972 53.764 13.7396C54.0213 13.5055 54.3012 13.2563 54.6024 12.9904C54.9035 12.7245 55.2046 12.4647 55.5057 12.2064C55.8084 11.948 56.0793 11.7368 56.3168 11.5727C56.6316 11.3448 56.9085 11.1548 57.1461 11.0044C57.3852 10.8525 57.6243 10.7172 57.8618 10.5972C58.1024 10.4787 58.3612 10.3601 58.6442 10.2477C58.9272 10.1337 59.2631 9.99696 59.652 9.83133H54.1862C54.4768 9.92098 54.6977 10.0046 54.8551 10.0851C55.014 10.1687 55.1259 10.2477 55.1955 10.3237C55.2636 10.3996 55.306 10.4635 55.3166 10.5136C55.3287 10.5637 55.3348 10.6078 55.3348 10.6458C55.3348 10.7355 55.1971 10.9299 54.9216 11.2323C54.6447 11.5347 54.3027 11.8766 53.8927 12.2535C53.4841 12.6318 53.0513 13.0254 52.5913 13.4281C52.1343 13.8322 51.7166 14.1833 51.3368 14.4872H51.1129V11.8386C51.1129 11.5089 51.131 11.2506 51.1704 11.0606C51.2082 10.8707 51.2854 10.7111 51.4049 10.5789C51.5229 10.4452 51.703 10.3267 51.9421 10.2188C52.1827 10.1124 52.502 9.98177 52.9045 9.83133H46.9288C47.3434 9.98177 47.6672 10.1124 47.8988 10.2188C48.1318 10.3267 48.3119 10.4452 48.436 10.5789C48.5631 10.7111 48.6433 10.8722 48.6735 11.0606C48.7053 11.2506 48.7189 11.5074 48.7189 11.8386V18.2343C48.7189 18.5489 48.7053 18.8057 48.6735 19.0002C48.6433 19.1962 48.5631 19.3603 48.436 19.494C48.3119 19.6262 48.1318 19.7462 47.8988 19.8526C47.6672 19.9605 47.3434 20.0897 46.9288 20.2416H52.9045C52.502 20.0897 52.1812 19.9605 51.9421 19.8526C51.703 19.7462 51.5229 19.6262 51.4049 19.494C51.2869 19.3603 51.2082 19.2007 51.1704 19.0093C51.1325 18.8208 51.1129 18.564 51.1129 18.2343V15.2834C51.1764 15.2834 51.2445 15.2895 51.3202 15.3001C51.3943 15.3138 51.4594 15.3442 51.5078 15.3943C51.8725 15.7742 52.2584 16.1678 52.6685 16.5795C53.0755 16.9883 53.4962 17.4016 53.9305 17.8164C54.3633 18.2343 54.7976 18.6461 55.2303 19.0564C55.6646 19.4666 56.0883 19.8617 56.503 20.2401H60.1392C59.8911 20.1261 59.6656 20.0167 59.4719 19.9073L59.4749 19.9058ZM68.8494 19.804C68.6875 19.9438 68.3485 20.0866 67.8325 20.2386H73.3739C73.0486 20.1246 72.7762 20.0152 72.5628 19.9073C72.3495 19.7994 72.1679 19.6718 72.0166 19.5198C71.8652 19.3679 71.7275 19.1855 71.6019 18.9713C71.4748 18.757 71.3371 18.479 71.1858 18.1386C70.5578 16.7634 69.9419 15.3791 69.3397 13.9842C68.7359 12.5923 68.1336 11.2065 67.5298 9.83133H65.0618C65.2101 9.89363 65.3629 10.0395 65.5127 10.2659C65.664 10.4938 65.7957 10.7461 65.9092 11.0226L62.5907 18.1203C62.4651 18.3984 62.338 18.6476 62.2048 18.8695C62.0732 19.0883 61.9233 19.2828 61.7523 19.4454C61.5829 19.6095 61.3877 19.7554 61.1682 19.88C60.9488 20.0061 60.687 20.1261 60.3859 20.2401H65.0618C64.7591 20.1641 64.5125 20.0851 64.3142 20.003C64.1221 19.9225 63.9738 19.842 63.8739 19.7675C63.771 19.69 63.7044 19.611 63.6636 19.5289C63.6272 19.4454 63.6076 19.3679 63.6076 19.2934C63.6076 19.2053 63.6545 19.0275 63.7483 18.7631C63.8421 18.4972 63.948 18.2146 64.0676 17.9107C64.1871 17.6083 64.3006 17.3272 64.4081 17.0673C64.5155 16.809 64.5866 16.6434 64.6245 16.5674H68.0353C68.1094 16.7452 68.2047 16.9868 68.3197 17.2952C68.4332 17.6037 68.5437 17.9031 68.6572 18.1948C68.7964 18.5352 68.9341 18.8953 69.0733 19.2737C69.0854 19.2995 69.0915 19.3375 69.0915 19.3876C69.0915 19.5274 69.0098 19.6657 68.8463 19.8055L68.8494 19.804ZM64.9301 15.8304L66.3813 12.2702L67.7387 15.8304H64.9301ZM79.3587 15.7544C79.5282 15.7544 79.6795 15.7468 79.8203 15.7362C80.3605 16.3395 80.8871 16.9214 81.4031 17.4776C81.6301 17.7162 81.8616 17.9623 82.1022 18.2146C82.3398 18.4668 82.5758 18.716 82.8089 18.9637C83.0404 19.2083 83.2674 19.4378 83.4853 19.6551C83.7047 19.8678 83.909 20.0638 84.0982 20.2401H87.6603C87.2214 20 86.8098 19.7508 86.427 19.4925C86.0411 19.2342 85.6689 18.9211 85.3042 18.5565L82.1007 15.3199C82.3897 15.2196 82.6939 15.0798 83.0132 14.902C83.3325 14.7272 83.6275 14.5206 83.8908 14.2881C84.1541 14.0541 84.372 13.7867 84.5491 13.4843C84.7261 13.1804 84.8139 12.8476 84.8139 12.4814C84.8139 11.5484 84.4341 10.8707 83.6729 10.4559C82.9133 10.038 81.7421 9.82981 80.1562 9.82981H74.5421L74.7313 9.90579C75.0702 10.0562 75.3426 10.1839 75.5515 10.2842C75.7588 10.3844 75.9207 10.4984 76.0327 10.6245C76.1446 10.7506 76.2203 10.9102 76.2566 11.0986C76.2944 11.2886 76.3141 11.5408 76.3141 11.8538V18.2313C76.3141 18.5093 76.2929 18.7464 76.249 18.9409C76.2067 19.1369 76.1204 19.3101 75.9948 19.4621C75.8677 19.614 75.6892 19.7462 75.4576 19.8602C75.2246 19.9726 74.9204 20.1003 74.5436 20.237H80.5163L80.2546 20.1231C79.9519 19.997 79.7007 19.886 79.4995 19.7918C79.2997 19.6976 79.1378 19.5867 79.0182 19.4606C78.8987 19.3344 78.8155 19.1749 78.7655 18.988C78.7141 18.7981 78.6899 18.5458 78.6899 18.2313V15.7529H79.3602L79.3587 15.7544ZM78.6884 11.4177C78.6884 11.0272 78.7807 10.775 78.9698 10.6625C79.159 10.5485 79.4616 10.4923 79.8747 10.4923C80.2031 10.4923 80.5088 10.5303 80.8008 10.6063C81.0899 10.6823 81.338 10.8084 81.5529 10.9847C81.7663 11.1609 81.9357 11.3949 82.0598 11.6852C82.1869 11.9769 82.2505 12.3294 82.2505 12.7458C82.2505 13.4645 82.0114 14.0298 81.5347 14.4385C81.0566 14.8488 80.3015 15.0539 79.2725 15.0539H78.6884V11.4192V11.4177ZM96.2539 19.804C96.092 19.9438 95.7545 20.0866 95.237 20.2386H100.778C100.453 20.1246 100.181 20.0152 99.9673 19.9073C99.754 19.7994 99.5724 19.6718 99.4211 19.5198C99.2698 19.3679 99.132 19.1855 99.0064 18.9713C98.8793 18.757 98.7416 18.479 98.5903 18.1386C97.9623 16.7634 97.3464 15.3791 96.7442 13.9842C96.1404 12.5923 95.5381 11.2065 94.9344 9.83133H92.4663C92.6146 9.89363 92.7674 10.0395 92.9172 10.2659C93.0685 10.4938 93.2002 10.7461 93.3137 11.0226L89.9952 18.1203C89.8696 18.3984 89.7425 18.6476 89.6093 18.8695C89.4777 19.0883 89.3279 19.2828 89.1569 19.4454C88.9874 19.6095 88.7922 19.7554 88.5728 19.88C88.3533 20.0061 88.0915 20.1261 87.7904 20.2401H92.4663C92.1636 20.1641 91.917 20.0851 91.7188 20.003C91.5266 19.9225 91.3783 19.842 91.2784 19.7675C91.1755 19.69 91.1089 19.611 91.0681 19.5289C91.0318 19.4454 91.0121 19.3679 91.0121 19.2934C91.0121 19.2053 91.059 19.0275 91.1528 18.7631C91.2466 18.4972 91.3525 18.2146 91.4721 17.9107C91.5916 17.6083 91.7051 17.3272 91.8126 17.0673C91.92 16.809 91.9911 16.6434 92.029 16.5674H95.4398C95.5139 16.7452 95.6093 16.9868 95.7243 17.2952C95.8378 17.6037 95.9482 17.9031 96.0617 18.1948C96.2024 18.5352 96.3386 18.8953 96.4778 19.2737C96.49 19.2995 96.496 19.3375 96.496 19.3876C96.496 19.5274 96.4143 19.6657 96.2509 19.8055L96.2539 19.804ZM92.3346 15.8304L93.7858 12.2702L95.1432 15.8304H92.3346ZM116.608 19.3679C116.483 19.2038 116.401 19.0062 116.365 18.7707C116.327 18.5367 116.301 18.2313 116.289 17.8544C116.277 17.6766 116.266 17.5095 116.26 17.3515C116.254 17.195 116.25 17.04 116.25 16.888C116.212 15.7286 116.186 14.8063 116.163 14.124C116.147 13.4432 116.13 12.9236 116.118 12.5634C116.106 12.2048 116.1 11.9663 116.1 11.8538V11.6456C116.1 11.3554 116.135 11.1275 116.204 10.9634C116.271 10.7993 116.384 10.6625 116.533 10.5485C116.682 10.4331 116.876 10.3267 117.108 10.2264C117.339 10.1261 117.613 9.99392 117.929 9.82981H113.745L109.787 17.7785H109.693C109.165 16.733 108.656 15.7165 108.166 14.7318C107.953 14.3155 107.732 13.8824 107.508 13.4341C107.281 12.9874 107.061 12.5498 106.848 12.1197C106.632 11.6912 106.427 11.281 106.225 10.8889C106.023 10.4969 105.849 10.1444 105.696 9.82981H101.644L102.04 10C102.314 10.1261 102.544 10.237 102.727 10.3297C102.909 10.4239 103.051 10.5227 103.151 10.623C103.251 10.7248 103.324 10.8433 103.368 10.9831C103.411 11.1229 103.434 11.3038 103.434 11.5317C103.434 11.8736 103.419 12.3613 103.386 12.9995C103.354 13.6377 103.313 14.3155 103.265 15.0342C103.213 15.7544 103.159 16.4519 103.095 17.1357C103.032 17.8164 102.97 18.365 102.906 18.7829C102.87 18.9075 102.814 19.029 102.737 19.1415C102.661 19.257 102.558 19.3664 102.426 19.4742C102.293 19.5821 102.127 19.6946 101.925 19.8146C101.726 19.9347 101.487 20.076 101.211 20.2401H106.432C106.055 20.0745 105.746 19.9423 105.507 19.8344C105.268 19.725 105.078 19.6186 104.932 19.5122C104.788 19.4059 104.692 19.2782 104.64 19.1339C104.592 18.9895 104.565 18.795 104.565 18.558C104.565 17.6113 104.577 16.6935 104.595 15.8031C104.611 14.9141 104.634 14.0298 104.658 13.1439C104.658 12.9676 104.649 12.7883 104.631 12.6045C104.611 12.4206 104.592 12.299 104.565 12.2352H104.678L108.767 20.354H109.767L113.819 12.1988H113.934C113.907 12.299 113.883 12.4525 113.859 12.6622C113.832 12.8704 113.821 13.0315 113.821 13.1439V18.5382C113.821 18.7661 113.803 18.953 113.765 19.0959C113.726 19.2418 113.658 19.3679 113.558 19.4758C113.456 19.5837 113.312 19.687 113.123 19.7873C112.934 19.8891 112.697 20.0076 112.406 20.1474L112.218 20.2416H118.153C117.74 20.076 117.409 19.9331 117.164 19.8055C116.922 19.6809 116.734 19.535 116.608 19.3709V19.3679ZM127.425 19.804C127.263 19.9438 126.925 20.0866 126.408 20.2386H131.949C131.624 20.1246 131.352 20.0152 131.14 19.9073C130.925 19.7994 130.743 19.6718 130.594 19.5198C130.442 19.3679 130.304 19.1855 130.179 18.9713C130.052 18.757 129.914 18.479 129.763 18.1386C129.135 16.7634 128.519 15.3791 127.917 13.9842C127.314 12.5923 126.711 11.2065 126.107 9.83133H123.639C123.787 9.89363 123.94 10.0395 124.09 10.2659C124.241 10.4938 124.373 10.7461 124.486 11.0226L121.168 18.1203C121.042 18.3984 120.915 18.6476 120.782 18.8695C120.65 19.0883 120.5 19.2828 120.329 19.4454C120.16 19.6095 119.965 19.7554 119.747 19.88C119.526 20.0061 119.264 20.1261 118.963 20.2401H123.639C123.336 20.1641 123.089 20.0851 122.891 20.003C122.699 19.9225 122.551 19.842 122.451 19.7675C122.348 19.69 122.281 19.611 122.241 19.5289C122.204 19.4454 122.186 19.3679 122.186 19.2934C122.186 19.2053 122.231 19.0275 122.325 18.7631C122.419 18.4972 122.525 18.2146 122.646 17.9107C122.764 17.6083 122.879 17.3272 122.985 17.0673C123.092 16.809 123.164 16.6434 123.201 16.5674H126.612C126.688 16.7452 126.782 16.9868 126.897 17.2952C127.01 17.6037 127.122 17.9031 127.234 18.1948C127.373 18.5352 127.513 18.8953 127.65 19.2737C127.662 19.2995 127.668 19.3375 127.668 19.3876C127.668 19.5274 127.587 19.6657 127.423 19.8055L127.425 19.804ZM123.507 15.8304L124.958 12.2702L126.316 15.8304H123.507ZM136.833 18.9986C136.781 19.1825 136.681 19.3405 136.531 19.4727C136.38 19.6034 136.167 19.7265 135.89 19.842C135.613 19.9559 135.248 20.0866 134.797 20.2386H141.413C140.961 20.0866 140.596 19.9544 140.319 19.842C140.044 19.7265 139.83 19.6034 139.679 19.4727C139.528 19.339 139.428 19.181 139.378 18.9986C139.328 18.8178 139.302 18.5792 139.302 18.2905V10.5288H140.585C140.909 10.5288 141.204 10.5805 141.462 10.6807C141.719 10.7826 141.962 10.9239 142.197 11.1077C142.428 11.2901 142.658 11.5028 142.884 11.7505C143.111 11.9951 143.348 12.2641 143.601 12.5558L143.734 12.7063L143.507 9.83133H132.707L132.481 12.7063L132.614 12.5558C132.865 12.2641 133.102 11.9967 133.331 11.7505C133.556 11.5043 133.786 11.2901 134.018 11.1077C134.251 10.9239 134.499 10.7826 134.762 10.6807C135.029 10.5805 135.316 10.5288 135.63 10.5288H136.911V18.2905C136.911 18.5808 136.887 18.8178 136.837 18.9986H136.833ZM52.4793 30.4665C52.3688 30.6184 52.2417 30.7446 52.0995 30.8464C51.9587 30.9512 51.7983 31.0287 51.6213 31.0789C51.4443 31.1305 51.2339 31.1579 50.9933 31.1579C50.6498 31.1579 50.3396 31.1001 50.0612 30.9892C49.7858 30.8768 49.5467 30.7187 49.3515 30.5136C49.1563 30.3069 49.0034 30.0593 48.896 29.7675C48.7855 29.4773 48.7326 29.1536 48.7326 28.795C48.7326 28.5109 48.7795 28.2389 48.8763 27.9775C48.9716 27.7177 49.1124 27.4882 49.2955 27.2876C49.4801 27.0886 49.7056 26.929 49.9749 26.8105C50.2412 26.6935 50.5514 26.6343 50.901 26.6343C51.1431 26.6343 51.358 26.654 51.5426 26.689C51.7303 26.7269 51.8952 26.7847 52.0374 26.8667C52.1782 26.9488 52.3007 27.0567 52.4006 27.1934C52.499 27.3302 52.5792 27.4973 52.6397 27.6979L53.2102 26.4793C53.071 26.4793 52.9454 26.4747 52.8364 26.4625C52.7244 26.4504 52.6049 26.4352 52.4778 26.417C52.2856 26.3881 52.0722 26.3592 51.8347 26.3364C51.6001 26.3106 51.3746 26.2984 51.1583 26.2984C50.615 26.2984 50.1141 26.3623 49.6571 26.4929C49.1986 26.6236 48.8052 26.806 48.4753 27.043C48.1469 27.2785 47.8897 27.5596 47.7066 27.8818C47.522 28.207 47.4297 28.561 47.4297 28.95C47.4297 29.257 47.4947 29.5624 47.6234 29.8663C47.7535 30.1687 47.9578 30.4407 48.2347 30.6838C48.5101 30.9269 48.8718 31.1229 49.3151 31.2749C49.7585 31.4253 50.2927 31.5013 50.9116 31.5013C51.1386 31.5013 51.3807 31.4815 51.6304 31.4405C51.8816 31.4025 52.1176 31.3554 52.3416 31.3053C52.5625 31.2536 52.7608 31.2035 52.9272 31.1564C53.0967 31.1062 53.2178 31.0697 53.2904 31.0454L52.8016 29.9301C52.6987 30.1337 52.5928 30.3145 52.4808 30.465L52.4793 30.4665ZM64.9695 26.9792C64.6835 26.7604 64.3506 26.5917 63.9692 26.4747C63.5909 26.3562 63.1869 26.2969 62.7586 26.2969C62.2351 26.2969 61.769 26.3699 61.3604 26.5157C60.9534 26.6601 60.6114 26.8546 60.3314 27.0962C60.05 27.3378 59.8381 27.6189 59.6928 27.9365C59.5491 28.2541 59.4765 28.5853 59.4765 28.9303C59.4765 29.2995 59.5567 29.6414 59.7171 29.9559C59.8775 30.272 60.0984 30.5425 60.3814 30.7704C60.6658 30.9968 61.0018 31.1731 61.3907 31.2992C61.7781 31.4268 62.1987 31.4907 62.6527 31.4907C63.1067 31.4907 63.5455 31.4299 63.9405 31.3098C64.3339 31.1898 64.6774 31.0135 64.9695 30.7841C65.263 30.5531 65.4915 30.2735 65.658 29.9438C65.8229 29.614 65.9062 29.2402 65.9062 28.8224C65.9062 28.4349 65.8199 28.0839 65.6534 27.7724C65.484 27.4609 65.257 27.1965 64.9695 26.9792ZM64.4716 29.9407C64.3838 30.2127 64.2628 30.4376 64.1099 30.6169C63.9556 30.7962 63.774 30.93 63.5622 31.0181C63.3518 31.1047 63.1188 31.1488 62.8661 31.1488C62.5649 31.1488 62.2865 31.091 62.0293 30.9755C61.772 30.8601 61.5541 30.702 61.3695 30.4954C61.1849 30.2887 61.0411 30.0425 60.9352 29.7493C60.8293 29.459 60.7763 29.1384 60.7763 28.7889C60.7763 28.4197 60.8202 28.1006 60.9125 27.8332C61.0033 27.5672 61.1274 27.3484 61.2817 27.1767C61.4406 27.0035 61.6252 26.8728 61.8386 26.7862C62.0535 26.6966 62.2865 26.6494 62.5377 26.6449C62.8161 26.6449 63.081 26.6935 63.3306 26.7892C63.5803 26.8865 63.8013 27.0308 63.9859 27.2208C64.1735 27.4122 64.3218 27.6523 64.4338 27.9441C64.5458 28.2343 64.6002 28.5762 64.6002 28.9698C64.6002 29.3633 64.5564 29.6703 64.4686 29.9423L64.4716 29.9407ZM75.5696 29.0852C75.4047 28.9652 75.217 28.8573 75.0097 28.7646C74.7994 28.6704 74.5921 28.5777 74.3802 28.4866C74.0428 28.3468 73.7749 28.1994 73.5782 28.0413C73.3785 27.8848 73.2786 27.663 73.2786 27.3773C73.2786 27.1843 73.3482 27.0081 73.4859 26.8531C73.6266 26.6935 73.8476 26.6145 74.1563 26.6145C74.3545 26.6145 74.5194 26.6449 74.645 26.7026C74.7721 26.7604 74.875 26.8379 74.9583 26.9336C75.04 27.0308 75.1035 27.1403 75.152 27.2603C75.2004 27.3803 75.2443 27.5034 75.2881 27.625L75.8934 26.4793C75.7784 26.4504 75.6544 26.423 75.5227 26.4033C75.3895 26.382 75.2564 26.3638 75.1156 26.3501C74.9764 26.3334 74.8417 26.3212 74.704 26.3121C74.5678 26.3015 74.4392 26.2984 74.3197 26.2984C73.9883 26.2984 73.6917 26.3334 73.4284 26.4033C73.1666 26.4732 72.9426 26.5689 72.7595 26.689C72.5749 26.809 72.4327 26.9534 72.3343 27.1175C72.236 27.2801 72.1845 27.4548 72.1845 27.6417C72.1845 27.8423 72.236 28.0185 72.3343 28.169C72.4327 28.3209 72.5598 28.4546 72.7141 28.5732C72.8685 28.6902 73.035 28.792 73.215 28.8816C73.3966 28.9698 73.5691 29.0473 73.731 29.1217L73.7946 29.1506C73.9747 29.222 74.1381 29.2965 74.2879 29.3709C74.4347 29.4469 74.5618 29.5274 74.6677 29.614C74.7737 29.6976 74.8539 29.7949 74.9114 29.9043C74.9689 30.0137 74.9976 30.1413 74.9976 30.2857C74.9976 30.5577 74.9129 30.7734 74.7434 30.9315C74.5769 31.0895 74.3348 31.167 74.0201 31.167C73.8097 31.167 73.6251 31.1245 73.4647 31.0348C73.3043 30.9482 73.1696 30.8403 73.0592 30.7096C72.9442 30.5789 72.8534 30.4407 72.7807 30.2963C72.7081 30.1504 72.6551 30.0198 72.6188 29.9043L72.0211 31.0135C72.1482 31.0743 72.2723 31.1336 72.3964 31.1943C72.5189 31.2551 72.6506 31.3098 72.7928 31.3539C72.9336 31.3995 73.0894 31.436 73.2589 31.4633C73.4269 31.4907 73.6221 31.5043 73.837 31.5043C74.1805 31.5043 74.4922 31.4663 74.7752 31.3904C75.0536 31.3129 75.2972 31.2095 75.4985 31.0758C75.6997 30.9421 75.8556 30.7856 75.9646 30.6078C76.072 30.43 76.128 30.237 76.128 30.0319C76.128 29.8268 76.0765 29.6551 75.9752 29.5001C75.8707 29.3466 75.7376 29.2083 75.5711 29.0868L75.5696 29.0852ZM89.3505 30.9664C89.29 30.8874 89.2507 30.7917 89.2325 30.6792C89.2159 30.5668 89.2023 30.4194 89.1947 30.237C89.1886 30.152 89.1856 30.0714 89.1826 29.997C89.178 29.921 89.1765 29.8465 89.1765 29.7751C89.1599 29.219 89.1448 28.7753 89.1357 28.4486C89.1266 28.1219 89.1205 27.8727 89.1145 27.6979C89.1084 27.5262 89.1054 27.4122 89.1054 27.3575V27.2573C89.1054 27.119 89.1205 27.0096 89.1553 26.9306C89.1871 26.8531 89.2416 26.7862 89.3142 26.733C89.3854 26.6768 89.4777 26.6251 89.5881 26.578C89.7001 26.5294 89.8302 26.4656 89.9816 26.3866H87.975L86.0744 30.2021H86.029C85.7778 29.6991 85.5342 29.2129 85.2966 28.7403C85.1937 28.5397 85.0893 28.3331 84.9804 28.1173C84.8729 27.9015 84.7685 27.6934 84.6641 27.4867C84.5612 27.28 84.4628 27.084 84.366 26.8956C84.2706 26.7072 84.1844 26.5385 84.1133 26.3866H82.1688L82.3595 26.4701C82.4926 26.5309 82.6031 26.5841 82.6893 26.6282C82.7786 26.6738 82.8452 26.7209 82.8936 26.7695C82.9405 26.8166 82.9784 26.8743 82.9965 26.9412C83.0177 27.0065 83.0298 27.0962 83.0298 27.2041C83.0298 27.3697 83.0222 27.6022 83.0071 27.9076C82.9935 28.213 82.9723 28.5382 82.9481 28.8847C82.9254 29.2296 82.8966 29.5654 82.8664 29.8936C82.8361 30.2203 82.8058 30.4832 82.7771 30.6838C82.7574 30.7446 82.7332 30.8008 82.6939 30.8555C82.6591 30.9102 82.6091 30.9649 82.5471 31.015C82.4835 31.0667 82.4033 31.1214 82.3065 31.1792C82.2112 31.2369 82.0946 31.3038 81.963 31.3828H84.4674C84.2858 31.3038 84.139 31.2399 84.0225 31.1883C83.909 31.1366 83.8167 31.0865 83.7486 31.0333C83.679 30.9831 83.6336 30.9224 83.6079 30.8525C83.5837 30.7826 83.5731 30.6899 83.5731 30.5759C83.5731 30.1216 83.5761 29.6809 83.5852 29.2539C83.5942 28.8284 83.6048 28.403 83.6185 27.9775C83.6185 27.8924 83.6139 27.8088 83.6048 27.7192C83.5942 27.6326 83.5852 27.5748 83.5746 27.5429H83.629L85.5902 31.4375H86.0699L88.0144 27.5232H88.0689C88.0567 27.5733 88.0446 27.6447 88.034 27.7465C88.0219 27.8453 88.0144 27.9228 88.0144 27.976V30.5668C88.0144 30.6762 88.0053 30.7643 87.9856 30.8342C87.9705 30.9026 87.9357 30.9649 87.8888 31.015C87.8404 31.0667 87.7707 31.1153 87.68 31.164C87.5907 31.2141 87.4742 31.2718 87.3364 31.3372L87.2472 31.3813H90.0951C89.8983 31.3022 89.7395 31.2339 89.6229 31.1716C89.5049 31.1108 89.4156 31.0409 89.3566 30.9649L89.3505 30.9664ZM100.638 30.5577C100.561 30.6853 100.467 30.7856 100.359 30.8616C100.247 30.9375 100.117 30.9892 99.9598 31.0211C99.8024 31.05 99.6057 31.0652 99.3711 31.0652H99.2274C99.0579 31.0652 98.9202 31.0606 98.8112 31.053C98.7023 31.0424 98.6175 31.0166 98.554 30.9695C98.4904 30.9254 98.445 30.857 98.4163 30.7674C98.3906 30.6762 98.3769 30.5485 98.3769 30.386V28.8421H98.9368C99.1063 28.8421 99.241 28.8482 99.3454 28.8588C99.4468 28.8725 99.5421 28.8983 99.6344 28.9363C99.7252 28.9758 99.8236 29.0351 99.928 29.1126C100.034 29.1931 100.169 29.3025 100.331 29.4393V27.9152L100.247 27.9775C100.105 28.093 99.9855 28.1842 99.8902 28.2495C99.7979 28.3164 99.7086 28.3665 99.6193 28.403C99.5315 28.441 99.4362 28.4653 99.3303 28.4759C99.2243 28.4896 99.0912 28.4942 98.9293 28.4942H98.3769V26.9306C98.3769 26.8287 98.386 26.7664 98.3996 26.7452C98.4133 26.7254 98.4556 26.7133 98.5192 26.7133H99.1911C99.4256 26.7133 99.6254 26.7209 99.7888 26.7345C99.9507 26.7497 100.082 26.7892 100.185 26.85C100.29 26.9108 100.371 26.9989 100.435 27.1175C100.498 27.236 100.548 27.3986 100.583 27.6052L101.207 26.3881H96.4067L96.4778 26.4154C96.6458 26.4869 96.782 26.5476 96.8804 26.5978C96.9802 26.6464 97.0559 26.7011 97.1119 26.7649C97.1649 26.8288 97.2012 26.9062 97.2148 27.0005C97.2299 27.0947 97.2375 27.2238 97.2375 27.3864V30.4209C97.2375 30.5713 97.2314 30.6914 97.2193 30.7795C97.2072 30.8677 97.1754 30.9436 97.1195 31.0059C97.065 31.0713 96.9833 31.129 96.8713 31.1837C96.7593 31.2369 96.6065 31.3038 96.4067 31.3828H101.352L100.883 30.0669C100.797 30.2659 100.716 30.43 100.638 30.5577ZM107.474 26.3881L107.367 27.7678L107.431 27.6979C107.552 27.5566 107.667 27.429 107.774 27.3104C107.883 27.1919 107.99 27.0901 108.102 27.0005C108.216 26.9138 108.335 26.8455 108.461 26.7984C108.588 26.7482 108.727 26.7254 108.877 26.7254H109.493V30.4483C109.493 30.5865 109.481 30.7005 109.457 30.7886C109.433 30.8768 109.384 30.9543 109.313 31.0166C109.24 31.0804 109.137 31.1381 109.003 31.1928C108.871 31.2475 108.696 31.3098 108.481 31.3843H111.655C111.438 31.3114 111.262 31.2475 111.132 31.1928C110.997 31.1381 110.896 31.0789 110.823 31.0166C110.751 30.9543 110.704 30.8768 110.678 30.7886C110.657 30.7005 110.643 30.5865 110.643 30.4483V26.7254H111.256C111.415 26.7254 111.553 26.7482 111.678 26.7984C111.801 26.8455 111.919 26.9138 112.029 27.0005C112.143 27.0901 112.252 27.1919 112.361 27.3104C112.468 27.429 112.582 27.5566 112.704 27.6979L112.768 27.7678L112.659 26.3881H107.476H107.474ZM120.978 26.9792C120.997 26.888 121.036 26.8105 121.092 26.7467C121.149 26.6829 121.233 26.6267 121.351 26.575C121.464 26.5233 121.617 26.461 121.809 26.3881H118.943C119.143 26.461 119.297 26.5233 119.409 26.575C119.521 26.6267 119.607 26.6844 119.668 26.7467C119.729 26.8105 119.765 26.888 119.782 26.9792C119.797 27.0688 119.804 27.1934 119.804 27.3499V30.4209C119.804 30.5713 119.797 30.6944 119.782 30.7886C119.766 30.8828 119.729 30.9619 119.668 31.0257C119.607 31.091 119.521 31.1472 119.409 31.1989C119.297 31.2491 119.143 31.3114 118.943 31.3843H121.809C121.617 31.3114 121.464 31.2491 121.351 31.1989C121.234 31.1472 121.149 31.0895 121.092 31.0257C121.034 30.9634 120.997 30.8859 120.978 30.7932C120.962 30.7035 120.951 30.5789 120.951 30.4224V27.3515C120.951 27.1934 120.962 27.0704 120.978 26.9807V26.9792ZM133.057 30.4665C132.947 30.6184 132.819 30.7446 132.677 30.8464C132.536 30.9512 132.376 31.0287 132.199 31.0789C132.022 31.1305 131.812 31.1579 131.571 31.1579C131.228 31.1579 130.917 31.1001 130.639 30.9892C130.364 30.8768 130.124 30.7187 129.929 30.5136C129.734 30.3069 129.583 30.0593 129.474 29.7675C129.365 29.4773 129.31 29.1536 129.31 28.795C129.31 28.5109 129.357 28.2389 129.454 27.9775C129.549 27.7177 129.69 27.4882 129.873 27.2876C130.058 27.0886 130.283 26.929 130.553 26.8105C130.819 26.6935 131.129 26.6343 131.479 26.6343C131.719 26.6343 131.936 26.654 132.122 26.689C132.31 26.7269 132.473 26.7847 132.615 26.8667C132.757 26.9488 132.878 27.0567 132.978 27.1934C133.077 27.3302 133.157 27.4973 133.217 27.6979L133.788 26.4793C133.649 26.4793 133.525 26.4747 133.414 26.4625C133.302 26.4504 133.183 26.4352 133.056 26.417C132.863 26.3881 132.65 26.3592 132.414 26.3364C132.178 26.3106 131.952 26.2984 131.736 26.2984C131.193 26.2984 130.692 26.3623 130.235 26.4929C129.776 26.6236 129.384 26.806 129.053 27.043C128.725 27.2785 128.467 27.5596 128.284 27.8818C128.1 28.207 128.009 28.561 128.009 28.95C128.009 29.257 128.072 29.5624 128.201 29.8663C128.331 30.1687 128.536 30.4407 128.812 30.6838C129.088 30.9269 129.45 31.1229 129.893 31.2749C130.336 31.4253 130.87 31.5013 131.489 31.5013C131.718 31.5013 131.958 31.4815 132.21 31.4405C132.459 31.4025 132.695 31.3554 132.919 31.3053C133.14 31.2536 133.339 31.2035 133.505 31.1564C133.674 31.1062 133.797 31.0697 133.87 31.0454L133.379 29.9301C133.278 30.1337 133.171 30.3145 133.059 30.465L133.057 30.4665ZM143.512 29.0852C143.347 28.9652 143.159 28.8573 142.952 28.7646C142.742 28.6704 142.534 28.5777 142.323 28.4866C141.985 28.3468 141.717 28.1994 141.521 28.0413C141.321 27.8848 141.221 27.663 141.221 27.3773C141.221 27.1843 141.29 27.0081 141.428 26.8531C141.567 26.6935 141.79 26.6145 142.097 26.6145C142.297 26.6145 142.462 26.6449 142.587 26.7026C142.714 26.7604 142.817 26.8379 142.901 26.9336C142.982 27.0308 143.046 27.1403 143.093 27.2603C143.143 27.3803 143.187 27.5034 143.23 27.625L143.836 26.4793C143.722 26.4504 143.597 26.423 143.465 26.4033C143.332 26.382 143.199 26.3638 143.058 26.3501C142.919 26.3334 142.784 26.3212 142.646 26.3121C142.51 26.3015 142.382 26.2984 142.262 26.2984C141.931 26.2984 141.634 26.3334 141.371 26.4033C141.109 26.4732 140.885 26.5689 140.702 26.689C140.517 26.809 140.375 26.9534 140.277 27.1175C140.177 27.2801 140.127 27.4548 140.127 27.6417C140.127 27.8423 140.177 28.0185 140.277 28.169C140.375 28.3209 140.502 28.4546 140.656 28.5732C140.811 28.6902 140.977 28.792 141.157 28.8816C141.339 28.9698 141.511 29.0473 141.673 29.1217L141.737 29.1506C141.918 29.222 142.082 29.2965 142.232 29.3709C142.379 29.4469 142.506 29.5274 142.612 29.614C142.717 29.6976 142.798 29.7949 142.855 29.9043C142.913 30.0137 142.941 30.1413 142.941 30.2857C142.941 30.5577 142.857 30.7734 142.687 30.9315C142.521 31.0895 142.279 31.167 141.964 31.167C141.754 31.167 141.569 31.1245 141.409 31.0348C141.248 30.9482 141.113 30.8403 141.001 30.7096C140.888 30.5789 140.797 30.4407 140.725 30.2963C140.652 30.1504 140.599 30.0198 140.563 29.9043L139.965 31.0135C140.091 31.0743 140.216 31.1336 140.34 31.1943C140.463 31.2551 140.594 31.3098 140.737 31.3539C140.877 31.3995 141.033 31.436 141.201 31.4633C141.371 31.4907 141.566 31.5043 141.781 31.5043C142.124 31.5043 142.436 31.4663 142.717 31.3904C142.997 31.3129 143.24 31.2095 143.442 31.0758C143.644 30.9421 143.799 30.7856 143.908 30.6078C144.016 30.43 144.072 30.237 144.072 30.0319C144.072 29.8268 144.02 29.6551 143.917 29.5001C143.815 29.3466 143.681 29.2083 143.515 29.0868L143.512 29.0852ZM150.134 8.21152C149.893 7.78605 149.559 7.45176 149.135 7.20711C148.711 6.96399 148.236 6.84243 147.716 6.84243C147.195 6.84243 146.72 6.96551 146.293 7.21319C145.867 7.46239 145.531 7.80125 145.285 8.22975C145.04 8.65674 144.918 9.12931 144.918 9.64291C144.918 10.1565 145.039 10.6276 145.285 11.0561C145.531 11.4846 145.867 11.8234 146.29 12.0726C146.714 12.3203 147.186 12.4449 147.701 12.4449C148.215 12.4449 148.689 12.3203 149.115 12.0726C149.541 11.8234 149.88 11.4831 150.126 11.053C150.373 10.6215 150.498 10.1459 150.498 9.62772C150.498 9.10956 150.376 8.63698 150.132 8.21L150.134 8.21152ZM149.867 10.9026C149.645 11.2855 149.345 11.5894 148.966 11.8143C148.587 12.0377 148.165 12.1516 147.702 12.1516C147.239 12.1516 146.817 12.0392 146.437 11.8189C146.059 11.597 145.761 11.2931 145.54 10.9102C145.322 10.5258 145.211 10.1048 145.211 9.64443C145.211 9.18401 145.322 8.76311 145.54 8.37867C145.759 7.99575 146.06 7.69184 146.442 7.46999C146.824 7.24966 147.25 7.13721 147.719 7.13721C148.188 7.13721 148.611 7.24814 148.988 7.46695C149.364 7.68576 149.66 7.98511 149.877 8.36347C150.093 8.74183 150.2 9.16426 150.2 9.62924C150.2 10.0942 150.088 10.5197 149.869 10.9041L149.867 10.9026ZM148.929 9.728C149.053 9.55478 149.117 9.3466 149.117 9.10348C149.117 8.77526 149.002 8.51542 148.776 8.32396C148.549 8.1325 148.241 8.03829 147.852 8.03829H146.619V11.2445H147.029V10.1808H147.853C147.932 10.1808 147.993 10.1778 148.035 10.1732L148.722 11.2445H149.149L148.404 10.1018C148.631 10.0228 148.807 9.89667 148.929 9.72649V9.728ZM147.826 9.83437H147.023V8.3893H147.826C148.106 8.3893 148.324 8.45312 148.48 8.5762C148.633 8.70232 148.713 8.87707 148.713 9.105C148.713 9.33293 148.633 9.51831 148.48 9.64443C148.324 9.77207 148.106 9.83589 147.826 9.83589V9.83437Z" fill="white"/>
</svg>
