<svg width="94" height="81" viewBox="0 0 94 81" fill="none" xmlns="http://www.w3.org/2000/svg">
<path d="M0 57.1289C0 52.3438 0.634766 47.3145 1.9043 42.041C3.17383 36.7676 4.98047 31.5918 7.32422 26.5137C9.66797 21.4355 12.4512 16.6504 15.6738 12.1582C18.9941 7.56836 22.6562 3.51562 26.6602 0L43.9453 11.4258C39.7461 18.0664 36.4746 25.0488 34.1309 32.373C31.7871 39.6973 30.6152 47.8516 30.6152 56.8359V81.0059H0V57.1289ZM49.0723 57.1289C49.0723 52.3438 49.707 47.3145 50.9766 42.041C52.2461 36.7676 54.0527 31.5918 56.3965 26.5137C58.7402 21.4355 61.5234 16.6504 64.7461 12.1582C68.0664 7.56836 71.7285 3.51562 75.7324 0L93.0176 11.4258C88.8184 18.0664 85.5469 25.0488 83.2031 32.373C80.8594 39.6973 79.6875 47.8516 79.6875 56.8359V81.0059H49.0723V57.1289Z" fill="white"/>
</svg>
