<svg width="183" height="183" viewBox="0 0 183 183" fill="none" xmlns="http://www.w3.org/2000/svg">
<g clip-path="url(#clip0_908_17038)">
<path d="M93.6628 68.7302V77.4202C93.6628 77.4802 93.6128 77.5302 93.5528 77.5302H90.5328C90.4728 77.5302 90.4228 77.4802 90.4228 77.4202V68.7302C90.4228 68.6702 90.3728 68.6202 90.3128 68.6202H86.9928C86.9328 68.6202 86.8828 68.5702 86.8828 68.5102V65.8502C86.8828 65.7902 86.9328 65.7402 86.9928 65.7402H97.1028C97.1628 65.7402 97.2128 65.7902 97.2128 65.8502L97.1728 68.5102C97.1728 68.5702 97.1228 68.6102 97.0628 68.6102H93.7528C93.6928 68.6102 93.6428 68.6602 93.6428 68.7202L93.6628 68.7302Z" fill="white"/>
<path d="M106.595 72.8389C106.685 75.4589 104.505 77.6689 101.735 77.7589C98.9652 77.8489 96.6452 75.7989 96.5652 73.1689C96.4752 70.5489 98.6552 68.3389 101.425 68.2489C104.195 68.1589 106.515 70.2089 106.595 72.8389ZM101.755 75.0289C102.795 74.9389 103.565 73.9589 103.465 72.8289C103.365 71.7089 102.445 70.8689 101.395 70.9589C100.355 71.0489 99.5852 72.0289 99.6852 73.1589C99.7852 74.2789 100.705 75.1189 101.755 75.0289Z" fill="white"/>
<path d="M111.17 76.6391V80.0991C111.17 80.1991 111.12 80.2491 111.02 80.2491H108.19C108.07 80.2491 108 80.1891 108 80.0591V68.6191C108 68.5191 108.05 68.4691 108.15 68.4691H110.94C111.09 68.4691 111.16 68.5391 111.16 68.6891V69.4291C111.16 69.4891 111.21 69.5391 111.26 69.5391C111.29 69.5391 111.32 69.5291 111.34 69.4991C112.16 68.5291 113.1 68.1191 114.17 68.2591C117.44 68.6891 118.52 71.9991 117.63 74.8191C116.79 77.5091 113.39 78.9391 111.34 76.5691C111.3 76.5191 111.24 76.5191 111.19 76.5591C111.17 76.5791 111.15 76.6091 111.15 76.6391H111.17ZM112.95 75.0591C113.97 75.0591 114.8 74.1491 114.8 73.0091C114.8 71.8691 113.99 70.9391 112.98 70.9391C111.96 70.9391 111.13 71.8491 111.13 72.9891C111.13 74.1291 111.94 75.0591 112.95 75.0591Z" fill="white"/>
<path d="M52.35 82.6504H58.67C58.76 82.6504 58.8 82.6904 58.8 82.7804V87.5904C58.8 87.6704 58.76 87.7204 58.67 87.7204H43.51C43.23 87.7204 43 87.5004 43 87.2204C43 87.1204 43.03 87.0204 43.09 86.9304C46.01 82.6304 48.88 78.4104 51.69 74.2804C54.86 69.6304 48.58 68.7104 48.49 72.1504C48.49 72.2504 48.43 72.3004 48.33 72.3004H43.79C43.72 72.3004 43.68 72.2604 43.68 72.1904C43.45 63.4404 56.29 62.4304 57.95 70.3204C58.52 73.0104 57.53 75.0904 55.87 77.4604C54.69 79.1404 53.49 80.8104 52.28 82.4604C52.25 82.5104 52.26 82.5804 52.3 82.6104C52.32 82.6204 52.34 82.6304 52.36 82.6304L52.35 82.6504Z" fill="white"/>
<path d="M79.0225 80.5598C79.0225 84.7398 75.6325 88.1298 71.4525 88.1298H69.8825C65.7025 88.1298 62.3125 84.7398 62.3125 80.5598V72.5798C62.3125 68.3998 65.7025 65.0098 69.8825 65.0098H71.4525C75.6325 65.0098 79.0225 68.3998 79.0225 72.5798V80.5598ZM73.6325 72.6798C73.6325 71.2398 72.4725 70.0798 71.0425 70.0798H70.3825C68.9425 70.0798 67.7825 71.2398 67.7825 72.6698V80.4798C67.7625 81.9198 68.9325 83.0798 70.3625 83.0798H71.0225C72.4625 83.0798 73.6225 81.9198 73.6225 80.4898V72.6798H73.6325Z" fill="white"/>
<path d="M103.297 89.8795C103.297 89.8795 103.327 89.9495 103.367 89.9495C103.387 89.9495 103.407 89.9495 103.417 89.9295L105.687 87.1195C105.757 87.0295 105.847 86.9895 105.967 86.9895L109.177 87.0295C109.307 87.0295 109.327 87.0795 109.237 87.1695L106.387 90.4295C106.277 90.5495 106.267 90.7295 106.347 90.8695L109.337 95.8695C109.407 95.9895 109.377 96.0595 109.227 96.0595H106.117C106.007 96.0595 105.927 96.0095 105.877 95.9195L104.247 93.1695C104.197 93.0795 104.127 93.0695 104.047 93.1295C103.027 93.9595 103.277 94.7295 103.277 95.9095C103.277 96.0095 103.227 96.0595 103.127 96.0595H100.257C100.157 96.0595 100.117 96.0095 100.117 95.9095V83.9595C100.117 83.8595 100.197 83.7695 100.297 83.7695H103.127C103.227 83.7695 103.277 83.8195 103.277 83.9195V89.8795H103.297Z" fill="white"/>
<path d="M130.427 83.7641L127.267 83.7751C127.223 83.7753 127.188 83.8112 127.188 83.8554L127.195 86.0454C127.196 86.0896 127.232 86.1252 127.276 86.1251L130.436 86.1141C130.48 86.1139 130.516 86.078 130.515 86.0338L130.508 83.8438C130.508 83.7996 130.472 83.7639 130.427 83.7641Z" fill="white"/>
<path d="M98.2262 92.3013C97.7463 97.2712 89.2763 97.6513 87.7463 93.2913C87.5463 92.7113 87.4363 91.7113 87.4263 90.2913C87.4063 88.3413 87.4062 86.4013 87.4062 84.4513C87.4062 84.3413 87.4662 84.2913 87.5662 84.2913H90.6162C90.6662 84.2913 90.6962 84.3213 90.6862 84.3713C90.5962 86.7413 90.6163 88.9813 90.7363 91.1113C90.8763 93.6213 93.9362 94.1613 94.7762 92.2913C94.9662 91.8813 95.0563 91.0913 95.0563 89.9313C95.0563 88.1013 95.0563 86.2613 95.0563 84.4313C95.0563 84.3313 95.1062 84.2812 95.2062 84.2812H98.1562C98.2563 84.2812 98.3062 84.3313 98.3162 84.4313C98.4462 87.7013 98.4162 90.3213 98.2262 92.2913V92.3013Z" fill="white"/>
<path d="M135.523 88.0587C136.493 87.3887 137.093 86.6387 138.313 86.7787C140.193 86.9887 141.163 88.0687 141.213 90.0087C141.263 91.9787 141.263 93.9487 141.233 95.9187C141.233 96.0087 141.183 96.0587 141.093 96.0587H138.233C138.103 96.0587 138.043 95.9987 138.043 95.8687C138.143 93.2887 138.123 91.5687 137.983 90.7187C137.743 89.2687 135.793 89.3087 135.483 90.6887C135.193 91.9687 135.353 93.9187 135.393 95.8887C135.393 96.0087 135.343 96.0687 135.223 96.0687H132.353C132.253 96.0687 132.203 96.0187 132.203 95.9187V87.1687C132.203 87.0687 132.253 87.0187 132.353 87.0187H135.303C135.403 87.0187 135.453 87.0687 135.443 87.1787L135.353 87.9687C135.333 88.1387 135.393 88.1687 135.533 88.0787L135.523 88.0587Z" fill="white"/>
<path d="M113.681 88.5204C114.211 87.4604 114.911 86.7804 116.281 86.9004C116.351 86.9004 116.391 86.9404 116.391 87.0104V90.0204C116.391 90.1004 116.321 90.1604 116.241 90.1604C113.121 90.1004 113.331 93.2404 113.501 95.8404C113.501 95.9804 113.451 96.0504 113.311 96.0504H110.431C110.331 96.0504 110.281 96.0004 110.281 95.9004V87.1704C110.281 87.0504 110.341 86.9904 110.461 86.9904H113.281C113.401 86.9904 113.461 87.0604 113.461 87.1804L113.481 88.4704C113.481 88.7504 113.551 88.7604 113.671 88.5104L113.681 88.5204Z" fill="white"/>
<path d="M122.199 95.31C120.499 96.67 117.279 96.76 116.759 94.16C116.049 90.59 119.849 90.23 122.209 90.87C122.279 90.89 122.339 90.85 122.359 90.78C122.359 90.77 122.359 90.76 122.359 90.75C122.339 88.73 119.449 89.21 118.229 89.76C118.149 89.8 118.049 89.76 118.019 89.68V89.66L117.459 87.71C117.439 87.62 117.479 87.54 117.559 87.5C120.399 86.37 125.349 86.22 125.499 90.52C125.529 91.31 125.529 93.1 125.499 95.89C125.499 95.98 125.449 96.03 125.359 96.03L122.549 96.06C122.409 96.06 122.349 96 122.349 95.86V95.37C122.349 95.24 122.299 95.22 122.199 95.3V95.31ZM119.709 93.12C119.349 94.63 122.549 94.81 122.389 92.53C122.389 92.45 122.349 92.4 122.279 92.37C121.429 91.97 119.979 91.99 119.709 93.12Z" fill="white"/>
<path d="M127.366 87.0098H130.306C130.356 87.0098 130.406 87.0498 130.406 87.1098V95.9598C130.406 96.0098 130.376 96.0598 130.316 96.0598H127.366C127.316 96.0598 127.266 96.0198 127.266 95.9598V87.1098C127.266 87.0598 127.306 87.0098 127.366 87.0098Z" fill="white"/>
<path d="M137.188 113.731C134.948 115.921 131.648 114.521 130.918 111.661C130.278 109.151 131.158 106.141 133.848 105.441C135.068 105.121 136.238 105.441 137.338 106.411C137.438 106.501 137.488 106.481 137.488 106.341V102.491C137.488 102.391 137.568 102.301 137.678 102.301H140.508C140.608 102.301 140.658 102.351 140.658 102.451V114.441C140.658 114.541 140.608 114.591 140.508 114.591H137.628C137.528 114.591 137.478 114.541 137.478 114.431L137.518 113.881C137.518 113.771 137.438 113.681 137.338 113.671C137.278 113.671 137.228 113.691 137.188 113.731ZM135.708 112.131C136.728 112.131 137.548 111.201 137.538 110.061C137.538 108.921 136.698 108.001 135.688 108.011C134.668 108.011 133.848 108.941 133.858 110.081C133.858 111.221 134.698 112.141 135.708 112.131Z" fill="white"/>
<path d="M90.8119 112.59L90.0619 114.53C90.0619 114.53 90.0119 114.59 89.9719 114.59H86.7719C86.7219 114.59 86.6719 114.55 86.6719 114.49C86.6719 114.48 86.6719 114.46 86.6719 114.45L91.5919 102.8C91.5919 102.8 91.6419 102.74 91.6819 102.74H94.6819C94.6819 102.74 94.7619 102.76 94.7719 102.8L99.7019 114.47C99.7019 114.47 99.7019 114.58 99.6519 114.6C99.6419 114.6 99.6319 114.6 99.6119 114.6L96.3219 114.57C96.3219 114.57 96.2519 114.54 96.2319 114.51L95.4619 112.58C95.4619 112.58 95.4119 112.52 95.3719 112.52H90.8919C90.8919 112.52 90.8119 112.54 90.8019 112.58L90.8119 112.59ZM91.9019 109.83C91.9019 109.83 91.9019 109.93 91.9519 109.95C91.9619 109.95 91.9719 109.95 91.9819 109.95H94.3219C94.3719 109.95 94.4119 109.91 94.4119 109.86C94.4119 109.85 94.4119 109.84 94.4119 109.83L93.2419 106.87C93.2419 106.87 93.1719 106.8 93.1219 106.82C93.1019 106.82 93.0819 106.85 93.0719 106.87L91.9019 109.83Z" fill="white"/>
<path d="M119.034 113.86C116.774 115.7 112.734 114.72 113.584 111.19C114.124 108.97 117.154 108.9 118.974 109.43C119.054 109.45 119.124 109.41 119.144 109.33C119.604 107.16 115.904 107.99 115.004 108.24C114.914 108.27 114.854 108.24 114.824 108.14L114.284 106.25C114.264 106.17 114.304 106.08 114.384 106.04C117.004 105 122.144 104.75 122.314 108.79C122.364 109.99 122.364 111.87 122.324 114.45C122.324 114.54 122.274 114.59 122.184 114.59H119.324C119.224 114.59 119.174 114.54 119.174 114.44V113.93C119.174 113.8 119.124 113.77 119.014 113.86H119.034ZM117.044 112.62C118.184 113.18 119.464 112.29 119.194 111C119.174 110.92 119.124 110.86 119.044 110.84C118.354 110.64 117.794 110.62 117.354 110.78C116.574 111.06 116.124 112.18 117.044 112.63V112.62Z" fill="white"/>
<path d="M127.266 107.221C127.736 106.061 128.606 105.441 129.866 105.371C129.966 105.371 130.056 105.441 130.066 105.541C130.066 105.541 130.066 105.541 130.066 105.551V108.551C130.066 108.641 130.016 108.691 129.926 108.691C126.536 108.781 127.196 112.171 127.186 114.441C127.186 114.541 127.136 114.591 127.036 114.591H124.166C124.066 114.591 124.016 114.541 124.016 114.441V105.681C124.016 105.581 124.066 105.531 124.176 105.531L127.036 105.561C127.116 105.561 127.166 105.601 127.166 105.681C127.206 106.161 127.196 106.631 127.116 107.091C127.116 107.151 127.116 107.201 127.136 107.241C127.186 107.311 127.226 107.301 127.256 107.231L127.266 107.221Z" fill="white"/>
<path d="M110.241 105.541H113.101C113.151 105.551 113.191 105.591 113.191 105.641C113.191 105.641 113.191 105.661 113.191 105.671L110.471 114.611C110.471 114.611 110.421 114.681 110.381 114.671H107.761C107.761 114.671 107.681 114.641 107.671 114.611L106.291 110.181C106.291 110.181 106.221 110.111 106.181 110.121C106.151 110.121 106.131 110.151 106.121 110.181L104.711 114.611C104.711 114.611 104.661 114.681 104.621 114.671H102.021C102.021 114.671 101.941 114.641 101.931 114.611L99.2109 105.671C99.2109 105.671 99.2209 105.571 99.2709 105.561C99.2709 105.561 99.2909 105.561 99.3009 105.561H102.221C102.221 105.561 102.301 105.591 102.311 105.631L103.401 109.851C103.401 109.851 103.461 109.931 103.511 109.921C103.541 109.921 103.571 109.891 103.581 109.861L104.881 105.561C104.881 105.561 104.931 105.491 104.971 105.501H107.451C107.451 105.501 107.531 105.531 107.541 105.561L108.861 109.901C108.861 109.901 108.921 109.981 108.971 109.961C109.001 109.961 109.031 109.931 109.031 109.891L110.151 105.621C110.151 105.621 110.201 105.551 110.241 105.551V105.541Z" fill="white"/>
<path d="M52.3381 109.6H58.6781C58.7581 109.6 58.8081 109.64 58.8081 109.73V114.61C58.8081 114.7 58.7581 114.74 58.6681 114.74H43.2481C43.1681 114.74 43.1181 114.7 43.1081 114.61C43.0581 114.21 43.1381 113.85 43.3581 113.53C46.1281 109.45 48.9081 105.37 51.6781 101.29C54.7681 96.7397 48.8281 95.6097 48.4681 99.1197C48.4581 99.2097 48.4081 99.2597 48.3181 99.2597H43.7881C43.7181 99.2597 43.6881 99.2197 43.6781 99.1497C43.5981 94.5697 46.9781 91.7497 51.3481 91.9997C57.5381 92.3497 59.9081 98.6397 56.5381 103.47C55.1381 105.48 53.7181 107.48 52.2781 109.48C52.2581 109.51 52.2581 109.56 52.2981 109.59C52.3081 109.59 52.3281 109.6 52.3481 109.6H52.3381Z" fill="white"/>
<path d="M72.5569 109.6H78.8969C78.9769 109.6 79.0269 109.64 79.0269 109.73V114.61C79.0269 114.7 78.9769 114.74 78.8869 114.74H63.4669C63.3869 114.74 63.3369 114.7 63.3269 114.61C63.2769 114.21 63.3569 113.85 63.5769 113.53C66.3469 109.45 69.1269 105.37 71.8969 101.29C74.9869 96.7397 69.0469 95.6097 68.6869 99.1197C68.6769 99.2097 68.6269 99.2597 68.5369 99.2597H64.0069C63.9369 99.2597 63.9069 99.2197 63.8969 99.1497C63.8169 94.5697 67.1969 91.7497 71.5669 91.9997C77.7569 92.3497 80.1269 98.6397 76.7569 103.47C75.3569 105.48 73.9369 107.48 72.4969 109.48C72.4769 109.51 72.4769 109.56 72.5169 109.59C72.5269 109.59 72.5469 109.6 72.5669 109.6H72.5569Z" fill="white"/>
<path d="M72.5938 41V60.18H76.5938V45H123.284V60.18H127.284V41H72.5938ZM123.284 137.89H76.5938V119.54H72.5938V141.89H127.274V119.54H123.274V137.89H123.284Z" fill="white"/>
</g>
<defs>
<clipPath id="clip0_908_17038">
<rect width="98.26" height="100.88" fill="white" transform="translate(43 41)"/>
</clipPath>
</defs>
</svg>
