<svg width="155" height="40" viewBox="0 0 155 40" fill="none" xmlns="http://www.w3.org/2000/svg">
<path d="M14.5704 25.0823H1.18335V0.349121H0V26.2768H14.5704V25.0823Z" fill="white"/>
<path d="M32.9917 25.0824H26.3663V1.57864H32.9917V0.349213H18.75V1.57864H25.1318V25.0824H18.75V26.2769H32.9917V25.0824Z" fill="white"/>
<path d="M53.0149 26.2768H50.9452L39.3308 4.39147L39.3138 26.2768H37.2344V0.349073H39.304L50.9184 22.1945L50.9355 0.344086H53.0051L53.0149 26.2768Z" fill="white"/>
<path d="M73.1458 26.2768H71.0761L59.4617 4.39147L59.4447 26.2768H57.375V0.349073H59.4447L71.0591 22.1945L71.0761 0.344086H73.1458V26.2768Z" fill="white"/>
<path d="M77.5078 0.349197H92.8086V3.21703H86.7409V23.4415H92.8086V26.2844H77.5078V23.4415H83.4368V3.21703H77.5078V0.349197Z" fill="white"/>
<path d="M103.276 14.2395L100.459 17.5163V26.2769H97.1719V0.349213H100.459V13.0101L102.911 9.8754L110.335 0.349213H114.248L105.409 11.6934L114.852 26.2769H110.927L103.276 14.2395Z" fill="white"/>
<path d="M133.533 15.212C133.548 16.7677 133.331 18.3166 132.89 19.8055C132.506 21.1293 131.874 22.3641 131.03 23.4414C130.221 24.4422 129.204 25.2463 128.054 25.7955C126.82 26.3744 125.475 26.6632 124.117 26.6409C122.773 26.6656 121.441 26.3765 120.221 25.7955C119.103 25.2392 118.124 24.4259 117.363 23.419C116.554 22.3391 115.951 21.1122 115.588 19.803C115.166 18.3114 114.957 16.7649 114.969 15.212V11.4439C114.956 9.8899 115.161 8.342 115.578 6.84788C115.947 5.54172 116.552 4.31838 117.363 3.24189C118.127 2.23706 119.104 1.42419 120.221 0.865335C121.438 0.274876 122.771 -0.0179493 124.117 0.00997318C125.474 -0.0171652 126.82 0.269228 128.054 0.847879C129.208 1.40839 130.225 2.22641 131.03 3.24189C131.871 4.31656 132.502 5.54666 132.89 6.86533C133.331 8.35506 133.548 9.90481 133.533 11.4613V15.212ZM128.578 11.4065C128.587 10.4274 128.506 9.44961 128.334 8.48628C128.197 7.6811 127.929 6.90495 127.543 6.18952C127.211 5.58089 126.735 5.06666 126.16 4.69326C125.544 4.31506 124.835 4.12634 124.117 4.14962C123.419 4.12498 122.728 4.31425 122.135 4.69326C121.588 5.06982 121.145 5.58534 120.85 6.18952C120.5 6.90987 120.265 7.68266 120.153 8.4788C120.01 9.44519 119.941 10.4216 119.946 11.399V15.212C119.941 16.1836 120.01 17.1542 120.153 18.1147C120.263 18.9197 120.494 19.7022 120.84 20.4339C121.132 21.0493 121.575 21.5768 122.126 21.9651C122.723 22.3517 123.421 22.5439 124.127 22.5162C124.839 22.5372 125.542 22.3458 126.15 21.9651C126.725 21.5852 127.198 21.064 127.526 20.4489C127.906 19.7253 128.174 18.9453 128.32 18.1372C128.5 17.1732 128.586 16.1934 128.578 15.212V11.4065Z" fill="white"/>
<path d="M144.83 19.03L149.612 0.349197H155.003L147.336 26.2844H142.361L134.711 0.349197H140.102L144.83 19.03Z" fill="white"/>
<path d="M102.667 35.9103C102.611 35.7921 102.566 35.6685 102.533 35.5412C102.498 35.4016 102.466 35.2544 102.438 35.0998C102.312 35.2376 102.173 35.3636 102.025 35.4764C101.862 35.5971 101.689 35.7007 101.506 35.7856C101.303 35.8777 101.092 35.948 100.875 35.9951C100.231 36.1275 99.5641 36.0871 98.9395 35.8779C98.597 35.7613 98.2796 35.5785 98.0045 35.3392C97.7411 35.1101 97.5302 34.8245 97.3867 34.5025C97.2432 34.1806 97.1707 33.8303 97.1742 33.4764C97.1566 33.0654 97.2385 32.6563 97.4127 32.2856C97.5869 31.9148 97.8479 31.594 98.1725 31.3517C98.8381 30.8529 99.8299 30.6036 101.148 30.6036H102.365V30.0898C102.376 29.9036 102.346 29.7172 102.276 29.5446C102.207 29.372 102.101 29.2174 101.966 29.0923C101.641 28.8283 101.231 28.6985 100.817 28.7282C100.468 28.6951 100.119 28.7994 99.8429 29.02C99.7402 29.1205 99.6599 29.2424 99.6073 29.3776C99.5548 29.5127 99.5313 29.6578 99.5385 29.8031H97.3763C97.3759 29.4376 97.4593 29.0771 97.6198 28.7507C97.7845 28.4096 98.0216 28.1105 98.3138 27.8754C98.6485 27.6078 99.028 27.405 99.4338 27.2769C99.9234 27.1224 100.434 27.0475 100.946 27.0549C101.429 27.0497 101.91 27.1152 102.375 27.2494C102.789 27.3625 103.177 27.5555 103.52 27.818C103.843 28.0694 104.103 28.3959 104.279 28.7706C104.469 29.1872 104.562 29.6429 104.552 30.1023V33.843C104.546 34.2306 104.575 34.618 104.64 35.0001C104.684 35.2724 104.766 35.5369 104.883 35.7856V35.9103H102.667ZM100.593 34.3442C100.799 34.3452 101.005 34.3184 101.204 34.2644C101.38 34.2128 101.551 34.1426 101.713 34.0549C101.855 33.9745 101.986 33.8756 102.102 33.7607C102.204 33.6632 102.291 33.5506 102.361 33.4265V31.9302H101.25C100.958 31.9246 100.667 31.9582 100.383 32.03C100.171 32.0831 99.972 32.1789 99.7966 32.3118C99.6498 32.4248 99.5333 32.5741 99.4581 32.7457C99.3851 32.9197 99.3486 33.1075 99.351 33.2968C99.3481 33.4366 99.3739 33.5754 99.4268 33.7043C99.4796 33.8332 99.5583 33.9492 99.6578 34.045C99.9217 34.2612 100.256 34.3672 100.593 34.3417V34.3442Z" fill="white"/>
<path d="M105.81 31.4887C105.805 30.8771 105.887 30.2681 106.053 29.6807C106.194 29.1724 106.426 28.6955 106.737 28.2742C107.025 27.8907 107.395 27.5801 107.818 27.3665C108.264 27.1449 108.755 27.0347 109.25 27.0448C109.687 27.0308 110.122 27.1159 110.524 27.2942C110.877 27.4642 111.188 27.715 111.432 28.0273L111.517 27.1994H113.497V35.6109C113.507 36.1515 113.406 36.6883 113.202 37.1869C113.017 37.6331 112.736 38.031 112.381 38.3515C112.012 38.6775 111.581 38.9227 111.115 39.0722C110.587 39.2408 110.037 39.325 109.484 39.3216C109.209 39.3188 108.934 39.2921 108.663 39.2418C108.367 39.1851 108.076 39.1016 107.794 38.9924C107.508 38.8797 107.236 38.7351 106.981 38.561C106.73 38.3917 106.508 38.182 106.323 37.9401L107.297 36.581C107.556 36.8935 107.876 37.1481 108.235 37.3291C108.59 37.4972 108.978 37.5824 109.369 37.5785C109.891 37.6109 110.403 37.4317 110.796 37.0797C110.974 36.8919 111.112 36.668 111.201 36.4223C111.289 36.1766 111.327 35.9146 111.31 35.6533V35.1545C111.059 35.4399 110.754 35.6699 110.414 35.8303C110.041 35.9999 109.636 36.085 109.228 36.0797C108.736 36.0869 108.249 35.9723 107.809 35.7455C107.388 35.5234 107.021 35.2092 106.732 34.8253C106.424 34.4071 106.192 33.9347 106.048 33.4313C105.885 32.8647 105.803 32.2766 105.805 31.6857L105.81 31.4887ZM108.001 31.6583C108 31.9981 108.037 32.3369 108.111 32.6682C108.172 32.9588 108.281 33.2363 108.434 33.4887C108.574 33.7153 108.764 33.9043 108.99 34.0398C109.234 34.1776 109.509 34.2465 109.788 34.2393C110.116 34.2519 110.442 34.1744 110.731 34.0149C110.979 33.864 111.183 33.6479 111.322 33.3889V29.7131C111.187 29.4502 110.982 29.2315 110.731 29.0822C110.446 28.9248 110.126 28.8481 109.803 28.8603C109.524 28.8529 109.248 28.9246 109.007 29.0672C108.779 29.2062 108.587 29.3985 108.447 29.6283C108.291 29.8854 108.179 30.168 108.115 30.4637C108.04 30.7998 108.003 31.1438 108.006 31.4887L108.001 31.6583Z" fill="white"/>
<path d="M118.788 36.0624C118.181 36.0701 117.578 35.9574 117.013 35.7307C116.504 35.5264 116.039 35.2223 115.644 34.8355C115.263 34.4586 114.962 34.0041 114.763 33.5013C114.556 32.9794 114.451 32.4211 114.453 31.8579V31.5362C114.446 30.9161 114.55 30.3 114.76 29.7183C114.948 29.1912 115.238 28.7085 115.612 28.2993C115.977 27.9009 116.419 27.5857 116.91 27.3741C117.427 27.1497 117.983 27.0376 118.544 27.0449C119.103 27.0349 119.657 27.1401 120.175 27.3542C120.639 27.5499 121.055 27.8479 121.393 28.227C121.735 28.619 121.992 29.0804 122.148 29.5811C122.326 30.1448 122.413 30.7344 122.406 31.3267V32.2744H116.659C116.697 32.5572 116.783 32.8309 116.915 33.0823C117.039 33.3212 117.204 33.535 117.402 33.7133C117.604 33.89 117.835 34.0285 118.084 34.1222C118.352 34.2212 118.636 34.2702 118.921 34.2669C119.347 34.2667 119.769 34.182 120.163 34.0175C120.355 33.9354 120.536 33.8308 120.704 33.7058C120.869 33.5843 121.017 33.439 121.142 33.2744L122.228 34.4789C122.076 34.6942 121.9 34.8901 121.702 35.0624C121.468 35.2607 121.21 35.4282 120.935 35.5612C120.624 35.7154 120.297 35.8358 119.961 35.9202C119.577 36.0148 119.183 36.0625 118.788 36.0624ZM118.529 28.8529C118.299 28.85 118.07 28.895 117.857 28.9851C117.655 29.0725 117.472 29.2025 117.322 29.3666C117.162 29.5421 117.031 29.7435 116.935 29.9626C116.822 30.2079 116.74 30.4668 116.691 30.7332H120.263V30.5562C120.256 30.3281 120.21 30.1029 120.129 29.8903C120.055 29.6875 119.94 29.5025 119.793 29.3467C119.64 29.1904 119.458 29.0674 119.257 28.9851C119.026 28.8928 118.778 28.8479 118.529 28.8529Z" fill="white"/>
<path d="M125.3 27.2069L125.434 28.4114C125.72 27.9953 126.098 27.6537 126.537 27.4138C126.979 27.1715 127.474 27.048 127.976 27.0547C128.375 27.0493 128.772 27.1151 129.149 27.2493C129.5 27.3736 129.815 27.5843 130.067 27.8627C130.344 28.1749 130.55 28.5451 130.671 28.9475C130.825 29.4696 130.897 30.0133 130.885 30.5585V35.9101H128.711V30.5809C128.718 30.2938 128.68 30.0074 128.597 29.733C128.535 29.5321 128.423 29.3509 128.273 29.2069C128.128 29.0754 127.953 28.9829 127.764 28.9375C127.544 28.8831 127.318 28.8572 127.092 28.8602C126.762 28.8507 126.436 28.9298 126.145 29.0897C125.885 29.2416 125.667 29.4587 125.512 29.7206V35.9101H123.32V27.2069H125.3Z" fill="white"/>
<path d="M135.73 34.2768C135.936 34.2766 136.141 34.2447 136.338 34.1821C136.519 34.123 136.689 34.0327 136.84 33.9152C136.984 33.8013 137.1 33.6555 137.181 33.4888C137.264 33.3173 137.3 33.126 137.286 32.9352H139.336C139.348 33.3673 139.255 33.7958 139.065 34.1821C138.875 34.5659 138.61 34.9055 138.286 35.1796C137.946 35.4661 137.558 35.6882 137.142 35.8354C136.127 36.1843 135.023 36.1471 134.033 35.7307C133.556 35.5183 133.132 35.1987 132.793 34.7955C132.455 34.3852 132.199 33.9107 132.041 33.399C131.873 32.8445 131.79 32.2664 131.797 31.6858V31.4364C131.79 30.855 131.872 30.276 132.041 29.7207C132.194 29.208 132.449 28.7333 132.791 28.3267C133.131 27.9239 133.555 27.6029 134.03 27.3866C134.572 27.1441 135.158 27.0258 135.749 27.0399C136.242 27.0365 136.731 27.1209 137.195 27.2893C137.617 27.4358 138.006 27.6663 138.34 27.9676C138.662 28.2611 138.917 28.6239 139.087 29.03C139.267 29.4707 139.351 29.9466 139.331 30.424H137.298C137.31 30.2159 137.278 30.0075 137.205 29.813C137.135 29.6246 137.025 29.4543 136.884 29.3142C136.737 29.1704 136.564 29.0569 136.375 28.9801C136.169 28.8954 135.949 28.853 135.727 28.8554C135.445 28.8382 135.165 28.904 134.918 29.0449C134.672 29.1859 134.47 29.3962 134.337 29.6509C134.199 29.9088 134.104 30.1887 134.057 30.4788C134.001 30.7974 133.974 31.1203 133.974 31.4439V31.6933C133.974 32.0199 134 32.346 134.052 32.6684C134.098 32.9585 134.192 33.2385 134.33 33.4963C134.46 33.731 134.646 33.9282 134.87 34.0698C135.133 34.2186 135.43 34.2902 135.73 34.2768Z" fill="white"/>
<path d="M145.258 27.077L144.321 30.7453L143.812 32.7403L143.359 34.5109L141.484 27.077H139.344L142.197 36.7403L142.39 37.3962C142.351 37.456 142.309 37.5159 142.263 37.5807C142.165 37.7137 142.051 37.8328 141.922 37.9348C141.791 38.0472 141.626 38.109 141.455 38.1094H140.783L140.296 39.8126C140.39 39.8392 140.478 39.8617 140.559 39.8799C140.639 39.8999 140.722 39.9149 140.802 39.9298L141.06 39.9622H141.35C141.74 39.9718 142.128 39.8953 142.487 39.7378C142.788 39.601 143.064 39.4139 143.305 39.1842C143.522 38.9723 143.711 38.7315 143.865 38.4685C143.943 38.3313 144.014 38.2016 144.077 38.0769L144.362 37.4211L147.406 27.1019L145.258 27.077Z" fill="white"/>
</svg>
