<svg width="155" height="27" viewBox="0 0 155 27" fill="none" xmlns="http://www.w3.org/2000/svg">
<path d="M14.5704 25.0818H1.18335V0.348633H0V26.2763H14.5704V25.0818Z" fill="#0B0B0B"/>
<path d="M32.9917 25.0818H26.3663V1.57806H32.9917V0.348633H18.75V1.57806H25.1318V25.0818H18.75V26.2763H32.9917V25.0818Z" fill="#0B0B0B"/>
<path d="M53.0149 26.2764H50.9452L39.3308 4.39113L39.3138 26.2764H37.2344V0.348738H39.304L50.9184 22.1941L50.9355 0.34375H53.0051L53.0149 26.2764Z" fill="#0B0B0B"/>
<path d="M73.1458 26.2764H71.0761L59.4617 4.39113L59.4447 26.2764H57.375V0.348738H59.4447L71.0591 22.1941L71.0761 0.34375H73.1458V26.2764Z" fill="#0B0B0B"/>
<path d="M77.5078 0.348633H92.8086V3.21646H86.7409V23.4409H92.8086V26.2838H77.5078V23.4409H83.4368V3.21646H77.5078V0.348633Z" fill="#0B0B0B"/>
<path d="M103.276 14.2389L100.459 17.5157V26.2763H97.1719V0.348633H100.459V13.0095L102.911 9.87482L110.335 0.348633H114.248L105.409 11.6928L114.852 26.2763H110.927L103.276 14.2389Z" fill="#0B0B0B"/>
<path d="M133.533 15.2116C133.548 16.7673 133.331 18.3163 132.89 19.8051C132.506 21.129 131.874 22.3637 131.03 23.4411C130.221 24.4419 129.204 25.246 128.054 25.7952C126.82 26.374 125.475 26.6629 124.117 26.6406C122.773 26.6653 121.441 26.3762 120.221 25.7952C119.103 25.2389 118.124 24.4256 117.363 23.4186C116.554 22.3388 115.951 21.1119 115.588 19.8027C115.166 18.3111 114.957 16.7646 114.969 15.2116V11.4436C114.956 9.88956 115.161 8.34166 115.578 6.84754C115.947 5.54138 116.552 4.31804 117.363 3.24156C118.127 2.23672 119.104 1.42386 120.221 0.864999C121.438 0.27454 122.771 -0.018285 124.117 0.00963749C125.474 -0.0175009 126.82 0.268892 128.054 0.847543C129.208 1.40805 130.225 2.22607 131.03 3.24156C131.871 4.31622 132.502 5.54632 132.89 6.865C133.331 8.35472 133.548 9.90448 133.533 11.461V15.2116ZM128.578 11.4061C128.587 10.4271 128.506 9.44927 128.334 8.48595C128.197 7.68077 127.929 6.90462 127.543 6.18919C127.211 5.58055 126.735 5.06632 126.16 4.69293C125.544 4.31472 124.835 4.126 124.117 4.14929C123.419 4.12464 122.728 4.31392 122.135 4.69293C121.588 5.06949 121.145 5.58501 120.85 6.18919C120.5 6.90953 120.265 7.68232 120.153 8.47847C120.01 9.44485 119.941 10.4212 119.946 11.3987V15.2116C119.941 16.1833 120.01 17.1538 120.153 18.1144C120.263 18.9194 120.494 19.7019 120.84 20.4336C121.132 21.049 121.575 21.5765 122.126 21.9648C122.723 22.3514 123.421 22.5436 124.127 22.5159C124.839 22.5369 125.542 22.3454 126.15 21.9648C126.725 21.5849 127.198 21.0636 127.526 20.4485C127.906 19.7249 128.174 18.945 128.32 18.1368C128.5 17.1728 128.586 16.193 128.578 15.2116V11.4061Z" fill="#0B0B0B"/>
<path d="M144.83 19.0294L149.612 0.348633H155.003L147.336 26.2838H142.361L134.711 0.348633H140.102L144.83 19.0294Z" fill="#0B0B0B"/>
</svg>
