<svg width="101" height="83" viewBox="0 0 101 83" fill="none" xmlns="http://www.w3.org/2000/svg">
<path d="M0 57.1289C0 52.3438 0.634766 47.3145 1.9043 42.041C3.17383 36.7676 4.98047 31.5918 7.32422 26.5137C9.66797 21.4355 12.4512 16.6504 15.6738 12.1582C18.9941 7.56836 22.6562 3.51562 26.6602 0L43.9453 11.4258C39.7461 18.0664 36.4746 25.0488 34.1309 32.373C31.7871 39.6973 30.6152 47.8516 30.6152 56.8359V81.0059H0V57.1289ZM49.0723 57.1289C49.0723 52.3438 49.707 47.3145 50.9766 42.041C52.2461 36.7676 54.0527 31.5918 56.3965 26.5137C58.7402 21.4355 61.5234 16.6504 64.7461 12.1582C68.0664 7.56836 71.7285 3.51562 75.7324 0L93.0176 11.4258C88.8184 18.0664 85.5469 25.0488 83.2031 32.373C80.8594 39.6973 79.6875 47.8516 79.6875 56.8359V81.0059H49.0723V57.1289Z" fill="#0000FF"/>
<path d="M7 59.1289C7 54.3438 7.63477 49.3145 8.9043 44.041C10.1738 38.7676 11.9805 33.5918 14.3242 28.5137C16.668 23.4355 19.4512 18.6504 22.6738 14.1582C25.9941 9.56836 29.6562 5.51562 33.6602 2L50.9453 13.4258C46.7461 20.0664 43.4746 27.0488 41.1309 34.373C38.7871 41.6973 37.6152 49.8516 37.6152 58.8359V83.0059H7V59.1289ZM56.0723 59.1289C56.0723 54.3438 56.707 49.3145 57.9766 44.041C59.2461 38.7676 61.0527 33.5918 63.3965 28.5137C65.7402 23.4355 68.5234 18.6504 71.7461 14.1582C75.0664 9.56836 78.7285 5.51562 82.7324 2L100.018 13.4258C95.8184 20.0664 92.5469 27.0488 90.2031 34.373C87.8594 41.6973 86.6875 49.8516 86.6875 58.8359V83.0059H56.0723V59.1289Z" fill="#BA0000"/>
<path d="M4 57.1289C4 52.3438 4.63477 47.3145 5.9043 42.041C7.17383 36.7676 8.98047 31.5918 11.3242 26.5137C13.668 21.4355 16.4512 16.6504 19.6738 12.1582C22.9941 7.56836 26.6562 3.51562 30.6602 0L47.9453 11.4258C43.7461 18.0664 40.4746 25.0488 38.1309 32.373C35.7871 39.6973 34.6152 47.8516 34.6152 56.8359V81.0059H4V57.1289ZM53.0723 57.1289C53.0723 52.3438 53.707 47.3145 54.9766 42.041C56.2461 36.7676 58.0527 31.5918 60.3965 26.5137C62.7402 21.4355 65.5234 16.6504 68.7461 12.1582C72.0664 7.56836 75.7285 3.51562 79.7324 0L97.0176 11.4258C92.8184 18.0664 89.5469 25.0488 87.2031 32.373C84.8594 39.6973 83.6875 47.8516 83.6875 56.8359V81.0059H53.0723V57.1289Z" fill="#0B0B0B"/>
</svg>
