<svg xmlns="http://www.w3.org/2000/svg" viewBox="0 0 864.67 228.15" id="RGBLogo">
  <defs>
    <style>
      
        .cls-1 { fill: color(prophoto-rgb 1 1 1) !important; }
        .cls-2 { fill: none; }
        .cls-3 { fill: color(prophoto-rgb 0 0 1) !important; }
        .cls-4 { fill: color(prophoto-rgb 0 1 0) !important; }
        .cls-5 { fill: color(prophoto-rgb 0 1 1) !important; }
        .cls-6 { fill: color(prophoto-rgb 1 0 0) !important; }
        .cls-7 { fill: color(prophoto-rgb 1 1 0) !important; }
        .cls-8 { fill: color(prophoto-rgb 1 1 1) !important; }
        .cls-9 { fill: color(prophoto-rgb 1 0.058 1) !important; }

    </style>
  </defs>

  <g id="LINNIKOV_agency" data-name="LINNIKOV agency">
    <g data-name="L">
      <polygon class="cls-1" points="86.78 134.53 13.26 134.53 13.26 1.91 6.76 1.91 6.76 140.93 86.78 140.93 86.78 134.53" />
    </g>
    <g data-name="I-2">
      <polygon data-name="I-2" class="cls-1" points="187.92 134.53 151.55 134.53 151.55 8.5 187.93 8.5 187.92 1.91 109.72 1.91 109.72 8.5 144.76 8.5 144.76 134.53 109.72 134.53 109.72 140.93 187.92 140.93 187.92 134.53" />
    </g>
    <g data-name="N_1">
      <path data-name="N_1" class="cls-1" d="M297.87,140.93H286.5L222.72,23.58l-.09,117.35H211.27V1.91h11.36l63.78,117.15L286.5,1.91h11.37Z" />
    </g>
    <g data-name="N_2">
      <path data-name="N_2" class="cls-1" d="M408.43,140.93H397.07L333.29,23.58l-.1,117.35H321.83V1.91h11.36L397,119.06l.1-117.15h11.36Z" />
    </g>
    <g data-name="I">
      <path data-name="I" class="cls-1" d="M432.39,1.91h84V17.28H483.09V125.65h33.32v15.28h-84V125.65H465V17.28H432.39Z" />
    </g>
    <g data-name="K">
      <path data-name="K" class="cls-1" d="M573.88,76.38,558.41,94v47h-18V1.91h18V69.8L571.88,53,612.65,1.91h21.48l-48.6,60.82,51.84,78.2H615.89Z" />
    </g>
    <g data-name="O">
      <path data-name="O" class="cls-1" d="M740,81.64a82.13,82.13,0,0,1-3.53,24.63,56.88,56.88,0,0,1-10.22,19.38A46.52,46.52,0,0,1,710,138.3a50,50,0,0,1-21.62,4.54A48.51,48.51,0,0,1,667,138.3a44.12,44.12,0,0,1-15.75-12.7,57.53,57.53,0,0,1-9.74-19.38,85.74,85.74,0,0,1-3.34-24.58V61.39a86.24,86.24,0,0,1,3.34-24.63,57.51,57.51,0,0,1,9.74-19.43,45,45,0,0,1,15.7-12.75A47.79,47.79,0,0,1,688.27,0,49.81,49.81,0,0,1,710,4.58a46.91,46.91,0,0,1,16.28,12.75,57.41,57.41,0,0,1,10.22,19.43A82.13,82.13,0,0,1,740,61.39ZM712.81,61.2a83,83,0,0,0-1.38-15.66,40,40,0,0,0-4.35-12.31,22.53,22.53,0,0,0-7.59-8.07,20.68,20.68,0,0,0-11.22-2.91,19.27,19.27,0,0,0-10.88,2.91,21,21,0,0,0-7.07,8.07,40.79,40.79,0,0,0-3.82,12.31,100,100,0,0,0-1.14,15.66V81.64A99.22,99.22,0,0,0,666.5,97.2a42.11,42.11,0,0,0,3.82,12.41,21.26,21.26,0,0,0,7.07,8.21,19.18,19.18,0,0,0,11,3,20.15,20.15,0,0,0,11.12-3,22.54,22.54,0,0,0,7.55-8.16,42.31,42.31,0,0,0,4.34-12.37,80.23,80.23,0,0,0,1.43-15.65Z" />
    </g>
    <g data-name="V">
      <path data-name="V" class="cls-1" d="M802.06,102.07,828.31,1.91h29.6l-42.11,139H788.5l-42-139h29.59Z" />
    </g>
  </g>

  <g id="RGB_LINNIKOV_agency" data-name="RGB_LINNIKOV agency">
    <path class="cls-2" d="M652.24,175.52a8.37,8.37,0,0,0-1.63-2.64,11.42,11.42,0,0,0-2,3,16.91,16.91,0,0,0-1.26,4H653V179A10.84,10.84,0,0,0,652.24,175.52Z" />
    <path class="cls-2" d="M677.08,33.23a40.79,40.79,0,0,0-3.82,12.31,100,100,0,0,0-1.14,15.66V81.64a99.22,99.22,0,0,0,1.14,15.56,42.11,42.11,0,0,0,3.82,12.41,21.26,21.26,0,0,0,7.07,8.21,16.08,16.08,0,0,0,4.22,2,17.83,17.83,0,0,0,4.36-2,22.43,22.43,0,0,0,7.54-8.16,42.31,42.31,0,0,0,4.35-12.37,80.23,80.23,0,0,0,1.43-15.65V61.2a83,83,0,0,0-1.38-15.66,40,40,0,0,0-4.35-12.31,22.53,22.53,0,0,0-7.59-8.07,17.69,17.69,0,0,0-4.38-2,16,16,0,0,0-4.2,2A21,21,0,0,0,677.08,33.23Z" />
    <path class="cls-2" d="M604.93,174.6a8.52,8.52,0,0,0-1.07-1.53,10,10,0,0,0-.82,1.09,14.05,14.05,0,0,0-1.78,4.36,23.3,23.3,0,0,0-.59,5.34v.89a23.41,23.41,0,0,0,.57,5.3,13.54,13.54,0,0,0,1.74,4.28,8.48,8.48,0,0,0,.81,1.06,9.32,9.32,0,0,0,1.14-1.59Z" />
    <path class="cls-2" d="M755.24,178.29h-11a7.78,7.78,0,0,0-.51-3.19,7,7,0,0,0-1.11-1.92,9.34,9.34,0,0,0-.74,1.08,13.88,13.88,0,0,0-1.51,4.32,28.52,28.52,0,0,0-.44,5v1.26a30.26,30.26,0,0,0,.42,5.1,13.21,13.21,0,0,0,1.49,4.32,8.12,8.12,0,0,0,.94,1.3,6.06,6.06,0,0,0,.89-1.33,5.77,5.77,0,0,0,.57-2.89h20.16l-4-13.08h-5.22Z" />
    <path class="cls-2" d="M664.4,188H647.14a12.68,12.68,0,0,0,1.36,4.22,11.54,11.54,0,0,0,4.47,4.59,14.52,14.52,0,0,0,2.33-1.34,11.24,11.24,0,0,0,2.35-2.27l3,3.19a17,17,0,0,0,1.46-.92,11.24,11.24,0,0,0,2.35-2.27l3,3.19a17,17,0,0,0,1.46-.92c.21-.15.38-.32.58-.48v-7Z" />
    <rect class="cls-3" x="13.52" y="1.91" width="6.5" height="132.62" />
    <rect class="cls-3" x="86.78" y="134.53" width="6.76" height="6.4" />
    <rect class="cls-3" x="187.92" y="1.91" width="6.76" height="6.59" />
    <polygon class="cls-3" points="151.55 8.5 151.55 134.53 187.92 134.53 187.92 140.93 194.69 140.93 194.69 134.53 158.31 134.53 158.31 8.5 151.55 8.5" />
    <polygon class="cls-3" points="222.63 140.93 229.39 140.93 229.46 48.42 222.71 36 222.63 140.93" />
    <polygon class="cls-3" points="279.67 94.27 229.39 1.91 222.63 1.91 279.66 106.66 279.67 94.27" />
    <rect class="cls-3" x="297.87" y="1.91" width="6.76" height="139.02" />
    <rect class="cls-3" x="408.43" y="1.91" width="6.76" height="139.02" />
    <polygon class="cls-3" points="333.19 140.93 339.95 140.93 340.03 48.42 333.28 36 333.19 140.93" />
    <polygon class="cls-3" points="390.23 94.27 339.95 1.91 333.19 1.91 390.22 106.66 390.23 94.27" />
    <rect class="cls-3" x="516.41" y="1.91" width="6.76" height="15.37" />
    <rect class="cls-3" x="483.09" y="17.28" width="6.76" height="108.37" />
    <rect class="cls-3" x="516.41" y="125.65" width="6.76" height="15.28" />
    <polygon class="cls-3" points="637.38 140.93 644.13 140.93 592.29 62.73 640.89 1.91 634.13 1.91 585.53 62.73 637.38 140.93" />
    <polygon class="cls-3" points="565.12 52.99 565.17 52.92 565.17 1.91 558.41 1.91 558.41 61.36 565.12 52.99" />
    <polygon class="cls-3" points="558.41 93.95 558.41 140.93 565.17 140.93 565.17 93.95 572.87 85.21 569.99 80.8 558.41 93.95" />
    <path class="cls-3" d="M726.27,17.33a57.41,57.41,0,0,1,10.22,19.43A82.13,82.13,0,0,1,740,61.39V81.64a82.13,82.13,0,0,1-3.53,24.63,56.88,56.88,0,0,1-10.22,19.38A46.52,46.52,0,0,1,710,138.3a48.55,48.55,0,0,1-18.24,4.44c1.11.06,2.23.1,3.38.1a50,50,0,0,0,21.62-4.54A46.52,46.52,0,0,0,733,125.65a56.71,56.71,0,0,0,10.22-19.38,82.13,82.13,0,0,0,3.53-24.63V61.39a82.13,82.13,0,0,0-3.53-24.63A57.23,57.23,0,0,0,733,17.33,46.91,46.91,0,0,0,716.75,4.58,49.81,49.81,0,0,0,695,0c-1.14,0-2.26,0-3.36.1A48.19,48.19,0,0,1,710,4.58,46.91,46.91,0,0,1,726.27,17.33Z" />
    <path class="cls-3" d="M684.15,117.82a21.26,21.26,0,0,1-7.07-8.21,42.11,42.11,0,0,1-3.82-12.41,99.22,99.22,0,0,1-1.14-15.56V61.2a100,100,0,0,1,1.14-15.66,40.79,40.79,0,0,1,3.82-12.31,21,21,0,0,1,7.07-8.07,16,16,0,0,1,4.2-2,20.64,20.64,0,0,0-3.43-.73,17.52,17.52,0,0,0-7.53,2.69,21,21,0,0,0-7.07,8.07,40.79,40.79,0,0,0-3.82,12.31,100,100,0,0,0-1.14,15.66V81.64A99.22,99.22,0,0,0,666.5,97.2a42.11,42.11,0,0,0,3.82,12.41,21.26,21.26,0,0,0,7.07,8.21,17.5,17.5,0,0,0,7.58,2.74,21.33,21.33,0,0,0,3.4-.74A16.08,16.08,0,0,1,684.15,117.82Z" />
    <polygon class="cls-3" points="802.09 76.14 782.84 1.91 776.08 1.91 798.69 89.1 802.09 76.14" />
    <polygon class="cls-3" points="857.91 1.91 815.8 140.93 822.57 140.93 864.67 1.91 857.91 1.91" />
    <path class="cls-3" d="M580.4,201.18a22.11,22.11,0,0,1-3.67-7.27,31.54,31.54,0,0,1-1.28-9.16v-.89a32.93,32.93,0,0,1,1.28-9.43,22.53,22.53,0,0,1,3-6.4,13.42,13.42,0,0,0-3.14-3.37,18.35,18.35,0,0,0-6.15-3,27.91,27.91,0,0,0-7.65-1,30.45,30.45,0,0,0-3.39.2,25.51,25.51,0,0,1,4.28.81,18.35,18.35,0,0,1,6.15,3,13.68,13.68,0,0,1,4.06,5,15.58,15.58,0,0,1,1.47,6.94V196a32.61,32.61,0,0,0,.46,6,15.66,15.66,0,0,0,1.34,4.1v.72h6.76v-.72a13.94,13.94,0,0,1-.88-2.24A18.2,18.2,0,0,1,580.4,201.18Z" />
    <path class="cls-3" d="M554.81,171.31a6.92,6.92,0,0,0-2.69-1.46,5.13,5.13,0,0,0-1.91,1.08,5.33,5.33,0,0,0-1.64,4.09h6.76a6,6,0,0,1,.52-2.51A5.9,5.9,0,0,0,554.81,171.31Z" />
    <path class="cls-3" d="M558.42,206.51a18.16,18.16,0,0,1-2.67.82c-.24,0-.49.07-.73.11a20.75,20.75,0,0,0,3.5.29,19.34,19.34,0,0,0,4-.4c.57-.13,1.12-.28,1.64-.44h-5.56C558.53,206.77,558.48,206.63,558.42,206.51Z" />
    <path class="cls-3" d="M550,188.12a5.86,5.86,0,0,0-1.8,2.27,6.83,6.83,0,0,0-.59,2.87,5.14,5.14,0,0,0,1.65,3.9,5.23,5.23,0,0,0,1.8,1,12.31,12.31,0,0,0,2.45-1,10.12,10.12,0,0,0,1.64-1.14,5.17,5.17,0,0,1-.78-2.8,6.83,6.83,0,0,1,.59-2.87,5.86,5.86,0,0,1,1.8-2.27c.07-.05.16-.1.23-.16v-1.81a16.91,16.91,0,0,0-3.85.5A8.89,8.89,0,0,0,550,188.12Z" />
    <path class="cls-3" d="M612.78,161.51h.15a17.17,17.17,0,0,0-5.55-.84,19.68,19.68,0,0,0-3.31.3,16.1,16.1,0,0,1,2.1.54Z" />
    <path class="cls-3" d="M623.43,174.62a21.94,21.94,0,0,1,4.57-7.4,20.69,20.69,0,0,1,2.15-1.94v-3.77h-6.76v13.23A.56.56,0,0,0,623.43,174.62Z" />
    <path class="cls-3" d="M596.28,174.16a14.05,14.05,0,0,0-1.78,4.36,23.3,23.3,0,0,0-.59,5.34v.89a23.41,23.41,0,0,0,.57,5.3,13.54,13.54,0,0,0,1.74,4.28,8.76,8.76,0,0,0,3,2.87,7.43,7.43,0,0,0,1.11.51,7.78,7.78,0,0,0,1.47-.64,8.37,8.37,0,0,0,2-1.68,8.48,8.48,0,0,1-.81-1.06,13.54,13.54,0,0,1-1.74-4.28,23.41,23.41,0,0,1-.57-5.3v-.89a23.3,23.3,0,0,1,.59-5.34,14.05,14.05,0,0,1,1.78-4.36,10,10,0,0,1,.82-1.09,8,8,0,0,0-2.09-1.76,7.91,7.91,0,0,0-1.39-.61,8.52,8.52,0,0,0-1.1.52A9,9,0,0,0,596.28,174.16Z" />
    <path class="cls-3" d="M623.45,194.37l-.06-.17v11.22a20.39,20.39,0,0,1-1.57,8.22,17.09,17.09,0,0,1-4.4,6.08,19,19,0,0,1-6.8,3.75,25.57,25.57,0,0,1-5,1.05,23.19,23.19,0,0,0,3,.23,28.38,28.38,0,0,0,8.74-1.28,19,19,0,0,0,6.8-3.75,17.09,17.09,0,0,0,4.4-6.08,20.39,20.39,0,0,0,1.57-8.22V203a21.06,21.06,0,0,1-2-1.67A20.49,20.49,0,0,1,623.45,194.37Z" />
    <path class="cls-3" d="M604,207.4l.83.14c0-.12,0-.24.05-.36C604.55,207.26,604.26,207.34,604,207.4Z" />
    <path class="cls-3" d="M598,215.23a9.51,9.51,0,0,0,3.17-1.4,15.66,15.66,0,0,1-4.18-3.38l-2.52,3.41c.26.15.52.3.79.43A14.08,14.08,0,0,0,598,215.23Z" />
    <path class="cls-3" d="M641.74,192.19a11.53,11.53,0,0,0,6.27,5.43c.42.15.85.27,1.29.38a16.24,16.24,0,0,0,3.11-.95c.19-.08.37-.18.56-.27a11.54,11.54,0,0,1-4.47-4.59,12.68,12.68,0,0,1-1.36-4.22h-6.76A12.68,12.68,0,0,0,641.74,192.19Z" />
    <path class="cls-3" d="M667.36,196.36l2,2.19V195c-.2.16-.37.33-.58.48A17,17,0,0,1,667.36,196.36Z" />
    <path class="cls-3" d="M650.61,172.88l-.17-.19a8.39,8.39,0,0,0-2.88-1.89c-.12-.05-.26-.09-.39-.13l-.37.13a8.66,8.66,0,0,0-2.88,2,11.72,11.72,0,0,0-2.07,3.11,16.91,16.91,0,0,0-1.26,4h6.76a16.91,16.91,0,0,1,1.26-4A11.42,11.42,0,0,1,650.61,172.88Z" />
    <path class="cls-3" d="M667.41,202.51a19.35,19.35,0,0,1-4.11,2.64A26.12,26.12,0,0,1,658,207a22.38,22.38,0,0,1-2.8.51,29.57,29.57,0,0,0,3.32.21,25.74,25.74,0,0,0,6.24-.72,27.1,27.1,0,0,0,4.61-1.56v-4.92A18.62,18.62,0,0,1,667.41,202.51Z" />
    <path class="cls-3" d="M665.73,166.84a19.44,19.44,0,0,1,3.67,6.08v-8.77a19.26,19.26,0,0,0-3.41-1.86,22.29,22.29,0,0,0-8.74-1.62,23.57,23.57,0,0,0-3.29.25,20.39,20.39,0,0,1,5.27,1.37A18.18,18.18,0,0,1,665.73,166.84Z" />
    <path class="cls-3" d="M689,161.51h-2.27l.11.91A14.71,14.71,0,0,1,689,161.51Z" />
    <path class="cls-3" d="M712.28,164.89a15,15,0,0,1,3.23,5.66,20.58,20.58,0,0,1,.82,3.55,20.67,20.67,0,0,1,3.81-6.72c.14-.16.3-.3.44-.45a12.27,12.27,0,0,0-6.46-5.25,18.82,18.82,0,0,0-6.29-1,18.18,18.18,0,0,0-3.25.3,17.4,17.4,0,0,1,2.78.71A12.24,12.24,0,0,1,712.28,164.89Z" />
    <path class="cls-3" d="M720.16,201.1a20.71,20.71,0,0,1-3.49-5.88v11.67h6.76v-2.84A18,18,0,0,1,720.16,201.1Z" />
    <path class="cls-3" d="M693.21,170.56a8.93,8.93,0,0,0-2,.79,9.37,9.37,0,0,0-3.39,3.29v32.25h6.76V174.64a9.38,9.38,0,0,1,1.81-2.14,4.52,4.52,0,0,0-.53-.54A6.3,6.3,0,0,0,693.21,170.56Z" />
    <path class="cls-3" d="M762,191.37a13.46,13.46,0,0,1-1.44,6.54,16.06,16.06,0,0,1-4.18,5.2,19.83,19.83,0,0,1-6.14,3.42,22.32,22.32,0,0,1-4.14,1,27.89,27.89,0,0,0,3.5.24,21.9,21.9,0,0,0,7.4-1.24,19.83,19.83,0,0,0,6.14-3.42,16,16,0,0,0,3.57-4.14l-2.29-7.6Z" />
    <path class="cls-3" d="M739.31,170.76l-.18-.06a6.35,6.35,0,0,0-1.11.54,8.43,8.43,0,0,0-2.88,3,13.88,13.88,0,0,0-1.51,4.32,28.52,28.52,0,0,0-.44,5v1.26a30.26,30.26,0,0,0,.42,5.1,13.21,13.21,0,0,0,1.49,4.32,8.36,8.36,0,0,0,2.89,3,6.61,6.61,0,0,0,1.26.59,8.85,8.85,0,0,0,2.62-1.38,7.94,7.94,0,0,0,.93-.9,8.12,8.12,0,0,1-.94-1.3,13.21,13.21,0,0,1-1.49-4.32,30.26,30.26,0,0,1-.42-5.1v-1.26a28.52,28.52,0,0,1,.44-5,13.88,13.88,0,0,1,1.51-4.32,9.34,9.34,0,0,1,.74-1.08,6.57,6.57,0,0,0-.61-.68A8.35,8.35,0,0,0,739.31,170.76Z" />
    <path class="cls-3" d="M756.57,165.41l-1.22-4a24.38,24.38,0,0,0-5.83-.69,26.42,26.42,0,0,0-3.4.24,21.61,21.61,0,0,1,4.39,1A18.42,18.42,0,0,1,756.57,165.41Z" />
    <path class="cls-3" d="M788.86,214.89l-1.54,3.42c-.34.66-.71,1.33-1.13,2a17.61,17.61,0,0,1-3,3.74,15.73,15.73,0,0,1-4.38,2.89,12.81,12.81,0,0,1-2.73.86l.45.08c.45.07.91.13,1.38.17s1,.06,1.56.06a14.69,14.69,0,0,0,6.1-1.17,15.73,15.73,0,0,0,4.38-2.89,17.61,17.61,0,0,0,3-3.74c.42-.71.8-1.38,1.13-2l1.54-3.42L811.93,161h-6.76Z" />
    <polygon class="cls-3" points="781.93 180.17 783.57 173.91 780.23 161.03 773.47 161.03 780.17 186.87 781.93 180.17" />
    <rect class="cls-4" x="6.76" y="1.91" width="6.5" height="132.62" />
    <rect class="cls-5" x="80.01" y="134.53" width="6.76" height="6.4" />
    <rect class="cls-4" x="144.79" y="8.5" width="6.74" height="126.03" />
    <polygon class="cls-5" points="151.55 134.53 151.55 8.5 151.53 8.5 151.53 134.53 181.16 134.53 181.16 140.93 187.92 140.93 187.92 134.53 151.55 134.53" />
    <rect class="cls-5" x="181.16" y="1.91" width="6.76" height="6.59" />
    <polygon class="cls-4" points="293.17 119.06 293.26 1.91 291.11 1.91 291.11 115.27 293.17 119.06" />
    <polygon class="cls-4" points="215.96 23.58 215.87 140.93 218.03 140.93 218.03 27.38 215.96 23.58" />
    <polygon class="cls-5" points="218.03 1.91 215.87 1.91 218.03 5.87 218.03 1.91" />
    <polygon class="cls-4" points="229.48 26.91 279.65 119.06 279.65 115.88 229.48 23.58 229.48 26.91" />
    <polygon class="cls-5" points="291.11 140.93 293.26 140.93 291.11 136.96 291.11 140.93" />
    <polygon class="cls-5" points="229.48 26.91 229.48 23.58 279.65 115.88 279.66 106.66 222.63 1.91 218.03 1.91 218.03 5.87 229.48 26.91" />
    <polygon class="cls-5" points="218.03 27.38 218.03 140.93 222.63 140.93 222.71 36 218.03 27.38" />
    <polygon class="cls-5" points="293.26 1.91 293.17 119.06 291.11 115.27 291.11 136.96 293.26 140.93 297.87 140.93 297.87 1.91 293.26 1.91" />
    <polygon class="cls-5" points="328.59 1.91 326.43 1.91 328.59 5.87 328.59 1.91" />
    <polygon class="cls-4" points="403.73 119.06 403.83 1.91 401.67 1.91 401.67 115.27 403.73 119.06" />
    <polygon class="cls-5" points="401.67 140.93 403.83 140.93 401.67 136.96 401.67 140.93" />
    <polygon class="cls-4" points="326.53 23.58 326.43 140.93 328.59 140.93 328.59 27.38 326.53 23.58" />
    <polygon class="cls-4" points="340.05 26.91 390.21 119.06 390.21 115.88 340.05 23.58 340.05 26.91" />
    <polygon class="cls-5" points="328.59 27.38 328.59 140.93 333.19 140.93 333.28 36 328.59 27.38" />
    <polygon class="cls-5" points="340.05 26.91 340.05 23.58 390.21 115.88 390.22 106.66 333.19 1.91 328.59 1.91 328.59 5.87 340.05 26.91" />
    <polygon class="cls-5" points="403.83 1.91 403.73 119.06 401.67 115.27 401.67 136.96 403.83 140.93 408.43 140.93 408.43 1.91 403.83 1.91" />
    <rect class="cls-5" x="476.33" y="17.28" width="6.76" height="108.37" />
    <rect class="cls-5" x="509.65" y="125.65" width="6.76" height="15.28" />
    <rect class="cls-5" x="509.65" y="1.91" width="6.76" height="15.37" />
    <polygon class="cls-5" points="558.41 61.36 558.41 1.91 551.65 1.91 551.65 69.8 558.41 61.36" />
    <polygon class="cls-5" points="630.61 140.93 637.38 140.93 585.53 62.73 634.13 1.91 627.37 1.91 578.77 62.73 630.61 140.93" />
    <polygon class="cls-5" points="569.99 80.8 567.12 76.39 551.65 93.95 551.65 140.93 558.41 140.93 558.41 93.95 569.99 80.8" />
    <path class="cls-5" d="M691.67.1c-1.12-.06-2.25-.1-3.4-.1S686,0,684.91.1c1.15.07,2.28.17,3.4.3Q690,.21,691.67.1Z" />
    <path class="cls-5" d="M685,142.74c1.11.06,2.23.1,3.38.1s2.27,0,3.38-.1c-1.14-.07-2.27-.17-3.37-.3Q686.71,142.64,685,142.74Z" />
    <path class="cls-5" d="M703.23,4.58a46.91,46.91,0,0,1,16.28,12.75,57.41,57.41,0,0,1,10.22,19.43,82.13,82.13,0,0,1,3.53,24.63V81.64a82.13,82.13,0,0,1-3.53,24.63,56.88,56.88,0,0,1-10.22,19.38,46.52,46.52,0,0,1-16.28,12.65,47.07,47.07,0,0,1-14.85,4.14c1.1.13,2.23.23,3.37.3A48.55,48.55,0,0,0,710,138.3a46.52,46.52,0,0,0,16.28-12.65,56.88,56.88,0,0,0,10.22-19.38A82.13,82.13,0,0,0,740,81.64V61.39a82.13,82.13,0,0,0-3.53-24.63,57.41,57.41,0,0,0-10.22-19.43A46.91,46.91,0,0,0,710,4.58,48.19,48.19,0,0,0,691.67.1q-1.71.11-3.36.3A47,47,0,0,1,703.23,4.58Z" />
    <path class="cls-5" d="M670.32,109.61A42.11,42.11,0,0,1,666.5,97.2a99.22,99.22,0,0,1-1.14-15.56V61.2a100,100,0,0,1,1.14-15.66,40.79,40.79,0,0,1,3.82-12.31,21,21,0,0,1,7.07-8.07,17.52,17.52,0,0,1,7.53-2.69,25,25,0,0,0-3.41-.22,19.25,19.25,0,0,0-10.88,2.91,21,21,0,0,0-7.07,8.07,40.79,40.79,0,0,0-3.82,12.31A100,100,0,0,0,658.6,61.2V81.64a99.22,99.22,0,0,0,1.14,15.56,42.11,42.11,0,0,0,3.82,12.41,21.26,21.26,0,0,0,7.07,8.21,19.15,19.15,0,0,0,11,3,25.86,25.86,0,0,0,3.36-.22,17.5,17.5,0,0,1-7.58-2.74A21.26,21.26,0,0,1,670.32,109.61Z" />
    <polygon class="cls-5" points="851.15 1.91 809.04 140.93 815.8 140.93 857.91 1.91 851.15 1.91" />
    <polygon class="cls-5" points="798.69 89.1 776.08 1.91 769.32 1.91 795.29 102.07 798.69 89.1" />
    <path class="cls-4" d="M559.41,160.87a28.75,28.75,0,0,0-6.77,0,25.61,25.61,0,0,1,3.38.59A24.92,24.92,0,0,1,559.41,160.87Z" />
    <path class="cls-4" d="M544.19,187.49a7.3,7.3,0,0,0-1,.63,6,6,0,0,0-1.81,2.27,7,7,0,0,0-.58,2.87,5.14,5.14,0,0,0,1.65,3.9,4.2,4.2,0,0,0,.68.49,13.1,13.1,0,0,1-.47-3.47A14.32,14.32,0,0,1,544.19,187.49Z" />
    <path class="cls-4" d="M568.61,179.17h1.86v-2.69a6.58,6.58,0,0,0-2.13-5.17,6.34,6.34,0,0,0-.73-.55,16.39,16.39,0,0,1,1,5.81Z" />
    <path class="cls-4" d="M543.45,170.93a5.33,5.33,0,0,0-1.64,4.09h1.87a12.14,12.14,0,0,1,1-4.91A4.5,4.5,0,0,0,543.45,170.93Z" />
    <path class="cls-4" d="M551.62,206.52a17.75,17.75,0,0,1-2.64.81c-.23,0-.48.07-.72.11a20.75,20.75,0,0,0,3.5.29,19.76,19.76,0,0,0,3.26-.29,17.7,17.7,0,0,1-2.89-.72C552,206.66,551.79,206.59,551.62,206.52Z" />
    <path class="cls-4" d="M568.61,196.07c.16-.13.33-.26.48-.4a7.63,7.63,0,0,0,1.38-1.74v-7.8h-1.86v9.94Z" />
    <path class="cls-4" d="M570.89,202.65a13.86,13.86,0,0,1-1.36,1.28,13.94,13.94,0,0,0,.88,2.24v.72h1.7a9.85,9.85,0,0,1-.71-1.93Q571.1,203.86,570.89,202.65Z" />
    <path class="cls-5" d="M550.75,198.29l.27-.09a5.23,5.23,0,0,1-1.8-1,5.14,5.14,0,0,1-1.65-3.9,6.83,6.83,0,0,1,.59-2.87,5.86,5.86,0,0,1,1.8-2.27,8.89,8.89,0,0,1,3.14-1.47,16.91,16.91,0,0,1,3.85-.5v0h-6a18,18,0,0,0-4.66.52,11.2,11.2,0,0,0-2.15.84,14.32,14.32,0,0,0-1.52,6.69,13.1,13.1,0,0,0,.47,3.47,7.89,7.89,0,0,0,4.34,1.06A12.2,12.2,0,0,0,550.75,198.29Z" />
    <path class="cls-5" d="M552.12,169.85a12.17,12.17,0,0,0-3.47-.45,9.45,9.45,0,0,0-3.94.71,12.14,12.14,0,0,0-1,4.91h4.89a5.33,5.33,0,0,1,1.64-4.09A5.13,5.13,0,0,1,552.12,169.85Z" />
    <path class="cls-5" d="M575.83,202.07a32.61,32.61,0,0,1-.46-6V176.57a15.58,15.58,0,0,0-1.47-6.94,13.68,13.68,0,0,0-4.06-5,18.35,18.35,0,0,0-6.15-3,25.51,25.51,0,0,0-4.28-.81,24.92,24.92,0,0,0-3.39.59l.91.22a18.35,18.35,0,0,1,6.15,3,13.68,13.68,0,0,1,4.06,5c.18.36.32.74.47,1.13a6.34,6.34,0,0,1,.73.55,6.58,6.58,0,0,1,2.13,5.17v2.69h-1.86v7h1.86v7.8a7.63,7.63,0,0,1-1.38,1.74c-.15.14-.32.27-.48.4a33.1,33.1,0,0,0,.46,6c.13.66.29,1.27.46,1.86a13.86,13.86,0,0,0,1.36-1.28q.21,1.22.51,2.31a9.85,9.85,0,0,0,.71,1.93h5.06v-.72A15.66,15.66,0,0,1,575.83,202.07Z" />
    <path class="cls-5" d="M558.42,206.51a11.21,11.21,0,0,1-.54-1.55q-.3-1.1-.51-2.31a14.71,14.71,0,0,1-2.22,2,15.21,15.21,0,0,1-2.79,1.62c-.23.1-.49.19-.74.28.17.07.33.14.51.2a17.7,17.7,0,0,0,2.89.72c.24,0,.49-.06.73-.11A18.16,18.16,0,0,0,558.42,206.51Z" />
    <path class="cls-4" d="M602.31,223.9a26.82,26.82,0,0,1-3.46.62,23.19,23.19,0,0,0,3,.23,32.06,32.06,0,0,0,3.73-.23c-.45-.06-.9-.1-1.37-.19C603.59,224.22,603,224.07,602.31,223.9Z" />
    <path class="cls-4" d="M600.13,206.47a13.56,13.56,0,0,1-2.93.93,18,18,0,0,0,3.34.33,17,17,0,0,0,3.42-.33,15.41,15.41,0,0,1-3.53-1.09Z" />
    <path class="cls-4" d="M618.45,193.8V174.6a8.65,8.65,0,0,0-1.82-2.3v23.77A8.66,8.66,0,0,0,618.45,193.8Z" />
    <path class="cls-4" d="M619.08,165.83l.46-4.32h-2.91v2A14,14,0,0,1,619.08,165.83Z" />
    <path class="cls-4" d="M593.18,215.54l1.24-1.68a15.5,15.5,0,0,1-4.24-3.41l-2.52,3.41c.26.15.52.3.79.43A14.09,14.09,0,0,0,593.18,215.54Z" />
    <path class="cls-4" d="M604.07,161a19.18,19.18,0,0,0-6.76,0,13.61,13.61,0,0,1,3.29,1A16.37,16.37,0,0,1,604.07,161Z" />
    <path class="cls-4" d="M615.11,213.5c.21-.17.41-.33.6-.51q2.74-2.62,2.74-7.44v-2.61a14.47,14.47,0,0,1-1.82,1.69v.79A20.46,20.46,0,0,1,615.11,213.5Z" />
    <path class="cls-4" d="M589,184.75v-.89a32.93,32.93,0,0,1,1.28-9.43c.21-.69.44-1.36.69-2a9.3,9.3,0,0,0-1.42,1.73,13.81,13.81,0,0,0-1.78,4.36,23.3,23.3,0,0,0-.59,5.34v.89a23.41,23.41,0,0,0,.57,5.3,13.54,13.54,0,0,0,1.74,4.28,8.62,8.62,0,0,0,1.62,1.87,22.07,22.07,0,0,1-.83-2.29A31.54,31.54,0,0,1,589,184.75Z" />
    <path class="cls-5" d="M600.7,162a13.65,13.65,0,0,1,4.86,3.81l.46-4.32h.15a16.1,16.1,0,0,0-2.1-.54,16.37,16.37,0,0,0-3.47,1Z" />
    <path class="cls-5" d="M604.93,205.55v-2.61a14.65,14.65,0,0,1-4.5,3.37A15.41,15.41,0,0,0,604,207.4c.3-.06.59-.14.88-.22C604.89,206.65,604.93,206.12,604.93,205.55Z" />
    <path class="cls-5" d="M594.53,215.61a14.5,14.5,0,0,0,3.42-.38,14.08,14.08,0,0,1-2.74-.94c-.27-.13-.53-.28-.79-.43l-1.24,1.68C593.62,215.58,594.07,215.61,594.53,215.61Z" />
    <path class="cls-5" d="M617.42,219.72a17.09,17.09,0,0,0,4.4-6.08,20.39,20.39,0,0,0,1.57-8.22V194.2a22.2,22.2,0,0,1-1.6-8.41v-1.67a26.57,26.57,0,0,1,1.6-9.38V161.51h-3.85l-.46,4.32a14,14,0,0,0-2.45-2.35v8.82a8.65,8.65,0,0,1,1.82,2.3v19.2a8.66,8.66,0,0,1-1.82,2.27v8.56a14.47,14.47,0,0,0,1.82-1.69v2.61q0,4.81-2.74,7.44c-.19.18-.39.34-.6.51,0,0,0,.09-.05.14a17.09,17.09,0,0,1-4.4,6.08,19,19,0,0,1-6.8,3.75c-.5.17-1,.3-1.55.43.64.17,1.28.32,1.93.43.47.09.92.13,1.37.19a25.57,25.57,0,0,0,5-1.05A19,19,0,0,0,617.42,219.72Z" />
    <path class="cls-5" d="M596.71,198.25a11.2,11.2,0,0,0,3.59-.54,7.43,7.43,0,0,1-1.11-.51,8.76,8.76,0,0,1-3-2.87,13.54,13.54,0,0,1-1.74-4.28,23.41,23.41,0,0,1-.57-5.3v-.89a23.3,23.3,0,0,1,.59-5.34,14.05,14.05,0,0,1,1.78-4.36,9,9,0,0,1,3-2.94,8.52,8.52,0,0,1,1.1-.52,10.94,10.94,0,0,0-3.58-.55,8.26,8.26,0,0,0-4.28,1.07,8.83,8.83,0,0,0-1.58,1.21c-.25.64-.48,1.31-.69,2a32.93,32.93,0,0,0-1.28,9.43v.89a31.54,31.54,0,0,0,1.28,9.16,22.07,22.07,0,0,0,.83,2.29,8.28,8.28,0,0,0,1.35,1A8.38,8.38,0,0,0,596.71,198.25Z" />
    <path class="cls-4" d="M635.41,188h-1.79a12.68,12.68,0,0,0,1.36,4.22,11.55,11.55,0,0,0,2.43,3.1c-.15-.3-.31-.6-.44-.92A21.9,21.9,0,0,1,635.41,188Z" />
    <path class="cls-4" d="M638.23,171.86a9.38,9.38,0,0,0-1.07.93,11.72,11.72,0,0,0-2.07,3.11,16.91,16.91,0,0,0-1.26,4h1.79a25.09,25.09,0,0,1,1.33-5.3A24,24,0,0,1,638.23,171.86Z" />
    <path class="cls-4" d="M654,160.92a25.87,25.87,0,0,0-3.47-.25,23.57,23.57,0,0,0-3.29.25,21.68,21.68,0,0,1,3.41.71A21.4,21.4,0,0,1,654,160.92Z" />
    <path class="cls-4" d="M662.06,195.44a17,17,0,0,1-1.46.92l1.62,1.75.46-.07a17,17,0,0,0,3.25-1,14.48,14.48,0,0,0,1.43-.69l-3-3.19A11.24,11.24,0,0,1,662.06,195.44Z" />
    <path class="cls-4" d="M651.27,207a22.38,22.38,0,0,1-2.8.51,27.3,27.3,0,0,0,6.76,0,25.36,25.36,0,0,1-3.47-.64Z" />
    <path class="cls-4" d="M664.24,179.92h2.23V179a10.84,10.84,0,0,0-.71-3.48,8.25,8.25,0,0,0-1.8-2.83,8.1,8.1,0,0,0-2.1-1.53A23.23,23.23,0,0,1,663,173.9,27.34,27.34,0,0,1,664.24,179.92Z" />
    <path class="cls-5" d="M641.25,197.62a13,13,0,0,0,4.49.75,17.93,17.93,0,0,0,3.42-.33l.14,0c-.44-.11-.87-.23-1.29-.38a11.53,11.53,0,0,1-6.27-5.43,12.68,12.68,0,0,1-1.36-4.22h-5a21.9,21.9,0,0,0,1.56,6.4c.13.32.29.62.44.92.07.06.13.13.19.19A11.7,11.7,0,0,0,641.25,197.62Z" />
    <path class="cls-5" d="M663.3,205.15a19.35,19.35,0,0,0,4.11-2.64,18.62,18.62,0,0,0,2-2v-2l-2-2.19a14.48,14.48,0,0,1-1.43.69,17,17,0,0,1-3.25,1l-.46.07,1.26,1.35a16.88,16.88,0,0,1-2.83,3,19.35,19.35,0,0,1-4.11,2.64,26.6,26.6,0,0,1-4.78,1.73,25.36,25.36,0,0,0,3.47.64A22.38,22.38,0,0,0,658,207,26.12,26.12,0,0,0,663.3,205.15Z" />
    <path class="cls-5" d="M652.47,162.29a18.18,18.18,0,0,1,6.5,4.55,18.74,18.74,0,0,1,2.89,4.32,8.1,8.1,0,0,1,2.1,1.53,8.25,8.25,0,0,1,1.8,2.83,10.84,10.84,0,0,1,.71,3.48v.92h-2.23c.1,1,.16,2,.16,3.11V188h5V172.92a19.44,19.44,0,0,0-3.67-6.08,18.18,18.18,0,0,0-6.5-4.55,20.39,20.39,0,0,0-5.27-1.37,21.4,21.4,0,0,0-3.35.71A18.58,18.58,0,0,1,652.47,162.29Z" />
    <path class="cls-5" d="M641.85,175.9a11.72,11.72,0,0,1,2.07-3.11,8.66,8.66,0,0,1,2.88-2l.37-.13a10.46,10.46,0,0,0-3.53-.56,9.17,9.17,0,0,0-3.6.69,8.18,8.18,0,0,0-1.81,1.06,24,24,0,0,0-1.28,2.76,25.09,25.09,0,0,0-1.33,5.3h5A16.91,16.91,0,0,1,641.85,175.9Z" />
    <path class="cls-4" d="M701.3,162a15.39,15.39,0,0,1,3.28-1,20.76,20.76,0,0,0-3.51-.3,18.1,18.1,0,0,0-3.25.3,17.4,17.4,0,0,1,2.78.71C700.84,161.77,701.06,161.88,701.3,162Z" />
    <path class="cls-4" d="M711.16,174.7a6.38,6.38,0,0,0-1.74-2.74c-.11-.1-.24-.19-.36-.28a28.51,28.51,0,0,1,.84,7.28v27.93h1.87V179.13A13.52,13.52,0,0,0,711.16,174.7Z" />
    <path class="cls-4" d="M681.09,174.64v32.25h1.83v-34.4A10,10,0,0,0,681.09,174.64Z" />
    <path class="cls-4" d="M682.92,165.24v-3.73h-3l.72,6.29A17.87,17.87,0,0,1,682.92,165.24Z" />
    <path class="cls-5" d="M691.25,171.35a8.93,8.93,0,0,1,2-.79h0a14.63,14.63,0,0,0-3.6-.4,10.08,10.08,0,0,0-5.08,1.2,8.87,8.87,0,0,0-1.57,1.14v34.4h4.94V174.64A9.37,9.37,0,0,1,691.25,171.35Z" />
    <path class="cls-5" d="M716.14,193.82a28.58,28.58,0,0,1-1.36-8.95v-1.26a28.92,28.92,0,0,1,1.34-9c.06-.19.14-.37.21-.56a20.58,20.58,0,0,0-.82-3.55,15,15,0,0,0-3.23-5.66,12.24,12.24,0,0,0-4.92-3.21,17.4,17.4,0,0,0-2.78-.71,15.39,15.39,0,0,0-3.28,1,12.15,12.15,0,0,1,4.22,2.91,15,15,0,0,1,3.23,5.66c.12.36.21.75.31,1.13.12.09.25.18.36.28a6.38,6.38,0,0,1,1.74,2.74,13.52,13.52,0,0,1,.61,4.43v27.76h4.9V195.22C716.48,194.76,716.29,194.31,716.14,193.82Z" />
    <path class="cls-5" d="M686.59,162.54l.24-.12-.11-.91h-3.8v3.73A16.71,16.71,0,0,1,686.59,162.54Z" />
    <path class="cls-4" d="M728.3,184.87v-1.26a28.92,28.92,0,0,1,1.34-9,21,21,0,0,1,1.34-3.22,8.38,8.38,0,0,0-2.6,2.82,13.88,13.88,0,0,0-1.51,4.32,28.52,28.52,0,0,0-.44,5v1.26a30.26,30.26,0,0,0,.42,5.1,13.21,13.21,0,0,0,1.49,4.32,8.37,8.37,0,0,0,2.73,2.88,22.29,22.29,0,0,1-1.41-3.35A28.58,28.58,0,0,1,728.3,184.87Z" />
    <path class="cls-4" d="M746.12,160.91a24.64,24.64,0,0,0-3.37-.24,26.39,26.39,0,0,0-3.39.24,21.94,21.94,0,0,1,3.32.7A21.82,21.82,0,0,1,746.12,160.91Z" />
    <path class="cls-4" d="M757.78,178.29a7.78,7.78,0,0,0-.51-3.19,7.08,7.08,0,0,0-1.72-2.6,8.27,8.27,0,0,0-1.52-1.14,17,17,0,0,1,1.21,6.93Z" />
    <path class="cls-4" d="M739.34,207.53a27.89,27.89,0,0,0,3.5.24,23.38,23.38,0,0,0,3.26-.24,22.5,22.5,0,0,1-3.53-.72A21.88,21.88,0,0,1,739.34,207.53Z" />
    <path class="cls-4" d="M754.05,197.34a8.71,8.71,0,0,0,1.34-.85,6.51,6.51,0,0,0,1.82-2.23,5.77,5.77,0,0,0,.57-2.89h-2.54A13.66,13.66,0,0,1,754.05,197.34Z" />
    <path class="cls-5" d="M756.38,203.11a16.06,16.06,0,0,0,4.18-5.2,13.46,13.46,0,0,0,1.44-6.54h-4.22a5.77,5.77,0,0,1-.57,2.89,6.51,6.51,0,0,1-1.82,2.23,8.71,8.71,0,0,1-1.34.85c-.09.19-.16.38-.25.57a16.06,16.06,0,0,1-4.18,5.2,19.83,19.83,0,0,1-6.14,3.42c-.3.11-.6.19-.91.28a9,9,0,0,0,7.67-.28A19.83,19.83,0,0,0,756.38,203.11Z" />
    <path class="cls-5" d="M735.87,198.42a10.46,10.46,0,0,0,3.27-.51l.11,0a6.61,6.61,0,0,1-1.26-.59,8.36,8.36,0,0,1-2.89-3,13.21,13.21,0,0,1-1.49-4.32,30.26,30.26,0,0,1-.42-5.1v-1.26a28.52,28.52,0,0,1,.44-5,13.88,13.88,0,0,1,1.51-4.32,8.43,8.43,0,0,1,2.88-3,6.35,6.35,0,0,1,1.11-.54,9.13,9.13,0,0,0-3.3-.59,8.48,8.48,0,0,0-4.57,1.13c-.1.06-.19.14-.28.2a21,21,0,0,0-1.34,3.22,28.92,28.92,0,0,0-1.34,9v1.26a28.58,28.58,0,0,0,1.36,8.95,22.29,22.29,0,0,0,1.41,3.35l.16.11A8.62,8.62,0,0,0,735.87,198.42Z" />
    <path class="cls-5" d="M743.75,161.93a18.29,18.29,0,0,1,6.15,3.55,15.73,15.73,0,0,1,4,5.53c.05.11.08.24.13.35a8.27,8.27,0,0,1,1.52,1.14,7.08,7.08,0,0,1,1.72,2.6,7.78,7.78,0,0,1,.51,3.19h2.68l-3.89-12.88a18.42,18.42,0,0,0-6.06-3.48,9.42,9.42,0,0,0-7.83-.32C743,161.71,743.4,161.81,743.75,161.93Z" />
    <path class="cls-4" d="M773.81,227.32l.46-1.55a17.36,17.36,0,0,1-2.22,1.21,12.81,12.81,0,0,1-2.73.86l.45.08c.45.07.91.13,1.38.17s1,.06,1.56.06a17,17,0,0,0,3.37-.31c-.29-.05-.58-.1-.87-.17Z" />
    <polygon class="cls-4" points="778.5 193.25 768.77 161.03 766.71 161.03 776.77 199.83 778.5 193.25" />
    <path class="cls-4" d="M780.56,218.31a2.12,2.12,0,0,1-.11.21,3.76,3.76,0,0,0,2.09-.81,9.89,9.89,0,0,0,1.82-1.84c.25-.34.48-.66.68-1h0l-1-3.42-.44-1.44-1.47,4.86Z" />
    <polygon class="cls-4" points="790.29 199.83 792.72 190.59 795.45 180.17 800.47 161.03 798.41 161.03 788.62 193.37 790.29 199.83" />
    <polygon class="cls-5" points="779.2 190.59 780.17 186.87 773.47 161.03 768.77 161.03 778.5 193.25 779.2 190.59" />
    <path class="cls-5" d="M783.19,224.09a17.61,17.61,0,0,0,3-3.74c.42-.71.79-1.38,1.13-2l1.54-3.42L805.17,161h-4.7l-5,19.14-2.73,10.42-2.42,9.24-1.68-6.46-5,16.66.44,1.44,1,3.42h0c-.2.31-.43.63-.68,1a9.89,9.89,0,0,1-1.82,1.84,3.76,3.76,0,0,1-2.09.81c-.31.59-.64,1.2-1,1.83a17.61,17.61,0,0,1-3,3.74,14.62,14.62,0,0,1-2.16,1.68l-.46,1.55,1.4.35c.29.07.58.12.87.17a12.81,12.81,0,0,0,2.73-.86A15.73,15.73,0,0,0,783.19,224.09Z" />
    <polygon class="cls-6" points="6.5 134.53 6.5 1.91 0 1.91 0 140.93 6.76 140.93 6.76 134.53 6.5 134.53" />
    <polygon class="cls-7" points="13.26 134.53 6.76 134.53 6.76 140.93 13.52 140.93 13.52 134.53 13.26 134.53" />
    <polygon class="cls-8" points="20.02 134.53 13.52 134.53 13.52 140.93 80.02 140.93 80.02 134.53 20.02 134.53" />
    <rect class="cls-6" x="102.96" y="134.53" width="6.76" height="6.4" />
    <rect class="cls-6" x="138" y="8.5" width="6.76" height="126.03" />
    <rect class="cls-6" x="102.96" y="1.91" width="6.76" height="6.59" />
    <rect class="cls-7" x="109.72" y="1.91" width="6.76" height="6.59" />
    <polygon class="cls-6" points="144.76 8.5 144.76 134.53 151.53 134.53 151.53 134.53 144.79 134.53 144.79 8.5 151.53 8.5 151.53 8.5 144.76 8.5" />
    <rect class="cls-7" x="109.72" y="134.53" width="6.76" height="6.4" />
    <polygon class="cls-8" points="151.53 8.5 151.53 8.5 151.55 8.5 158.31 8.5 181.16 8.5 181.16 1.91 116.48 1.91 116.48 8.5 138 8.5 144.76 8.5 151.53 8.5" />
    <polygon class="cls-8" points="151.53 134.53 151.53 134.53 144.76 134.53 138 134.53 116.48 134.53 116.48 140.93 181.16 140.93 181.16 134.53 151.53 134.53" />
    <polygon class="cls-6" points="229.46 48.42 279.74 140.93 286.5 140.93 229.47 36 229.46 48.42" />
    <polygon class="cls-6" points="286.5 1.91 279.74 1.91 279.67 94.27 286.42 106.66 286.5 1.91" />
    <rect class="cls-6" x="204.51" y="1.91" width="6.76" height="139.02" />
    <polygon class="cls-9" points="222.72 23.58 222.71 36 229.46 48.42 229.47 36 222.72 23.58" />
    <polygon class="cls-9" points="286.41 119.06 286.42 106.66 279.67 94.27 279.66 106.66 286.41 119.06" />
    <polygon class="cls-7" points="218.03 27.38 218.03 5.87 215.87 1.91 211.27 1.91 211.27 140.93 215.87 140.93 215.96 23.58 218.03 27.38" />
    <polygon class="cls-7" points="279.65 115.88 279.65 119.06 229.48 26.91 229.47 36 286.5 140.93 291.11 140.93 291.11 136.96 279.65 115.88" />
    <polygon class="cls-7" points="291.11 115.27 291.11 1.91 286.5 1.91 286.42 106.66 291.11 115.27" />
    <polygon class="cls-8" points="218.03 27.38 222.71 36 222.72 23.58 229.47 36 229.48 26.91 218.03 5.87 218.03 27.38" />
    <polygon class="cls-8" points="286.41 119.06 279.66 106.66 279.65 115.88 291.11 136.96 291.11 115.27 286.42 106.66 286.41 119.06" />
    <rect class="cls-6" x="315.07" y="1.91" width="6.76" height="139.02" />
    <polygon class="cls-6" points="397.07 1.91 390.31 1.91 390.23 94.27 396.98 106.66 397.07 1.91" />
    <polygon class="cls-6" points="340.03 48.42 390.31 140.93 397.07 140.93 340.04 36 340.03 48.42" />
    <polygon class="cls-9" points="396.97 119.06 396.98 106.66 390.23 94.27 390.22 106.66 396.97 119.06" />
    <polygon class="cls-9" points="333.29 23.58 333.28 36 340.03 48.42 340.04 36 333.29 23.58" />
    <polygon class="cls-7" points="328.59 27.38 328.59 5.87 326.43 1.91 321.83 1.91 321.83 140.93 326.43 140.93 326.53 23.58 328.59 27.38" />
    <polygon class="cls-7" points="390.21 115.88 390.21 119.06 340.05 26.91 340.04 36 397.07 140.93 401.67 140.93 401.67 136.96 390.21 115.88" />
    <polygon class="cls-7" points="401.67 115.27 401.67 1.91 397.07 1.91 396.98 106.66 401.67 115.27" />
    <polygon class="cls-8" points="328.59 27.38 333.28 36 333.29 23.58 340.04 36 340.05 26.91 328.59 5.87 328.59 27.38" />
    <polygon class="cls-8" points="396.97 119.06 390.22 106.66 390.21 115.88 401.67 136.96 401.67 115.27 396.98 106.66 396.97 119.06" />
    <rect class="cls-6" x="458.19" y="17.28" width="6.76" height="108.37" />
    <rect class="cls-6" x="425.63" y="1.91" width="6.76" height="15.37" />
    <rect class="cls-6" x="425.63" y="125.65" width="6.76" height="15.28" />
    <rect class="cls-7" x="432.39" y="1.91" width="6.76" height="15.37" />
    <rect class="cls-7" x="432.39" y="125.65" width="6.76" height="15.28" />
    <rect class="cls-7" x="464.95" y="17.28" width="6.76" height="108.37" />
    <polygon class="cls-8" points="439.15 1.91 439.15 17.28 458.19 17.28 464.95 17.28 471.71 17.28 471.71 125.65 464.95 125.65 458.19 125.65 439.15 125.65 439.15 140.93 509.65 140.93 509.65 125.65 489.85 125.65 483.09 125.65 476.33 125.65 476.33 17.28 483.09 17.28 489.85 17.28 509.65 17.28 509.65 1.91 439.15 1.91" />
    <rect class="cls-6" x="533.61" y="1.91" width="6.76" height="139.02" />
    <polygon class="cls-6" points="572.87 85.21 609.13 140.93 615.89 140.93 576.75 80.8 572.87 85.21" />
    <polygon class="cls-6" points="571.88 52.99 612.64 1.91 605.88 1.91 565.17 52.92 565.17 61.36 571.88 52.99" />
    <polygon class="cls-9" points="573.88 76.39 569.99 80.8 572.87 85.21 576.75 80.8 573.88 76.39" />
    <polygon class="cls-9" points="558.41 61.36 558.41 69.8 565.17 61.36 565.17 52.92 565.12 52.99 558.41 61.36" />
    <polygon class="cls-7" points="576.75 80.8 615.89 140.93 622.65 140.93 580.64 76.39 576.75 80.8" />
    <rect class="cls-7" x="540.37" y="1.91" width="6.76" height="139.02" />
    <polygon class="cls-7" points="565.17 61.36 565.17 69.8 578.64 52.99 619.41 1.91 612.64 1.91 571.88 52.99 565.17 61.36" />
    <polygon class="cls-8" points="551.65 140.93 551.65 93.95 567.12 76.39 569.99 80.8 573.88 76.39 576.75 80.8 580.64 76.39 622.65 140.93 630.61 140.93 578.77 62.73 627.37 1.91 619.41 1.91 578.64 52.99 565.17 69.8 565.17 61.36 558.41 69.8 558.41 61.36 551.65 69.8 551.65 1.91 547.13 1.91 547.13 140.93 551.65 140.93" />
    <path class="cls-6" d="M631.39,61.39V81.64a85.74,85.74,0,0,0,3.34,24.58,57.53,57.53,0,0,0,9.74,19.38,44.12,44.12,0,0,0,15.75,12.7,48.51,48.51,0,0,0,21.39,4.54c1.14,0,2.27,0,3.38-.1a46.87,46.87,0,0,1-18-4.44,44.12,44.12,0,0,1-15.75-12.7,57.53,57.53,0,0,1-9.74-19.38,85.74,85.74,0,0,1-3.34-24.58V61.39a86.24,86.24,0,0,1,3.34-24.63,57.51,57.51,0,0,1,9.74-19.43,45,45,0,0,1,15.7-12.75,46.12,46.12,0,0,1,18-4.48c-1.12-.06-2.25-.1-3.4-.1a47.79,47.79,0,0,0-21.34,4.58,45,45,0,0,0-15.7,12.75,57.51,57.51,0,0,0-9.74,19.43A86.24,86.24,0,0,0,631.39,61.39Z" />
    <path class="cls-6" d="M707,109.66a42.31,42.31,0,0,0,4.34-12.37,80.23,80.23,0,0,0,1.43-15.65V61.2a83,83,0,0,0-1.38-15.66,40,40,0,0,0-4.35-12.31,22.53,22.53,0,0,0-7.59-8.07,19,19,0,0,0-7.81-2.69,19.26,19.26,0,0,0-3.33.73,17.69,17.69,0,0,1,4.38,2,22.53,22.53,0,0,1,7.59,8.07,40,40,0,0,1,4.35,12.31,83,83,0,0,1,1.38,15.66V81.64a80.23,80.23,0,0,1-1.43,15.65,42.31,42.31,0,0,1-4.35,12.37,22.43,22.43,0,0,1-7.54,8.16,17.83,17.83,0,0,1-4.36,2,20.6,20.6,0,0,0,3.36.74,18.82,18.82,0,0,0,7.76-2.74A22.54,22.54,0,0,0,707,109.66Z" />
    <path class="cls-6" d="M685,120.56a26.37,26.37,0,0,0,3.4.22,25.86,25.86,0,0,0,3.36-.22,20.6,20.6,0,0,1-3.36-.74A21.33,21.33,0,0,1,685,120.56Z" />
    <path class="cls-6" d="M691.68,22.47a25,25,0,0,0-3.41-.22,24.07,24.07,0,0,0-3.35.22,20.64,20.64,0,0,1,3.43.73A19.26,19.26,0,0,1,691.68,22.47Z" />
    <path class="cls-7" d="M651.23,17.33a57.51,57.51,0,0,0-9.74,19.43,86.24,86.24,0,0,0-3.34,24.63V81.64a85.74,85.74,0,0,0,3.34,24.58,57.53,57.53,0,0,0,9.74,19.38A44.12,44.12,0,0,0,667,138.3a46.87,46.87,0,0,0,18,4.44q1.72-.11,3.39-.3a45.23,45.23,0,0,1-14.64-4.14A44.12,44.12,0,0,1,658,125.6a57.72,57.72,0,0,1-9.74-19.38,85.74,85.74,0,0,1-3.34-24.58V61.39a86.24,86.24,0,0,1,3.34-24.63A57.69,57.69,0,0,1,658,17.33,44.21,44.21,0,0,1,688.31.4c-1.12-.13-2.25-.23-3.4-.3a46.12,46.12,0,0,0-18,4.48A45,45,0,0,0,651.23,17.33Z" />
    <path class="cls-7" d="M706.25,117.82a22.54,22.54,0,0,0,7.55-8.16,42.31,42.31,0,0,0,4.34-12.37,80.23,80.23,0,0,0,1.43-15.65V61.2a83,83,0,0,0-1.38-15.66,40,40,0,0,0-4.35-12.31,22.53,22.53,0,0,0-7.59-8.07A20.68,20.68,0,0,0,695,22.25a24.07,24.07,0,0,0-3.35.22,19,19,0,0,1,7.81,2.69,22.53,22.53,0,0,1,7.59,8.07,40,40,0,0,1,4.35,12.31,83,83,0,0,1,1.38,15.66V81.64a80.23,80.23,0,0,1-1.43,15.65A42.31,42.31,0,0,1,707,109.66a22.54,22.54,0,0,1-7.55,8.16,18.82,18.82,0,0,1-7.76,2.74,26.37,26.37,0,0,0,3.4.22A20.15,20.15,0,0,0,706.25,117.82Z" />
    <path class="cls-8" d="M719.51,125.65a56.88,56.88,0,0,0,10.22-19.38,82.13,82.13,0,0,0,3.53-24.63V61.39a82.13,82.13,0,0,0-3.53-24.63,57.41,57.41,0,0,0-10.22-19.43A46.54,46.54,0,0,0,688.31.4,44.21,44.21,0,0,0,658,17.33a57.69,57.69,0,0,0-9.74,19.43,86.24,86.24,0,0,0-3.34,24.63V81.64a85.74,85.74,0,0,0,3.34,24.58A57.72,57.72,0,0,0,658,125.6a44.12,44.12,0,0,0,15.75,12.7,45.23,45.23,0,0,0,14.64,4.14,47.07,47.07,0,0,0,14.85-4.14A46.52,46.52,0,0,0,719.51,125.65Zm-31.14-4.87a26.37,26.37,0,0,1-3.4-.22,25.86,25.86,0,0,1-3.36.22,19.15,19.15,0,0,1-11-3,21.26,21.26,0,0,1-7.07-8.21,42.11,42.11,0,0,1-3.82-12.41,99.22,99.22,0,0,1-1.14-15.56V61.2a100,100,0,0,1,1.14-15.66,40.79,40.79,0,0,1,3.82-12.31,21,21,0,0,1,7.07-8.07,19.25,19.25,0,0,1,10.88-2.91,25,25,0,0,1,3.41.22,24.07,24.07,0,0,1,3.35-.22,25,25,0,0,1,3.41.22,24.07,24.07,0,0,1,3.35-.22,20.68,20.68,0,0,1,11.22,2.91,22.53,22.53,0,0,1,7.59,8.07,40,40,0,0,1,4.35,12.31,83,83,0,0,1,1.38,15.66V81.64a80.23,80.23,0,0,1-1.43,15.65,42.31,42.31,0,0,1-4.34,12.37,22.54,22.54,0,0,1-7.55,8.16,20.15,20.15,0,0,1-11.12,3,26.37,26.37,0,0,1-3.4-.22A25.86,25.86,0,0,1,688.37,120.78Z" />
    <polygon class="cls-6" points="828.31 1.91 821.55 1.91 802.09 76.14 805.45 89.1 828.31 1.91" />
    <polygon class="cls-6" points="739.73 1.91 781.74 140.93 788.5 140.93 746.49 1.91 739.73 1.91" />
    <polygon class="cls-9" points="802.05 102.07 805.45 89.1 802.09 76.14 798.69 89.1 802.05 102.07" />
    <polygon class="cls-7" points="746.49 1.91 788.5 140.93 795.26 140.93 753.25 1.91 746.49 1.91" />
    <polygon class="cls-7" points="808.82 102.07 835.07 1.91 828.31 1.91 805.45 89.1 808.82 102.07" />
    <polygon class="cls-8" points="835.07 1.91 808.82 102.07 805.45 89.1 802.05 102.07 798.69 89.1 795.29 102.07 769.32 1.91 753.25 1.91 795.26 140.93 809.04 140.93 851.15 1.91 835.07 1.91" />
    <path class="cls-6" d="M540.35,203.91a12.91,12.91,0,0,1-3.27-4.3,12.61,12.61,0,0,1-1.17-5.43q0-7.17,5.35-11.09t16-3.92h6.5v-2.69a6.56,6.56,0,0,0-2.14-5.17,6.92,6.92,0,0,0-2.69-1.46,5.13,5.13,0,0,0-1.91,1.08,4.85,4.85,0,0,0-1.12,1.58,7,7,0,0,1,1.1,4v2.69h-6.5q-10.61,0-16,3.92t-5.35,11.09a12.61,12.61,0,0,0,1.17,5.43,12.91,12.91,0,0,0,3.27,4.3,15.21,15.21,0,0,0,5,2.81,19.46,19.46,0,0,0,6.39,1,19.76,19.76,0,0,0,3.26-.29,17.7,17.7,0,0,1-2.89-.72A15.21,15.21,0,0,1,540.35,203.91Z" />
    <path class="cls-6" d="M557,188v6a7.63,7.63,0,0,1-1.38,1.74c-.14.14-.31.26-.46.39a5.32,5.32,0,0,0,.88,1.1,5.09,5.09,0,0,0,1.79,1,12.31,12.31,0,0,0,2.45-1,10,10,0,0,0,2.1-1.53,7.63,7.63,0,0,0,1.38-1.74v-7.78a16.91,16.91,0,0,0-3.85.5A9.21,9.21,0,0,0,557,188Z" />
    <path class="cls-6" d="M541.93,165a18.75,18.75,0,0,1,6-3.12,23.34,23.34,0,0,1,4.72-1,30.49,30.49,0,0,0-3.36-.2,26.22,26.22,0,0,0-8.12,1.16,18.75,18.75,0,0,0-6,3.12,13.62,13.62,0,0,0-3.74,4.57,12.36,12.36,0,0,0-1.27,5.5h6.76a12.23,12.23,0,0,1,1.28-5.5A13.47,13.47,0,0,1,541.93,165Z" />
    <path class="cls-6" d="M564.15,206.89h1.2c-.06-.12-.11-.26-.17-.38C564.85,206.64,564.51,206.77,564.15,206.89Z" />
    <path class="cls-9" d="M558.88,169.85a12.17,12.17,0,0,0-3.47-.45,10.55,10.55,0,0,0-3.29.45,6.92,6.92,0,0,1,2.69,1.46,5.9,5.9,0,0,1,1,1.2,4.85,4.85,0,0,1,1.12-1.58A5.13,5.13,0,0,1,558.88,169.85Z" />
    <path class="cls-9" d="M559.86,186.65a16.91,16.91,0,0,1,3.85-.5v0h-6l-.81,0V188A9.21,9.21,0,0,1,559.86,186.65Z" />
    <path class="cls-9" d="M555.11,196.06a10.12,10.12,0,0,1-1.64,1.14,12.31,12.31,0,0,1-2.45,1,9.3,9.3,0,0,0,3.22.51,12.2,12.2,0,0,0,3.27-.42l.27-.09a5.09,5.09,0,0,1-1.79-1A5.32,5.32,0,0,1,555.11,196.06Z" />
    <path class="cls-9" d="M564.64,205q-.3-1.1-.51-2.31a14.71,14.71,0,0,1-2.22,2,15.21,15.21,0,0,1-2.79,1.62c-.22.1-.47.17-.7.27.06.12.11.26.17.38h5.56c.36-.12.7-.25,1-.38A11.21,11.21,0,0,1,564.64,205Z" />
    <path class="cls-7" d="M569.53,203.93c-.28.23-.55.47-.86.69a15.21,15.21,0,0,1-2.79,1.62c-.22.1-.46.17-.7.27.06.12.11.26.17.38h5.06v-.72A13.94,13.94,0,0,1,569.53,203.93Z" />
    <path class="cls-7" d="M551.62,206.52a15,15,0,0,1-4.5-2.61,12.81,12.81,0,0,1-3.28-4.3,13.44,13.44,0,0,1-.7-2,4.2,4.2,0,0,1-.68-.49,5.14,5.14,0,0,1-1.65-3.9,7,7,0,0,1,.58-2.87,6,6,0,0,1,1.81-2.27,7.3,7.3,0,0,1,1-.63,12.71,12.71,0,0,1,3.83-4.4q5.34-3.92,16-3.92h4.64v-2.6a16.39,16.39,0,0,0-1-5.81,9.68,9.68,0,0,0-5.44-1.36,10.55,10.55,0,0,0-3.29.45,6.92,6.92,0,0,1,2.69,1.46,6.56,6.56,0,0,1,2.14,5.17v2.69h-6.5q-10.61,0-16,3.92t-5.35,11.09a12.61,12.61,0,0,0,1.17,5.43,12.91,12.91,0,0,0,3.27,4.3,15.21,15.21,0,0,0,5,2.81,17.7,17.7,0,0,0,2.89.72c.24,0,.49-.06.72-.11A17.75,17.75,0,0,0,551.62,206.52Z" />
    <path class="cls-7" d="M563.71,186.15v7.78a7.63,7.63,0,0,1-1.38,1.74,10,10,0,0,1-2.1,1.53,12.31,12.31,0,0,1-2.45,1,9.3,9.3,0,0,0,3.22.51,12.2,12.2,0,0,0,3.27-.42A12.56,12.56,0,0,0,567,197.2a9.89,9.89,0,0,0,1.62-1.13v-9.94h-4.09Z" />
    <path class="cls-7" d="M544.71,170.11c.08-.2.15-.39.25-.59a13.47,13.47,0,0,1,3.73-4.57,18.75,18.75,0,0,1,6-3.12c.44-.14.89-.26,1.34-.37a25.61,25.61,0,0,0-3.38-.59,23.34,23.34,0,0,0-4.72,1,18.75,18.75,0,0,0-6,3.12,13.47,13.47,0,0,0-3.73,4.57,12.23,12.23,0,0,0-1.28,5.5h4.89a5.33,5.33,0,0,1,1.64-4.09A4.5,4.5,0,0,1,544.71,170.11Z" />
    <path class="cls-1" d="M548.69,165a13.47,13.47,0,0,0-3.73,4.57c-.1.2-.17.39-.25.59a9.45,9.45,0,0,1,3.94-.71,12.17,12.17,0,0,1,3.47.45,10.55,10.55,0,0,1,3.29-.45,12.17,12.17,0,0,1,3.47.45,10.55,10.55,0,0,1,3.29-.45,9.68,9.68,0,0,1,5.44,1.36c-.15-.39-.29-.77-.47-1.13a13.68,13.68,0,0,0-4.06-5,18.35,18.35,0,0,0-6.15-3l-.91-.22c-.45.11-.9.23-1.34.37A18.75,18.75,0,0,0,548.69,165Z" />
    <path class="cls-1" d="M548,183.09a12.71,12.71,0,0,0-3.83,4.4,11.2,11.2,0,0,1,2.15-.84,18,18,0,0,1,4.66-.52h6v0l.81,0h6v0l.81,0h4.09v-7H564Q553.37,179.17,548,183.09Z" />
    <path class="cls-1" d="M564.27,198.29a12.2,12.2,0,0,1-3.27.42,9.3,9.3,0,0,1-3.22-.51l-.27.09a12.2,12.2,0,0,1-3.27.42,9.3,9.3,0,0,1-3.22-.51l-.27.09a12.2,12.2,0,0,1-3.27.42,7.89,7.89,0,0,1-4.34-1.06,13.44,13.44,0,0,0,.7,2,12.81,12.81,0,0,0,3.28,4.3,15,15,0,0,0,4.5,2.61c.25-.09.51-.18.74-.28a15.21,15.21,0,0,0,2.79-1.62,14.71,14.71,0,0,0,2.22-2q.21,1.22.51,2.31a11.21,11.21,0,0,0,.54,1.55c.23-.1.48-.17.7-.27a15.21,15.21,0,0,0,2.79-1.62,14.71,14.71,0,0,0,2.22-2q.21,1.22.51,2.31a11.21,11.21,0,0,0,.54,1.55c.24-.1.48-.17.7-.27a15.21,15.21,0,0,0,2.79-1.62c.31-.22.58-.46.86-.69-.17-.59-.33-1.2-.46-1.86a33.1,33.1,0,0,1-.46-6A9.89,9.89,0,0,1,567,197.2,12.56,12.56,0,0,1,564.27,198.29Z" />
    <path class="cls-6" d="M603.86,173.07a8.52,8.52,0,0,1,1.07,1.53v19.2a9.32,9.32,0,0,1-1.14,1.59A8.71,8.71,0,0,0,606,197.2a7.43,7.43,0,0,0,1.11.51,7.78,7.78,0,0,0,1.47-.64,8.57,8.57,0,0,0,3.16-3.27V174.6a8.28,8.28,0,0,0-3.16-3.29,7.91,7.91,0,0,0-1.39-.61,8.52,8.52,0,0,0-1.1.52A8.75,8.75,0,0,0,603.86,173.07Z" />
    <path class="cls-6" d="M592.82,223a21.64,21.64,0,0,1-4.36-2.24,14.76,14.76,0,0,1-3.52-3.25l2.72-3.68a15.5,15.5,0,0,1-4.24-3.41l-5.24,7.09a14.76,14.76,0,0,0,3.52,3.25,21.64,21.64,0,0,0,4.36,2.24,25.5,25.5,0,0,0,4.66,1.3,25,25,0,0,0,4.4.42,32.06,32.06,0,0,0,3.73-.23c-.45-.06-.9-.1-1.37-.19A25.5,25.5,0,0,1,592.82,223Z" />
    <path class="cls-6" d="M604.71,215.23a8.68,8.68,0,0,0,6.89-8,16.64,16.64,0,0,1-4.3.55,18.63,18.63,0,0,1-2.51-.19,9,9,0,0,1-2.6,5.45,7.92,7.92,0,0,1-1.07.84c.29.16.56.32.85.46A14.08,14.08,0,0,0,604.71,215.23Z" />
    <path class="cls-6" d="M587.16,201.18a22.11,22.11,0,0,1-3.67-7.27,31.54,31.54,0,0,1-1.28-9.16v-.89a32.93,32.93,0,0,1,1.28-9.43,22.08,22.08,0,0,1,3.67-7.34,16.55,16.55,0,0,1,5.79-4.74,16.1,16.1,0,0,1,4.36-1.38,19.61,19.61,0,0,0-3.45-.3,17.05,17.05,0,0,0-7.67,1.68,16.55,16.55,0,0,0-5.79,4.74c-.23.3-.44.63-.66.94a13.28,13.28,0,0,1,.92,1.6,15.58,15.58,0,0,1,1.47,6.94V196a32.61,32.61,0,0,0,.46,6c.13.66.29,1.27.46,1.86a17.15,17.15,0,0,0,3.12,2,16.35,16.35,0,0,0,7.61,1.75,17,17,0,0,0,3.42-.33,15,15,0,0,1-4.27-1.42A17.18,17.18,0,0,1,587.16,201.18Z" />
    <path class="cls-9" d="M582.13,196V176.57a15.58,15.58,0,0,0-1.47-6.94,13.28,13.28,0,0,0-.92-1.6,22.53,22.53,0,0,0-3,6.4,32.93,32.93,0,0,0-1.28,9.43v.89a31.54,31.54,0,0,0,1.28,9.16,22.11,22.11,0,0,0,3.67,7.27,18.2,18.2,0,0,0,2.65,2.75c-.17-.59-.33-1.2-.46-1.86A32.61,32.61,0,0,1,582.13,196Z" />
    <path class="cls-6" d="M611.6,207.18c0-.53.09-1.06.09-1.63v-2.61a14.58,14.58,0,0,1-4.8,3.53,13.38,13.38,0,0,1-2,.71c0,.12,0,.24-.05.36a18.63,18.63,0,0,0,2.51.19A16.64,16.64,0,0,0,611.6,207.18Z" />
    <path class="cls-9" d="M603.86,173.07a8.75,8.75,0,0,1,2.18-1.85,8.52,8.52,0,0,1,1.1-.52,10.94,10.94,0,0,0-3.58-.55,8.87,8.87,0,0,0-3.18.55,7.91,7.91,0,0,1,1.39.61A8,8,0,0,1,603.86,173.07Z" />
    <path class="cls-9" d="M601.29,215.61a14.5,14.5,0,0,0,3.42-.38,14.08,14.08,0,0,1-2.74-.94c-.29-.14-.56-.3-.85-.46a9.51,9.51,0,0,1-3.17,1.4A14.61,14.61,0,0,0,601.29,215.61Z" />
    <path class="cls-9" d="M612.32,165.83l.46-4.32h-6.61a10.49,10.49,0,0,1,1.29.51A13.65,13.65,0,0,1,612.32,165.83Z" />
    <path class="cls-9" d="M603.79,195.39a8.37,8.37,0,0,1-2,1.68,7.78,7.78,0,0,1-1.47.64,9.08,9.08,0,0,0,3.17.54,11.2,11.2,0,0,0,3.59-.54,7.43,7.43,0,0,1-1.11-.51A8.71,8.71,0,0,1,603.79,195.39Z" />
    <path class="cls-7" d="M610.32,170.15a8.87,8.87,0,0,0-3.18.55,7.91,7.91,0,0,1,1.39.61,8.28,8.28,0,0,1,3.16,3.29v19.2a8.57,8.57,0,0,1-3.16,3.27,7.78,7.78,0,0,1-1.47.64,9.08,9.08,0,0,0,3.17.54,9.79,9.79,0,0,0,5.06-1.18,7.79,7.79,0,0,0,1.34-1V172.3a7.74,7.74,0,0,0-1.34-1A9.8,9.8,0,0,0,610.32,170.15Z" />
    <path class="cls-7" d="M616.63,163.48v-2h-3.7a10.49,10.49,0,0,1,1.29.51A13.69,13.69,0,0,1,616.63,163.48Z" />
    <path class="cls-7" d="M611.6,207.18a8.68,8.68,0,0,1-6.89,8,14.61,14.61,0,0,0,3.34.38,11.07,11.07,0,0,0,7.06-2.11,20.46,20.46,0,0,0,1.52-8.08v-.79a15.12,15.12,0,0,1-3,1.84A13.38,13.38,0,0,1,611.6,207.18Z" />
    <path class="cls-7" d="M600.43,206.31c-.24-.11-.5-.2-.74-.33a17.18,17.18,0,0,1-5.77-4.8,20.83,20.83,0,0,1-2.84-5,8.62,8.62,0,0,1-1.62-1.87,13.54,13.54,0,0,1-1.74-4.28,23.41,23.41,0,0,1-.57-5.3v-.89a23.3,23.3,0,0,1,.59-5.34,13.81,13.81,0,0,1,1.78-4.36,9.3,9.3,0,0,1,1.42-1.73,20.89,20.89,0,0,1,3-5.34,16.55,16.55,0,0,1,5.79-4.74c.29-.14.59-.25.89-.37a13.61,13.61,0,0,0-3.29-1,16.1,16.1,0,0,0-4.36,1.38,16.55,16.55,0,0,0-5.79,4.74,22.08,22.08,0,0,0-3.67,7.34,32.93,32.93,0,0,0-1.28,9.43v.89a31.54,31.54,0,0,0,1.28,9.16,22.11,22.11,0,0,0,3.67,7.27,17.18,17.18,0,0,0,5.77,4.8,15,15,0,0,0,4.27,1.42,13.56,13.56,0,0,0,2.93-.93Z" />
    <path class="cls-7" d="M599.58,223a21.64,21.64,0,0,1-4.36-2.24,14.76,14.76,0,0,1-3.52-3.25l1.48-2a14.09,14.09,0,0,1-4.73-1.25c-.27-.13-.53-.28-.79-.43l-2.72,3.68a14.76,14.76,0,0,0,3.52,3.25,21.64,21.64,0,0,0,4.36,2.24,25.5,25.5,0,0,0,4.66,1.3c.47.09.92.13,1.37.19a26.82,26.82,0,0,0,3.46-.62A24.7,24.7,0,0,1,599.58,223Z" />
    <path class="cls-1" d="M604.71,215.23a15.22,15.22,0,0,1-6.76,0,14.5,14.5,0,0,1-3.42.38c-.46,0-.91,0-1.35-.07l-1.48,2a14.76,14.76,0,0,0,3.52,3.25,21.64,21.64,0,0,0,4.36,2.24,24.7,24.7,0,0,0,2.73.87c.52-.13,1.05-.26,1.55-.43a19,19,0,0,0,6.8-3.75,17.09,17.09,0,0,0,4.4-6.08s0-.1.05-.14a11.07,11.07,0,0,1-7.06,2.11A14.61,14.61,0,0,1,604.71,215.23Z" />
    <path class="cls-1" d="M610.23,198.25a9.08,9.08,0,0,1-3.17-.54,11.2,11.2,0,0,1-3.59.54,9.08,9.08,0,0,1-3.17-.54,11.2,11.2,0,0,1-3.59.54,8.38,8.38,0,0,1-4.28-1.05,8.28,8.28,0,0,1-1.35-1,20.83,20.83,0,0,0,2.84,5,17.18,17.18,0,0,0,5.77,4.8c.24.13.5.22.74.33a14.65,14.65,0,0,0,4.5-3.37v2.61c0,.57,0,1.1-.09,1.63a13.38,13.38,0,0,0,2-.71,14.58,14.58,0,0,0,4.8-3.53v2.61c0,.57,0,1.1-.09,1.63a13.38,13.38,0,0,0,2-.71,15.12,15.12,0,0,0,3-1.84v-8.56a7.79,7.79,0,0,1-1.34,1A9.79,9.79,0,0,1,610.23,198.25Z" />
    <path class="cls-1" d="M612.32,165.83a13.65,13.65,0,0,0-4.86-3.81,10.49,10.49,0,0,0-1.29-.51H606l-.46,4.32A13.65,13.65,0,0,0,600.7,162l-.1,0c-.3.12-.6.23-.89.37a16.55,16.55,0,0,0-5.79,4.74,20.89,20.89,0,0,0-3,5.34,8.83,8.83,0,0,1,1.58-1.21,8.26,8.26,0,0,1,4.28-1.07,10.94,10.94,0,0,1,3.58.55,8.87,8.87,0,0,1,3.18-.55,10.94,10.94,0,0,1,3.58.55,8.87,8.87,0,0,1,3.18-.55,9.8,9.8,0,0,1,5,1.16,7.74,7.74,0,0,1,1.34,1v-8.82a13.69,13.69,0,0,0-2.41-1.46,10.49,10.49,0,0,0-1.29-.51h-.15Z" />
    <path class="cls-6" d="M630.19,174.62a21.94,21.94,0,0,1,4.57-7.4,20.73,20.73,0,0,1,7-4.83,21.42,21.42,0,0,1,5.48-1.47,25.87,25.87,0,0,0-3.47-.25,22.24,22.24,0,0,0-8.77,1.72,21,21,0,0,0-4.81,2.89v9.46A.56.56,0,0,0,630.19,174.62Z" />
    <path class="cls-6" d="M659,175.52a8.25,8.25,0,0,0-1.8-2.83,8.39,8.39,0,0,0-2.88-1.89c-.12-.05-.26-.09-.39-.13l-.37.13a8.66,8.66,0,0,0-2.88,2l-.07.09a8.37,8.37,0,0,1,1.63,2.64A10.84,10.84,0,0,1,653,179v.92h6.76V179A10.84,10.84,0,0,0,659,175.52Z" />
    <path class="cls-6" d="M634.93,201.33a20.49,20.49,0,0,1-4.72-7l-.06-.17V203a23.22,23.22,0,0,0,5.36,3,25.41,25.41,0,0,0,9.52,1.72,29.43,29.43,0,0,0,3.44-.21,23.65,23.65,0,0,1-6.2-1.51A22.62,22.62,0,0,1,634.93,201.33Z" />
    <path class="cls-6" d="M656.06,198a16.24,16.24,0,0,0,3.11-.95,14.48,14.48,0,0,0,1.43-.69l-3-3.19a11.24,11.24,0,0,1-2.35,2.27,14.52,14.52,0,0,1-2.33,1.34,12.32,12.32,0,0,0,1.8.84C655.19,197.77,655.62,197.89,656.06,198Z" />
    <path class="cls-9" d="M628.55,185.79v-1.67a26.57,26.57,0,0,1,1.6-9.38v-9.46a20.69,20.69,0,0,0-2.15,1.94,21.94,21.94,0,0,0-4.57,7.4.56.56,0,0,1,0,.12V194.2l.06.17a20.49,20.49,0,0,0,4.72,7,21.06,21.06,0,0,0,2,1.67v-8.8A22.2,22.2,0,0,1,628.55,185.79Z" />
    <path class="cls-9" d="M650.44,172.69l.17.19.07-.09a8.66,8.66,0,0,1,2.88-2l.37-.13a10.46,10.46,0,0,0-3.53-.56,9.13,9.13,0,0,0-3.23.56c.13,0,.27.08.39.13A8.39,8.39,0,0,1,650.44,172.69Z" />
    <path class="cls-9" d="M649.3,198a13.76,13.76,0,0,0,3.2.37,17.93,17.93,0,0,0,3.42-.33l.14,0c-.44-.11-.87-.23-1.29-.38a12.32,12.32,0,0,1-1.8-.84c-.19.09-.37.19-.56.27A16.24,16.24,0,0,1,649.3,198Z" />
    <path class="cls-1" d="M621.79,185.79a22.2,22.2,0,0,0,1.6,8.41V174.74a26.57,26.57,0,0,0-1.6,9.38Z" />
    <path class="cls-7" d="M659.17,197.05a16.24,16.24,0,0,1-3.11.95,13.76,13.76,0,0,0,3.2.37,18.39,18.39,0,0,0,3-.26l-1.62-1.75A14.48,14.48,0,0,1,659.17,197.05Z" />
    <path class="cls-7" d="M657.16,170.11a9.17,9.17,0,0,0-3.23.56c.13,0,.27.08.39.13a8.39,8.39,0,0,1,2.88,1.89,8.25,8.25,0,0,1,1.8,2.83,10.84,10.84,0,0,1,.71,3.48v.92h4.53a27.34,27.34,0,0,0-1.22-6,23.23,23.23,0,0,0-1.16-2.74q-.37-.19-.78-.36A10.31,10.31,0,0,0,657.16,170.11Z" />
    <path class="cls-7" d="M651.76,206.88A21.73,21.73,0,0,1,649,206a22.62,22.62,0,0,1-7.34-4.68,20.17,20.17,0,0,1-4.28-6,11.55,11.55,0,0,1-2.43-3.1,12.68,12.68,0,0,1-1.36-4.22h1.79c-.06-.71-.1-1.44-.1-2.18v-1.67a30,30,0,0,1,.31-4.2h-1.79a16.91,16.91,0,0,1,1.26-4,11.72,11.72,0,0,1,2.07-3.11,9.38,9.38,0,0,1,1.07-.93,20.5,20.5,0,0,1,10.25-9.47,19.22,19.22,0,0,1,2.13-.76,21.68,21.68,0,0,0-3.41-.71,21.42,21.42,0,0,0-5.48,1.47,20.73,20.73,0,0,0-7,4.83,21.94,21.94,0,0,0-4.57,7.4.56.56,0,0,1,0,.12V194.2l.06.17a20.49,20.49,0,0,0,4.72,7,22.62,22.62,0,0,0,7.34,4.68,23.65,23.65,0,0,0,6.2,1.51,22.38,22.38,0,0,0,2.8-.51Z" />
    <path class="cls-1" d="M628.55,185.79a22.2,22.2,0,0,0,1.6,8.41V174.74a26.57,26.57,0,0,0-1.6,9.38Z" />
    <path class="cls-1" d="M647.14,188H664.4V183c0-1.07-.06-2.1-.16-3.11H635.62a30,30,0,0,0-.31,4.2v1.67c0,.74,0,1.47.1,2.18h11.73Z" />
    <path class="cls-1" d="M656.06,198l-.14,0a17.93,17.93,0,0,1-3.42.33,13.76,13.76,0,0,1-3.2-.37l-.14,0a17.93,17.93,0,0,1-3.42.33,13,13,0,0,1-4.49-.75,11.7,11.7,0,0,1-3.65-2.14c-.06-.06-.12-.13-.19-.19a20.17,20.17,0,0,0,4.28,6A22.62,22.62,0,0,0,649,206a21.73,21.73,0,0,0,2.73.87,26.6,26.6,0,0,0,4.78-1.73,19.35,19.35,0,0,0,4.11-2.64,16.88,16.88,0,0,0,2.83-3l-1.26-1.35a18.39,18.39,0,0,1-3,.26A13.76,13.76,0,0,1,656.06,198Z" />
    <path class="cls-1" d="M643.64,170.11a10.46,10.46,0,0,1,3.53.56,9.13,9.13,0,0,1,3.23-.56,10.46,10.46,0,0,1,3.53.56,9.17,9.17,0,0,1,3.23-.56,10.31,10.31,0,0,1,3.92.69q.4.16.78.36a18.74,18.74,0,0,0-2.89-4.32,18.18,18.18,0,0,0-6.5-4.55,18.58,18.58,0,0,0-1.86-.66,19.22,19.22,0,0,0-2.13.76,20.5,20.5,0,0,0-10.25,9.47A8.18,8.18,0,0,1,640,170.8,9.17,9.17,0,0,1,643.64,170.11Z" />
    <path class="cls-6" d="M674.17,202.51a19.35,19.35,0,0,1-4.11,2.64l-.66.3v1.44h6.76v-6.36A18.62,18.62,0,0,1,674.17,202.51Z" />
    <path class="cls-6" d="M704.4,174.7a6.47,6.47,0,0,0-1.74-2.74,6.3,6.3,0,0,0-2.69-1.4,8.93,8.93,0,0,0-2,.79,10,10,0,0,0-1.58,1.15,7.13,7.13,0,0,1,1.21,2.2,13.79,13.79,0,0,1,.61,4.43v27.76H705V179.13A13.52,13.52,0,0,0,704.4,174.7Z" />
    <path class="cls-6" d="M693.59,162.42a15.57,15.57,0,0,1,4.23-1.45,20.79,20.79,0,0,0-3.52-.3,16.78,16.78,0,0,0-5.31.84h4.49Z" />
    <path class="cls-6" d="M676.16,172.92V161.51H669.4v2.64a17.6,17.6,0,0,1,3.09,2.69A19.26,19.26,0,0,1,676.16,172.92Z" />
    <path class="cls-6" d="M669.4,188v7a11.52,11.52,0,0,0,1.77-1.79l5,5.38V188H669.4Z" />
    <path class="cls-9" d="M674.17,202.51a18.62,18.62,0,0,0,2-2v-2l-5-5.38A11.52,11.52,0,0,1,669.4,195v3.59l.84.91a13.56,13.56,0,0,1-.84,1.07v4.92l.66-.3A19.35,19.35,0,0,0,674.17,202.51Z" />
    <path class="cls-9" d="M669.78,173.9a28.72,28.72,0,0,1,1.38,9.13V188h5V172.92a19.26,19.26,0,0,0-3.67-6.08,17.6,17.6,0,0,0-3.09-2.69v8.77C669.52,173.25,669.66,173.57,669.78,173.9Z" />
    <path class="cls-9" d="M687.44,167.8a17.23,17.23,0,0,1,5.91-5.26l.24-.12-.11-.91H689a14.71,14.71,0,0,0-2.16.91Z" />
    <path class="cls-9" d="M700,170.56h0a14.63,14.63,0,0,0-3.6-.4,11.72,11.72,0,0,0-3.12.41,6.3,6.3,0,0,1,2.69,1.4,4.52,4.52,0,0,1,.53.54,10,10,0,0,1,1.58-1.15A8.93,8.93,0,0,1,700,170.56Z" />
    <path class="cls-1" d="M671.16,183a28.72,28.72,0,0,0-1.38-9.13c-.12-.33-.26-.65-.38-1V188h1.76Z" />
    <path class="cls-1" d="M670.24,199.46l-.84-.91v2A13.56,13.56,0,0,0,670.24,199.46Z" />
    <path class="cls-7" d="M694.2,167.8a17.23,17.23,0,0,1,5.91-5.26c.39-.21.79-.39,1.19-.56-.24-.1-.46-.21-.7-.3a17.4,17.4,0,0,0-2.78-.71,15.57,15.57,0,0,0-4.23,1.45Z" />
    <path class="cls-7" d="M709.06,171.68a6.43,6.43,0,0,0-2.37-1.13,14.63,14.63,0,0,0-3.6-.4,11.72,11.72,0,0,0-3.12.41,6.3,6.3,0,0,1,2.69,1.4,6.47,6.47,0,0,1,1.74,2.74,13.52,13.52,0,0,1,.61,4.43v27.76h4.89V179A28.51,28.51,0,0,0,709.06,171.68Z" />
    <path class="cls-7" d="M682.92,172.49v-7.25a17.87,17.87,0,0,0-2.24,2.56l-.72-6.29h-3.8v11.41c.12.33.26.65.38,1a28.72,28.72,0,0,1,1.38,9.13V188h-1.76v10.58l.84.91a13.56,13.56,0,0,1-.84,1.07v6.36h4.93V174.64A10,10,0,0,1,682.92,172.49Z" />
    <path class="cls-1" d="M677.92,188V183a28.72,28.72,0,0,0-1.38-9.13c-.12-.33-.26-.65-.38-1V188Z" />
    <path class="cls-1" d="M677,199.46l-.84-.91v2A13.56,13.56,0,0,0,677,199.46Z" />
    <path class="cls-1" d="M694.2,167.8l-.61-5.38-.24.12a17.23,17.23,0,0,0-5.91,5.26l-.61-5.38-.24.12a16.71,16.71,0,0,0-3.67,2.7v7.25a8.87,8.87,0,0,1,1.57-1.14,10.08,10.08,0,0,1,5.08-1.2,14.63,14.63,0,0,1,3.6.4h0a11.72,11.72,0,0,1,3.12-.41,14.63,14.63,0,0,1,3.6.4h0a11.72,11.72,0,0,1,3.12-.41,14.63,14.63,0,0,1,3.6.4,6.43,6.43,0,0,1,2.37,1.13c-.1-.38-.19-.77-.31-1.13a15,15,0,0,0-3.23-5.66A12.15,12.15,0,0,0,701.3,162c-.4.17-.8.35-1.19.56A17.23,17.23,0,0,0,694.2,167.8Z" />
    <path class="cls-6" d="M726.92,201.1a20.71,20.71,0,0,1-3.49-5.88v8.83a19.16,19.16,0,0,0,3.38,1.93,22.51,22.51,0,0,0,9.27,1.79,23.38,23.38,0,0,0,3.26-.24,20.31,20.31,0,0,1-5.77-1.55A18.54,18.54,0,0,1,726.92,201.1Z" />
    <path class="cls-6" d="M748.79,172.5a8.35,8.35,0,0,0-2.72-1.74l-.18-.06a6.35,6.35,0,0,0-1.11.54,8.25,8.25,0,0,0-2.14,1.94,7,7,0,0,1,1.11,1.92,7.78,7.78,0,0,1,.51,3.19H751a7.78,7.78,0,0,0-.51-3.19A7.08,7.08,0,0,0,748.79,172.5Z" />
    <path class="cls-6" d="M723.09,174.1a20.67,20.67,0,0,1,3.81-6.72,19.23,19.23,0,0,1,6.65-4.9,19.87,19.87,0,0,1,5.81-1.57,24.64,24.64,0,0,0-3.37-.24,22,22,0,0,0-9.2,1.81,19.14,19.14,0,0,0-6.21,4.45,16.56,16.56,0,0,1,1.69,3.62A20.58,20.58,0,0,1,723.09,174.1Z" />
    <path class="cls-6" d="M744.76,197.28a6.25,6.25,0,0,0,1.25.59,8.85,8.85,0,0,0,2.62-1.38,6.51,6.51,0,0,0,1.82-2.23,5.77,5.77,0,0,0,.57-2.89h-6.76a5.77,5.77,0,0,1-.57,2.89,6.06,6.06,0,0,1-.89,1.33A8.18,8.18,0,0,0,744.76,197.28Z" />
    <path class="cls-9" d="M722.9,193.82a28.58,28.58,0,0,1-1.36-8.95v-1.26a28.92,28.92,0,0,1,1.34-9c.06-.19.14-.37.21-.56a20.58,20.58,0,0,0-.82-3.55,16.56,16.56,0,0,0-1.69-3.62c-.14.15-.3.29-.44.45a20.67,20.67,0,0,0-3.81,6.72,33,33,0,0,1,.34,4.86v16.26a20.71,20.71,0,0,0,3.49,5.88,18,18,0,0,0,3.27,3v-8.83C723.24,194.76,723.05,194.31,722.9,193.82Z" />
    <path class="cls-9" d="M741.87,196.49a8.85,8.85,0,0,1-2.62,1.38,9.89,9.89,0,0,0,3.38.55,10.41,10.41,0,0,0,3.27-.51l.11,0a6.25,6.25,0,0,1-1.25-.59,8.18,8.18,0,0,1-2-1.69A7.94,7.94,0,0,1,741.87,196.49Z" />
    <path class="cls-9" d="M744.78,171.24a6.35,6.35,0,0,1,1.11-.54,9.13,9.13,0,0,0-3.3-.59,9.39,9.39,0,0,0-3.46.59l.18.06A8.35,8.35,0,0,1,742,172.5a6.57,6.57,0,0,1,.61.68A8.25,8.25,0,0,1,744.78,171.24Z" />
    <path class="cls-1" d="M714.78,183.61v1.26a28.58,28.58,0,0,0,1.36,8.95c.15.49.34.94.53,1.4V179a33,33,0,0,0-.34-4.86c-.07.19-.15.37-.21.56A28.92,28.92,0,0,0,714.78,183.61Z" />
    <path class="cls-7" d="M740.33,206a18.42,18.42,0,0,1-6.64-4.88,19.79,19.79,0,0,1-2.62-3.93,8.37,8.37,0,0,1-2.73-2.88,13.21,13.21,0,0,1-1.49-4.32,30.26,30.26,0,0,1-.42-5.1v-1.26a28.52,28.52,0,0,1,.44-5,13.88,13.88,0,0,1,1.51-4.32,8.38,8.38,0,0,1,2.6-2.82,20.25,20.25,0,0,1,2.68-4.06,19.23,19.23,0,0,1,6.65-4.9,18,18,0,0,1,2.37-.87,21.94,21.94,0,0,0-3.32-.7,19.87,19.87,0,0,0-5.81,1.57,19.23,19.23,0,0,0-6.65,4.9,20.67,20.67,0,0,0-3.81,6.72,33,33,0,0,1,.34,4.86v16.26a20.71,20.71,0,0,0,3.49,5.88,18.54,18.54,0,0,0,6.65,4.88,20.31,20.31,0,0,0,5.77,1.55,21.88,21.88,0,0,0,3.23-.72A20.61,20.61,0,0,1,740.33,206Z" />
    <path class="cls-7" d="M749.35,170.11a9.39,9.39,0,0,0-3.46.59l.18.06a8.35,8.35,0,0,1,2.72,1.74,7.08,7.08,0,0,1,1.72,2.6,7.78,7.78,0,0,1,.51,3.19h4.22a17,17,0,0,0-1.21-6.93,9,9,0,0,0-1.2-.6A9.17,9.17,0,0,0,749.35,170.11Z" />
    <path class="cls-7" d="M751,191.37a5.77,5.77,0,0,1-.57,2.89,6.51,6.51,0,0,1-1.82,2.23,8.85,8.85,0,0,1-2.62,1.38,9.89,9.89,0,0,0,3.38.55,10.41,10.41,0,0,0,3.27-.51,10.11,10.11,0,0,0,1.39-.57,13.66,13.66,0,0,0,1.19-6Z" />
    <path class="cls-1" d="M721.54,183.61v1.26a28.58,28.58,0,0,0,1.36,8.95c.15.49.34.94.53,1.4V179a33,33,0,0,0-.34-4.86c-.07.19-.15.37-.21.56A28.92,28.92,0,0,0,721.54,183.61Z" />
    <path class="cls-1" d="M749.39,198.42a9.89,9.89,0,0,1-3.38-.55l-.11,0a10.41,10.41,0,0,1-3.27.51,9.89,9.89,0,0,1-3.38-.55l-.11,0a10.46,10.46,0,0,1-3.27.51,8.62,8.62,0,0,1-4.64-1.14l-.16-.11a19.79,19.79,0,0,0,2.62,3.93,18.42,18.42,0,0,0,6.64,4.88,20.61,20.61,0,0,0,2.24.83c.31-.09.61-.17.91-.28a19.83,19.83,0,0,0,6.14-3.42,16.06,16.06,0,0,0,4.18-5.2c.09-.19.16-.38.25-.57a10.11,10.11,0,0,1-1.39.57A10.41,10.41,0,0,1,749.39,198.42Z" />
    <path class="cls-1" d="M735.83,170.11a9.13,9.13,0,0,1,3.3.59,9.39,9.39,0,0,1,3.46-.59,9.13,9.13,0,0,1,3.3.59,9.39,9.39,0,0,1,3.46-.59,9.17,9.17,0,0,1,3.48.65,9,9,0,0,1,1.2.6c0-.11-.08-.24-.13-.35a15.73,15.73,0,0,0-4-5.53,18.29,18.29,0,0,0-6.15-3.55c-.35-.12-.71-.22-1.07-.32a18,18,0,0,0-2.37.87,19.23,19.23,0,0,0-6.65,4.9,20.25,20.25,0,0,0-2.68,4.06c.09-.06.18-.14.28-.2A8.48,8.48,0,0,1,735.83,170.11Z" />
    <polygon class="cls-6" points="788.69 180.17 793.71 161.03 786.95 161.03 783.57 173.91 786.93 186.87 788.69 180.17" />
    <path class="cls-6" d="M763.33,165.41,762,161h-6.76l.1.33c.65.16,1.3.35,1.92.57A18.42,18.42,0,0,1,763.33,165.41Z" />
    <path class="cls-6" d="M767.05,227.32l2.67-8.89c.47,0,1.08,0,1.82.06s1.34.06,1.78.06a3.88,3.88,0,0,0,2.46-.84,9.89,9.89,0,0,0,1.82-1.84c.25-.34.48-.66.68-1h0l-1-3.42-10-33.18h-6.76l4,13.08h4.34a13.46,13.46,0,0,1-1.44,6.54c-.19.37-.4.71-.61,1.06l3.78,12.5,1,3.42h0c-.2.31-.43.63-.68,1a9.89,9.89,0,0,1-1.82,1.84,3.88,3.88,0,0,1-2.46.84c-.44,0-1,0-1.78-.06s-1.35-.06-1.82-.06l-2.68,8.89,1.41.35c.43.1.87.18,1.32.25s.91.13,1.38.17,1,.06,1.56.06a17,17,0,0,0,3.37-.31c-.29-.05-.59-.1-.87-.17C768,227.57,767.55,227.45,767.05,227.32Z" />
    <path class="cls-9" d="M756.66,165.48a15.73,15.73,0,0,1,4,5.53,17,17,0,0,1,1.34,7.28h5.22l-3.89-12.88a18.42,18.42,0,0,0-6.06-3.48c-.62-.22-1.27-.41-1.92-.57l1.22,4Z" />
    <path class="cls-9" d="M768.76,191.37h-4.34l2.29,7.6c.21-.35.42-.69.61-1.06A13.46,13.46,0,0,0,768.76,191.37Z" />
    <polygon class="cls-9" points="780.17 186.87 783.53 199.83 785.96 190.59 786.93 186.87 783.57 173.91 781.93 180.17 780.17 186.87" />
    <path class="cls-8" d="M756.66,165.48l-.09-.07,3.89,12.88H762a17,17,0,0,0-1.34-7.28A15.73,15.73,0,0,0,756.66,165.48Z" />
    <path class="cls-7" d="M774.27,225.77l2.21-7.34c.47,0,1.08,0,1.82.06s1.34.06,1.78.06c.13,0,.25,0,.37,0a2.12,2.12,0,0,0,.11-.21l1.54-3.42,1.47-4.86-5.07-16.79-1.73,6.59L766.71,161H762l1.32,4.38.09.07a15.73,15.73,0,0,1,4,5.53,17,17,0,0,1,1.34,7.28h-1.54l10,33.18,1,3.42h0c-.2.31-.43.63-.68,1a9.89,9.89,0,0,1-1.82,1.84,3.88,3.88,0,0,1-2.46.84c-.44,0-1,0-1.78-.06s-1.35-.06-1.82-.06l-2.67,8.89c.5.13,1,.25,1.4.35.28.07.58.12.87.17a12.81,12.81,0,0,0,2.73-.86A17.36,17.36,0,0,0,774.27,225.77Z" />
    <polygon class="cls-7" points="786.93 186.87 788.62 193.37 798.41 161.03 793.71 161.03 788.69 180.17 786.93 186.87" />
    <path class="cls-8" d="M768.76,178.29a17,17,0,0,0-1.34-7.28,15.73,15.73,0,0,0-4-5.53l-.09-.07,3.89,12.88Z" />
    <polygon class="cls-1" points="785.96 190.59 783.53 199.83 780.17 186.87 779.2 190.59 778.5 193.25 783.57 210.03 788.62 193.37 786.93 186.87 785.96 190.59" />
    <path class="cls-1" d="M778.3,218.49c-.74,0-1.35-.06-1.82-.06l-2.21,7.34a14.62,14.62,0,0,0,2.16-1.68,17.61,17.61,0,0,0,3-3.74c.38-.63.71-1.24,1-1.83-.12,0-.24,0-.37,0C779.64,218.55,779,218.53,778.3,218.49Z" />
  </g>

  <g id="V">
    <polygon class="cls-3" points="802.09 76.14 782.84 1.91 776.08 1.91 798.69 89.1 802.09 76.14" />
    <polygon class="cls-3" points="857.91 1.91 815.8 140.93 822.57 140.93 864.67 1.91 857.91 1.91" />
    <polygon class="cls-5" points="851.15 1.91 809.04 140.93 815.8 140.93 857.91 1.91 851.15 1.91" />
    <polygon class="cls-5" points="798.69 89.1 776.08 1.91 769.32 1.91 795.29 102.07 798.69 89.1" />
    <polygon class="cls-6" points="828.31 1.91 821.55 1.91 802.09 76.14 805.45 89.1 828.31 1.91" />
    <polygon class="cls-6" points="739.73 1.91 781.74 140.93 788.5 140.93 746.49 1.91 739.73 1.91" />
    <polygon class="cls-9" points="802.05 102.07 805.45 89.1 802.09 76.14 798.69 89.1 802.05 102.07" />
    <polygon class="cls-7" points="746.49 1.91 788.5 140.93 795.26 140.93 753.25 1.91 746.49 1.91" />
    <polygon class="cls-7" points="808.82 102.07 835.07 1.91 828.31 1.91 805.45 89.1 808.82 102.07" />
    <polygon class="cls-8" points="835.07 1.91 808.82 102.07 805.45 89.1 802.05 102.07 798.69 89.1 795.29 102.07 769.32 1.91 753.25 1.91 795.26 140.93 809.04 140.93 851.15 1.91 835.07 1.91" />
  </g>

  <g id="O">
    <path class="cls-2" d="M677.08,33.23a40.79,40.79,0,0,0-3.82,12.31,100,100,0,0,0-1.14,15.66V81.64a99.22,99.22,0,0,0,1.14,15.56,42.11,42.11,0,0,0,3.82,12.41,21.26,21.26,0,0,0,7.07,8.21,16.08,16.08,0,0,0,4.22,2,17.83,17.83,0,0,0,4.36-2,22.43,22.43,0,0,0,7.54-8.16,42.31,42.31,0,0,0,4.35-12.37,80.23,80.23,0,0,0,1.43-15.65V61.2a83,83,0,0,0-1.38-15.66,40,40,0,0,0-4.35-12.31,22.53,22.53,0,0,0-7.59-8.07,17.69,17.69,0,0,0-4.38-2,16,16,0,0,0-4.2,2A21,21,0,0,0,677.08,33.23Z" />
    <path class="cls-3" d="M726.27,17.33a57.41,57.41,0,0,1,10.22,19.43A82.13,82.13,0,0,1,740,61.39V81.64a82.13,82.13,0,0,1-3.53,24.63,56.88,56.88,0,0,1-10.22,19.38A46.52,46.52,0,0,1,710,138.3a48.55,48.55,0,0,1-18.24,4.44c1.11.06,2.23.1,3.38.1a50,50,0,0,0,21.62-4.54A46.52,46.52,0,0,0,733,125.65a56.71,56.71,0,0,0,10.22-19.38,82.13,82.13,0,0,0,3.53-24.63V61.39a82.13,82.13,0,0,0-3.53-24.63A57.23,57.23,0,0,0,733,17.33,46.91,46.91,0,0,0,716.75,4.58,49.81,49.81,0,0,0,695,0c-1.14,0-2.26,0-3.36.1A48.19,48.19,0,0,1,710,4.58,46.91,46.91,0,0,1,726.27,17.33Z" />
    <path class="cls-3" d="M684.15,117.82a21.26,21.26,0,0,1-7.07-8.21,42.11,42.11,0,0,1-3.82-12.41,99.22,99.22,0,0,1-1.14-15.56V61.2a100,100,0,0,1,1.14-15.66,40.79,40.79,0,0,1,3.82-12.31,21,21,0,0,1,7.07-8.07,16,16,0,0,1,4.2-2,20.64,20.64,0,0,0-3.43-.73,17.52,17.52,0,0,0-7.53,2.69,21,21,0,0,0-7.07,8.07,40.79,40.79,0,0,0-3.82,12.31,100,100,0,0,0-1.14,15.66V81.64A99.22,99.22,0,0,0,666.5,97.2a42.11,42.11,0,0,0,3.82,12.41,21.26,21.26,0,0,0,7.07,8.21,17.5,17.5,0,0,0,7.58,2.74,21.33,21.33,0,0,0,3.4-.74A16.08,16.08,0,0,1,684.15,117.82Z" />
    <path class="cls-5" d="M691.67.1c-1.12-.06-2.25-.1-3.4-.1S686,0,684.91.1c1.15.07,2.28.17,3.4.3Q690,.21,691.67.1Z" />
    <path class="cls-5" d="M685,142.74c1.11.06,2.23.1,3.38.1s2.27,0,3.38-.1c-1.14-.07-2.27-.17-3.37-.3Q686.71,142.64,685,142.74Z" />
    <path class="cls-5" d="M703.23,4.58a46.91,46.91,0,0,1,16.28,12.75,57.41,57.41,0,0,1,10.22,19.43,82.13,82.13,0,0,1,3.53,24.63V81.64a82.13,82.13,0,0,1-3.53,24.63,56.88,56.88,0,0,1-10.22,19.38,46.52,46.52,0,0,1-16.28,12.65,47.07,47.07,0,0,1-14.85,4.14c1.1.13,2.23.23,3.37.3A48.55,48.55,0,0,0,710,138.3a46.52,46.52,0,0,0,16.28-12.65,56.88,56.88,0,0,0,10.22-19.38A82.13,82.13,0,0,0,740,81.64V61.39a82.13,82.13,0,0,0-3.53-24.63,57.41,57.41,0,0,0-10.22-19.43A46.91,46.91,0,0,0,710,4.58,48.19,48.19,0,0,0,691.67.1q-1.71.11-3.36.3A47,47,0,0,1,703.23,4.58Z" />
    <path class="cls-5" d="M670.32,109.61A42.11,42.11,0,0,1,666.5,97.2a99.22,99.22,0,0,1-1.14-15.56V61.2a100,100,0,0,1,1.14-15.66,40.79,40.79,0,0,1,3.82-12.31,21,21,0,0,1,7.07-8.07,17.52,17.52,0,0,1,7.53-2.69,25,25,0,0,0-3.41-.22,19.25,19.25,0,0,0-10.88,2.91,21,21,0,0,0-7.07,8.07,40.79,40.79,0,0,0-3.82,12.31A100,100,0,0,0,658.6,61.2V81.64a99.22,99.22,0,0,0,1.14,15.56,42.11,42.11,0,0,0,3.82,12.41,21.26,21.26,0,0,0,7.07,8.21,19.15,19.15,0,0,0,11,3,25.86,25.86,0,0,0,3.36-.22,17.5,17.5,0,0,1-7.58-2.74A21.26,21.26,0,0,1,670.32,109.61Z" />
    <path class="cls-6" d="M631.39,61.39V81.64a85.74,85.74,0,0,0,3.34,24.58,57.53,57.53,0,0,0,9.74,19.38,44.12,44.12,0,0,0,15.75,12.7,48.51,48.51,0,0,0,21.39,4.54c1.14,0,2.27,0,3.38-.1a46.87,46.87,0,0,1-18-4.44,44.12,44.12,0,0,1-15.75-12.7,57.53,57.53,0,0,1-9.74-19.38,85.74,85.74,0,0,1-3.34-24.58V61.39a86.24,86.24,0,0,1,3.34-24.63,57.51,57.51,0,0,1,9.74-19.43,45,45,0,0,1,15.7-12.75,46.12,46.12,0,0,1,18-4.48c-1.12-.06-2.25-.1-3.4-.1a47.79,47.79,0,0,0-21.34,4.58,45,45,0,0,0-15.7,12.75,57.51,57.51,0,0,0-9.74,19.43A86.24,86.24,0,0,0,631.39,61.39Z" />
    <path class="cls-6" d="M707,109.66a42.31,42.31,0,0,0,4.34-12.37,80.23,80.23,0,0,0,1.43-15.65V61.2a83,83,0,0,0-1.38-15.66,40,40,0,0,0-4.35-12.31,22.53,22.53,0,0,0-7.59-8.07,19,19,0,0,0-7.81-2.69,19.26,19.26,0,0,0-3.33.73,17.69,17.69,0,0,1,4.38,2,22.53,22.53,0,0,1,7.59,8.07,40,40,0,0,1,4.35,12.31,83,83,0,0,1,1.38,15.66V81.64a80.23,80.23,0,0,1-1.43,15.65,42.31,42.31,0,0,1-4.35,12.37,22.43,22.43,0,0,1-7.54,8.16,17.83,17.83,0,0,1-4.36,2,20.6,20.6,0,0,0,3.36.74,18.82,18.82,0,0,0,7.76-2.74A22.54,22.54,0,0,0,707,109.66Z" />
    <path class="cls-6" d="M685,120.56a26.37,26.37,0,0,0,3.4.22,25.86,25.86,0,0,0,3.36-.22,20.6,20.6,0,0,1-3.36-.74A21.33,21.33,0,0,1,685,120.56Z" />
    <path class="cls-6" d="M691.68,22.47a25,25,0,0,0-3.41-.22,24.07,24.07,0,0,0-3.35.22,20.64,20.64,0,0,1,3.43.73A19.26,19.26,0,0,1,691.68,22.47Z" />
    <path class="cls-7" d="M651.23,17.33a57.51,57.51,0,0,0-9.74,19.43,86.24,86.24,0,0,0-3.34,24.63V81.64a85.74,85.74,0,0,0,3.34,24.58,57.53,57.53,0,0,0,9.74,19.38A44.12,44.12,0,0,0,667,138.3a46.87,46.87,0,0,0,18,4.44q1.72-.11,3.39-.3a45.23,45.23,0,0,1-14.64-4.14A44.12,44.12,0,0,1,658,125.6a57.72,57.72,0,0,1-9.74-19.38,85.74,85.74,0,0,1-3.34-24.58V61.39a86.24,86.24,0,0,1,3.34-24.63A57.69,57.69,0,0,1,658,17.33,44.21,44.21,0,0,1,688.31.4c-1.12-.13-2.25-.23-3.4-.3a46.12,46.12,0,0,0-18,4.48A45,45,0,0,0,651.23,17.33Z" />
    <path class="cls-7" d="M706.25,117.82a22.54,22.54,0,0,0,7.55-8.16,42.31,42.31,0,0,0,4.34-12.37,80.23,80.23,0,0,0,1.43-15.65V61.2a83,83,0,0,0-1.38-15.66,40,40,0,0,0-4.35-12.31,22.53,22.53,0,0,0-7.59-8.07A20.68,20.68,0,0,0,695,22.25a24.07,24.07,0,0,0-3.35.22,19,19,0,0,1,7.81,2.69,22.53,22.53,0,0,1,7.59,8.07,40,40,0,0,1,4.35,12.31,83,83,0,0,1,1.38,15.66V81.64a80.23,80.23,0,0,1-1.43,15.65A42.31,42.31,0,0,1,707,109.66a22.54,22.54,0,0,1-7.55,8.16,18.82,18.82,0,0,1-7.76,2.74,26.37,26.37,0,0,0,3.4.22A20.15,20.15,0,0,0,706.25,117.82Z" />
    <path class="cls-8" d="M719.51,125.65a56.88,56.88,0,0,0,10.22-19.38,82.13,82.13,0,0,0,3.53-24.63V61.39a82.13,82.13,0,0,0-3.53-24.63,57.41,57.41,0,0,0-10.22-19.43A46.54,46.54,0,0,0,688.31.4,44.21,44.21,0,0,0,658,17.33a57.69,57.69,0,0,0-9.74,19.43,86.24,86.24,0,0,0-3.34,24.63V81.64a85.74,85.74,0,0,0,3.34,24.58A57.72,57.72,0,0,0,658,125.6a44.12,44.12,0,0,0,15.75,12.7,45.23,45.23,0,0,0,14.64,4.14,47.07,47.07,0,0,0,14.85-4.14A46.52,46.52,0,0,0,719.51,125.65Zm-31.14-4.87a26.37,26.37,0,0,1-3.4-.22,25.86,25.86,0,0,1-3.36.22,19.15,19.15,0,0,1-11-3,21.26,21.26,0,0,1-7.07-8.21,42.11,42.11,0,0,1-3.82-12.41,99.22,99.22,0,0,1-1.14-15.56V61.2a100,100,0,0,1,1.14-15.66,40.79,40.79,0,0,1,3.82-12.31,21,21,0,0,1,7.07-8.07,19.25,19.25,0,0,1,10.88-2.91,25,25,0,0,1,3.41.22,24.07,24.07,0,0,1,3.35-.22,25,25,0,0,1,3.41.22,24.07,24.07,0,0,1,3.35-.22,20.68,20.68,0,0,1,11.22,2.91,22.53,22.53,0,0,1,7.59,8.07,40,40,0,0,1,4.35,12.31,83,83,0,0,1,1.38,15.66V81.64a80.23,80.23,0,0,1-1.43,15.65,42.31,42.31,0,0,1-4.34,12.37,22.54,22.54,0,0,1-7.55,8.16,20.15,20.15,0,0,1-11.12,3,26.37,26.37,0,0,1-3.4-.22A25.86,25.86,0,0,1,688.37,120.78Z" />
  </g>

  <g id="K">
    <polygon class="cls-3" points="637.38 140.93 644.13 140.93 592.29 62.73 640.89 1.91 634.13 1.91 585.53 62.73 637.38 140.93" />
    <polygon class="cls-3" points="565.12 52.99 565.17 52.92 565.17 1.91 558.41 1.91 558.41 61.36 565.12 52.99" />
    <polygon class="cls-3" points="558.41 93.95 558.41 140.93 565.17 140.93 565.17 93.95 572.87 85.21 569.99 80.8 558.41 93.95" />
    <polygon class="cls-5" points="558.41 61.36 558.41 1.91 551.65 1.91 551.65 69.8 558.41 61.36" />
    <polygon class="cls-5" points="630.61 140.93 637.38 140.93 585.53 62.73 634.13 1.91 627.37 1.91 578.77 62.73 630.61 140.93" />
    <polygon class="cls-5" points="569.99 80.8 567.12 76.39 551.65 93.95 551.65 140.93 558.41 140.93 558.41 93.95 569.99 80.8" />
    <rect class="cls-6" x="533.61" y="1.91" width="6.76" height="139.02" />
    <polygon class="cls-6" points="572.87 85.21 609.13 140.93 615.89 140.93 576.75 80.8 572.87 85.21" />
    <polygon class="cls-6" points="571.88 52.99 612.64 1.91 605.88 1.91 565.17 52.92 565.17 61.36 571.88 52.99" />
    <polygon class="cls-9" points="573.88 76.39 569.99 80.8 572.87 85.21 576.75 80.8 573.88 76.39" />
    <polygon class="cls-9" points="558.41 61.36 558.41 69.8 565.17 61.36 565.17 52.92 565.12 52.99 558.41 61.36" />
    <polygon class="cls-7" points="576.75 80.8 615.89 140.93 622.65 140.93 580.64 76.39 576.75 80.8" />
    <rect class="cls-7" x="540.37" y="1.91" width="6.76" height="139.02" />
    <polygon class="cls-7" points="565.17 61.36 565.17 69.8 578.64 52.99 619.41 1.91 612.64 1.91 571.88 52.99 565.17 61.36" />
    <polygon class="cls-8" points="551.65 140.93 551.65 93.95 567.12 76.39 569.99 80.8 573.88 76.39 576.75 80.8 580.64 76.39 622.65 140.93 630.61 140.93 578.77 62.73 627.37 1.91 619.41 1.91 578.64 52.99 565.17 69.8 565.17 61.36 558.41 69.8 558.41 61.36 551.65 69.8 551.65 1.91 547.13 1.91 547.13 140.93 551.65 140.93" />
  </g>

  <g id="I">
    <rect class="cls-3" x="516.41" y="1.91" width="6.76" height="15.37" />
    <rect class="cls-3" x="483.09" y="17.28" width="6.76" height="108.37" />
    <rect class="cls-3" x="516.41" y="125.65" width="6.76" height="15.28" />
    <rect class="cls-5" x="476.33" y="17.28" width="6.76" height="108.37" />
    <rect class="cls-5" x="509.65" y="125.65" width="6.76" height="15.28" />
    <rect class="cls-5" x="509.65" y="1.91" width="6.76" height="15.37" />
    <rect class="cls-6" x="458.19" y="17.28" width="6.76" height="108.37" />
    <rect class="cls-6" x="425.63" y="1.91" width="6.76" height="15.37" />
    <rect class="cls-6" x="425.63" y="125.65" width="6.76" height="15.28" />
    <rect class="cls-7" x="432.39" y="1.91" width="6.76" height="15.37" />
    <rect class="cls-7" x="432.39" y="125.65" width="6.76" height="15.28" />
    <rect class="cls-7" x="464.95" y="17.28" width="6.76" height="108.37" />
    <polygon class="cls-8" points="439.15 1.91 439.15 17.28 458.19 17.28 464.95 17.28 471.71 17.28 471.71 125.65 464.95 125.65 458.19 125.65 439.15 125.65 439.15 140.93 509.65 140.93 509.65 125.65 489.85 125.65 483.09 125.65 476.33 125.65 476.33 17.28 483.09 17.28 489.85 17.28 509.65 17.28 509.65 1.91 439.15 1.91" />
  </g>

  <g id="N_2">
    <rect class="cls-3" x="408.43" y="1.91" width="6.76" height="139.02" />
    <polygon class="cls-3" points="333.19 140.93 339.95 140.93 340.03 48.42 333.28 36 333.19 140.93" />
    <polygon class="cls-3" points="390.23 94.27 339.95 1.91 333.19 1.91 390.22 106.66 390.23 94.27" />
    <polygon class="cls-5" points="328.59 1.91 326.43 1.91 328.59 5.87 328.59 1.91" />
    <polygon class="cls-4" points="403.73 119.06 403.83 1.91 401.67 1.91 401.67 115.27 403.73 119.06" />
    <polygon class="cls-5" points="401.67 140.93 403.83 140.93 401.67 136.96 401.67 140.93" />
    <polygon class="cls-4" points="326.53 23.58 326.43 140.93 328.59 140.93 328.59 27.38 326.53 23.58" />
    <polygon class="cls-4" points="340.05 26.91 390.21 119.06 390.21 115.88 340.05 23.58 340.05 26.91" />
    <polygon class="cls-5" points="328.59 27.38 328.59 140.93 333.19 140.93 333.28 36 328.59 27.38" />
    <polygon class="cls-5" points="340.05 26.91 340.05 23.58 390.21 115.88 390.22 106.66 333.19 1.91 328.59 1.91 328.59 5.87 340.05 26.91" />
    <polygon class="cls-5" points="403.83 1.91 403.73 119.06 401.67 115.27 401.67 136.96 403.83 140.93 408.43 140.93 408.43 1.91 403.83 1.91" />
    <rect class="cls-6" x="315.07" y="1.91" width="6.76" height="139.02" />
    <polygon class="cls-6" points="397.07 1.91 390.31 1.91 390.23 94.27 396.98 106.66 397.07 1.91" />
    <polygon class="cls-6" points="340.03 48.42 390.31 140.93 397.07 140.93 340.04 36 340.03 48.42" />
    <polygon class="cls-9" points="396.97 119.06 396.98 106.66 390.23 94.27 390.22 106.66 396.97 119.06" />
    <polygon class="cls-9" points="333.29 23.58 333.28 36 340.03 48.42 340.04 36 333.29 23.58" />
    <polygon class="cls-7" points="328.59 27.38 328.59 5.87 326.43 1.91 321.83 1.91 321.83 140.93 326.43 140.93 326.53 23.58 328.59 27.38" />
    <polygon class="cls-7" points="390.21 115.88 390.21 119.06 340.05 26.91 340.04 36 397.07 140.93 401.67 140.93 401.67 136.96 390.21 115.88" />
    <polygon class="cls-7" points="401.67 115.27 401.67 1.91 397.07 1.91 396.98 106.66 401.67 115.27" />
    <polygon class="cls-8" points="328.59 27.38 333.28 36 333.29 23.58 340.04 36 340.05 26.91 328.59 5.87 328.59 27.38" />
    <polygon class="cls-8" points="396.97 119.06 390.22 106.66 390.21 115.88 401.67 136.96 401.67 115.27 396.98 106.66 396.97 119.06" />
  </g>

  <g id="N_1">
    <polygon class="cls-3" points="222.63 140.93 229.39 140.93 229.46 48.42 222.71 36 222.63 140.93" />
    <polygon class="cls-3" points="279.67 94.27 229.39 1.91 222.63 1.91 279.66 106.66 279.67 94.27" />
    <rect class="cls-3" x="297.87" y="1.91" width="6.76" height="139.02" />
    <polygon class="cls-4" points="293.17 119.06 293.26 1.91 291.11 1.91 291.11 115.27 293.17 119.06" />
    <polygon class="cls-4" points="215.96 23.58 215.87 140.93 218.03 140.93 218.03 27.38 215.96 23.58" />
    <polygon class="cls-5" points="218.03 1.91 215.87 1.91 218.03 5.87 218.03 1.91" />
    <polygon class="cls-4" points="229.48 26.91 279.65 119.06 279.65 115.88 229.48 23.58 229.48 26.91" />
    <polygon class="cls-5" points="291.11 140.93 293.26 140.93 291.11 136.96 291.11 140.93" />
    <polygon class="cls-5" points="229.48 26.91 229.48 23.58 279.65 115.88 279.66 106.66 222.63 1.91 218.03 1.91 218.03 5.87 229.48 26.91" />
    <polygon class="cls-5" points="218.03 27.38 218.03 140.93 222.63 140.93 222.71 36 218.03 27.38" />
    <polygon class="cls-5" points="293.26 1.91 293.17 119.06 291.11 115.27 291.11 136.96 293.26 140.93 297.87 140.93 297.87 1.91 293.26 1.91" />
    <polygon class="cls-6" points="229.46 48.42 279.74 140.93 286.5 140.93 229.47 36 229.46 48.42" />
    <polygon class="cls-6" points="286.5 1.91 279.74 1.91 279.67 94.27 286.42 106.66 286.5 1.91" />
    <rect class="cls-6" x="204.51" y="1.91" width="6.76" height="139.02" />
    <polygon class="cls-9" points="222.72 23.58 222.71 36 229.46 48.42 229.47 36 222.72 23.58" />
    <polygon class="cls-9" points="286.41 119.06 286.42 106.66 279.67 94.27 279.66 106.66 286.41 119.06" />
    <polygon class="cls-7" points="218.03 27.38 218.03 5.87 215.87 1.91 211.27 1.91 211.27 140.93 215.87 140.93 215.96 23.58 218.03 27.38" />
    <polygon class="cls-7" points="279.65 115.88 279.65 119.06 229.48 26.91 229.47 36 286.5 140.93 291.11 140.93 291.11 136.96 279.65 115.88" />
    <polygon class="cls-7" points="291.11 115.27 291.11 1.91 286.5 1.91 286.42 106.66 291.11 115.27" />
    <polygon class="cls-8" points="218.03 27.38 222.71 36 222.72 23.58 229.47 36 229.48 26.91 218.03 5.87 218.03 27.38" />
    <polygon class="cls-8" points="286.41 119.06 279.66 106.66 279.65 115.88 291.11 136.96 291.11 115.27 286.42 106.66 286.41 119.06" />
  </g>

  <g id="I-2" data-name="I">
    <rect class="cls-3" x="187.92" y="1.91" width="6.76" height="6.59" />
    <polygon class="cls-3" points="151.55 8.5 151.55 134.53 187.92 134.53 187.92 140.93 194.69 140.93 194.69 134.53 158.31 134.53 158.31 8.5 151.55 8.5" />
    <rect class="cls-4" x="144.79" y="8.5" width="6.74" height="126.03" />
    <polygon class="cls-5" points="151.55 134.53 151.55 8.5 151.53 8.5 151.53 134.53 181.16 134.53 181.16 140.93 187.92 140.93 187.92 134.53 151.55 134.53" />
    <rect class="cls-5" x="181.16" y="1.91" width="6.76" height="6.59" />
    <rect class="cls-6" x="102.96" y="134.53" width="6.76" height="6.4" />
    <rect class="cls-6" x="138" y="8.5" width="6.76" height="126.03" />
    <rect class="cls-6" x="102.96" y="1.91" width="6.76" height="6.59" />
    <rect class="cls-7" x="109.72" y="1.91" width="6.76" height="6.59" />
    <polygon class="cls-6" points="144.76 8.5 144.76 134.53 151.53 134.53 151.53 134.53 144.79 134.53 144.79 8.5 151.53 8.5 151.53 8.5 144.76 8.5" />
    <rect class="cls-7" x="109.72" y="134.53" width="6.76" height="6.4" />
    <polygon class="cls-8" points="151.53 8.5 151.53 8.5 151.55 8.5 158.31 8.5 181.16 8.5 181.16 1.91 116.48 1.91 116.48 8.5 138 8.5 144.76 8.5 151.53 8.5" />
    <polygon class="cls-8" points="151.53 134.53 151.53 134.53 144.76 134.53 138 134.53 116.48 134.53 116.48 140.93 181.16 140.93 181.16 134.53 151.53 134.53" />
  </g>

  <g id="L">
    <rect class="cls-3" x="13.52" y="1.91" width="6.5" height="132.62" />
    <rect class="cls-3" x="86.78" y="134.53" width="6.76" height="6.4" />
    <rect class="cls-4" x="6.76" y="1.91" width="6.5" height="132.62" />
    <rect class="cls-5" x="80.01" y="134.53" width="6.76" height="6.4" />
    <polygon class="cls-6" points="6.5 134.53 6.5 1.91 0 1.91 0 140.93 6.76 140.93 6.76 134.53 6.5 134.53" />
    <polygon class="cls-7" points="13.26 134.53 6.76 134.53 6.76 140.93 13.52 140.93 13.52 134.53 13.26 134.53" />
    <polygon class="cls-8" points="20.02 134.53 13.52 134.53 13.52 140.93 80.02 140.93 80.02 134.53 20.02 134.53" />
  </g>
</svg>