<svg width="215" height="151" viewBox="0 0 215 151" fill="none" xmlns="http://www.w3.org/2000/svg">
<path d="M0.267578 94.2871C0.267578 83.1217 1.7487 71.5007 4.71094 59.4238C7.67318 47.1191 11.8887 35.0423 17.3574 23.1934C22.8262 11.5723 29.2064 0.520833 36.498 -9.96094C44.0176 -20.4427 52.4486 -29.6712 61.791 -37.6465L101.439 -11.6699C92.097 3.59701 84.5775 19.7754 78.8809 36.8652C73.4121 53.7272 70.6777 72.64 70.6777 93.6035V150.342H0.267578V94.2871ZM114.428 94.2871C114.428 83.1217 115.909 71.5007 118.871 59.4238C121.833 47.1191 126.049 35.0423 131.518 23.1934C136.986 11.5723 143.367 0.520833 150.658 -9.96094C158.178 -20.4427 166.609 -29.6712 175.951 -37.6465L215.6 -11.6699C206.257 3.59701 198.738 19.7754 193.041 36.8652C187.572 53.7272 184.838 72.64 184.838 93.6035V150.342H114.428V94.2871Z" fill="#F0F0F0"/>
</svg>
