<svg width="20" height="20" viewBox="0 0 20 20" fill="none" xmlns="http://www.w3.org/2000/svg">
<path d="M2.05138 19.0275H1.026V19.9993H2.05138V19.0275Z" fill="#FFFF00"/>
<path d="M3.03078 0.000610352H2.04749V19.0275H3.03078V0.000610352Z" fill="#0000FF"/>
<path d="M14.1761 19.0275H13.1508V19.9993H14.1761V19.0275Z" fill="#0000FF"/>
<path d="M2.05138 0.000610352H1.026V19.0275H2.05138V0.000610352Z" fill="#00FF00"/>
<path d="M13.1507 19.0275H12.1254V19.9993H13.1507V19.0275Z" fill="#00FFFF"/>
<path d="M1.02599 0.000610352H0.000610352V19.9993H1.02599V19.0275V0.000610352Z" fill="#FF0000"/>
<path d="M3.0346 19.0275H2.04749V19.9993H12.1253V19.0275H3.0346Z" fill="#FFFEFF"/>
<path d="M19.9993 16.9653H18.9739V19.9993H19.9993V16.9653Z" fill="#0000FF"/>
<path d="M18.9739 16.9653H17.9485V19.9993H18.9739V16.9653Z" fill="#00FFFF"/>
<path d="M16.2268 16.9653H15.2014V19.9993H16.2268V16.9653Z" fill="#FF0000"/>
<path d="M17.2484 16.9653H16.223V19.9993H17.2484V16.9653Z" fill="#FFFF00"/>
<path d="M17.9485 16.9653H17.2483V19.9993H17.9485V16.9653Z" fill="#FFFEFF"/>
</svg>
