<?xml version="1.0" encoding="UTF-8"?>
<svg id="Layer_2" data-name="Layer 2" xmlns="http://www.w3.org/2000/svg" xmlns:xlink="http://www.w3.org/1999/xlink" viewBox="0 0 170.06 170.06">
  <defs>
    <style>
      .cls-1 {
        clip-path: url(#clippath);
      }

      .cls-2 {
        fill: none;
      }

      .cls-2, .cls-3, .cls-4, .cls-5 {
        stroke-width: 0px;
      }

      .cls-6 {
        mask: url(#mask);
      }

      .cls-4 {
        fill: #fff;
      }

      .cls-5 {
        fill-rule: evenodd;
      }
    </style>
    <clipPath id="clippath">
      <path class="cls-2" d="m85.03,0h0c46.96,0,85.03,38.07,85.03,85.03h0c0,46.96-38.07,85.03-85.03,85.03h0C38.07,170.06,0,131.99,0,85.03h0C0,38.07,38.07,0,85.03,0Z"/>
    </clipPath>
    <mask id="mask" x="-1.4" y="79.02" width="173.32" height="12.05" maskUnits="userSpaceOnUse">
      <g id="mask0_53_15" data-name="mask0 53 15">
        <path class="cls-4" d="m171.45,79.02H-1.4v12.05h172.85v-12.05Z"/>
      </g>
    </mask>
  </defs>
  <g id="Layer_1-2" data-name="Layer 1">
    <g class="cls-1">
      <path class="cls-4" d="m85.03,0h0c46.96,0,85.03,38.07,85.03,85.03h0c0,46.96-38.07,85.03-85.03,85.03h0C38.07,170.06,0,131.99,0,85.03h0C0,38.07,38.07,0,85.03,0Z"/>
      <g class="cls-6">
        <g>
          <path class="cls-3" d="m85.27,79.02H-1.4v6.01h86.66v-6.01Z"/>
          <path class="cls-3" d="m171.93,85.03h-86.66v6.01h86.66v-6.01Z"/>
        </g>
      </g>
    </g>
    <path class="cls-3" d="m32.64,41.84c2.8,0,4.96.63,6.48,1.88,1.52,1.25,2.28,3.07,2.28,5.44,0,1.62-.39,2.98-1.18,4.08-.78,1.09-1.86,1.93-3.26,2.51l5.44,10.11v.22h-4.51l-4.86-9.34h-4.7v9.34h-4.21v-24.24h8.53Zm-4.31,11.52h4.33c1.42,0,2.53-.36,3.33-1.07.8-.72,1.2-1.7,1.2-2.95s-.37-2.3-1.12-3.01c-.73-.71-1.83-1.08-3.3-1.1h-4.45v8.13Zm15.99,4.18v-.5c0-1.8.34-3.4,1.03-4.81.7-1.42,1.68-2.53,2.93-3.31,1.25-.79,2.65-1.18,4.2-1.18,2.45,0,4.35.78,5.68,2.35,1.34,1.57,2.01,3.78,2.01,6.64v1.63h-11.77c.12,1.49.62,2.66,1.48,3.53.88.87,1.98,1.3,3.3,1.3,1.85,0,3.36-.75,4.53-2.25l2.18,2.08c-.72,1.08-1.69,1.91-2.9,2.51-1.2.59-2.55.88-4.05.88-2.56,0-4.65-.8-6.24-2.41-1.59-1.62-2.38-3.77-2.38-6.46Zm4.15-2.15h7.71v-.3c-.09-1.35-.45-2.38-1.08-3.06-.63-.7-1.51-1.05-2.63-1.05s-2.01.39-2.7,1.17c-.68.78-1.11,1.86-1.3,3.25Zm14.1,1.53c0-2.82.64-5.06,1.93-6.71s3.03-2.48,5.23-2.48c2.01,0,3.6.7,4.78,2.11l.23-1.78h3.6v24.94h-4.05v-8.46c-1.18,1.24-2.71,1.86-4.6,1.86-2.15,0-3.88-.84-5.18-2.51-1.3-1.69-1.95-4.01-1.95-6.98Zm4.05.35c0,1.84.36,3.29,1.08,4.35.73,1.04,1.74,1.57,3.03,1.57,1.6,0,2.79-.68,3.56-2.05v-8.19c-.78-1.31-1.95-1.96-3.53-1.96-1.29,0-2.3.52-3.05,1.55-.73,1.03-1.1,2.61-1.1,4.75Zm16,2.46v-11.67h4.05v11.62c0,2.29.95,3.43,2.85,3.43s3.29-.7,3.98-2.11v-12.94h4.05v18.02h-3.81l-.1-1.77c-1.19,1.4-2.88,2.1-5.06,2.1-1.95,0-3.44-.57-4.45-1.72-1-1.14-1.5-2.8-1.5-4.96Zm18.35-2.2v-.5c0-1.8.34-3.4,1.03-4.81.7-1.42,1.68-2.53,2.93-3.31,1.25-.79,2.65-1.18,4.2-1.18,2.45,0,4.35.78,5.68,2.35,1.34,1.57,2.02,3.78,2.02,6.64v1.63h-11.77c.12,1.49.62,2.66,1.48,3.53.88.87,1.98,1.3,3.3,1.3,1.85,0,3.36-.75,4.53-2.25l2.18,2.08c-.72,1.08-1.69,1.91-2.9,2.51-1.2.59-2.55.88-4.05.88-2.56,0-4.65-.8-6.24-2.41-1.59-1.62-2.38-3.77-2.38-6.46Zm4.15-2.15h7.71v-.3c-.09-1.35-.45-2.38-1.08-3.06-.63-.7-1.51-1.05-2.63-1.05s-2.01.39-2.7,1.17c-.68.78-1.11,1.86-1.3,3.25Zm17.97,5.01c.06.95.42,1.69,1.08,2.21.67.51,1.55.77,2.65.77s1.88-.2,2.43-.6c.56-.41.83-.94.83-1.6,0-.72-.3-1.27-.9-1.65-.59-.38-1.57-.71-2.95-1-1.38-.29-2.53-.65-3.45-1.1-2.02-.98-3.03-2.39-3.03-4.25,0-1.55.66-2.85,1.97-3.9,1.31-1.04,2.97-1.57,5-1.57,2.15,0,3.89.53,5.21,1.6,1.33,1.07,2,2.45,2,4.15h-4.05c0-.78-.29-1.42-.87-1.93-.58-.52-1.34-.78-2.3-.78-.89,0-1.62.21-2.18.62-.55.41-.83.96-.83,1.65,0,.62.26,1.1.78,1.45.52.34,1.58.69,3.16,1.05,1.59.34,2.83.76,3.73,1.25.91.48,1.58,1.05,2.01,1.73.44.68.67,1.5.67,2.46,0,1.62-.67,2.94-2.01,3.95-1.34,1-3.1,1.5-5.28,1.5-1.48,0-2.79-.27-3.95-.8-1.15-.53-2.05-1.27-2.7-2.2-.64-.93-.97-1.94-.97-3.01h3.93Zm12.57-12.34h2.96v-4.38h4.05v4.38h3.18v3h-3.18v10.06c0,.69.13,1.19.4,1.5.28.3.77.45,1.47.45.47,0,.94-.06,1.42-.17v3.13c-.92.26-1.81.38-2.66.38-3.11,0-4.66-1.72-4.66-5.15v-10.21h-2.96v-3Z"/>
    <path class="cls-5" d="m82.03,32.74v6.01h-6.01v-6.01h6.01Zm0,0h6.01v-6.01h-6.01v6.01Zm6.01-6.01v-6.01h6.01v6.01h-6.01Zm0-6.01v-6.01h-6.01v6.01h6.01Zm-12.03-12.03h6.01v6.01h-6.01v-6.01Z"/>
    <path class="cls-3" d="m41.1,98.38h3.78l9.17,24.24h-4.4l-1.98-5.64h-9.39l-1.96,5.64h-4.38l9.16-24.24Zm5.39,15.2l-3.51-10.06-3.51,10.06h7.03Zm14.77,9.04h-4.2v-24.24h4.2v24.24Zm12.49-8.88v-.42c0-2.74.73-4.93,2.2-6.58,1.47-1.65,3.46-2.48,5.99-2.48,2.14,0,3.89.63,5.23,1.88,1.35,1.24,2.06,2.88,2.13,4.91h-3.81c-.04-1.03-.4-1.88-1.07-2.55-.66-.67-1.49-1-2.51-1-1.31,0-2.32.48-3.03,1.43-.71.94-1.07,2.38-1.08,4.31v.65c0,1.95.35,3.41,1.05,4.38.71.95,1.73,1.43,3.06,1.43,1.01,0,1.85-.29,2.51-.88.67-.59,1.02-1.32,1.07-2.18h3.81c-.04,1.12-.39,2.17-1.05,3.15-.65.97-1.54,1.73-2.66,2.3-1.12.57-2.33.85-3.63.85-2.52,0-4.52-.82-5.99-2.45-1.48-1.63-2.21-3.89-2.21-6.76Zm18.55-16.7h4.05v9.52c1.32-1.53,2.99-2.3,5.01-2.3,3.84,0,5.79,2.19,5.84,6.58v11.77h-4.05v-11.62c0-1.24-.27-2.12-.82-2.63-.53-.52-1.32-.78-2.36-.78-1.62,0-2.83.72-3.63,2.16v12.87h-4.05v-25.58Zm18.43,20.53c0-1.92.71-3.39,2.13-4.41,1.43-1.03,3.47-1.55,6.13-1.55h2.48v-1.18c0-.93-.26-1.68-.78-2.23-.52-.57-1.32-.85-2.38-.85-.92,0-1.68.23-2.27.7-.59.45-.88,1.04-.88,1.75h-4.05c0-.99.33-1.91.98-2.76.66-.87,1.54-1.54,2.66-2.03,1.13-.49,2.39-.73,3.78-.73,2.11,0,3.79.53,5.05,1.6,1.25,1.05,1.9,2.54,1.93,4.46v8.13c0,1.62.23,2.91.68,3.88v.28h-4.13c-.18-.34-.33-.9-.47-1.68-1.29,1.34-2.86,2.01-4.73,2.01s-3.29-.52-4.43-1.55c-1.14-1.03-1.71-2.31-1.71-3.83Zm4.05-.42c0,.78.26,1.4.77,1.86.52.45,1.22.68,2.08.68.8,0,1.55-.19,2.25-.58.71-.39,1.24-.91,1.6-1.57v-3.4h-2.18c-1.5,0-2.62.26-3.38.78-.75.52-1.13,1.26-1.13,2.21Zm13.04-12.55h2.96v-4.38h4.05v4.38h3.18v3h-3.18v10.06c0,.69.13,1.19.4,1.5.28.3.77.45,1.47.45.47,0,.94-.06,1.42-.17v3.13c-.92.26-1.81.38-2.66.38-3.11,0-4.66-1.71-4.66-5.14v-10.21h-2.96v-3Z"/>
    <path class="cls-5" d="m82.34,155.33v6.01h-6.01v-6.01h6.01Zm0,0h6.01v-6.01h-6.01v6.01Zm6.01-6.01v-6.01h6.01v6.01h-6.01Zm0-6.01v-6.01h-6.01v6.01h6.01Zm-12.03-12.03h6.01v6.01h-6.01v-6.01Z"/>
  </g>
</svg>