<svg width="20" height="21" viewBox="0 0 20 21" fill="none" xmlns="http://www.w3.org/2000/svg">
<path d="M10.3765 0.882812C10.5416 0.973062 10.6755 1.11119 10.7606 1.27902C10.8457 1.44685 10.8779 1.6365 10.8531 1.82302C10.8531 5.9608 10.8531 10.0986 10.8531 14.2364V14.5787C10.9095 14.544 10.9528 14.5223 10.9874 14.4963L13.2448 12.5293C14.2197 11.6887 15.1989 10.8438 16.1781 10.0076C16.322 9.8748 16.5126 9.80436 16.7082 9.81167C16.9039 9.81898 17.0887 9.90344 17.2223 10.0466C17.283 10.1202 17.3279 10.2055 17.3544 10.2971C17.3808 10.3888 17.3882 10.4849 17.376 10.5795C17.3638 10.6741 17.3323 10.7652 17.2835 10.8472C17.2348 10.9292 17.1697 11.0003 17.0923 11.0561L13.5481 14.1324C13.1668 14.4617 12.7769 14.791 12.3913 15.1159C12.0056 15.4409 11.6634 15.7312 11.2994 16.0475C10.9815 16.3325 10.5695 16.4901 10.1426 16.4901C9.71559 16.4901 9.30364 16.3325 8.98571 16.0475C8.39646 15.5535 7.81587 15.0379 7.23095 14.531L3.8384 11.5761C3.63476 11.4027 3.40512 11.2468 3.22315 11.0691C3.14305 11.0142 3.07521 10.9433 3.02391 10.8609C2.97262 10.7785 2.93899 10.6863 2.92514 10.5902C2.9113 10.4941 2.91754 10.3961 2.94348 10.3026C2.96942 10.209 3.01448 10.1218 3.07583 10.0466C3.2172 9.9053 3.40889 9.82594 3.60876 9.82594C3.80863 9.82594 4.00032 9.9053 4.14169 10.0466C4.32367 10.2026 4.50131 10.3672 4.68328 10.5275L6.82367 12.3906C7.36093 12.8585 7.89963 13.325 8.43978 13.7901C8.76041 14.0631 9.08537 14.323 9.44498 14.6176V14.284C9.44498 10.1376 9.44498 5.99113 9.44498 1.84468C9.41473 1.65571 9.44341 1.46199 9.52713 1.28989C9.61086 1.11779 9.74556 0.975654 9.91292 0.882813L10.3765 0.882812Z" fill="black"/>
<path d="M10.156 19.5137C13.0185 19.5137 15.8825 19.5137 18.7479 19.5137C18.9338 19.5145 19.1167 19.5606 19.2808 19.648C19.3958 19.7109 19.4869 19.8099 19.5401 19.9297C19.5934 20.0494 19.6058 20.1834 19.5754 20.3109C19.5483 20.4472 19.4803 20.5721 19.3804 20.6689C19.2806 20.7656 19.1537 20.8297 19.0165 20.8525C18.9055 20.8612 18.7939 20.8612 18.6829 20.8525C12.9897 20.8525 7.29785 20.8525 1.6075 20.8525C1.44901 20.867 1.28921 20.8538 1.13523 20.8135C0.990871 20.7597 0.869216 20.6582 0.790419 20.5258C0.711622 20.3935 0.680411 20.2381 0.701957 20.0856C0.734458 19.9361 0.812944 19.8006 0.926397 19.698C1.03985 19.5955 1.18258 19.531 1.33454 19.5137C1.42986 19.5137 1.52518 19.5137 1.6205 19.5137H10.156Z" fill="black"/>
</svg>
