<?xml version="1.0" encoding="UTF-8" standalone="no"?>
<svg
   width="49"
   height="50"
   viewBox="0 0 49 50"
   fill="none"
   version="1.1"
   id="svg1"
   sodipodi:docname="snowflake.svg"
   inkscape:version="1.3 (0e150ed6c4, 2023-07-21)"
   xmlns:inkscape="http://www.inkscape.org/namespaces/inkscape"
   xmlns:sodipodi="http://sodipodi.sourceforge.net/DTD/sodipodi-0.dtd"
   xmlns="http://www.w3.org/2000/svg"
   xmlns:svg="http://www.w3.org/2000/svg">
  <defs
     id="defs1" />
  <sodipodi:namedview
     id="namedview1"
     pagecolor="#ffffff"
     bordercolor="#000000"
     borderopacity="0.25"
     inkscape:showpageshadow="2"
     inkscape:pageopacity="0.0"
     inkscape:pagecheckerboard="0"
     inkscape:deskcolor="#d1d1d1"
     inkscape:zoom="16.42"
     inkscape:cx="24.512789"
     inkscape:cy="25"
     inkscape:window-width="1920"
     inkscape:window-height="1017"
     inkscape:window-x="1912"
     inkscape:window-y="-8"
     inkscape:window-maximized="1"
     inkscape:current-layer="svg1" />
  <g
     id="path1">
    <path
       style="color:#000000;fill:#000000;-inkscape-stroke:none"
       d="m 2.75806,23.5298 15.24664,3.8017 -10.8034,13.0359 -0.69559,0.8393 0.89608,0.6208 7.23881,5.0148 0.8846,0.6128 0.5464,-0.927 8.3287,-14.1311 8.3887,14.6012 0.5569,0.9693 0.9016,-0.6611 7.1952,-5.2765 0.847,-0.6211 -0.662,-0.8155 -10.4635,-12.8905 15.4979,-3.6466 1.0448,-0.2458 -0.319,-1.0248 -2.66,-8.5471 -0.329,-1.057 -1.0183,0.4344 -14.525,6.1968 L 30.2485,2.58057 30.3358,1.5 H 29.2517 20.443 19.3678 L 19.4456,2.57241 20.6782,19.5498 6.01246,13.225 4.99158,12.7847 l -0.33005,1.0616 -2.61645,8.4163 -0.3143,1.011 z"
       id="path2" />
    <path
       style="color:#000000;fill:#0b0b0b;-inkscape-stroke:none"
       d="M 18.292969,0.5 18.447266,2.6445313 19.5625,17.978516 6.4082031,12.306641 4.3671875,11.425781 3.7070313,13.548828 1.0898437,21.964844 0.4609375,23.988281 2.515625,24.5 l 13.705078,3.417969 -9.7890624,11.810547 -1.390625,1.679687 1.7910156,1.242188 7.2382818,5.013671 1.769531,1.226563 1.09375,-1.855469 7.455078,-12.65039 7.533203,13.111328 1.113281,1.939453 1.802735,-1.322266 7.195312,-5.277344 1.695313,-1.242187 -1.324219,-1.630859 -9.458985,-11.652344 13.945313,-3.28125 2.089844,-0.492188 -0.638672,-2.048828 -2.658203,-8.546875 -0.658203,-2.113281 -2.03711,0.867188 L 29.984375,18.242187 31.246094,2.6601563 31.419922,0.5 h -2.167969 -8.808594 z m 2.15039,2 h 8.808594 L 27.724609,21.382812 43.773437,14.535156 46.433594,23.082031 29.382812,27.09375 40.851562,41.222656 33.65625,46.5 24.412109,30.408203 15.210938,46.019531 7.9707031,41.005859 19.789062,26.746094 3,22.558594 5.6171875,14.142578 21.794922,21.121094 Z"
       id="path3" />
  </g>
</svg>
