<svg xmlns="http://www.w3.org/2000/svg">
	<symbol id="1">
		<svg viewBox="0 0 1920 32" preserveAspectRatio="none" xmlns="http://www.w3.org/2000/svg">
			<path d="M960 15.71L0 0L0 4L960 19.71V15.71Z" fill="var(--color)"/>
			<path d="M960 11.7002V15.7102L1920 31.4102L1920 27.4102L960 11.7002Z" fill="var(--color)"/>
		</svg>
	</symbol>
	<symbol id="1m">
		<svg viewBox="0 0 768 35" preserveAspectRatio="none" xmlns="http://www.w3.org/2000/svg">
			<path d="M0 4.01185V0.00976562L383.99 13.4186V17.4186L0 4.01185Z" fill="var(--color)"/>
			<path d="M768 30.8299V34.8378L383.992 21.4285V17.4185L768 30.8299Z" fill="var(--color)"/>
		</svg>
	</symbol>
	<symbol id="faq-1">
		<svg viewBox="0 0 1680 67" preserveAspectRatio="none" xmlns="http://www.w3.org/2000/svg">
			<path d="M0 4.09245V0.0878906L839.99 29.4201V33.4201L0 4.09245Z" fill="var(--color)"/>
			<path d="M1680 62.7572V66.7624L839.992 37.43V33.42L1680 62.7572Z" fill="var(--color)"/>
		</svg>
	</symbol>
	<symbol id="faq-1m">
		<svg viewBox="0 0 768 35" preserveAspectRatio="none" xmlns="http://www.w3.org/2000/svg">
			<path d="M0 4.0138V0.0117188L383.99 13.4205V17.4205L0 4.0138Z" fill="var(--color)"/>
			<path d="M768 30.8319V34.8397L383.992 21.4304V17.4204L768 30.8319Z" fill="var(--color)"/>
		</svg>
	</symbol>
	<symbol id="2">
		<svg viewBox="0 0 1920 29" preserveAspectRatio="none" xmlns="http://www.w3.org/2000/svg">
			<path d="M960 14.29L1920 4L1920 0L960 10.29V14.29Z" fill="var(--color)"/>
			<path d="M960 14.29L0 24.58L0 28.58L960 18.29V14.29Z" fill="var(--color)"/>
		</svg>
	</symbol>
	<symbol id="2m">
		<svg viewBox="0 0 768 9" preserveAspectRatio="none" xmlns="http://www.w3.org/2000/svg">
			<path d="M0 0.507812V4.50781H383.991V0.507812H0Z" fill="var(--color)"/>
			<path d="M768 8.50781V4.50781H383.992V8.50781H768Z" fill="var(--color)"/>
		</svg>
	</symbol>
	<symbol id="faq-2">
		<svg viewBox="0 0 1680 9" preserveAspectRatio="none" xmlns="http://www.w3.org/2000/svg">
			<path d="M0 4.50977V0.509766H839.991V4.50977H0Z" fill="var(--color)"/>
			<path d="M1680 4.50977V8.50977H839.992V4.50977H1680Z" fill="var(--color)"/>
		</svg>
	</symbol>
	<symbol id="faq-2m">
		<svg viewBox="0 0 768 9" preserveAspectRatio="none" xmlns="http://www.w3.org/2000/svg">
			<path d="M0 4.50977V0.509766H383.991V4.50977H0Z" fill="var(--color)"/>
			<path d="M768 4.50977V8.50977H383.992V4.50977H768Z" fill="var(--color)"/>
		</svg>
	</symbol>
	<symbol id="3">
		<svg viewBox="0 0 1920 85" preserveAspectRatio="none" xmlns="http://www.w3.org/2000/svg">
			<path d="M960 42.04L1920 4L1920 0L960 38.03V42.04Z" fill="var(--color)"/>
			<path d="M960 42.04L0 80.07L0 84.07L960 46.04V42.04Z" fill="var(--color)"/>
		</svg>
	</symbol>
	<symbol id="3m">
		<svg viewBox="0 0 768 27" preserveAspectRatio="none" xmlns="http://www.w3.org/2000/svg">
			<path d="M0 27.0055V23.0077L383.99 9.59669V13.5967L0 27.0055Z" fill="var(--color)"/>
			<path d="M768 0.1875V4.19532L383.992 17.6068V13.5968L768 0.1875Z" fill="var(--color)"/>
		</svg>
	</symbol>
	<symbol id="faq-3">
		<svg viewBox="0 0 1680 59" preserveAspectRatio="none" xmlns="http://www.w3.org/2000/svg">
			<path d="M0 58.9321V54.9369L839.99 25.5999V29.5999L0 58.9321Z" fill="var(--color)"/>
			<path d="M1680 0.267578V4.2728L839.992 33.61V29.6L1680 0.267578Z" fill="var(--color)"/>
		</svg>
	</symbol>
	<symbol id="faq-3m">
		<svg viewBox="0 0 768 27" preserveAspectRatio="none" xmlns="http://www.w3.org/2000/svg">
			<path d="M0 27.0074V23.0096L383.99 9.59863V13.5986L0 27.0074Z" fill="var(--color)"/>
			<path d="M768 0.189453V4.19727L383.992 17.6087V13.5987L768 0.189453Z" fill="var(--color)"/>
		</svg>
	</symbol>
	<symbol id="4">
		<svg viewBox="0 0 1920 131" preserveAspectRatio="none" xmlns="http://www.w3.org/2000/svg">
			<path d="M960 65.74L1920 4.94996L1920 0.959961L960 61.73V65.74Z" fill="var(--color)"/>
			<path d="M960 65.7402L0 126.54L0 130.53L960 69.7502V65.7402Z" fill="var(--color)"/>
		</svg>
	</symbol>
	<symbol id="4m">
		<svg viewBox="0 0 768 55" preserveAspectRatio="none" xmlns="http://www.w3.org/2000/svg">
			<path d="M768 4.8715V0.857422L383.992 27.6866V31.6966L768 4.8715Z" fill="var(--color)"/>
			<path d="M0 54.5144V50.5046L383.99 23.6762V27.6862L0 54.5144Z" fill="var(--color)"/>
		</svg>
	</symbol>
	<symbol id="faq-4">
		<svg viewBox="0 0 1680 118" preserveAspectRatio="none" xmlns="http://www.w3.org/2000/svg">
			<path d="M0 117.377V113.368L839.99 54.6797V58.6897L0 117.377Z" fill="var(--color)"/>
			<path d="M1680 0.00195312V4.02087L839.992 62.7001V58.6901L1680 0.00195312Z" fill="var(--color)"/>
		</svg>
	</symbol>
	<symbol id="faq-4m">
		<svg viewBox="0 0 768 55" preserveAspectRatio="none" xmlns="http://www.w3.org/2000/svg">
			<path d="M768 4.87543V0.861328L383.992 27.6905V31.7005L768 4.87543Z" fill="var(--color)"/>
			<path d="M0 54.5183V50.5085L383.99 23.6801V27.6901L0 54.5183Z" fill="var(--color)"/>
		</svg>
	</symbol>
	<symbol id="5">
		<svg viewBox="0 0 1920 83" preserveAspectRatio="none" xmlns="http://www.w3.org/2000/svg">
			<path d="M960 41.9004L0.851562 78.9904L1.03292 82.9804L960.019 45.9104V41.9004Z" fill="var(--color)"/>
			<path d="M960 41.9003L1920 4.82031L1920 0.820312L960 37.9003V41.9003Z" fill="var(--color)"/>
		</svg>
	</symbol>
	<symbol id="faq-5">
		<svg viewBox="0 0 1680 59" preserveAspectRatio="none" xmlns="http://www.w3.org/2000/svg">
			<path d="M0 58.938V54.9327L839.99 25.6798V29.6898L0 58.938Z" fill="var(--color)"/>
			<path d="M1680 0.441406V4.43661L839.992 33.6895V29.6895L1680 0.441406Z" fill="var(--color)"/>
		</svg>
	</symbol>
	<symbol id="faq-5m">
		<svg viewBox="0 0 768 28" preserveAspectRatio="none" xmlns="http://www.w3.org/2000/svg">
			<path d="M0 27.0598V23.0519L383.99 9.67938V13.6894L0 27.0598Z" fill="var(--color)"/>
			<path d="M768 0.318359V4.31616L383.992 17.6891V13.6891L768 0.318359Z" fill="var(--color)"/>
		</svg>
	</symbol>
	<symbol id="6">
		<svg viewBox="0 0 1920 24" preserveAspectRatio="none" xmlns="http://www.w3.org/2000/svg">
			<path d="M960 11.9004L0 19.4304L0.0632536 23.4304L960 15.9004V11.9004Z" fill="var(--color)"/>
			<path d="M960 11.8999L1920 4.37988L1920 0L960 7.89987V11.8999Z" fill="var(--color)"/>
		</svg>
	</symbol>
	<symbol id="faq-6">
		<svg viewBox="0 0 1680 9" preserveAspectRatio="none" xmlns="http://www.w3.org/2000/svg">
			<path d="M0 4.85938V0.859375H839.991V4.85938H0Z" fill="var(--color)"/>
			<path d="M1680 4.85938V8.85938H839.992V4.85938H1680Z" fill="var(--color)"/>
		</svg>
	</symbol>
	<symbol id="faq-6m">
		<svg viewBox="0 0 768 9" preserveAspectRatio="none" xmlns="http://www.w3.org/2000/svg">
			<path d="M0 4.85938V0.859375H383.991V4.85938H0Z" fill="var(--color)"/>
			<path d="M768 4.85938V8.85938H383.992V4.85938H768Z" fill="var(--color)"/>
		</svg>
	</symbol>
</svg>
