<?xml version="1.0" encoding="UTF-8"?>
<svg id="Layer_2" data-name="Layer 2" xmlns="http://www.w3.org/2000/svg" viewBox="0 0 727.77 732.36">
  <defs>
    <style>
      .cls-1 {
        fill: #47dddf;
      }

      .cls-1, .cls-2, .cls-3, .cls-4, .cls-5, .cls-6, .cls-7, .cls-8, .cls-9, .cls-10, .cls-11, .cls-12, .cls-13, .cls-14 {
        stroke: #0d052c;
        stroke-linecap: round;
        stroke-linejoin: round;
        stroke-width: 1.5px;
      }

      .cls-2 {
        fill: #1d1e5f;
      }

      .cls-3 {
        fill: #87d4ff;
      }

      .cls-4 {
        fill: #53f2d4;
      }

      .cls-5 {
        fill: #62a3ff;
      }

      .cls-6 {
        fill: #9af3ff;
      }

      .cls-7 {
        fill: #9e59ff;
      }

      .cls-8 {
        fill: #ff5986;
      }

      .cls-9 {
        fill: #ff81af;
      }

      .cls-10 {
        fill: #ffe483;
      }

      .cls-11 {
        fill: #ffe2bf;
      }

      .cls-12 {
        fill: #fff;
      }

      .cls-13 {
        fill: #fffeaa;
      }

      .cls-14 {
        fill: none;
      }
    </style>
  </defs>
  <g id="All_elements" data-name="All elements">
    <g>
      <g>
        <path class="cls-11" d="M727.02,110.78v28.85H.75v-28.67c0-5.75,4.68-10.41,10.45-10.41h705.53c5.68,0,10.28,4.58,10.28,10.24Z"/>
        <g>
          <ellipse class="cls-8" cx="43.83" cy="120.16" rx="5.43" ry="5.41"/>
          <ellipse class="cls-10" cx="67.93" cy="120.03" rx="5.43" ry="5.41"/>
          <ellipse class="cls-4" cx="92.01" cy="120.16" rx="5.43" ry="5.41"/>
        </g>
        <rect class="cls-14" x="162.84" y="114.72" width="142.1" height="10.7" rx="5.02" ry="5.02"/>
        <line class="cls-14" x1="678.6" y1="140.01" x2="678.6" y2="100.53"/>
        <g>
          <line class="cls-14" x1="695.44" y1="112.43" x2="711.95" y2="127.73"/>
          <line class="cls-14" x1="711.95" y1="112.43" x2="695.44" y2="127.73"/>
        </g>
        <g id="main_screen-2" data-name="main screen-2">
          <path class="cls-12" d="M727.02,139.62v518.2c0,7.02-5.72,12.71-12.76,12.71H13.52c-7.05,0-12.77-5.69-12.77-12.71V139.62h726.27Z"/>
        </g>
      </g>
      <g id="_--_Generator:_Adobe_Illustrator_23.0.3_SVG_Export_Plug-In_--_" data-name=" -- Generator: Adobe Illustrator 23.0.3 SVG Export Plug-In -- ">
        <rect class="cls-14" x="108.9" y="219.13" width="509.97" height="372.79"/>
        <rect class="cls-14" x="208.56" y="292.67" width="308.76" height="225.71"/>
        <polyline class="cls-14" points=".75 139.62 362.94 405.35 727.01 139.62"/>
        <polyline class="cls-14" points="5.91 668.02 362.94 405.35 722.45 667.56"/>
        <polyline class="cls-14" points="449.83 140.01 362.94 405.35 277.91 140.01"/>
        <polyline class="cls-14" points="449.83 670.53 362.94 405.35 277.29 670.53"/>
        <polyline class="cls-14" points=".75 333.8 362.94 405.35 .75 448.02"/>
        <polyline class="cls-14" points=".75 230.8 362.94 405.35 .75 553.36"/>
        <polyline class="cls-14" points="727.01 332.24 362.94 405.35 727.02 447.06"/>
        <polyline class="cls-14" points="727.01 228.71 362.94 405.35 725.13 552.18"/>
        <polyline class="cls-14" points="144.87 139.62 362.94 405.35 599.86 140.01"/>
        <polyline class="cls-14" points="143.1 670.53 362.94 405.35 602.15 670.53"/>
      </g>
      <g>
        <path class="cls-14" d="M352.28,177.11c6.42,6.79,19.33,20.56,19.33,20.56"/>
        <path class="cls-14" d="M364.76,179.17c2.34,2.44,6.16,6.49,8.83,9.32"/>
        <path class="cls-14" d="M354,189.31c.83.83,2.57,2.61,6.39,6.65"/>
      </g>
    </g>
    <g>
      <polygon id="light_green_part" data-name="light green part" class="cls-4" points="714.08 398.05 556.23 565.53 516.04 565.53 516.04 398.05 714.08 398.05"/>
      <polygon id="light_blue_part" data-name="light blue part" class="cls-6" points="714.08 398.05 714.08 596.09 556.23 596.09 556.23 565.53 714.08 398.05"/>
      <rect class="cls-2" x="516.04" y="565.53" width="40.19" height="30.56"/>
      <polygon class="cls-5" points="556.23 596.09 556.23 676.9 444.86 676.9 516.04 596.09 556.23 596.09"/>
      <polygon class="cls-7" points="516.04 565.53 516.04 596.09 444.86 676.9 444.86 565.53 516.04 565.53"/>
      <polygon id="green_part" data-name="green part" class="cls-1" points="516.04 398.05 516.04 565.53 444.86 565.53 516.04 398.05"/>
      <polygon id="light_blue_part-2" data-name="light blue part-2" class="cls-3" points="714.08 596.09 556.23 676.9 556.23 596.09 714.08 596.09"/>
    </g>
    <g>
      <polygon id="half_of_triangle" data-name="half of triangle" class="cls-5" points="541.07 340.8 387.48 237.06 541.07 .75 541.07 340.8"/>
      <polyline id="half_of_triangle-2" data-name="half of triangle-2" class="cls-9" points="541.07 25.2 541.07 340.8 694.66 237.06 552.48 18.3"/>
      <g>
        <polyline class="cls-9" points="552.48 18.3 541.07 .75 541.07 25.2"/>
        <line class="cls-14" x1="541.07" y1="303.51" x2="677.81" y2="211.14"/>
        <line class="cls-14" x1="541.07" y1="269.16" x2="662.3" y2="187.27"/>
        <line class="cls-14" x1="628.13" y1="175.9" x2="646.74" y2="163.33"/>
        <line class="cls-14" x1="541.07" y1="234.71" x2="617.86" y2="182.84"/>
        <line class="cls-14" x1="541.07" y1="199.31" x2="630.75" y2="138.73"/>
        <line class="cls-14" x1="541.07" y1="164.86" x2="614.65" y2="115.15"/>
        <line class="cls-14" x1="541.35" y1="129.47" x2="599.29" y2="90.33"/>
        <line class="cls-14" x1="541.07" y1="95.21" x2="583.73" y2="66.39"/>
        <line class="cls-14" x1="541.06" y1="60.47" x2="568.04" y2="42.25"/>
        <line class="cls-14" x1="541.3" y1="25.66" x2="552.39" y2="18.17"/>
      </g>
    </g>
    <g>
      <g id="lightning-2">
        <path class="cls-10" d="M187.69,264.84l17.19-22.03-110.49.87L188.16,37.6c.5-1.11,1.76-1.67,2.91-1.29l111.26,35.96-79.76,115.07,26.39,1.27,3.5.18,81.57,3.95L65.34,423.81c-.26.24-.66.23-.92,0-.26-.24-.28-.64-.06-.92l123.33-158.04Z"/>
        <path class="cls-2" d="M297.14,122.22l-44.76,66.55-3.5-.18-26.39-1.27,79.77-115.08-4.75,49c-.04.35-.16.69-.36.98h0Z"/>
        <path class="cls-2" d="M333.96,192.71l.72,43.76c.04,1.6-.74,3.11-2.06,4.02L65.88,424.27c-.17.13-.41.1-.53-.07s-.1-.41.07-.53l268.55-230.96Z"/>
        <path class="cls-2" d="M204.8,242.8l-19.45,24.92-86.06-.5c-.59,0-1.09-.42-1.18-1l-3.79-22.54,110.48-.88Z"/>
      </g>
      <g>
        <g>
          <line class="cls-14" x1="199.33" y1="68.15" x2="213.24" y2="101.26"/>
          <line class="cls-14" x1="212.66" y1="73.35" x2="220.5" y2="92.01"/>
          <line class="cls-14" x1="193.83" y1="81.54" x2="201.95" y2="100.9"/>
        </g>
        <g>
          <line class="cls-14" x1="216.86" y1="74.48" x2="191.12" y2="94.05"/>
          <line class="cls-14" x1="207.53" y1="68.67" x2="197.06" y2="76.63"/>
          <line class="cls-14" x1="220.47" y1="84.65" x2="204.03" y2="97.13"/>
        </g>
      </g>
      <g id="stroke_lines-2" data-name="stroke lines-2">
        <g>
          <line class="cls-14" x1="221.67" y1="268.8" x2="227.61" y2="282.94"/>
          <line class="cls-14" x1="235" y1="274.01" x2="235.77" y2="275.82"/>
          <line class="cls-14" x1="215.29" y1="280.12" x2="219.49" y2="290.12"/>
        </g>
        <g id="lines-4">
          <line class="cls-14" x1="231.19" y1="272.12" x2="212.05" y2="286.64"/>
        </g>
      </g>
    </g>
    <g>
      <circle class="cls-12" cx="363.59" cy="401.4" r="125.47"/>
      <circle class="cls-8" cx="363.59" cy="398.86" r="81.72"/>
      <circle class="cls-2" cx="363.89" cy="401.4" r="36.44"/>
      <path class="cls-14" d="M394.8,298.61c9.76,3.04,19.01,7.49,27.48,13.21M347.79,328.39l9.19,36.57M348.2,474.4l9.19-36.57M322.44,339.79l20.24,31.82M301.86,360.66l30.7,21.89M291.49,389.12l36.62,5.37M292.57,417.67l35.54-9.21M302.99,444.12l29.57-23.4M323.64,463.19l20.09-31.91M379.94,328.39l-9.19,36.57M379.31,473.52l-8.97-35.69M405.29,339.79l-20.24,31.82M425.87,360.66l-30.7,21.89M436.24,389.12l-35.91,5.27M435.16,417.67l-35.52-9.21M424.74,444.12l-29.57-23.4M404.57,463.95l-20.57-32.67"/>
      <circle class="cls-12" cx="388.78" cy="382.92" r="18.03"/>
    </g>
    <g>
      <path id="yellow_circle" data-name="yellow circle" class="cls-13" d="M315.3,502.16l-2.51-2.48c-5.08-4.9-10.54-9.4-16.32-13.44-2.24-1.56-4.52-3.06-6.85-4.48-53.25-32.57-121.89-24.35-165.94,19.89-44.04,44.23-51.97,112.91-19.17,166.02,1.48,2.4,3.03,4.73,4.66,7.02,2.44,3.44,5.04,6.74,7.78,9.93,25.6,29.84,62.96,47.01,102.27,47,54.35,0,103.38-32.63,124.38-82.76,20.99-50.13,9.84-107.96-28.29-146.69ZM219.22,672.68c-30.97.01-58.89-18.63-70.75-47.23-11.86-28.6-5.32-61.54,16.57-83.44,21.89-21.9,54.82-28.46,83.43-16.61s47.26,39.76,47.26,70.73c0,42.27-34.25,76.54-76.52,76.55Z"/>
      <path class="cls-2" d="M312.79,499.67c-5.08-4.9-10.54-9.4-16.32-13.44-2.24-1.56-4.52-3.06-6.85-4.48-53.25-32.57-121.89-24.35-165.94,19.89-44.04,44.23-51.97,112.91-19.17,166.02,1.48,2.4,3.03,4.73,4.66,7.02,2.44,3.44,5.04,6.74,7.78,9.93l-21.44-20.89c-35.75-32.6-51.3-81.85-40.74-129.07,10.56-47.22,45.61-85.15,91.85-99.41,46.23-14.26,96.56-2.65,131.89,30.41l.22.21,5.35,5.28,28.72,28.53Z"/>
      <path class="cls-9" d="M295.74,596.13c-.05,36.37-25.68,67.69-61.33,74.92-35.65,7.23-71.46-11.62-85.68-45.1,28.67,10.65,60.94,2.83,81.55-19.77,20.61-22.6,25.45-55.44,12.22-83.02,31.73,10.15,53.25,39.65,53.24,72.96h0Z"/>
      <path id="circle_line" data-name="circle line" class="cls-14" d="M279.9,509.87c-1.75-1.22-3.55-2.4-5.39-3.52-41.86-25.55-95.78-19.06-130.38,15.7-34.6,34.76-40.84,88.71-15.1,130.45,1.16,1.88,2.38,3.72,3.66,5.52,1.92,2.69,3.95,5.28,6.11,7.8,25.24,29.35,64.48,42.61,102.36,34.58,37.87-8.03,68.36-36.07,79.52-73.14,11.16-37.07,1.22-77.28-25.93-104.88l-1.97-1.95"/>
      <g>
        <line class="cls-14" x1="196.86" y1="627.42" x2="234.51" y2="671.01"/>
        <line class="cls-14" x1="220.19" y1="615.46" x2="259.64" y2="661.15"/>
        <line class="cls-14" x1="237.74" y1="596.62" x2="278.8" y2="644.17"/>
        <line class="cls-14" x1="248.38" y1="570.23" x2="291.43" y2="620.09"/>
        <line class="cls-14" x1="247.84" y1="537.48" x2="295.76" y2="592.96"/>
        <line class="cls-14" x1="168.18" y1="630.38" x2="203.25" y2="671.01"/>
      </g>
    </g>
  </g>
</svg>