<svg width="183" height="183" viewBox="0 0 183 183" fill="none" xmlns="http://www.w3.org/2000/svg">
<g clip-path="url(#clip0_908_16927)">
<path d="M97.1179 113.817C102.993 113.817 108.868 111.34 113.059 108.035L115.573 105.558L129 118.779L125.647 121.256C118.096 127.866 108.03 132 97.1179 132C73.6174 132 56 114.645 56 91.5C56 68.3548 73.6174 51 97.1179 51C108.03 51 118.096 55.1336 125.647 61.7442L129 64.2212L115.573 76.6221L113.059 74.1452C108.86 70.0115 102.993 68.3629 97.1179 68.3629C83.6913 68.3629 74.4636 77.4585 74.4636 90.6797C74.4636 103.901 83.6913 113.825 97.1179 113.825V113.817Z" fill="white"/>
<path d="M109.697 91.4995C109.697 98.8018 103.685 104.721 96.2703 104.721C88.8559 104.721 82.8438 98.8018 82.8438 91.4995C82.8438 84.1973 88.8559 78.2783 96.2703 78.2783C103.685 78.2783 109.697 84.1973 109.697 91.4995Z" fill="white"/>
</g>
<defs>
<clipPath id="clip0_908_16927">
<rect width="73" height="81" fill="white" transform="translate(56 51)"/>
</clipPath>
</defs>
</svg>
