<svg width="40" height="40" viewBox="0 0 40 40" fill="none" xmlns="http://www.w3.org/2000/svg">
<path fill-rule="evenodd" clip-rule="evenodd" d="M4 20C4.00029 16.9209 4.88903 13.9073 6.55958 11.3208C8.23013 8.73424 10.6115 6.68469 13.418 5.41803C16.2245 4.15137 19.3369 3.72141 22.3817 4.17975C25.4265 4.63808 28.2743 5.96525 30.5836 8.00199C32.8928 10.0387 34.5653 12.6985 35.4003 15.6622C36.2354 18.6259 36.1976 21.7676 35.2914 24.7103C34.3852 27.6531 32.6492 30.2718 30.2915 32.2524C27.9339 34.2329 25.0549 35.4911 22 35.876V24H26C26.5304 24 27.0391 23.7893 27.4142 23.4142C27.7893 23.0391 28 22.5304 28 22C28 21.4696 27.7893 20.9609 27.4142 20.5858C27.0391 20.2107 26.5304 20 26 20H22V16C22 15.4696 22.2107 14.9609 22.5858 14.5858C22.9609 14.2107 23.4696 14 24 14H25C25.5304 14 26.0391 13.7893 26.4142 13.4142C26.7893 13.0391 27 12.5304 27 12C27 11.4696 26.7893 10.9609 26.4142 10.5858C26.0391 10.2107 25.5304 10 25 10H24C22.4087 10 20.8826 10.6321 19.7574 11.7574C18.6321 12.8826 18 14.4087 18 16V20H14C13.4696 20 12.9609 20.2107 12.5858 20.5858C12.2107 20.9609 12 21.4696 12 22C12 22.5304 12.2107 23.0391 12.5858 23.4142C12.9609 23.7893 13.4696 24 14 24H18V35.876C14.1334 35.3884 10.5776 33.5065 8.00001 30.5835C5.42237 27.6605 4.00007 23.8972 4 20ZM20 40C31.046 40 40 31.046 40 20C40 8.954 31.046 0 20 0C8.954 0 0 8.954 0 20C0 31.046 8.954 40 20 40Z" fill="black"/>
</svg>
